<?xml version="1.0" encoding="UTF-8"?>
<svg xmlns="http://www.w3.org/2000/svg" version="1.1" xmlns:xlink="http://www.w3.org/1999/xlink" viewBox="0 0 1830 589">
  <!-- Generator: Adobe Illustrator 29.3.0, SVG Export Plug-In . SVG Version: 2.1.0 Build 146)  -->
  <defs>
    <style>
      .st0 {
        fill: url(#linear-gradient2);
      }

      .st1 {
        fill: url(#linear-gradient10);
      }

      .st2 {
        fill: url(#linear-gradient1);
      }

      .st3 {
        fill: url(#linear-gradient9);
      }

      .st4 {
        fill: url(#linear-gradient8);
      }

      .st5 {
        fill: url(#linear-gradient11);
      }

      .st6 {
        isolation: isolate;
      }

      .st7 {
        fill: url(#linear-gradient12);
      }

      .st8 {
        fill: url(#linear-gradient7);
      }

      .st9 {
        fill: url(#linear-gradient4);
      }

      .st10 {
        fill: url(#linear-gradient14);
      }

      .st11 {
        fill: url(#linear-gradient5);
      }

      .st12 {
        fill: url(#linear-gradient3);
      }

      .st13 {
        mix-blend-mode: overlay;
      }

      .st14 {
        fill: url(#linear-gradient15);
      }

      .st15 {
        fill: url(#linear-gradient6);
      }

      .st16 {
        fill: url(#linear-gradient13);
      }

      .st17 {
        fill: url(#linear-gradient);
      }
    </style>
    <linearGradient id="linear-gradient" x1="304.1" y1="157" x2="304.1" y2="476.9" gradientUnits="userSpaceOnUse">
      <stop offset=".7" stop-color="#e6e7e8"/>
      <stop offset="1" stop-color="#d0d2d3"/>
    </linearGradient>
    <linearGradient id="linear-gradient1" x1="584.9" y1="157" x2="584.9" y2="476.9" xlink:href="#linear-gradient"/>
    <linearGradient id="linear-gradient2" x1="788.2" y1="157" x2="788.2" y2="476.9" xlink:href="#linear-gradient"/>
    <linearGradient id="linear-gradient3" x1="906.4" y1="157" x2="906.4" y2="476.9" xlink:href="#linear-gradient"/>
    <linearGradient id="linear-gradient4" x1="1097.7" y1="157" x2="1097.7" y2="476.9" xlink:href="#linear-gradient"/>
    <linearGradient id="linear-gradient5" x1="1381.1" y1="157" x2="1381.1" y2="476.9" xlink:href="#linear-gradient"/>
    <linearGradient id="linear-gradient6" x1="1597.9" y1="157" x2="1597.9" y2="476.9" xlink:href="#linear-gradient"/>
    <linearGradient id="linear-gradient7" x1="388.6" y1="346.5" x2="388.6" y2="168.4" gradientUnits="userSpaceOnUse">
      <stop offset="0" stop-color="#aaa"/>
      <stop offset="1" stop-color="#000"/>
    </linearGradient>
    <linearGradient id="linear-gradient8" x1="218.3" y1="346.5" x2="218.3" y2="168.4" xlink:href="#linear-gradient7"/>
    <linearGradient id="linear-gradient9" x1="585.1" y1="346.5" x2="585.1" y2="168.4" xlink:href="#linear-gradient7"/>
    <linearGradient id="linear-gradient10" x1="788.2" y1="346.5" x2="788.2" y2="168.4" xlink:href="#linear-gradient7"/>
    <linearGradient id="linear-gradient11" x1="906.4" y1="346.5" x2="906.4" y2="168.4" xlink:href="#linear-gradient7"/>
    <linearGradient id="linear-gradient12" x1="906.2" y1="346.5" x2="906.2" y2="168.4" xlink:href="#linear-gradient7"/>
    <linearGradient id="linear-gradient13" x1="1097.7" y1="346.5" x2="1097.7" y2="168.4" xlink:href="#linear-gradient7"/>
    <linearGradient id="linear-gradient14" x1="1381.1" y1="346.5" x2="1381.1" y2="168.4" xlink:href="#linear-gradient7"/>
    <linearGradient id="linear-gradient15" x1="1597.7" y1="346.5" x2="1597.7" y2="168.4" xlink:href="#linear-gradient7"/>
  </defs>
  <g class="st6">
    <g id="Layer_1">
      <g>
        <g>
          <path class="st17" d="M233.5,176.6l70.6,217.2,70.6-217.2h74.7l-100.4,288.7h-90.2l-100-288.7h74.7Z"/>
          <path class="st2" d="M607.9,246.4c12.5,7.9,21.8,18.6,27.8,32.3v-41.2h69.4v227.8h-69.4v-41.2c-6,13.6-15.2,24.4-27.8,32.3-12.5,7.9-27.5,11.8-44.9,11.8s-35.6-4.7-50.4-14.1c-14.8-9.4-26.5-22.9-35.1-40.6-8.6-17.7-12.9-38.4-12.9-62.1s4.3-44.7,12.9-62.3c8.6-17.6,20.3-31,35.1-40.4,14.8-9.4,31.6-14.1,50.4-14.1s32.4,3.9,44.9,11.8ZM549.3,310.5c-9.1,9.8-13.7,23.4-13.7,40.8s4.6,31,13.7,40.8c9.1,9.8,21.2,14.7,36.1,14.7s26.7-5,36.1-15.1c9.4-10.1,14.1-23.5,14.1-40.4s-4.7-30.7-14.1-40.6c-9.4-9.9-21.4-14.9-36.1-14.9s-27,4.9-36.1,14.7Z"/>
          <path class="st0" d="M823.1,163.1v302.2h-69.8V163.1h69.8Z"/>
          <path class="st12" d="M876.2,147c7.6-6.9,17.7-10.4,30.2-10.4s22.6,3.5,30.2,10.4c7.6,6.9,11.4,15.7,11.4,26.3s-3.8,19-11.4,25.9c-7.6,6.9-17.7,10.4-30.2,10.4s-22.6-3.5-30.2-10.4c-7.6-6.9-11.4-15.6-11.4-25.9s3.8-19.4,11.4-26.3ZM941.1,237.4v227.8h-69.8v-227.8h69.8Z"/>
          <path class="st9" d="M1120.8,246.4c12.5,7.9,21.8,18.6,27.8,32.3v-41.2h69.4v227.8h-69.4v-41.2c-6,13.6-15.2,24.4-27.8,32.3-12.5,7.9-27.5,11.8-44.9,11.8s-35.6-4.7-50.4-14.1c-14.8-9.4-26.5-22.9-35.1-40.6-8.6-17.7-12.9-38.4-12.9-62.1s4.3-44.7,12.9-62.3c8.6-17.6,20.3-31,35.1-40.4,14.8-9.4,31.6-14.1,50.4-14.1s32.4,3.9,44.9,11.8ZM1062.2,310.5c-9.1,9.8-13.7,23.4-13.7,40.8s4.6,31,13.7,40.8c9.1,9.8,21.2,14.7,36.1,14.7s26.7-5,36.1-15.1c9.4-10.1,14.1-23.5,14.1-40.4s-4.7-30.7-14.1-40.6c-9.4-9.9-21.4-14.9-36.1-14.9s-27,4.9-36.1,14.7Z"/>
          <path class="st11" d="M1473,261.1c15.4,17.4,23.1,41.4,23.1,71.9v132.3h-69.8v-124.1c0-15.2-4-27.2-12-35.7-8-8.6-18.7-12.9-32.1-12.9s-25.4,4.5-33.7,13.5c-8.3,9-12.5,21.8-12.5,38.4v120.9h-69.8v-227.8h69.8v41.6c6.5-13.6,16.3-24.4,29.2-32.3,12.9-7.9,28.1-11.8,45.5-11.8,26.1,0,46.9,8.7,62.3,26.1Z"/>
          <path class="st15" d="M1671.2,405.2v60h-31.4c-26.7,0-47.4-6.6-62.3-19.8-14.8-13.2-22.3-35-22.3-65.5v-83.7h-30.6v-58.8h30.6v-55.9h69.8v55.9h45.7v58.8h-45.7v84.9c0,9,1.8,15.2,5.5,18.8,3.7,3.5,9.9,5.3,18.6,5.3h22Z"/>
        </g>
        <g class="st13">
          <path class="st8" d="M327.7,321.3c21.5,3.5,44.1,6.8,67.9,10l53.9-154.8h-74.7l-47.1,144.8Z"/>
          <path class="st4" d="M158.8,176.6l41.8,120.7c23.5,5.2,49.2,10.4,77.2,15.5l-44.3-136.2h-74.7Z"/>
          <path class="st3" d="M635.7,278.6c-6-13.6-15.2-24.4-27.8-32.3-12.5-7.9-27.5-11.8-44.9-11.8s-35.6,4.7-50.4,14.1c-14.8,9.4-26.5,22.9-35.1,40.4-7.2,14.7-11.3,31.7-12.5,50.9,22.7,2.6,46.2,5,70.8,7.3.7-15.5,5.1-27.8,13.5-36.8,9.1-9.8,21.2-14.7,36.1-14.7s26.7,5,36.1,14.9c9.4,9.9,14.1,23.5,14.1,40.6s0,2.7-.1,4.1c22.5,1.6,45.7,3,69.6,4.3v-122.3h-69.4v41.2Z"/>
          <path class="st1" d="M753.3,362c22.7,1,45.9,1.9,69.8,2.6v-201.6h-69.8v199Z"/>
          <path class="st5" d="M906.4,136.5c-12.5,0-22.6,3.5-30.2,10.4-7.6,6.9-11.4,15.7-11.4,26.3s3.8,19,11.4,25.9c7.6,6.9,17.7,10.4,30.2,10.4s22.6-3.5,30.2-10.4c7.6-6.9,11.4-15.6,11.4-25.9s-3.8-19.4-11.4-26.3c-7.6-6.9-17.7-10.4-30.2-10.4Z"/>
          <path class="st7" d="M871.3,366c22.7.5,46,.9,69.8,1.2v-129.8h-69.8v128.6Z"/>
          <path class="st16" d="M1148.6,278.6c-6-13.6-15.2-24.4-27.8-32.3-12.5-7.9-27.5-11.8-44.9-11.8s-35.6,4.7-50.4,14.1c-14.8,9.4-26.5,22.9-35.1,40.4-8.6,17.6-12.9,38.3-12.9,62.3s.3,10.9.7,16.2c23.5.1,47.4.1,71.9,0-1-5-1.6-10.4-1.6-16.2,0-17.4,4.6-31,13.7-40.8,9.1-9.8,21.2-14.7,36.1-14.7s26.7,5,36.1,14.9c9.4,9.9,14.1,23.5,14.1,40.6s-.5,10.4-1.5,15.1c23.2-.4,46.9-1,70.9-1.6v-127.4h-69.4v41.2Z"/>
          <path class="st10" d="M1410.7,235c-17.4,0-32.6,3.9-45.5,11.8-12.9,7.9-22.7,18.6-29.2,32.3v-41.6h-69.8v126c22.9-.8,46.2-1.6,69.8-2.6v-16.4c0-16.6,4.1-29.4,12.5-38.4,8.3-9,19.5-13.5,33.7-13.5s24,4.3,32.1,12.9c8,8.6,12,20.5,12,35.7v15.5c22.9-1.2,46.2-2.4,69.8-3.8v-19.9c0-30.5-7.7-54.4-23.1-71.9-15.4-17.4-36.1-26.1-62.3-26.1Z"/>
          <path class="st14" d="M1625.1,237.4v-55.9h-69.8v55.9h-30.6v58.8h30.6v53c23-1.5,46.2-3,69.8-4.7v-48.3h45.7v-58.8h-45.7Z"/>
        </g>
      </g>
    </g>
  </g>
</svg>