<?xml version="1.0" encoding="UTF-8"?>
<svg id="Layer_1" xmlns="http://www.w3.org/2000/svg" version="1.1" xmlns:xlink="http://www.w3.org/1999/xlink" viewBox="0 0 1830 589">
  <!-- Generator: Adobe Illustrator 29.3.0, SVG Export Plug-In . SVG Version: 2.1.0 Build 146)  -->
  <defs>
    <style>
      .st0 {
        fill: url(#linear-gradient2);
      }

      .st1 {
        fill: url(#linear-gradient1);
      }

      .st2 {
        fill: url(#linear-gradient8);
      }

      .st3 {
        fill: url(#linear-gradient7);
      }

      .st4 {
        fill: url(#linear-gradient4);
      }

      .st5 {
        fill: #44c7f4;
      }

      .st6 {
        fill: url(#linear-gradient5);
      }

      .st7 {
        fill: url(#linear-gradient3);
      }

      .st8 {
        fill: url(#linear-gradient6);
      }

      .st9 {
        fill: url(#linear-gradient);
      }
    </style>
    <linearGradient id="linear-gradient" x1="298.1" y1="248.1" x2="298.1" y2="110.8" gradientTransform="translate(0 590) scale(1 -1)" gradientUnits="userSpaceOnUse">
      <stop offset=".6" stop-color="#008fe9"/>
      <stop offset="1" stop-color="#33baf2"/>
      <stop offset="1" stop-color="#07c1e2"/>
    </linearGradient>
    <linearGradient id="linear-gradient1" x1="584.9" y1="248.1" x2="584.9" y2="110.8" xlink:href="#linear-gradient"/>
    <linearGradient id="linear-gradient2" x1="788.2" y1="248.1" x2="788.2" y2="110.8" xlink:href="#linear-gradient"/>
    <linearGradient id="linear-gradient3" x1="906.1" y1="248.1" x2="906.1" y2="110.8" xlink:href="#linear-gradient"/>
    <linearGradient id="linear-gradient4" x1="1098.1" x2="1098.1" y2="110.8" xlink:href="#linear-gradient"/>
    <linearGradient id="linear-gradient5" x1="1381" y1="248.1" x2="1381" y2="110.8" xlink:href="#linear-gradient"/>
    <linearGradient id="linear-gradient6" x1="1613.2" x2="1613.2" y2="110.8" xlink:href="#linear-gradient"/>
    <linearGradient id="linear-gradient7" x1="536" y1="242.8" x2="536" y2="248.7" gradientTransform="translate(0 590) scale(1 -1)" gradientUnits="userSpaceOnUse">
      <stop offset="0" stop-color="#aaa"/>
      <stop offset="1" stop-color="#000"/>
    </linearGradient>
    <linearGradient id="linear-gradient8" x1="635.5" y1="234.6" x2="635.5" y2="238.9" xlink:href="#linear-gradient7"/>
  </defs>
  <g>
    <path class="st9" d="M327.7,321.3l-23.6,72.4-26.4-81c-28-5.1-53.5-10.3-77.2-15.5l58.1,168h90.4l46.6-133.9c-23.8-3.1-46.5-6.6-67.9-10Z"/>
    <path class="st1" d="M635.6,355.4c-.7,15-5.4,27.2-14.1,36.3-9.4,10-21.4,15.1-36.1,15.1s-27-4.8-36.1-14.7c-9.2-9.8-13.7-23.4-13.7-40.8s0-2.8.1-4c-24.6-2.3-48.1-4.7-70.7-7.4-.3,3.6-.4,7.5-.4,11.4,0,23.7,4.3,44.3,12.9,62,8.6,17.7,20.3,31.2,35.1,40.7,14.9,9.4,31.7,14.1,50.5,14.1s32.4-3.9,45-11.8c12.6-7.9,21.8-18.6,27.8-32.3v41.2h69.3v-105.6c-24.1-1.1-47.1-2.5-69.6-4.1Z"/>
    <path class="st0" d="M753.3,362v103.2h69.9v-100.5c-24-.7-47.3-1.6-69.9-2.7Z"/>
    <path class="st7" d="M871.2,366v99.3h69.7v-98c-23.7-.4-47-.8-69.7-1.3Z"/>
    <path class="st4" d="M1147,366.4c-1.9,10-6.2,18.5-12.6,25.3-9.5,10-21.4,15.1-36.1,15.1s-27-4.8-36.1-14.7c-6-6.4-10.2-14.7-12.2-24.6-24.5.1-48.3.1-71.8,0,1.6,17,5.5,32.4,12,45.9,8.4,17.7,20.3,31.2,35.1,40.7,14.9,9.4,31.7,14.1,50.5,14.1s32.4-3.9,45-11.8c12.6-7.9,21.8-18.6,27.8-32.3v41.2h69.3v-100.4c-24.1.5-47.8,1.1-70.9,1.5Z"/>
    <path class="st6" d="M1266,363.3v101.9h69.9v-104.4c-23.7.9-47,1.9-69.9,2.5ZM1426.1,356.6v108.7h69.9v-112.4c-23.7,1.3-47,2.5-69.9,3.7Z"/>
    <path class="st8" d="M1649.1,405.2c-8.8,0-15-1.7-18.6-5.4-3.6-3.5-5.5-9.8-5.5-18.7v-36.5c-23.6,1.6-46.9,3.2-69.9,4.7v30.7c0,30.5,7.5,52.3,22.4,65.6,14.7,13.1,35.6,19.8,62.2,19.8h31.5v-60.1h-22.1Z"/>
  </g>
  <g>
    <path class="st3" d="M535.8,347.4c.1-1.9.1-3.7.5-5.6-.3,1.7-.4,3.6-.5,5.6h0Z"/>
    <path class="st2" d="M635.6,351.4c0,1.3,0,2.7-.1,4h-.1c.3-1.3.3-2.7.3-4Z"/>
  </g>
  <g>
    <path class="st5" d="M233.5,176.6h-74.7l41.8,120.7c23.6,5.2,49.3,10.4,77.2,15.5l-44.3-136.3ZM374.7,176.6l-47,144.7c21.4,3.5,44,6.8,67.9,10l53.8-154.9h-74.7Z"/>
    <path class="st5" d="M635.6,237.3v41.2c-6-13.7-15.3-24.4-27.8-32.3-12.4-7.8-27.4-11.8-45-11.8s-35.6,4.7-50.5,14.1c-14.7,9.5-26.5,22.9-35.1,40.4-.5,1.1-1.1,2.3-1.6,3.3s-1.1,2.3-1.5,3.3c-.9,2.3-1.9,4.7-2.5,7.1-.5,1.2-.8,2.4-1.2,3.6-.3.8-.5,1.6-.8,2.5-.3,1.2-.7,2.5-.9,3.9-.5,2-.9,4-1.3,6.2,0,.1-.1.3-.1.5-.4,2.1-.8,4.3-1.1,6.4-.4,2.3-.7,4.6-.8,6.8-.3,2.4-.4,4.7-.5,7.1,22.6,2.5,46.1,5.1,70.7,7.4.1-1.9.1-3.7.5-5.6.1-1.6.4-3.3.7-5,.1-.3.1-.7.1-.9.3-1.6.5-3.1,1.1-4.6.4-1.6.8-3.3,1.6-4.8,1.6-4.6,3.9-8.7,6.7-12.3.9-1.2,1.9-2.4,2.9-3.6,9.1-9.9,21.2-14.7,36.1-14.7s26.8,5,36.1,14.9c9.4,9.9,14.1,23.4,14.1,40.7s0,2.7-.1,4c22.5,1.6,45.6,2.9,69.5,4.3v-122.4h-69.2Z"/>
    <path class="st5" d="M753.3,163v198.9c22.8,1.1,45.9,1.9,69.9,2.7v-201.6h-69.9Z"/>
    <path class="st5" d="M936.6,147c-7.6-7-17.7-10.4-30.3-10.4s-22.6,3.5-30.3,10.4c-7.6,7-11.4,15.8-11.4,26.4s3.7,18.9,11.4,25.8c7.6,7,17.7,10.4,30.3,10.4s22.6-3.5,30.3-10.4c7.6-7,11.4-15.5,11.4-25.8s-3.7-19.4-11.4-26.4ZM871.2,237.3v128.5c22.8.5,45.9.9,69.7,1.2v-129.9h-69.7Z"/>
    <path class="st5" d="M1148.5,237.3v41.2c-6-13.7-15.3-24.4-27.8-32.3-12.6-7.8-27.6-11.8-45-11.8s-35.6,4.7-50.5,14.1c-14.7,9.5-26.5,22.9-35.1,40.4-8.6,17.5-13,38.3-13,62.2s.3,11,.8,16.2h.1c23.4.1,47.4.1,71.8,0-.9-5-1.6-10.3-1.6-16.2,0-17.5,4.6-31.1,13.7-40.8,9.1-9.9,21.2-14.7,36.1-14.7s26.6,5,36.1,14.9c9.4,9.9,14.1,23.4,14.1,40.7s-.1,5.2-.4,7.8c-.1,2.5-.5,5.1-1.2,7.4,23.2-.5,46.9-.9,70.9-1.6v-127.4h-69.1Z"/>
    <path class="st5" d="M1472.8,261c-15.4-17.4-36.1-26.1-62.2-26.1s-32.5,4-45.5,11.8c-13,7.9-22.8,18.6-29.2,32.3v-41.6h-69.9v126c22.9-.8,46.2-1.6,69.9-2.5v-16.3c0-16.6,4.1-29.5,12.4-38.4,8.2-9,19.5-13.4,33.6-13.4s24.1,4.3,32.1,12.9c8,8.6,12,20.5,12,35.7v15.4c22.9-1.2,46.2-2.4,69.9-3.7v-19.9c0-30.4-7.8-54.4-23.2-71.9Z"/>
    <path class="st5" d="M1624.9,237.3v-56h-69.9v56h-30.5v58.8h30.7v53c23-1.6,46.3-3.1,69.9-4.7v-48.3h45.8v-58.8h-45.9Z"/>
  </g>
</svg>