<?xml version="1.0" encoding="UTF-8"?>
<svg id="Layer_1" xmlns="http://www.w3.org/2000/svg" version="1.1" viewBox="0 0 20 20">
  <!-- Generator: Adobe Illustrator 29.3.0, SVG Export Plug-In . SVG Version: 2.1.0 Build 146)  -->
  <g>
    <polygon points="17.04 9.85 17.04 8.86 17.88 9.36 18.73 9.85 17.89 10.34 17.04 10.84 17.04 9.85" style="fill: #6dc7be;"/>
    <polygon points="17.04 7.87 17.04 6.88 17.88 7.38 18.73 7.87 17.89 8.36 17.04 8.86 17.04 7.87" style="fill: #b9d433;"/>
    <polygon points="18.03 8.85 18.03 7.86 18.85 8.35 19.7 8.85 18.86 9.34 18.03 9.84 18.03 8.85" style="fill: #ef4f54;"/>
  </g>
  <g style="opacity: .5;">
    <g>
      <path d="M.35,11.35h.34c.13,0,.26.03.26.18,0,.07-.04.12-.1.15.08.02.13.09.13.17,0,.17-.13.23-.28.23h-.35v-.73ZM.54,11.64h.15s.08-.02.08-.07-.04-.07-.08-.07h-.15v.14ZM.54,11.93h.15c.06,0,.1-.02.1-.08,0-.06-.05-.09-.1-.09h-.15v.17Z" style="fill: #020202;"/>
      <path d="M1.16,11.71c0-.07.04-.11.08-.14.05-.03.11-.04.17-.04.13,0,.25.03.25.18v.23s0,.09.02.14h-.17s0-.03-.01-.05c-.05.05-.11.07-.17.07-.1,0-.18-.05-.18-.16,0-.17.19-.16.31-.18.03,0,.05-.02.05-.05,0-.04-.05-.06-.08-.06-.05,0-.08.02-.09.07h-.16ZM1.39,11.99c.08,0,.11-.05.11-.16-.02.02-.07.02-.11.03-.04,0-.07.03-.07.07s.03.06.07.06Z" style="fill: #020202;"/>
      <path d="M1.87,11.55h.17v.07h0c.03-.05.1-.09.17-.09.18,0,.19.13.19.21v.34h-.17v-.26c0-.07,0-.15-.09-.15-.07,0-.09.06-.09.11v.29h-.17v-.53Z" style="fill: #020202;"/>
      <path d="M3.11,12.02c0,.09-.02.25-.26.25-.12,0-.24-.03-.26-.17h.17s.01.04.03.05c.02,0,.04.01.06.01.08,0,.09-.06.09-.12v-.05h0s-.08.08-.14.08c-.16,0-.23-.11-.23-.26,0-.14.08-.26.23-.26.06,0,.11.03.14.08h0v-.07h.17v.47ZM2.85,11.67c-.08,0-.1.07-.1.13s.03.12.1.12.11-.06.11-.12-.03-.13-.1-.13Z" style="fill: #020202;"/>
      <path d="M3.32,11.35h.17v.73h-.17v-.73Z" style="fill: #020202;"/>
      <path d="M3.7,11.71c0-.07.04-.11.08-.14.05-.03.11-.04.17-.04.13,0,.25.03.25.18v.23s0,.09.02.14h-.17s0-.03-.01-.05c-.05.05-.11.07-.17.07-.1,0-.18-.05-.18-.16,0-.17.19-.16.31-.18.03,0,.05-.02.05-.05,0-.04-.05-.06-.08-.06-.05,0-.08.02-.09.07h-.16ZM3.93,11.99c.08,0,.11-.05.11-.16-.02.02-.07.02-.11.03-.04,0-.07.03-.07.07s.03.06.07.06Z" style="fill: #020202;"/>
      <path d="M4.93,12.08h-.17v-.06h0c-.03.05-.08.08-.15.08-.17,0-.24-.14-.24-.29,0-.14.07-.27.22-.27.07,0,.12.02.15.07h0v-.26h.17v.73ZM4.56,11.81c0,.07.03.15.11.15.08,0,.1-.08.1-.15,0-.08-.03-.15-.1-.15-.08,0-.11.07-.11.14Z" style="fill: #020202;"/>
      <path d="M5.29,11.86c0,.07.05.12.12.12.04,0,.08-.02.1-.06h.16c-.03.12-.15.18-.26.18-.17,0-.29-.1-.29-.28,0-.16.13-.28.29-.28.19,0,.29.14.28.32h-.39ZM5.51,11.76c0-.06-.05-.11-.1-.11-.06,0-.1.04-.11.11h.22Z" style="fill: #020202;"/>
      <path d="M5.99,11.91s.01.05.03.06c.02.01.04.02.06.02.03,0,.08-.01.08-.06s-.05-.05-.08-.06c-.11-.03-.25-.03-.25-.17,0-.13.14-.16.24-.16.12,0,.24.03.24.17h-.16s0-.04-.02-.05c-.01,0-.03-.01-.06-.01-.03,0-.07,0-.07.04,0,.05.12.06.2.08.11.02.14.1.14.14,0,.14-.14.19-.25.19-.13,0-.25-.04-.26-.19h.17Z" style="fill: #020202;"/>
      <path d="M6.52,11.35h.17v.27h0c.03-.05.1-.09.16-.09.18,0,.19.13.19.21v.34h-.17v-.26c0-.07,0-.15-.09-.15-.07,0-.09.06-.09.11v.29h-.17v-.73Z" style="fill: #020202;"/>
      <path d="M7.87,11.35h.19l.27.73h-.2l-.05-.13h-.25l-.05.13h-.2l.27-.73ZM7.88,11.81h.17l-.08-.26h0l-.08.26Z" style="fill: #020202;"/>
      <path d="M8.61,11.91s.01.05.03.06c.02.01.04.02.06.02.03,0,.08-.01.08-.06s-.05-.05-.08-.06c-.11-.03-.25-.03-.25-.17,0-.13.14-.16.24-.16.12,0,.24.03.24.17h-.16s0-.04-.02-.05c-.01,0-.03-.01-.06-.01-.03,0-.07,0-.07.04,0,.05.12.06.2.08.11.02.14.1.14.14,0,.14-.14.19-.25.19-.13,0-.25-.04-.26-.19h.17Z" style="fill: #020202;"/>
      <path d="M9.27,11.91s.01.05.03.06c.02.01.04.02.06.02.03,0,.08-.01.08-.06s-.05-.05-.08-.06c-.11-.03-.25-.03-.25-.17,0-.13.14-.16.24-.16.12,0,.24.03.24.17h-.16s0-.04-.02-.05c-.01,0-.03-.01-.06-.01-.03,0-.07,0-.07.04,0,.05.12.06.2.08.11.02.14.1.14.14,0,.14-.14.19-.25.19-.13,0-.25-.04-.26-.19h.17Z" style="fill: #020202;"/>
      <path d="M10.05,11.53c.16,0,.28.12.28.28s-.12.28-.28.28-.28-.12-.28-.28.11-.28.28-.28ZM10.05,11.96c.08,0,.11-.08.11-.15s-.03-.15-.11-.15-.11.08-.11.15.02.15.11.15Z" style="fill: #020202;"/>
      <path d="M10.86,11.74s-.04-.08-.08-.08c-.1,0-.11.08-.11.16,0,.07.03.14.1.14.06,0,.09-.03.1-.09h.17c-.02.14-.13.22-.27.22-.16,0-.28-.11-.28-.27s.11-.29.28-.29c.13,0,.25.07.26.21h-.17Z" style="fill: #020202;"/>
      <path d="M11.39,11.48h-.17v-.13h.17v.13ZM11.21,11.55h.17v.53h-.17v-.53Z" style="fill: #020202;"/>
      <path d="M11.59,11.71c0-.07.04-.11.08-.14.05-.03.11-.04.17-.04.13,0,.25.03.25.18v.23s0,.09.02.14h-.17s0-.03-.01-.05c-.05.05-.11.07-.18.07-.1,0-.18-.05-.18-.16,0-.17.19-.16.31-.18.03,0,.05-.02.05-.05,0-.04-.05-.06-.08-.06-.05,0-.08.02-.09.07h-.16ZM11.82,11.99c.08,0,.11-.05.11-.16-.02.02-.07.02-.11.03-.04,0-.07.03-.07.07s.03.06.07.06Z" style="fill: #020202;"/>
      <path d="M12.62,11.66h-.11v.24s.02.05.06.05c.01,0,.03,0,.05,0v.13s-.06,0-.1,0c-.15,0-.19-.04-.19-.19v-.24h-.09v-.11h.09v-.16h.17v.16h.11v.11Z" style="fill: #020202;"/>
      <path d="M12.97,11.48h-.17v-.13h.17v.13ZM12.79,11.55h.17v.53h-.17v-.53Z" style="fill: #020202;"/>
      <path d="M13.44,11.53c.16,0,.28.12.28.28s-.12.28-.28.28-.28-.12-.28-.28.11-.28.28-.28ZM13.44,11.96c.08,0,.11-.08.11-.15s-.03-.15-.11-.15-.11.08-.11.15.02.15.11.15Z" style="fill: #020202;"/>
      <path d="M13.9,11.55h.17v.07h0c.03-.05.1-.09.17-.09.18,0,.19.13.19.21v.34h-.17v-.26c0-.07,0-.15-.09-.15-.07,0-.09.06-.09.11v.29h-.17v-.53Z" style="fill: #020202;"/>
      <path d="M15.3,11.53c.16,0,.28.12.28.28s-.12.28-.28.28-.28-.12-.28-.28.11-.28.28-.28ZM15.3,11.96c.08,0,.11-.08.11-.15s-.03-.15-.11-.15-.11.08-.11.15.02.15.11.15Z" style="fill: #020202;"/>
      <path d="M15.8,11.66h-.08v-.11h.08c0-.15.05-.2.2-.2.03,0,.06,0,.08,0v.12s-.03,0-.05,0c-.04,0-.06,0-.06.05v.02h.1v.11h-.1v.42h-.17v-.42Z" style="fill: #020202;"/>
    </g>
  </g>
  <g style="opacity: .5;">
    <g>
      <path d="M.5,12.86c0,.09.06.11.14.11.06,0,.12-.02.12-.07,0-.06-.1-.08-.21-.11-.1-.03-.21-.08-.21-.21,0-.16.16-.22.3-.22.15,0,.29.07.29.24h-.19c0-.07-.06-.09-.12-.09-.04,0-.09.01-.09.06,0,.06.11.07.21.1.11.03.21.08.21.21,0,.19-.16.24-.32.24s-.32-.07-.32-.26h.19Z" style="fill: #020202;"/>
      <path d="M1.25,12.56c.16,0,.28.12.28.28s-.12.28-.28.28-.28-.12-.28-.28.11-.28.28-.28ZM1.25,12.98c.08,0,.11-.08.11-.15s-.03-.15-.11-.15-.11.08-.11.15.02.15.11.15Z" style="fill: #020202;"/>
      <path d="M1.63,12.68h-.08v-.11h.08c0-.15.05-.2.2-.2.03,0,.06,0,.08,0v.12s-.03,0-.05,0c-.04,0-.06,0-.06.05v.02h.1v.11h-.1v.42h-.17v-.42Z" style="fill: #020202;"/>
      <path d="M2.26,12.68h-.11v.24s.02.05.06.05c.01,0,.03,0,.05,0v.13s-.06,0-.1,0c-.15,0-.19-.04-.19-.19v-.24h-.09v-.11h.09v-.16h.17v.16h.11v.11Z" style="fill: #020202;"/>
      <path d="M2.94,13.1h-.18l-.08-.35h0l-.08.35h-.18l-.17-.53h.18l.09.34h0l.08-.34h.17l.08.34h0l.09-.34h.18l-.17.53Z" style="fill: #020202;"/>
      <path d="M3.13,12.74c0-.07.04-.11.08-.14.05-.03.11-.04.17-.04.13,0,.25.03.25.18v.23s0,.09.02.14h-.17s0-.03-.01-.05c-.05.05-.11.07-.17.07-.1,0-.18-.05-.18-.16,0-.17.19-.16.31-.18.03,0,.05-.02.05-.05,0-.04-.05-.06-.08-.06-.05,0-.08.02-.09.07h-.16ZM3.36,13.01c.08,0,.11-.05.11-.16-.02.02-.07.02-.11.03-.04,0-.07.03-.07.07s.03.06.07.06Z" style="fill: #020202;"/>
      <path d="M3.73,12.57h.17v.09h0c.03-.07.08-.1.16-.1.01,0,.03,0,.04,0v.16s-.04-.01-.07-.01c-.09,0-.13.06-.13.13v.26h-.17v-.53Z" style="fill: #020202;"/>
      <path d="M4.26,12.88c0,.07.05.12.12.12.04,0,.08-.02.1-.06h.16c-.03.12-.15.18-.26.18-.17,0-.29-.1-.29-.28,0-.16.13-.28.29-.28.19,0,.29.14.28.32h-.39ZM4.48,12.78c0-.06-.05-.11-.1-.11-.06,0-.1.04-.11.11h.22Z" style="fill: #020202;"/>
      <path d="M5.43,13.04c-.06.05-.13.08-.21.08-.13,0-.24-.09-.24-.22,0-.1.08-.17.17-.21-.04-.04-.06-.08-.06-.14,0-.11.1-.19.21-.19s.21.07.21.19c0,.08-.05.14-.12.18l.08.09s.02-.05.03-.07h.15c0,.07-.04.13-.08.18l.15.18h-.21l-.05-.06ZM5.23,12.8s-.08.05-.08.1c0,.05.05.08.1.08.03,0,.07-.03.1-.05l-.11-.13ZM5.36,12.54s-.03-.06-.06-.06c-.03,0-.06.02-.06.05,0,.04.03.06.05.09.04-.02.07-.05.07-.09Z" style="fill: #020202;"/>
      <path d="M6.02,12.37h.19v.73h-.19v-.73Z" style="fill: #020202;"/>
      <path d="M6.31,12.57h.17v.07h0c.03-.05.1-.09.17-.09.18,0,.19.13.19.21v.34h-.17v-.26c0-.07,0-.15-.09-.15-.07,0-.09.06-.09.11v.29h-.17v-.53Z" style="fill: #020202;"/>
      <path d="M6.96,12.68h-.08v-.11h.08c0-.15.05-.2.2-.2.03,0,.06,0,.08,0v.12s-.03,0-.05,0c-.04,0-.06,0-.06.05v.02h.1v.11h-.1v.42h-.17v-.42Z" style="fill: #020202;"/>
      <path d="M7.53,12.56c.16,0,.28.12.28.28s-.12.28-.28.28-.28-.12-.28-.28.11-.28.28-.28ZM7.53,12.98c.08,0,.11-.08.11-.15s-.03-.15-.11-.15-.11.08-.11.15.02.15.11.15Z" style="fill: #020202;"/>
      <path d="M7.88,12.57h.17v.09h0c.03-.07.08-.1.16-.1.01,0,.03,0,.04,0v.16s-.04-.01-.07-.01c-.09,0-.13.06-.13.13v.26h-.17v-.53Z" style="fill: #020202;"/>
      <path d="M8.28,12.57h.17v.07h0c.03-.05.09-.09.15-.09s.13.02.15.09c.04-.06.09-.09.17-.09.17,0,.19.13.19.23v.32h-.17v-.31c0-.06-.03-.09-.07-.09-.07,0-.08.06-.08.14v.26h-.17v-.3c0-.06-.02-.1-.07-.1-.06,0-.09.04-.09.14v.26h-.17v-.53Z" style="fill: #020202;"/>
      <path d="M9.2,12.74c0-.07.04-.11.08-.14.05-.03.11-.04.17-.04.13,0,.25.03.25.18v.23s0,.09.02.14h-.17s0-.03-.01-.05c-.05.05-.11.07-.17.07-.1,0-.18-.05-.18-.16,0-.17.19-.16.31-.18.03,0,.05-.02.05-.05,0-.04-.05-.06-.08-.06-.05,0-.08.02-.09.07h-.16ZM9.42,13.01c.08,0,.11-.05.11-.16-.02.02-.07.02-.11.03-.04,0-.07.03-.07.07s.03.06.07.06Z" style="fill: #020202;"/>
      <path d="M10.1,12.68h-.11v.24s.02.05.06.05c.01,0,.03,0,.05,0v.13s-.06,0-.1,0c-.15,0-.19-.04-.19-.19v-.24h-.09v-.11h.09v-.16h.17v.16h.11v.11Z" style="fill: #020202;"/>
      <path d="M10.33,12.51h-.17v-.13h.17v.13ZM10.16,12.57h.17v.53h-.17v-.53Z" style="fill: #020202;"/>
      <path d="M10.68,12.56c.16,0,.28.12.28.28s-.12.28-.28.28-.28-.12-.28-.28.11-.28.28-.28ZM10.68,12.98c.08,0,.11-.08.11-.15s-.03-.15-.11-.15-.11.08-.11.15.02.15.11.15Z" style="fill: #020202;"/>
      <path d="M11.03,12.57h.17v.07h0c.03-.05.1-.09.17-.09.18,0,.19.13.19.21v.34h-.17v-.26c0-.07,0-.15-.09-.15-.07,0-.09.06-.09.11v.29h-.17v-.53Z" style="fill: #020202;"/>
      <path d="M12.1,12.86c0,.09.06.11.14.11.06,0,.12-.02.12-.07,0-.06-.1-.08-.21-.11-.1-.03-.21-.08-.21-.21,0-.16.16-.22.3-.22.15,0,.29.07.29.24h-.19c0-.07-.06-.09-.12-.09-.04,0-.09.01-.09.06,0,.06.11.07.21.1.11.03.21.08.21.21,0,.19-.16.24-.32.24s-.32-.07-.32-.26h.19Z" style="fill: #020202;"/>
      <path d="M12.75,12.88c0,.07.05.12.12.12.04,0,.08-.02.1-.06h.16c-.03.12-.15.18-.26.18-.17,0-.29-.1-.29-.28,0-.16.13-.28.29-.28.19,0,.29.14.28.32h-.39ZM12.96,12.78c0-.06-.05-.11-.1-.11-.06,0-.1.04-.11.11h.22Z" style="fill: #020202;"/>
      <path d="M13.2,12.57h.17v.09h0c.03-.07.08-.1.16-.1.01,0,.03,0,.04,0v.16s-.04-.01-.07-.01c-.09,0-.13.06-.13.13v.26h-.17v-.53Z" style="fill: #020202;"/>
      <path d="M13.92,13.1h-.2l-.18-.53h.18l.1.35h0l.1-.35h.18l-.18.53Z" style="fill: #020202;"/>
      <path d="M14.31,12.51h-.17v-.13h.17v.13ZM14.13,12.57h.17v.53h-.17v-.53Z" style="fill: #020202;"/>
      <path d="M14.75,12.77s-.04-.08-.08-.08c-.1,0-.11.08-.11.16,0,.07.03.14.1.14.06,0,.09-.03.1-.09h.17c-.02.14-.13.22-.27.22-.16,0-.28-.11-.28-.27s.11-.29.28-.29c.13,0,.25.07.26.21h-.17Z" style="fill: #020202;"/>
      <path d="M15.13,12.88c0,.07.05.12.12.12.04,0,.08-.02.1-.06h.16c-.03.12-.15.18-.26.18-.17,0-.29-.1-.29-.28,0-.16.13-.28.29-.28.19,0,.29.14.28.32h-.39ZM15.35,12.78c0-.06-.05-.11-.1-.11-.06,0-.1.04-.11.11h.22Z" style="fill: #020202;"/>
      <path d="M15.72,12.93s.01.05.03.06c.02.01.04.02.06.02.03,0,.08-.01.08-.06s-.05-.05-.08-.06c-.11-.03-.25-.03-.25-.17,0-.13.14-.16.24-.16.12,0,.24.03.24.17h-.16s0-.04-.02-.05c-.01,0-.03-.01-.06-.01-.03,0-.07,0-.07.04,0,.05.12.06.2.08.11.02.14.1.14.14,0,.14-.14.19-.25.19-.13,0-.25-.04-.26-.19h.17Z" style="fill: #020202;"/>
    </g>
  </g>
  <g>
    <path d="M.33,7h1.59c.73,0,1.47.17,1.47,1.03,0,.33-.16.65-.49.75v.03c.41.14.67.44.67.89,0,.77-.72,1.03-1.38,1.03H.33v-3.73ZM1.72,8.43c.2,0,.42-.02.42-.28,0-.28-.25-.26-.45-.26h-.09v.53h.13ZM1.6,9.84h.15c.22,0,.55,0,.55-.31s-.35-.31-.57-.31h-.13v.62Z" style="fill: #8d8d8d;"/>
    <path d="M5.12,10.73h-1.45l1.31-3.73h1.51l1.34,3.73h-1.45l-.12-.46h-1.03l-.11.46ZM6.02,9.38l-.16-.66c-.04-.16-.06-.32-.09-.48h-.05l-.25,1.14h.55Z" style="fill: #8d8d8d;"/>
    <path d="M8.34,9.39l.07.05c.24.19.54.34.85.34.13,0,.35-.05.35-.22s-.18-.18-.3-.21l-.27-.05c-.53-.09-.98-.41-.98-.99,0-.89.81-1.38,1.63-1.38.43,0,.82.1,1.19.33l-.37.95c-.23-.16-.5-.28-.79-.28-.12,0-.29.04-.29.2,0,.14.17.16.27.18l.31.07c.58.13,1,.44,1,1.07,0,.89-.82,1.33-1.63,1.33-.47,0-1.02-.13-1.45-.34l.42-1.05Z" style="fill: #8d8d8d;"/>
    <rect x="11.43" y="7" width="1.37" height="3.73" style="fill: #8d8d8d;"/>
    <path d="M13.65,9.39l.07.05c.24.19.54.34.85.34.13,0,.35-.05.35-.22s-.18-.18-.3-.21l-.27-.05c-.53-.09-.98-.41-.98-.99,0-.89.81-1.38,1.63-1.38.43,0,.82.1,1.19.33l-.37.95c-.23-.16-.5-.28-.79-.28-.12,0-.29.04-.29.2,0,.14.17.16.27.18l.31.07c.58.13,1,.44,1,1.07,0,.89-.82,1.33-1.63,1.33-.47,0-1.02-.13-1.45-.34l.42-1.05Z" style="fill: #8d8d8d;"/>
  </g>
</svg>