<?xml version="1.0" encoding="UTF-8"?>
<svg id="Layer_1" xmlns="http://www.w3.org/2000/svg" version="1.1" viewBox="0 0 32 32">
  <!-- Generator: Adobe Illustrator 29.3.0, SVG Export Plug-In . SVG Version: 2.1.0 Build 146)  -->
  <circle cx="16" cy="16" r="16" fill="#5c2e39"/>
  <g>
    <path d="M13.021,24.204c-.006-.011-.007-.025-.006-.04.009-.095.386-.309.856-.536.45-.258.992-.539,1.352-.709.585-.328,1.085-.492,1.538-.55.44-.073.825-.05,1.199.024.373.072.727.187,1.094.272.367.084.752.142,1.159.057.672-.132,1.779-.638,2.582-1.215.414-.277.783-.543,1.027-.723.229-.187.347-.282.29-.208-1.098.821-2.226,1.688-3.381,2.414-1.149.727-2.301,1.324-3.357,1.694-.516.208-1.028.321-1.489.403-.465.075-.874.128-1.256.076-.755-.082-1.299-.378-1.609-.96h0Z" fill="#dea426"/>
    <path d="M14.161,17.605c.092.335.224.638.375.947.151.309.317.621.436.958.116.335.192.704.138,1.112-.069.394-.259.84-.646,1.347-.244.275-.648.691-1.018,1.033-.391.312-.74.553-.826.517-.013-.005-.025-.013-.032-.024-.371-.543-.404-1.159-.259-1.804.081-.315.168-.679.3-1.028.127-.354.294-.705.423-1.098.297-.754.573-1.565.717-2.386.147-.818.145-1.658-.037-2.431.006-.047.029.041.069.219.023.172.058.429.096.718.108.617.118,1.366.265,1.921h0Z" fill="#dea426"/>
    <path d="M16.242,21.602c-.01-.008-.016-.021-.019-.034-.02-.089.294-.389.696-.726.378-.361.823-.785,1.132-1.045.487-.476.923-.789,1.361-.989.42-.21.805-.327,1.205-.393.788-.14,1.596-.094,2.351-.536.318-.181.701-.478,1.095-.827.385-.35.731-.758,1.061-1.136.67-.759,1.068-1.403,1.002-1.24-.377.53-.844,1.08-1.251,1.625-.214.272-.401.547-.628.815-.224.265-.449.53-.671.793-.223.26-.433.518-.658.765-.238.238-.473.474-.705.707-.231.223-.458.442-.681.658-.243.2-.483.388-.717.566-.906.733-1.864,1.173-2.622,1.381-.81.16-1.461.056-1.952-.383h0Z" fill="#dea426"/>
    <path d="M16.496,14.761c.274.678.743,1.201,1.069,1.874.157.334.288.714.286,1.147-.018.421-.135.921-.447,1.495-.205.316-.536.809-.858,1.203-.346.37-.656.66-.74.631-.013-.004-.024-.011-.032-.022-.392-.533-.48-1.169-.412-1.839.017-.717.239-1.436.371-2.273.042-.199.084-.403.128-.611.026-.214.054-.432.082-.654.027-.213.055-.429.083-.648.016-.223.016-.457.021-.681,0-.222.002-.446.003-.67-.002-.22-.042-.463-.068-.688-.069-.462-.119-.876-.282-1.33,0-.111.146.397.275,1.036.079.335.168.708.252,1.064.073.348.16.692.267.968h0Z" fill="#dea426"/>
    <path d="M18.998,17.912c-.05-.023-.011-.133.08-.29.045-.078.104-.168.17-.264.064-.098.123-.21.192-.318.266-.441.593-.903.668-1.03.298-.506.612-.856.936-1.115.314-.263.615-.441.94-.578.321-.139.648-.241.972-.369.162-.064.323-.135.481-.221.153-.086.297-.186.439-.309.235-.203.501-.507.769-.85.133-.171.269-.353.395-.535.117-.181.229-.363.334-.537.42-.696.718-1.269.676-1.131-1.092,1.913-2.178,4.101-3.428,5.646-.323.383-.613.736-.938,1.024-.331.287-.649.522-.954.695-.153.087-.301.158-.449.211-.155.049-.307.082-.454.097-.293.031-.569-.009-.831-.125h0Z" fill="#dea426"/>
    <path d="M19.517,15.625c-.029.139-.207.643-.387,1.108-.047.115-.089.23-.141.33-.055.098-.108.186-.157.259-.097.145-.177.226-.22.191-.221-.18-.386-.398-.507-.641-.061-.122-.11-.25-.151-.383-.048-.138-.089-.284-.123-.434-.067-.3-.105-.62-.122-.953-.023-.336-.066-.711-.077-1.081-.089-1.5-.236-3.288-.952-4.856-.008-.101.146.338.382.932.061.149.125.308.191.469.06.157.121.316.18.471.125.311.262.611.403.841.085.139.184.268.286.39.097.119.202.233.31.347.217.227.446.452.648.713.198.26.384.563.473.933.078.366.08.811-.037,1.367h0Z" fill="#dea426"/>
    <path d="M20.597,14.271c-.257.035.495-1.86.544-2.182.406-1.175.93-1.874,1.574-2.466.327-.295.634-.568.938-.859.304-.291.598-.601.851-.977.218-.31.418-.722.606-1.165.19-.442.373-.914.529-1.34.297-.85.457-1.507.451-1.366-.351,1.154-.738,2.344-1.042,3.485-.385,1.146-.697,2.251-1.152,3.234-.395.986-.934,1.838-1.457,2.48-.563.634-1.191,1.041-1.844,1.154h0Z" fill="#dea426"/>
    <path d="M20.059,14.04c-.462-.507-.704-1.13-.861-1.852-.197-.736-.227-1.55-.343-2.471-.059-.904-.202-1.909-.336-2.923-.212-1.03-.406-2.069-.815-3.079-.018-.124.182.448.429,1.197.115.374.251.794.399,1.197.151.404.309.789.442,1.086.172.362.396.685.635,1.007.238.322.497.644.693.995.404.702.748,1.563.508,2.781-.005.327-.582,2.261-.751,2.06h0Z" fill="#dea426"/>
    <path d="M4.441,27.064c.529-.118,1.209-.281,1.642-.382.399-.107.793-.231,1.192-.349.394-.112.787-.231,1.176-.377,1.558-.512,3.026-1.209,4.371-2.002,2.722-1.575,4.714-3.836,5.957-5.991,1.26-2.16,1.789-4.202,2.137-5.602.146-.709.281-1.266.337-1.648.028-.191.051-.337.062-.439.017-.101.022-.152.022-.152.292-.444.534-.877.731-1.288.169-.416.292-.81.382-1.192.09-.377.141-.742.169-1.097.022-.349-.006-.692-.039-1.035-.079-.675-.191-1.339-.377-2.042-.163-.641-.332-1.316-.456-2.081-.017-.079-.028-.152-.039-.231-.006.067-.011.141-.022.208-.073.782-.202,1.474-.332,2.115-.135.697-.332,1.333-.427,1.98-.051.326-.079.652-.096.99-.028.337-.034.686-.006,1.063.022.371.09.765.18,1.198.073.427.18.894.332,1.412,0,0-.006.051-.022.152s-.039.247-.067.439c-.067.382-.208.934-.366,1.642-.371,1.389-.928,3.414-2.216,5.546-1.266,2.121-3.268,4.32-5.974,5.833-1.339.759-2.801,1.423-4.348,1.907-.382.141-.776.247-1.17.36-.394.107-.787.225-1.181.326-.501.107-1.316.287-1.862.405h-.006l.315.332Z" fill="#dea426"/>
    <path d="M8.869,26.169c-.004-.012-.003-.026,0-.04.023-.092.426-.245.921-.397.493-.155,1.063-.354,1.444-.453.652-.163,1.153-.248,1.6-.204.442.032.819.176,1.155.325.679.31,1.239.787,2.067.88.345.047.791-.002,1.275-.087.481-.091,1.012-.196,1.472-.356.923-.314,1.655-.638,1.499-.532-.644.228-1.275.497-1.913.73-.647.212-1.275.453-1.9.642-.629.172-1.235.36-1.823.491-.591.119-1.154.228-1.682.301-2.128.233-3.68-.061-4.116-1.3h0Z" fill="#dea426"/>
    <path d="M11.438,19.782c-.041.68.224,1.355.295,2.077.039.367.003.721-.148,1.108-.158.377-.423.807-.932,1.193-.295.227-.761.587-1.196.842-.438.251-.82.436-.9.387-.013-.008-.023-.017-.028-.028-.288-.592-.225-1.206.04-1.832.066-.157.146-.314.235-.474.084-.166.178-.333.28-.501.204-.336.441-.677.695-1.021.233-.35.479-.718.733-1.098.241-.376.449-.778.662-1.162.198-.395.342-.814.48-1.208.12-.407.172-.828.208-1.22.042-.08-.023.343-.105.969-.039.314-.133.647-.188.998-.06.347-.105.697-.129.972h0Z" fill="#dea426"/>
  </g>
</svg>