<?xml version="1.0" encoding="UTF-8"?>
<svg id="Layer_1" xmlns="http://www.w3.org/2000/svg" version="1.1" viewBox="0 0 20 20">
  <!-- Generator: Adobe Illustrator 29.3.0, SVG Export Plug-In . SVG Version: 2.1.0 Build 146)  -->
  <circle cx="10" cy="10" r="7.72" style="fill: #5c2e39;"/>
  <g>
    <path d="M8.56,13.96v-.02s.19-.15.41-.25c.22-.12.48-.26.66-.34.29-.15.52-.24.74-.26.22-.04.4-.02.58.02.18.04.35.09.52.13.18.04.36.07.56.03.32-.06.86-.31,1.24-.59.2-.13.38-.26.49-.35.11-.09.17-.14.14-.1-.53.39-1.07.81-1.63,1.17-.56.35-1.11.64-1.62.82-.25.1-.49.15-.72.19s-.42.06-.61.04c-.36-.04-.63-.19-.78-.46h0l.02-.02Z" style="fill: #dea426;"/>
    <path d="M9.11,10.77c.05.16.11.31.18.46s.15.3.21.46c.05.16.09.34.07.53-.03.19-.12.41-.31.65-.12.13-.31.33-.49.5-.19.15-.36.27-.4.25,0,0-.02,0-.02-.02-.18-.26-.19-.56-.12-.87.04-.15.08-.32.15-.49s.14-.34.2-.53c.15-.36.28-.76.35-1.15s.07-.8-.02-1.17c0-.02.02.02.03.11,0,.08.03.21.05.35.05.3.05.66.13.93h0Z" style="fill: #dea426;"/>
    <path d="M10.12,12.7s0,0,0-.02c0-.05.14-.19.33-.35.19-.18.39-.38.55-.5.23-.23.45-.38.66-.48.2-.1.39-.15.58-.19.38-.07.77-.05,1.13-.25.15-.08.34-.23.52-.4.19-.17.36-.36.51-.55.32-.36.52-.68.49-.59-.19.25-.41.52-.6.79-.1.13-.19.26-.3.39s-.22.25-.32.39c-.11.12-.21.25-.32.37l-.34.34c-.11.11-.22.22-.33.32-.12.1-.23.19-.35.27-.44.36-.9.56-1.27.66-.39.08-.7.02-.94-.19h0Z" style="fill: #dea426;"/>
    <path d="M10.24,9.41c.13.32.36.58.52.9.08.16.14.35.14.56,0,.2-.06.45-.22.72-.1.15-.25.39-.42.58-.17.18-.32.32-.36.3,0,0-.02,0-.02,0-.19-.25-.23-.56-.2-.89,0-.35.12-.69.18-1.1.02-.09.04-.19.06-.29.02-.1.02-.21.04-.32.02-.1.02-.21.04-.31,0-.11,0-.22,0-.33v-.32c0-.11-.02-.22-.03-.33-.03-.22-.05-.42-.14-.64,0-.05.07.19.13.5.04.16.08.34.12.52.04.17.08.33.13.47h0Z" style="fill: #dea426;"/>
    <path d="M11.44,10.93s0-.06.04-.14c.02-.04.05-.08.08-.12.03-.05.06-.1.09-.15.13-.22.29-.43.32-.49.15-.25.29-.41.46-.54.15-.12.29-.22.46-.28.15-.07.32-.12.47-.18.08-.03.15-.06.23-.11.08-.04.15-.09.21-.15.12-.1.24-.25.37-.41.06-.08.13-.17.19-.25.05-.08.11-.18.16-.26.2-.34.35-.61.32-.55-.52.93-1.05,1.98-1.65,2.72-.15.19-.29.36-.46.49s-.32.25-.46.33c-.08.04-.15.08-.22.1-.08.02-.15.04-.22.05-.14.02-.28,0-.4-.06h0Z" style="fill: #dea426;"/>
    <path d="M11.7,9.82c-.02.07-.1.31-.19.53-.02.05-.05.11-.07.16-.02.05-.05.09-.08.12-.05.07-.08.11-.11.09-.11-.08-.19-.19-.25-.31-.03-.06-.05-.12-.07-.19-.02-.07-.05-.14-.06-.21-.03-.15-.05-.3-.06-.46s-.03-.34-.04-.52c-.05-.73-.12-1.59-.46-2.34,0-.05.07.16.19.45.03.07.06.15.09.22s.06.15.08.22c.06.15.12.29.19.41.04.07.09.13.14.19.05.05.1.12.15.17.11.11.22.22.32.35.09.12.19.27.23.45.04.18.04.39-.02.66h0Z" style="fill: #dea426;"/>
    <path d="M12.22,9.17c-.12.02.24-.9.26-1.05.19-.56.45-.9.76-1.19.15-.14.31-.27.46-.42s.29-.29.41-.47c.11-.15.2-.35.29-.56.09-.22.18-.44.25-.65.15-.41.22-.73.22-.66-.17.56-.36,1.13-.5,1.68-.19.56-.34,1.09-.56,1.56-.19.48-.45.89-.7,1.2-.27.31-.57.5-.89.56h0Z" style="fill: #dea426;"/>
    <path d="M11.96,9.05c-.22-.25-.34-.55-.42-.9-.09-.36-.11-.75-.16-1.19-.03-.44-.1-.92-.16-1.41-.1-.49-.19-1-.39-1.48,0-.06.08.22.21.58.05.18.12.39.19.58s.15.38.22.52c.08.18.19.33.31.49.12.15.24.31.33.48.19.34.36.76.25,1.34,0,.15-.28,1.09-.36,1h0Z" style="fill: #dea426;"/>
    <path d="M4.43,15.33c.25-.05.59-.14.8-.19.19-.05.39-.11.57-.17.19-.05.38-.11.57-.19.75-.25,1.46-.59,2.11-.96,1.31-.76,2.28-1.85,2.87-2.89.61-1.04.86-2.03,1.03-2.7.07-.34.14-.61.16-.8.02-.09.02-.16.03-.21s0-.08,0-.08c.14-.22.25-.42.36-.63.08-.2.14-.39.19-.57.05-.19.07-.36.08-.53,0-.17,0-.33-.02-.5-.04-.32-.09-.65-.19-.99-.08-.31-.16-.63-.22-1,0-.04-.02-.07-.02-.11,0,.03,0,.07,0,.1-.04.38-.1.71-.16,1.02-.06.34-.16.64-.21.96-.02.15-.04.32-.05.48-.02.16-.02.33,0,.51,0,.18.05.37.08.58.04.21.08.43.16.68,0,0,0,.02,0,.08s-.02.12-.03.21c-.03.19-.1.45-.18.8-.18.67-.45,1.64-1.07,2.68-.61,1.03-1.57,2.08-2.88,2.82-.65.36-1.35.69-2.1.92-.19.07-.38.12-.56.18-.19.05-.38.11-.57.15-.24.05-.63.14-.9.19h0l.15.16h-.03Z" style="fill: #dea426;"/>
    <path d="M6.56,14.91v-.02s.21-.12.45-.19.51-.17.69-.22c.32-.08.56-.12.77-.1.22.02.39.08.56.15.32.15.59.38,1,.42.17.02.38,0,.62-.04.23-.05.49-.09.71-.17.45-.15.8-.31.73-.25-.31.11-.62.24-.93.36-.31.1-.62.22-.92.31-.3.08-.59.18-.88.24-.29.05-.56.11-.81.15-1.03.12-1.78-.03-1.98-.63h0Z" style="fill: #dea426;"/>
    <path d="M7.8,11.82c-.02.33.11.66.14,1,.02.18,0,.35-.07.53-.08.19-.2.39-.45.58-.14.11-.37.29-.58.41s-.39.21-.43.19c0,0,0,0-.02-.02-.14-.29-.11-.58.02-.89.03-.08.07-.15.12-.23.04-.08.08-.16.13-.24.1-.16.22-.32.33-.49.12-.17.23-.35.36-.53.12-.18.22-.38.32-.56.09-.19.16-.39.23-.59.05-.19.08-.4.1-.59.02-.04,0,.16-.05.47-.02.15-.06.31-.09.48s-.05.34-.06.47h.02Z" style="fill: #dea426;"/>
  </g>
</svg>