<?xml version="1.0" encoding="UTF-8"?>
<svg id="Layer_1" xmlns="http://www.w3.org/2000/svg" version="1.1" viewBox="0 0 20 20">
  <!-- Generator: Adobe Illustrator 29.3.0, SVG Export Plug-In . SVG Version: 2.1.0 Build 146)  -->
  <circle cx="10" cy="10" r="10" style="fill: #5c2e39;"/>
  <g>
    <path d="M8.14,15.13s0-.02,0-.03c0-.06.24-.19.53-.33.28-.16.62-.34.85-.44.37-.2.68-.31.96-.34.28-.05.52-.03.75.02.23.05.45.12.68.17.23.05.47.09.72.04.42-.08,1.11-.4,1.61-.76.26-.17.49-.34.64-.45.14-.12.22-.18.18-.13-.69.51-1.39,1.05-2.11,1.51-.72.45-1.44.83-2.1,1.06-.32.13-.64.2-.93.25-.29.05-.55.08-.79.05-.47-.05-.81-.24-1.01-.6h0Z" style="fill: #dea426;"/>
    <path d="M8.85,11c.06.21.14.4.23.59s.2.39.27.6c.07.21.12.44.09.69-.04.25-.16.53-.4.84-.15.17-.4.43-.64.65-.24.2-.46.35-.52.32,0,0-.02,0-.02-.02-.23-.34-.25-.72-.16-1.13.05-.2.11-.42.19-.64.08-.22.18-.44.26-.69.19-.47.36-.98.45-1.49.09-.51.09-1.04-.02-1.52,0-.03.02.03.04.14.01.11.04.27.06.45.07.39.07.85.17,1.2h0Z" style="fill: #dea426;"/>
    <path d="M10.15,13.5s0-.01-.01-.02c-.01-.06.18-.24.43-.45.24-.23.51-.49.71-.65.3-.3.58-.49.85-.62.26-.13.5-.2.75-.25.49-.09,1-.06,1.47-.33.2-.11.44-.3.68-.52.24-.22.46-.47.66-.71.42-.47.67-.88.63-.77-.24.33-.53.67-.78,1.02-.13.17-.25.34-.39.51-.14.17-.28.33-.42.5-.14.16-.27.32-.41.48-.15.15-.3.3-.44.44-.14.14-.29.28-.43.41-.15.13-.3.24-.45.35-.57.46-1.17.73-1.64.86-.51.1-.91.03-1.22-.24h0Z" style="fill: #dea426;"/>
    <path d="M10.31,9.23c.17.42.46.75.67,1.17.1.21.18.45.18.72-.01.26-.08.58-.28.93-.13.2-.33.51-.54.75-.22.23-.41.41-.46.39,0,0-.02,0-.02-.01-.25-.33-.3-.73-.26-1.15,0-.45.15-.9.23-1.42.03-.12.05-.25.08-.38.02-.13.03-.27.05-.41.02-.13.03-.27.05-.4,0-.14,0-.29.01-.43v-.42c0-.14-.03-.29-.04-.43-.04-.29-.07-.55-.18-.83,0-.07.09.25.17.65.05.21.11.44.16.67.05.22.1.43.17.61h0Z" style="fill: #dea426;"/>
    <path d="M11.87,11.2s0-.08.05-.18c.03-.05.07-.1.11-.16.04-.06.08-.13.12-.2.17-.28.37-.56.42-.64.19-.32.38-.53.59-.7.2-.16.38-.28.59-.36.2-.09.41-.15.61-.23.1-.04.2-.08.3-.14.1-.05.19-.12.27-.19.15-.13.31-.32.48-.53.08-.11.17-.22.25-.33.07-.11.14-.23.21-.34.26-.44.45-.79.42-.71-.68,1.2-1.36,2.56-2.14,3.53-.2.24-.38.46-.59.64-.21.18-.41.33-.6.43-.1.05-.19.1-.28.13-.1.03-.19.05-.28.06-.18.02-.36,0-.52-.08h0Z" style="fill: #dea426;"/>
    <path d="M12.2,9.77c-.02.09-.13.4-.24.69-.03.07-.06.14-.09.21-.03.06-.07.12-.1.16-.06.09-.11.14-.14.12-.14-.11-.24-.25-.32-.4-.04-.08-.07-.16-.09-.24-.03-.09-.06-.18-.08-.27-.04-.19-.07-.39-.08-.6-.01-.21-.04-.44-.05-.68-.06-.94-.15-2.06-.59-3.03,0-.06.09.21.24.58.04.09.08.19.12.29.04.1.08.2.11.29.08.19.16.38.25.53.05.09.12.17.18.24.06.07.13.15.19.22.14.14.28.28.41.45.12.16.24.35.3.58.05.23.05.51-.02.85h0Z" style="fill: #dea426;"/>
    <path d="M12.87,8.92c-.16.02.31-1.16.34-1.36.25-.73.58-1.17.98-1.54.2-.18.4-.35.59-.54s.37-.38.53-.61c.14-.19.26-.45.38-.73.12-.28.23-.57.33-.84.19-.53.29-.94.28-.85-.22.72-.46,1.46-.65,2.18-.24.72-.44,1.41-.72,2.02-.25.62-.58,1.15-.91,1.55-.35.4-.74.65-1.15.72h0Z" style="fill: #dea426;"/>
    <path d="M12.54,8.77c-.29-.32-.44-.71-.54-1.16-.12-.46-.14-.97-.21-1.54-.04-.57-.13-1.19-.21-1.83-.13-.64-.25-1.29-.51-1.92-.01-.08.11.28.27.75.07.23.16.5.25.75s.19.49.28.68c.11.23.25.43.4.63.15.2.31.4.43.62.25.44.47.98.32,1.74,0,.2-.36,1.41-.47,1.29h0Z" style="fill: #dea426;"/>
    <path d="M2.78,16.91c.33-.07.76-.18,1.03-.24.25-.07.5-.14.74-.22.25-.07.49-.14.74-.24.97-.32,1.89-.76,2.73-1.25,1.7-.98,2.95-2.4,3.72-3.74.79-1.35,1.12-2.63,1.34-3.5.09-.44.18-.79.21-1.03.02-.12.03-.21.04-.27.01-.06.01-.1.01-.1.18-.28.33-.55.46-.81.11-.26.18-.51.24-.74.06-.24.09-.46.11-.69.01-.22,0-.43-.02-.65-.05-.42-.12-.84-.24-1.28-.1-.4-.21-.82-.28-1.3-.01-.05-.02-.09-.02-.14,0,.04,0,.09-.01.13-.05.49-.13.92-.21,1.32-.08.44-.21.83-.27,1.24-.03.2-.05.41-.06.62-.02.21-.02.43,0,.66.01.23.06.48.11.75.05.27.11.56.21.88,0,0,0,.03-.01.1s-.02.15-.04.27c-.04.24-.13.58-.23,1.03-.23.87-.58,2.13-1.38,3.47-.79,1.33-2.04,2.7-3.73,3.65-.84.47-1.75.89-2.72,1.19-.24.09-.49.15-.73.23-.25.07-.49.14-.74.2-.31.07-.82.18-1.16.25h0l.2.21h0Z" style="fill: #dea426;"/>
    <path d="M5.54,16.36v-.03c.01-.06.27-.15.58-.25.31-.1.66-.22.9-.28.41-.1.72-.15,1-.13.28.02.51.11.72.2.42.19.77.49,1.29.55.22.03.49,0,.8-.05.3-.06.63-.12.92-.22.58-.2,1.03-.4.94-.33-.4.14-.8.31-1.2.46-.4.13-.8.28-1.19.4-.39.11-.77.23-1.14.31-.37.07-.72.14-1.05.19-1.33.15-2.3-.04-2.57-.81h0Z" style="fill: #dea426;"/>
    <path d="M7.15,12.36c-.03.43.14.85.18,1.3.02.23,0,.45-.09.69-.1.24-.26.5-.58.75-.18.14-.48.37-.75.53-.27.16-.51.27-.56.24,0,0-.01-.01-.02-.02-.18-.37-.14-.75.02-1.15.04-.1.09-.2.15-.3.05-.1.11-.21.17-.31.13-.21.28-.42.43-.64.15-.22.3-.45.46-.69.15-.23.28-.49.41-.73.12-.25.21-.51.3-.76.07-.25.11-.52.13-.76.03-.05-.01.21-.07.61-.02.2-.08.4-.12.62-.04.22-.07.44-.08.61h0Z" style="fill: #dea426;"/>
  </g>
</svg>