<?xml version="1.0" encoding="UTF-8"?>
<svg id="Layer_1" xmlns="http://www.w3.org/2000/svg" version="1.1" viewBox="0 0 100 100">
  <!-- Generator: Adobe Illustrator 29.3.0, SVG Export Plug-In . SVG Version: 2.1.0 Build 146)  -->
  <circle cx="50" cy="50" r="50" style="fill: #5c2e39;"/>
  <g>
    <path d="M40.69,75.64s-.02-.08-.02-.13c.03-.3,1.21-.97,2.67-1.67,1.41-.81,3.1-1.68,4.23-2.22,1.83-1.02,3.39-1.54,4.81-1.72,1.38-.23,2.58-.16,3.75.08,1.17.23,2.27.58,3.42.85,1.15.26,2.35.44,3.62.18,2.1-.41,5.56-1.99,8.07-3.8,1.29-.87,2.45-1.7,3.21-2.26.72-.58,1.08-.88.91-.65-3.43,2.57-6.96,5.27-10.57,7.54-3.59,2.27-7.19,4.14-10.49,5.29-1.61.65-3.21,1-4.65,1.26-1.45.23-2.73.4-3.93.24-2.36-.26-4.06-1.18-5.03-3h0Z" style="fill: #dea426;"/>
    <path d="M44.25,55.02c.29,1.05.7,1.99,1.17,2.96s.99,1.94,1.36,2.99c.36,1.05.6,2.2.43,3.47-.22,1.23-.81,2.63-2.02,4.21-.76.86-2.02,2.16-3.18,3.23-1.22.98-2.31,1.73-2.58,1.62-.04-.02-.08-.04-.1-.08-1.16-1.7-1.26-3.62-.81-5.64.25-.98.53-2.12.94-3.21.4-1.11.92-2.2,1.32-3.43.93-2.36,1.79-4.89,2.24-7.46.46-2.56.45-5.18-.12-7.6.02-.15.09.13.22.68.07.54.18,1.34.3,2.24.34,1.93.37,4.27.83,6h0Z" style="fill: #dea426;"/>
    <path d="M50.76,67.51s-.05-.07-.06-.11c-.06-.28.92-1.22,2.17-2.27,1.18-1.13,2.57-2.45,3.54-3.27,1.52-1.49,2.88-2.47,4.25-3.09,1.31-.66,2.52-1.02,3.77-1.23,2.46-.44,4.99-.29,7.35-1.67.99-.57,2.19-1.49,3.42-2.58,1.2-1.09,2.28-2.37,3.32-3.55,2.09-2.37,3.34-4.38,3.13-3.87-1.18,1.66-2.64,3.37-3.91,5.08-.67.85-1.25,1.71-1.96,2.55-.7.83-1.4,1.66-2.1,2.48-.7.81-1.35,1.62-2.06,2.39-.74.74-1.48,1.48-2.2,2.21-.72.7-1.43,1.38-2.13,2.06-.76.63-1.51,1.21-2.24,1.77-2.83,2.29-5.83,3.67-8.19,4.32-2.53.5-4.57.17-6.1-1.2h0Z" style="fill: #dea426;"/>
    <path d="M51.55,46.13c.86,2.12,2.32,3.75,3.34,5.86.49,1.04.9,2.23.89,3.58-.06,1.32-.42,2.88-1.4,4.67-.64.99-1.67,2.53-2.68,3.76-1.08,1.16-2.05,2.06-2.31,1.97-.04-.01-.08-.03-.1-.07-1.23-1.67-1.5-3.65-1.29-5.75.05-2.24.75-4.49,1.16-7.1.13-.62.26-1.26.4-1.91.08-.67.17-1.35.26-2.04.08-.67.17-1.34.26-2.02.05-.7.05-1.43.07-2.13,0-.69,0-1.39,0-2.09,0-.69-.13-1.45-.21-2.15-.22-1.44-.37-2.74-.88-4.16,0-.35.46,1.24.86,3.24.25,1.05.53,2.21.79,3.33.23,1.09.5,2.16.83,3.03h0Z" style="fill: #dea426;"/>
    <path d="M59.37,55.98c-.16-.07-.03-.42.25-.91.14-.24.33-.52.53-.82.2-.31.38-.66.6-.99.83-1.38,1.85-2.82,2.09-3.22.93-1.58,1.91-2.67,2.93-3.48.98-.82,1.92-1.38,2.94-1.81,1-.43,2.03-.75,3.04-1.15.51-.2,1.01-.42,1.5-.69.48-.27.93-.58,1.37-.97.73-.63,1.57-1.58,2.4-2.66.42-.53.84-1.1,1.23-1.67.37-.57.72-1.13,1.04-1.68,1.31-2.18,2.24-3.97,2.11-3.53-3.41,5.98-6.81,12.82-10.71,17.64-1.01,1.2-1.92,2.3-2.93,3.2-1.03.9-2.03,1.63-2.98,2.17-.48.27-.94.49-1.4.66-.48.15-.96.26-1.42.3-.92.1-1.78-.03-2.6-.39h0Z" style="fill: #dea426;"/>
    <path d="M60.99,48.83c-.09.43-.65,2.01-1.21,3.46-.15.36-.28.72-.44,1.03-.17.31-.34.58-.49.81-.3.45-.55.71-.69.6-.69-.56-1.21-1.24-1.58-2-.19-.38-.34-.78-.47-1.2-.15-.43-.28-.89-.38-1.36-.21-.94-.33-1.94-.38-2.98-.07-1.05-.21-2.22-.24-3.38-.28-4.69-.74-10.28-2.97-15.17-.02-.32.46,1.06,1.19,2.91.19.47.39.96.6,1.47.19.49.38.99.56,1.47.39.97.82,1.91,1.26,2.63.27.43.58.84.89,1.22.3.37.63.73.97,1.08.68.71,1.39,1.41,2.03,2.23.62.81,1.2,1.76,1.48,2.92.24,1.14.25,2.53-.12,4.27h0Z" style="fill: #dea426;"/>
    <path d="M64.37,44.6c-.8.11,1.55-5.81,1.7-6.82,1.27-3.67,2.91-5.86,4.92-7.71,1.02-.92,1.98-1.77,2.93-2.68.95-.91,1.87-1.88,2.66-3.05.68-.97,1.31-2.26,1.89-3.64.59-1.38,1.17-2.86,1.65-4.19.93-2.66,1.43-4.71,1.41-4.27-1.1,3.61-2.31,7.32-3.26,10.89-1.2,3.58-2.18,7.03-3.6,10.11-1.23,3.08-2.92,5.74-4.55,7.75-1.76,1.98-3.72,3.25-5.76,3.61h0Z" style="fill: #dea426;"/>
    <path d="M62.68,43.87c-1.44-1.58-2.2-3.53-2.69-5.79-.62-2.3-.71-4.84-1.07-7.72-.18-2.83-.63-5.97-1.05-9.13-.66-3.22-1.27-6.47-2.55-9.62-.06-.39.57,1.4,1.34,3.74.36,1.17.78,2.48,1.25,3.74.47,1.26.97,2.47,1.38,3.39.54,1.13,1.24,2.14,1.98,3.15.74,1.01,1.55,2.01,2.17,3.11,1.26,2.19,2.34,4.88,1.59,8.69-.02,1.02-1.82,7.07-2.35,6.44h0Z" style="fill: #dea426;"/>
    <path d="M13.88,84.57c1.65-.37,3.78-.88,5.13-1.19,1.25-.33,2.48-.72,3.72-1.09,1.23-.35,2.46-.72,3.68-1.18,4.87-1.6,9.46-3.78,13.66-6.26,8.51-4.92,14.73-11.99,18.62-18.72,3.94-6.75,5.59-13.13,6.68-17.51.46-2.22.88-3.96,1.05-5.15.09-.6.16-1.05.19-1.37.05-.32.07-.48.07-.48.91-1.39,1.67-2.74,2.28-4.03.53-1.3.91-2.53,1.19-3.72.28-1.18.44-2.32.53-3.43.07-1.09-.02-2.16-.12-3.23-.25-2.11-.6-4.18-1.18-6.38-.51-2-1.04-4.11-1.42-6.5-.05-.25-.09-.47-.12-.72-.02.21-.03.44-.07.65-.23,2.44-.63,4.61-1.04,6.61-.42,2.18-1.04,4.17-1.33,6.19-.16,1.02-.25,2.04-.3,3.09-.09,1.05-.11,2.14-.02,3.32.07,1.16.28,2.39.56,3.74.23,1.33.56,2.79,1.04,4.41,0,0-.02.16-.07.48s-.12.77-.21,1.37c-.21,1.19-.65,2.92-1.14,5.13-1.16,4.34-2.9,10.67-6.92,17.33-3.96,6.63-10.21,13.5-18.67,18.23-4.18,2.37-8.75,4.45-13.59,5.96-1.19.44-2.43.77-3.66,1.13-1.23.33-2.46.7-3.69,1.02-1.57.33-4.11.9-5.82,1.27h-.02l.98,1.04h0Z" style="fill: #dea426;"/>
    <path d="M27.72,81.78s0-.08,0-.13c.07-.29,1.33-.77,2.88-1.24,1.54-.48,3.32-1.11,4.51-1.42,2.04-.51,3.6-.77,5-.64,1.38.1,2.56.55,3.61,1.02,2.12.97,3.87,2.46,6.46,2.75,1.08.15,2.47,0,3.98-.27,1.5-.28,3.16-.61,4.6-1.11,2.88-.98,5.17-1.99,4.68-1.66-2.01.71-3.98,1.55-5.98,2.28-2.02.66-3.98,1.42-5.94,2.01-1.97.54-3.86,1.13-5.7,1.53-1.85.37-3.61.71-5.26.94-6.65.73-11.5-.19-12.86-4.06h0Z" style="fill: #dea426;"/>
    <path d="M35.74,61.82c-.13,2.13.7,4.23.92,6.49.12,1.15,0,2.25-.46,3.46-.49,1.18-1.32,2.52-2.91,3.73-.92.71-2.38,1.83-3.74,2.63-1.37.78-2.56,1.36-2.81,1.21-.04-.02-.07-.05-.09-.09-.9-1.85-.7-3.77.12-5.73.21-.49.46-.98.73-1.48.26-.52.56-1.04.87-1.57.64-1.05,1.38-2.12,2.17-3.19.73-1.09,1.5-2.24,2.29-3.43.75-1.17,1.4-2.43,2.07-3.63.62-1.23,1.07-2.54,1.5-3.78.37-1.27.54-2.59.65-3.81.13-.25-.07,1.07-.33,3.03-.12.98-.42,2.02-.59,3.12-.19,1.08-.33,2.18-.4,3.04h0Z" style="fill: #dea426;"/>
  </g>
</svg>