<?xml version="1.0" encoding="UTF-8"?>
<svg id="Layer_1" xmlns="http://www.w3.org/2000/svg" version="1.1" viewBox="0 0 20 20">
  <!-- Generator: Adobe Illustrator 29.3.0, SVG Export Plug-In . SVG Version: 2.1.0 Build 146)  -->
  <path d="M5.7,8.37h-3.58v.75h1.61v1.67H.45v-4.1h5.26v1.67ZM5.7,13.31H.45v-1.67h5.26v1.67Z" style="fill: #fff;"/>
  <path d="M11.6,13.51h-5.71l2.85-7.02,2.86,7.02ZM9.36,11.84l-.61-1.5-.63,1.5h1.25Z" style="fill: #fff;"/>
  <polygon points="15.43 8.35 13.76 8.35 13.76 13.32 12.08 13.32 12.08 8.35 10.57 8.35 10.57 6.68 15.43 6.68 15.43 8.35" style="fill: #fff;"/>
  <polygon points="19.8 13.32 15.86 13.32 15.86 6.68 17.53 6.68 17.53 11.65 19.8 11.65 19.8 13.32" style="fill: #fff;"/>
  <path d="M5.46,8.37H1.88v.75h1.61v1.67H.2v-4.1h5.26v1.67ZM5.46,13.31H.2v-1.67h5.26v1.67Z" style="fill: #844c9e;"/>
  <path d="M11.36,13.51h-5.71l2.85-7.02,2.86,7.02ZM9.12,11.84l-.61-1.5-.63,1.5h1.25Z" style="fill: #844c9e;"/>
  <polygon points="15.19 8.35 13.52 8.35 13.52 13.32 11.84 13.32 11.84 8.35 10.33 8.35 10.33 6.68 15.19 6.68 15.19 8.35" style="fill: #0d76bd;"/>
  <polygon points="19.55 13.32 15.62 13.32 15.62 6.68 17.29 6.68 17.29 11.65 19.55 11.65 19.55 13.32" style="fill: #0d76bd;"/>
</svg>