<?xml version="1.0" encoding="UTF-8"?>
<svg id="Layer_1" xmlns="http://www.w3.org/2000/svg" version="1.1" viewBox="0 0 20 20">
  <!-- Generator: Adobe Illustrator 29.3.0, SVG Export Plug-In . SVG Version: 2.1.0 Build 146)  -->
  <path d="M5.72,8.42h-3.46v.73h1.56v1.62H.64v-3.97h5.08v1.62ZM5.72,13.2H.64v-1.62h5.08v1.62Z" style="fill: #844c9e;"/>
  <path d="M11.43,13.39h-5.52l2.76-6.79,2.76,6.79ZM9.26,11.78l-.59-1.45-.61,1.45h1.21Z" style="fill: #844c9e;"/>
  <polygon points="15.14 8.4 13.52 8.4 13.52 13.22 11.9 13.22 11.9 8.4 10.44 8.4 10.44 6.78 15.14 6.78 15.14 8.4" style="fill: #0d76bd;"/>
  <polygon points="19.36 13.22 15.55 13.22 15.55 6.78 17.17 6.78 17.17 11.6 19.36 11.6 19.36 13.22" style="fill: #0d76bd;"/>
</svg>