<?xml version="1.0" encoding="UTF-8"?>
<svg id="Layer_1" xmlns="http://www.w3.org/2000/svg" version="1.1" viewBox="0 0 20 20">
  <!-- Generator: Adobe Illustrator 29.3.0, SVG Export Plug-In . SVG Version: 2.1.0 Build 146)  -->
  <g>
    <path d="M7.49,6.47c.28.06.53.19.75.37.23.18.41.41.53.66.12.26.26.68.24,1.42l.21-.59c.17-.41.36-.79.59-1.13-.02-.06-.05-.11-.06-.16-.19-.4-.47-.76-.83-1.05-.36-.28-.77-.48-1.2-.58-.43-.1-.89-.1-1.33,0h0c-.19.05-.36.19-.41.4-.15.6-.16,1.22-.05,1.81.12.59.38,1.15.76,1.65.38.49.87.88,1.41,1.13.36.17.75.29,1.14.35.04-.37.1-.73.18-1.07-.3-.04-.58-.13-.85-.26-.4-.19-.75-.47-1.02-.82-.28-.36-.46-.76-.55-1.19-.06-.32-.08-.64-.03-.97.17,0,.34,0,.51.05h0v-.02Z" style="fill: #55883d;"/>
    <path d="M16.46,11.77c-.18.15-.36.31-.56.44-.02,0-.03.02-.05.03.15.08.25.24.25.41,0,.26-.21.47-.47.47s-.47-.21-.47-.47h0c-.23.11-.47.2-.71.28.13.53.61.93,1.18.93.67,0,1.22-.54,1.22-1.22,0-.35-.15-.66-.39-.89h0Z" style="fill: #55883d;"/>
    <path d="M8.54,13.16c-.19-1-1.08-1.77-2.14-1.77-.32,0-.62.07-.9.19-.75.34-1.29,1.1-1.29,1.99,0,1.21.98,2.18,2.18,2.18s2.18-.98,2.18-2.18c0-.15-.02-.28-.04-.42h0ZM6.39,14.67c-.6,0-1.09-.49-1.09-1.09s.49-1.09,1.09-1.09,1.09.49,1.09,1.09-.49,1.09-1.09,1.09Z" style="fill: #55883d;"/>
  </g>
  <path d="M17.76,8.84c-.29-.13-.64,0-.78.29-.81,1.78-2.48,2.93-4.25,2.93h-2.46c0-1.91.44-3.44,1.28-4.55.75-.99,1.86-1.68,3.31-2.07.04,1.05-.28,2.08-.88,2.92-.64.9-1.61,1.56-2.81,1.77-.02,0-.04,0-.06.02-.08.36-.13.72-.17,1.12.15-.02.28-.03.41-.06,1.5-.26,2.71-1.09,3.51-2.2.79-1.11,1.18-2.51,1.05-3.91-.02-.15-.03-.28-.06-.41h0c-.05-.31-.34-.5-.64-.45-2.01.41-3.52,1.28-4.54,2.62-.99,1.3-1.49,3.04-1.5,5.19-2.2-.13-4.12-2.02-4.44-4.41l-.11-.82c-.04-.29-.28-.51-.58-.51h-1.57c-.32,0-.58.26-.58.58s.26.58.58.58h1.06l.04.31c.19,1.44.87,2.79,1.91,3.79.28-.12.58-.19.9-.19,1.06,0,1.94.76,2.14,1.77.29.05.59.07.88.07h3.31c.58,0,1.17-.1,1.72-.29.24-.08.48-.18.71-.29.24-.12.47-.26.69-.41.02,0,.03-.02.05-.03.19-.14.38-.28.56-.44.67-.59,1.22-1.33,1.6-2.16.13-.29,0-.64-.29-.78h.02Z" style="fill: #a5ce39;"/>
</svg>