<?xml version="1.0" encoding="UTF-8"?>
<svg id="Layer_1" xmlns="http://www.w3.org/2000/svg" version="1.1" viewBox="0 0 20 20">
  <!-- Generator: Adobe Illustrator 29.3.0, SVG Export Plug-In . SVG Version: 2.1.0 Build 146)  -->
  <g>
    <path d="M6.9,5.64c.34.08.66.23.93.46.28.22.5.51.65.82.15.32.32.84.3,1.75l.26-.73c.21-.5.45-.97.73-1.39-.02-.07-.06-.14-.08-.2-.24-.49-.58-.94-1.02-1.29-.44-.35-.95-.59-1.48-.72-.53-.12-1.1-.12-1.64,0h0c-.24.06-.44.24-.5.49-.19.74-.2,1.5-.06,2.23.15.73.47,1.42.94,2.03.47.6,1.07,1.08,1.74,1.4.45.21.92.36,1.41.43.05-.46.12-.9.22-1.32-.37-.05-.72-.16-1.05-.32-.49-.23-.92-.58-1.26-1.01-.34-.44-.57-.94-.68-1.47-.08-.39-.1-.79-.04-1.2.21,0,.42.01.63.06h0Z" style="fill: #55883d;"/>
    <path d="M17.97,12.19c-.22.19-.45.38-.69.54-.02.01-.04.02-.06.04.18.1.31.29.31.51,0,.32-.26.58-.58.58s-.58-.26-.58-.58h0c-.28.13-.58.25-.87.35.16.66.75,1.15,1.45,1.15.83,0,1.5-.67,1.5-1.5,0-.43-.19-.82-.48-1.1h0Z" style="fill: #55883d;"/>
    <path d="M8.2,13.9c-.24-1.24-1.33-2.18-2.64-2.18-.4,0-.77.09-1.11.24-.93.42-1.59,1.36-1.59,2.45,0,1.49,1.21,2.69,2.69,2.69s2.69-1.21,2.69-2.69c0-.18-.02-.35-.05-.52h0ZM5.55,15.76c-.74,0-1.34-.6-1.34-1.34s.6-1.34,1.34-1.34,1.34.6,1.34,1.34-.6,1.34-1.34,1.34Z" style="fill: #55883d;"/>
  </g>
  <path d="M19.58,8.57c-.36-.16-.79,0-.96.36-1,2.2-3.06,3.62-5.25,3.62h-3.04c0-2.36.54-4.24,1.58-5.61.93-1.22,2.29-2.07,4.08-2.56.05,1.29-.34,2.57-1.08,3.6-.79,1.11-1.99,1.93-3.47,2.18-.02,0-.05.01-.07.02-.1.44-.16.89-.21,1.38.18-.02.35-.04.51-.07,1.85-.32,3.34-1.34,4.33-2.72.98-1.37,1.46-3.1,1.3-4.82-.02-.18-.04-.35-.07-.5h0c-.06-.38-.42-.62-.79-.55-2.48.51-4.34,1.58-5.6,3.23-1.22,1.61-1.84,3.75-1.85,6.41-2.72-.16-5.09-2.49-5.48-5.44l-.13-1.01c-.05-.36-.35-.63-.72-.63H.72C.32,5.46,0,5.78,0,6.18s.32.72.72.72h1.31l.05.38c.23,1.78,1.07,3.44,2.36,4.68.34-.15.71-.24,1.11-.24,1.31,0,2.4.94,2.64,2.18.36.06.73.09,1.09.09h4.08c.72,0,1.44-.12,2.12-.36.3-.1.59-.22.87-.36.29-.15.58-.32.85-.5.02-.01.04-.02.06-.04.24-.17.47-.35.69-.54.83-.73,1.5-1.64,1.97-2.67.16-.36,0-.79-.36-.96h0s0,0,0,0Z" style="fill: #a5ce39;"/>
</svg>