<?xml version="1.0" encoding="UTF-8"?>
<svg id="Layer_1" xmlns="http://www.w3.org/2000/svg" version="1.1" viewBox="0 0 32 32">
  <!-- Generator: Adobe Illustrator 29.3.0, SVG Export Plug-In . SVG Version: 2.1.0 Build 146)  -->
  <g>
    <path d="M11.035,9.025c.54.128,1.053.373,1.496.732.449.353.796.809,1.034,1.31.237.507.513,1.348.482,2.8l.424-1.162c.334-.803.725-1.547,1.175-2.228-.039-.109-.09-.218-.134-.328-.379-.789-.931-1.502-1.632-2.067-.7-.565-1.515-.95-2.369-1.15-.853-.192-1.753-.2-2.627,0h-.001c-.39.092-.698.39-.801.777-.309,1.181-.328,2.401-.09,3.571.243,1.162.752,2.279,1.502,3.243.752.956,1.708,1.721,2.78,2.234.713.34,1.471.577,2.254.694.084-.738.2-1.445.346-2.118-.585-.084-1.15-.251-1.675-.507-.777-.373-1.471-.925-2.016-1.624-.546-.7-.911-1.502-1.092-2.351-.128-.622-.154-1.271-.064-1.914.34-.013.674.019,1.008.09v-.003Z" fill="#55883d"/>
    <path d="M28.744,19.507c-.351.31-.715.604-1.101.871-.031.021-.063.039-.094.06.296.157.502.464.502.823,0,.515-.419.934-.934.934s-.934-.419-.934-.934c0-.006.001-.011.001-.018-.456.227-.921.417-1.396.577.254,1.052,1.2,1.836,2.327,1.836,1.322,0,2.396-1.076,2.396-2.396,0-.693-.297-1.317-.769-1.755h.001Z" fill="#55883d"/>
    <path d="M13.113,22.243c-.388-1.982-2.136-3.483-4.229-3.483-.633,0-1.231.141-1.772.385-1.495.678-2.539,2.181-2.539,3.926,0,2.377,1.934,4.312,4.312,4.312s4.312-1.934,4.312-4.312c0-.284-.029-.561-.082-.83h-.003ZM8.883,25.219c-1.183,0-2.146-.963-2.146-2.146s.963-2.146,2.146-2.146,2.146.963,2.146,2.146-.963,2.146-2.146,2.146Z" fill="#55883d"/>
  </g>
  <path d="M31.322,13.713c-.581-.264-1.265-.006-1.529.575-1.596,3.522-4.895,5.797-8.402,5.797h-4.863c.014-3.781.858-6.78,2.528-8.978,1.49-1.958,3.66-3.32,6.524-4.09.084,2.067-.54,4.109-1.727,5.759-1.265,1.772-3.179,3.089-5.547,3.493-.039.013-.077.019-.115.025-.154.7-.264,1.432-.334,2.203.295-.025.565-.064.816-.109,2.961-.507,5.349-2.151,6.934-4.354,1.573-2.196,2.343-4.957,2.075-7.718-.025-.289-.064-.558-.109-.803v-.006c-.103-.594-.675-.986-1.265-.867-3.962.809-6.948,2.53-8.957,5.176-1.954,2.58-2.947,5.998-2.964,10.255-4.347-.257-8.146-3.991-8.763-8.712l-.211-1.619c-.075-.575-.565-1.005-1.145-1.005H1.155c-.638,0-1.155.517-1.155,1.155s.517,1.155,1.155,1.155h2.096l.08.615c.371,2.849,1.713,5.501,3.78,7.49.541-.246,1.141-.385,1.772-.385,2.093,0,3.842,1.501,4.229,3.483.577.098,1.161.152,1.748.152h6.529c1.153,0,2.297-.198,3.399-.572.473-.161.94-.35,1.396-.577.468-.233.922-.505,1.365-.806.031-.021.063-.039.094-.06.385-.267.749-.562,1.101-.871,1.327-1.17,2.407-2.619,3.153-4.266.264-.581.006-1.265-.575-1.529h0Z" fill="#a5ce39"/>
</svg>