<?xml version="1.0" encoding="UTF-8"?>
<svg id="Layer_1" xmlns="http://www.w3.org/2000/svg" version="1.1" viewBox="0 0 100 100">
  <!-- Generator: Adobe Illustrator 29.3.0, SVG Export Plug-In . SVG Version: 2.1.0 Build 146)  -->
  <g>
    <path d="M34.48,28.2c1.69.4,3.29,1.17,4.67,2.29,1.4,1.1,2.49,2.53,3.23,4.09.74,1.58,1.6,4.21,1.51,8.75l1.32-3.63c1.04-2.51,2.27-4.83,3.67-6.96-.12-.34-.28-.68-.42-1.02-1.18-2.47-2.91-4.69-5.1-6.46-2.19-1.77-4.73-2.97-7.4-3.59-2.67-.6-5.48-.62-8.21,0h0c-1.22.29-2.18,1.22-2.5,2.43-.97,3.69-1.02,7.5-.28,11.16.76,3.63,2.35,7.12,4.69,10.13,2.35,2.99,5.34,5.38,8.69,6.98,2.23,1.06,4.6,1.8,7.04,2.17.26-2.31.62-4.52,1.08-6.62-1.83-.26-3.59-.78-5.23-1.58-2.43-1.17-4.6-2.89-6.3-5.07-1.71-2.19-2.85-4.69-3.41-7.35-.4-1.94-.48-3.97-.2-5.98,1.06-.04,2.11.06,3.15.28h0s0,0,0,0Z" style="fill: #55883d;"/>
    <path d="M89.82,60.96c-1.1.97-2.23,1.89-3.44,2.72-.1.07-.2.12-.29.19.92.49,1.57,1.45,1.57,2.57,0,1.61-1.31,2.92-2.92,2.92s-2.92-1.31-2.92-2.92c0-.02,0-.03,0-.06-1.42.71-2.88,1.3-4.36,1.8.79,3.29,3.75,5.74,7.27,5.74,4.13,0,7.49-3.36,7.49-7.49,0-2.17-.93-4.12-2.4-5.48h0Z" style="fill: #55883d;"/>
    <path d="M40.98,69.51c-1.21-6.19-6.67-10.88-13.22-10.88-1.98,0-3.85.44-5.54,1.2-4.67,2.12-7.93,6.82-7.93,12.27,0,7.43,6.04,13.47,13.47,13.47s13.47-6.04,13.47-13.47c0-.89-.09-1.75-.26-2.59h0,0ZM27.76,78.81c-3.7,0-6.71-3.01-6.71-6.71s3.01-6.71,6.71-6.71,6.71,3.01,6.71,6.71-3.01,6.71-6.71,6.71Z" style="fill: #55883d;"/>
  </g>
  <path d="M97.88,42.85c-1.82-.82-3.95-.02-4.78,1.8-4.99,11.01-15.3,18.12-26.26,18.12h-15.2c.04-11.82,2.68-21.19,7.9-28.06,4.66-6.12,11.44-10.37,20.39-12.78.26,6.46-1.69,12.84-5.4,18-3.95,5.54-9.93,9.65-17.33,10.92-.12.04-.24.06-.36.08-.48,2.19-.82,4.47-1.04,6.88.92-.08,1.77-.2,2.55-.34,9.25-1.58,16.72-6.72,21.67-13.61,4.92-6.86,7.32-15.49,6.48-24.12-.08-.9-.2-1.74-.34-2.51v-.02c-.32-1.86-2.11-3.08-3.95-2.71-12.38,2.53-21.71,7.91-27.99,16.17-6.11,8.06-9.21,18.74-9.26,32.05-13.58-.8-25.46-12.47-27.38-27.22l-.66-5.06c-.23-1.8-1.77-3.14-3.58-3.14H3.61c-1.99,0-3.61,1.62-3.61,3.61s1.62,3.61,3.61,3.61h6.55l.25,1.92c1.16,8.9,5.35,17.19,11.81,23.41,1.69-.77,3.57-1.2,5.54-1.2,6.54,0,12.01,4.69,13.22,10.88,1.8.31,3.63.47,5.46.47h20.4c3.6,0,7.18-.62,10.62-1.79,1.48-.5,2.94-1.09,4.36-1.8,1.46-.73,2.88-1.58,4.27-2.52.1-.07.2-.12.29-.19,1.2-.83,2.34-1.76,3.44-2.72,4.15-3.66,7.52-8.18,9.85-13.33.82-1.82.02-3.95-1.8-4.78h0v-.02Z" style="fill: #a5ce39;"/>
</svg>