<?xml version="1.0" encoding="UTF-8"?>
<svg id="Layer_1" xmlns="http://www.w3.org/2000/svg" version="1.1" xmlns:xlink="http://www.w3.org/1999/xlink" viewBox="0 0 32 32">
  <!-- Generator: Adobe Illustrator 29.3.0, SVG Export Plug-In . SVG Version: 2.1.0 Build 146)  -->
  <defs>
    <clipPath id="clippath">
      <path d="M31.364,13.032h-15.031v6.151h8.637c-.139.871-.451,1.727-.907,2.508-.523.895-1.17,1.576-1.832,2.095-1.985,1.554-4.3,1.872-5.908,1.872-4.061,0-7.53-2.681-8.874-6.323-.054-.132-.09-.269-.134-.404-.297-.927-.459-1.909-.459-2.929,0-1.062.176-2.079.496-3.039,1.263-3.787,4.811-6.615,8.974-6.615.837,0,1.644.102,2.408.305,1.747.464,2.984,1.378,3.741,2.101l4.57-4.571C24.266,1.578,20.642,0,16.319,0c-3.456,0-6.647,1.1-9.261,2.958-2.12,1.507-3.859,3.525-5.033,5.869C.933,11.001.335,13.409.335,15.999s.599,5.023,1.69,7.176v.015c1.153,2.286,2.839,4.254,4.889,5.754,1.79,1.311,5.001,3.057,9.405,3.057,2.533,0,4.778-.466,6.757-1.34,1.428-.631,2.693-1.453,3.839-2.51,1.514-1.397,2.699-3.124,3.508-5.112.809-1.988,1.242-4.235,1.242-6.672,0-1.135-.112-2.287-.301-3.335h0Z" fill="none"/>
    </clipPath>
    <radialGradient id="radial-gradient" cx="265.649" cy="-83.999" fx="265.649" fy="-83.999" r="8.349" gradientTransform="translate(-202.66 543.802) rotate(-92.339) scale(1.91 -2.806)" gradientUnits="userSpaceOnUse">
      <stop offset=".142" stop-color="#1abd4d"/>
      <stop offset=".248" stop-color="#6ec30d"/>
      <stop offset=".312" stop-color="#8ac502"/>
      <stop offset=".366" stop-color="#a2c600"/>
      <stop offset=".446" stop-color="#c8c903"/>
      <stop offset=".54" stop-color="#ebcb03"/>
      <stop offset=".616" stop-color="#f7cd07"/>
      <stop offset=".699" stop-color="#fdcd04"/>
      <stop offset=".771" stop-color="#fdce05"/>
      <stop offset=".861" stop-color="#ffce0a"/>
    </radialGradient>
    <radialGradient id="radial-gradient1" cx="203.808" cy="-59.37" fx="203.808" fy="-59.37" r="5.591" gradientTransform="translate(-376.305 -143.089) scale(1.977 -2.554)" gradientUnits="userSpaceOnUse">
      <stop offset=".408" stop-color="#fb4e5a"/>
      <stop offset="1" stop-color="#ff4540"/>
    </radialGradient>
    <radialGradient id="radial-gradient2" cx="177.926" cy="-81.613" fx="177.926" fy="-81.613" r="8.349" gradientTransform="translate(236.999 -390.524) rotate(151.02) scale(2.121 2.878)" gradientUnits="userSpaceOnUse">
      <stop offset=".231" stop-color="#ff4541"/>
      <stop offset=".312" stop-color="#ff4540"/>
      <stop offset=".458" stop-color="#ff4640"/>
      <stop offset=".54" stop-color="#ff473f"/>
      <stop offset=".699" stop-color="#ff5138"/>
      <stop offset=".771" stop-color="#ff5b33"/>
      <stop offset=".861" stop-color="#ff6c29"/>
      <stop offset="1" stop-color="#ff8c18"/>
    </radialGradient>
    <radialGradient id="radial-gradient3" cx="92.643" cy="-226.085" fx="92.643" fy="-226.085" r="8.349" gradientTransform="translate(694.846 156.253) rotate(-127.454) scale(5.533 2.042)" gradientUnits="userSpaceOnUse">
      <stop offset=".132" stop-color="#0cba65"/>
      <stop offset=".21" stop-color="#0bb86d"/>
      <stop offset=".297" stop-color="#09b479"/>
      <stop offset=".396" stop-color="#08ad93"/>
      <stop offset=".477" stop-color="#0aa6a9"/>
      <stop offset=".568" stop-color="#0d9cc6"/>
      <stop offset=".667" stop-color="#1893dd"/>
      <stop offset=".769" stop-color="#258bf1"/>
      <stop offset=".859" stop-color="#3086ff"/>
    </radialGradient>
    <radialGradient id="radial-gradient4" cx="177.238" cy="-104.609" fx="177.238" fy="-104.609" r="8.349" gradientTransform="translate(-239.698 -395.324) rotate(96.618) scale(2.066 2.857)" gradientUnits="userSpaceOnUse">
      <stop offset=".366" stop-color="#ff4e3a"/>
      <stop offset=".458" stop-color="#ff8a1b"/>
      <stop offset=".54" stop-color="#ffa312"/>
      <stop offset=".616" stop-color="#ffb60c"/>
      <stop offset=".771" stop-color="#ffcd0a"/>
      <stop offset=".861" stop-color="#fecf0a"/>
      <stop offset=".915" stop-color="#fecf08"/>
      <stop offset="1" stop-color="#fdcd01"/>
    </radialGradient>
    <radialGradient id="radial-gradient5" cx="233.613" cy="-91.236" fx="233.613" fy="-91.236" r="4.802" gradientTransform="translate(632.289 1.471) rotate(132.119) scale(1.784 -5.033)" gradientUnits="userSpaceOnUse">
      <stop offset=".316" stop-color="#ff4c3c"/>
      <stop offset=".604" stop-color="#ff692c"/>
      <stop offset=".727" stop-color="#ff7825"/>
      <stop offset=".885" stop-color="#ff8d1b"/>
      <stop offset="1" stop-color="#ff9f13"/>
    </radialGradient>
    <radialGradient id="radial-gradient6" cx="233.637" cy="-155.738" fx="233.637" fy="-155.738" r="8.349" gradientTransform="translate(236.999 666.403) rotate(-151.02) scale(2.121 -2.878)" gradientUnits="userSpaceOnUse">
      <stop offset=".231" stop-color="#0fbc5f"/>
      <stop offset=".312" stop-color="#0fbc5f"/>
      <stop offset=".366" stop-color="#0fbc5e"/>
      <stop offset=".458" stop-color="#0fbc5d"/>
      <stop offset=".54" stop-color="#12bc58"/>
      <stop offset=".699" stop-color="#28bf3c"/>
      <stop offset=".771" stop-color="#38c02b"/>
      <stop offset=".861" stop-color="#52c218"/>
      <stop offset=".915" stop-color="#67c30f"/>
      <stop offset="1" stop-color="#86c504"/>
    </radialGradient>
    <linearGradient id="linear-gradient" x1="109.112" y1="-75.172" x2="113.174" y2="-75.172" gradientTransform="translate(-90.132 -45.342) scale(.958 -.985)" gradientUnits="userSpaceOnUse">
      <stop offset="0" stop-color="#0fbc5c"/>
      <stop offset="1" stop-color="#0cba65"/>
    </linearGradient>
  </defs>
  <g clip-path="url(#clippath)">
    <g>
      <path d="M.104,16.107c.017,2.549.728,5.178,1.804,7.301v.015c.778,1.542,1.84,2.759,3.051,3.966l7.311-2.725c-1.383-.718-1.594-1.157-2.586-1.96-1.013-1.044-1.769-2.242-2.239-3.647h-.019l.019-.015c-.309-.928-.34-1.912-.351-2.936H.104Z" fill="url(#radial-gradient)"/>
      <path d="M16.334-.116c-.723,2.593-.446,5.114,0,6.58.835,0,1.638.102,2.401.305,1.747.464,2.983,1.378,3.741,2.101l4.687-4.688C24.386,1.581,21.044-.112,16.334-.116Z" fill="url(#radial-gradient1)"/>
      <path d="M16.318-.137c-3.545,0-6.817,1.128-9.499,3.034-.996.708-1.91,1.526-2.723,2.435-.213,2.042,1.596,4.553,5.178,4.532,1.738-2.065,4.308-3.401,7.169-3.401.003,0,.005,0,.008,0l-.117-6.6c-.005,0-.01,0-.016,0Z" fill="url(#radial-gradient2)"/>
      <path d="M28.018,16.846l-3.164,2.22c-.139.871-.451,1.727-.907,2.508-.523.895-1.17,1.576-1.832,2.095-1.981,1.551-4.29,1.87-5.897,1.871-1.661,2.89-1.952,4.337.117,6.669,2.56-.002,4.83-.474,6.832-1.358,1.447-.639,2.73-1.472,3.891-2.544,1.534-1.415,2.736-3.166,3.556-5.18.82-2.014,1.259-4.292,1.259-6.761l-3.853.48Z" fill="url(#radial-gradient3)"/>
      <path d="M16.1,12.798v6.619h15.222c.134-.906.577-2.079.577-3.051,0-1.135-.112-2.521-.301-3.568h-15.498Z" fill="#3086ff"/>
      <path d="M4.169,5.099c-.939,1.05-1.742,2.225-2.378,3.495C.699,10.767.101,13.409.101,15.999c0,.036.003.072.003.109.483.947,6.678.765,6.99,0,0-.036-.004-.071-.004-.106,0-1.062.176-1.845.496-2.805.395-1.184,1.014-2.275,1.804-3.215.179-.234.658-.736.797-1.038.053-.115-.096-.179-.105-.22-.009-.045-.21-.009-.255-.043-.143-.107-.425-.163-.597-.212-.367-.106-.975-.34-1.312-.582-1.067-.767-2.733-1.682-3.75-2.788h0Z" fill="url(#radial-gradient4)"/>
      <path d="M7.941,8.728c2.475,1.531,3.187-.773,4.832-1.494l-2.862-6.062c-1.053.452-2.048,1.014-2.971,1.67-1.378.98-2.596,2.176-3.601,3.536l4.602,2.35Z" fill="url(#radial-gradient5)"/>
      <path d="M8.949,24.196c-3.322,1.225-3.842,1.269-4.148,3.372.584.582,1.212,1.121,1.879,1.61,1.79,1.311,5.234,3.057,9.638,3.057.005,0,.01,0,.015,0v-6.81s-.007,0-.01,0c-1.649,0-2.967-.442-4.318-1.212-.333-.19-.938.32-1.245.092-.424-.314-1.444.271-1.811-.108h0Z" fill="url(#radial-gradient6)"/>
      <path d="M14.388,25.209v6.906c.616.074,1.258.118,1.93.118s1.327-.035,1.961-.1v-6.878c-.711.124-1.38.168-1.956.168-.664,0-1.31-.079-1.935-.215Z" fill="url(#linear-gradient)" isolation="isolate" opacity=".5"/>
    </g>
  </g>
</svg>