<?xml version="1.0" encoding="UTF-8"?>
<svg id="Layer_1" xmlns="http://www.w3.org/2000/svg" version="1.1" xmlns:xlink="http://www.w3.org/1999/xlink" viewBox="0 0 100 100">
  <!-- Generator: Adobe Illustrator 29.3.0, SVG Export Plug-In . SVG Version: 2.1.0 Build 146)  -->
  <defs>
    <clipPath id="clippath">
      <path d="M98.01,40.72h-46.97v19.22h26.99c-.43,2.72-1.41,5.4-2.83,7.84-1.63,2.8-3.66,4.92-5.72,6.55-6.2,4.86-13.44,5.85-18.46,5.85-12.69,0-23.53-8.38-27.73-19.76-.17-.41-.28-.84-.42-1.26-.93-2.9-1.43-5.97-1.43-9.15s.55-6.5,1.55-9.5c3.95-11.83,15.03-20.67,28.04-20.67,2.62,0,5.14.32,7.52.95,5.46,1.45,9.32,4.31,11.69,6.57l14.28-14.28C75.83,4.93,64.51,0,51,0c-10.8,0-20.77,3.44-28.94,9.24-6.62,4.71-12.06,11.02-15.73,18.34-3.41,6.79-5.28,14.32-5.28,22.41s1.87,15.7,5.28,22.42v.05c3.6,7.14,8.87,13.29,15.28,17.98,5.59,4.1,15.63,9.55,29.39,9.55,7.92,0,14.93-1.46,21.11-4.19,4.46-1.97,8.42-4.54,12-7.84,4.73-4.37,8.43-9.76,10.96-15.97,2.53-6.21,3.88-13.23,3.88-20.85,0-3.55-.35-7.15-.94-10.42Z" style="fill: none;"/>
    </clipPath>
    <radialGradient id="radial-gradient" cx="287.36" cy="146.73" fx="287.36" fy="146.73" r="26.09" gradientTransform="translate(-351.05 650.25) rotate(-92.34) scale(1.91 2.81)" gradientUnits="userSpaceOnUse">
      <stop offset=".14" stop-color="#1abd4d"/>
      <stop offset=".25" stop-color="#6ec30d"/>
      <stop offset=".31" stop-color="#8ac502"/>
      <stop offset=".37" stop-color="#a2c600"/>
      <stop offset=".45" stop-color="#c8c903"/>
      <stop offset=".54" stop-color="#ebcb03"/>
      <stop offset=".62" stop-color="#f7cd07"/>
      <stop offset=".7" stop-color="#fdcd04"/>
      <stop offset=".77" stop-color="#fdce05"/>
      <stop offset=".86" stop-color="#ffce0a"/>
    </radialGradient>
    <radialGradient id="radial-gradient1" cx="249.23" cy="119.16" fx="249.23" fy="119.16" r="17.47" gradientTransform="translate(-409.52 -277.65) scale(1.98 2.55)" gradientUnits="userSpaceOnUse">
      <stop offset=".41" stop-color="#fb4e5a"/>
      <stop offset="1" stop-color="#ff4540"/>
    </radialGradient>
    <radialGradient id="radial-gradient2" cx="198.99" cy="137.52" fx="198.99" fy="137.52" r="26.09" gradientTransform="translate(242.05 -557.63) rotate(151.02) scale(2.12 -2.88)" gradientUnits="userSpaceOnUse">
      <stop offset=".23" stop-color="#ff4541"/>
      <stop offset=".31" stop-color="#ff4540"/>
      <stop offset=".46" stop-color="#ff4640"/>
      <stop offset=".54" stop-color="#ff473f"/>
      <stop offset=".7" stop-color="#ff5138"/>
      <stop offset=".77" stop-color="#ff5b33"/>
      <stop offset=".86" stop-color="#ff6c29"/>
      <stop offset="1" stop-color="#ff8c18"/>
    </radialGradient>
    <radialGradient id="radial-gradient3" cx="122.2" cy="300.47" fx="122.2" fy="300.47" r="26.09" gradientTransform="translate(950.24 257.63) rotate(-127.45) scale(5.53 -2.04)" gradientUnits="userSpaceOnUse">
      <stop offset=".13" stop-color="#0cba65"/>
      <stop offset=".21" stop-color="#0bb86d"/>
      <stop offset=".3" stop-color="#09b479"/>
      <stop offset=".4" stop-color="#08ad93"/>
      <stop offset=".48" stop-color="#0aa6a9"/>
      <stop offset=".57" stop-color="#0d9cc6"/>
      <stop offset=".67" stop-color="#1893dd"/>
      <stop offset=".77" stop-color="#258bf1"/>
      <stop offset=".86" stop-color="#3086ff"/>
    </radialGradient>
    <radialGradient id="radial-gradient4" cx="197.93" cy="168.73" fx="197.93" fy="168.73" r="26.09" gradientTransform="translate(-384.91 -452.83) rotate(96.62) scale(2.07 -2.86)" gradientUnits="userSpaceOnUse">
      <stop offset=".37" stop-color="#ff4e3a"/>
      <stop offset=".46" stop-color="#ff8a1b"/>
      <stop offset=".54" stop-color="#ffa312"/>
      <stop offset=".62" stop-color="#ffb60c"/>
      <stop offset=".77" stop-color="#ffcd0a"/>
      <stop offset=".86" stop-color="#fecf0a"/>
      <stop offset=".92" stop-color="#fecf08"/>
      <stop offset="1" stop-color="#fdcd01"/>
    </radialGradient>
    <radialGradient id="radial-gradient5" cx="258.87" cy="162.22" fx="258.87" fy="162.22" r="15.01" gradientTransform="translate(953.36 213.26) rotate(132.12) scale(1.78 5.03)" gradientUnits="userSpaceOnUse">
      <stop offset=".32" stop-color="#ff4c3c"/>
      <stop offset=".6" stop-color="#ff692c"/>
      <stop offset=".73" stop-color="#ff7825"/>
      <stop offset=".89" stop-color="#ff8d1b"/>
      <stop offset="1" stop-color="#ff9f13"/>
    </radialGradient>
    <radialGradient id="radial-gradient6" cx="254.71" cy="211.64" fx="254.71" fy="211.64" r="26.09" gradientTransform="translate(242.05 901.51) rotate(-151.02) scale(2.12 2.88)" gradientUnits="userSpaceOnUse">
      <stop offset=".23" stop-color="#0fbc5f"/>
      <stop offset=".31" stop-color="#0fbc5f"/>
      <stop offset=".37" stop-color="#0fbc5e"/>
      <stop offset=".46" stop-color="#0fbc5d"/>
      <stop offset=".54" stop-color="#12bc58"/>
      <stop offset=".7" stop-color="#28bf3c"/>
      <stop offset=".77" stop-color="#38c02b"/>
      <stop offset=".86" stop-color="#52c218"/>
      <stop offset=".92" stop-color="#67c30f"/>
      <stop offset="1" stop-color="#86c504"/>
    </radialGradient>
    <linearGradient id="linear-gradient" x1="139.56" y1="168.63" x2="152.25" y2="168.63" gradientTransform="translate(-88.7 -76.35) scale(.96 .99)" gradientUnits="userSpaceOnUse">
      <stop offset="0" stop-color="#0fbc5c"/>
      <stop offset="1" stop-color="#0cba65"/>
    </linearGradient>
  </defs>
  <g style="clip-path: url(#clippath);">
    <g>
      <path d="M.33,50.33c.05,7.97,2.27,16.18,5.64,22.81v.05c2.43,4.82,5.75,8.62,9.53,12.39l22.85-8.52c-4.32-2.24-4.98-3.62-8.08-6.12-3.17-3.26-5.53-7.01-7-11.4h-.06l.06-.05c-.97-2.9-1.06-5.97-1.1-9.17H.33Z" style="fill: url(#radial-gradient);"/>
      <path d="M51.04-.36c-2.26,8.1-1.39,15.98,0,20.56,2.61,0,5.12.32,7.5.95,5.46,1.45,9.32,4.31,11.69,6.57l14.65-14.65C76.21,4.94,65.76-.35,51.04-.36Z" style="fill: url(#radial-gradient1);"/>
      <path d="M50.99-.43c-11.08,0-21.3,3.52-29.68,9.48-3.11,2.21-5.97,4.77-8.51,7.61-.67,6.38,4.99,14.23,16.18,14.16,5.43-6.45,13.46-10.63,22.4-10.63h.02l-.37-20.62s-.03,0-.05,0Z" style="fill: url(#radial-gradient2);"/>
      <path d="M87.56,52.64l-9.89,6.94c-.43,2.72-1.41,5.4-2.83,7.84-1.63,2.8-3.66,4.92-5.72,6.55-6.19,4.85-13.41,5.84-18.43,5.85-5.19,9.03-6.1,13.55.37,20.84,8,0,15.09-1.48,21.35-4.24,4.52-2,8.53-4.6,12.16-7.95,4.79-4.42,8.55-9.89,11.11-16.19,2.56-6.29,3.93-13.41,3.93-21.13l-12.04,1.5h0Z" style="fill: url(#radial-gradient3);"/>
      <path d="M50.31,39.99v20.68h47.57c.42-2.83,1.8-6.5,1.8-9.53,0-3.55-.35-7.88-.94-11.15,0,0-48.43,0-48.43,0Z" style="fill: #3086ff;"/>
      <path d="M13.03,15.93c-2.93,3.28-5.44,6.95-7.43,10.92C2.19,33.65.32,41.9.32,50c0,.11,0,.22,0,.34,1.51,2.96,20.87,2.39,21.84,0,0-.11-.01-.22-.01-.33,0-3.32.55-5.77,1.55-8.77,1.23-3.7,3.17-7.11,5.64-10.05.56-.73,2.06-2.3,2.49-3.24.17-.36-.3-.56-.33-.69-.03-.14-.66-.03-.8-.13-.45-.33-1.33-.51-1.87-.66-1.15-.33-3.05-1.06-4.1-1.82-3.33-2.4-8.54-5.26-11.72-8.71h0Z" style="fill: url(#radial-gradient4);"/>
      <path d="M24.82,27.27c7.73,4.78,9.96-2.42,15.1-4.67L30.97,3.66c-3.29,1.41-6.4,3.17-9.28,5.22-4.31,3.06-8.11,6.8-11.25,11.05,0,0,14.38,7.34,14.38,7.34Z" style="fill: url(#radial-gradient5);"/>
      <path d="M27.97,75.61c-10.38,3.83-12.01,3.97-12.96,10.54,1.82,1.82,3.79,3.5,5.87,5.03,5.59,4.1,16.36,9.55,30.12,9.55h.05v-21.28h-.03c-5.15,0-9.27-1.38-13.49-3.79-1.04-.59-2.93,1-3.89.29-1.32-.98-4.51.85-5.66-.34h0Z" style="fill: url(#radial-gradient6);"/>
      <path d="M44.96,78.78v21.58c1.92.23,3.93.37,6.03.37s4.15-.11,6.13-.31v-21.49c-2.22.39-4.31.52-6.11.52-2.07,0-4.09-.25-6.05-.67h0Z" style="fill: url(#linear-gradient); isolation: isolate; opacity: .5;"/>
    </g>
  </g>
</svg>