<?xml version="1.0" encoding="UTF-8"?>
<svg id="Layer_1" xmlns="http://www.w3.org/2000/svg" version="1.1" viewBox="0 0 20 20">
  <!-- Generator: Adobe Illustrator 29.3.0, SVG Export Plug-In . SVG Version: 2.1.0 Build 146)  -->
  <path d="M19.62,13.33s.05-.01.05-.04v-.03s-.02-.04-.05-.04h-.08v.12s.08,0,.08,0ZM19.54,13.55h-.1v-.41h.19c.09,0,.14.06.14.13,0,.06-.03.11-.08.13l.09.16h-.11l-.08-.14h-.06v.14h0ZM19.91,13.36v-.05c0-.17-.13-.3-.3-.3s-.3.13-.3.3v.05c0,.17.13.3.3.3s.3-.13.3-.3ZM19.21,13.34c0-.23.18-.41.4-.41s.4.18.4.41-.18.41-.4.41-.4-.18-.4-.41ZM13.51,6.78l-.18-.52h-2.97v.52h3.15,0ZM13.85,7.77l-.18-.52h-3.31v.52h3.49,0ZM16.06,13.72h2.59v-.52h-2.59v.52ZM16.06,12.73h2.59v-.52h-2.59v.52ZM16.06,11.74h1.55v-.52h-1.55v.52ZM16.06,10.75h1.55v-.52h-1.55v.52ZM16.06,9.75h1.55v-.52h-2.96l-.14.42-.14-.42h-2.96v.52h1.55v-.48l.17.48h2.77l.17-.48v.48ZM17.61,8.24h-2.62l-.18.52h2.8s0-.52,0-.52ZM11.4,10.75h1.55v-.52h-1.55v.52ZM11.4,11.74h1.55v-.52h-1.55v.52ZM10.36,12.73h2.59v-.52h-2.59v.52ZM10.36,13.72h2.59v-.52h-2.59v.52ZM15.68,6.26l-.18.52h3.15v-.52h-2.97ZM15.16,7.77h3.49v-.52h-3.31l-.18.52h0ZM11.4,8.76h2.8l-.18-.52h-2.62v.52h0ZM13.47,10.75h2.08l.18-.52h-2.44s.18.52.18.52ZM13.81,11.74h1.39l.18-.52h-1.75s.18.52.18.52ZM14.16,12.73h.69l.18-.52h-1.05s.18.52.18.52ZM14.51,13.72l.18-.52h-.36l.18.52ZM4.14,13.72h3.82c.52,0,.98-.19,1.34-.52h-5.15v.51h0ZM8.2,11.22v.52h1.74c0-.18-.02-.35-.07-.52h-1.67ZM5.18,11.74h1.55v-.52h-1.55s0,.52,0,.52ZM8.2,8.76h1.67c.05-.17.07-.34.07-.52h-1.74s0,.52,0,.52ZM5.18,8.76h1.55v-.52h-1.55s0,.52,0,.52ZM7.96,6.26h-3.82v.52h5.15c-.35-.32-.82-.52-1.34-.52h0ZM9.67,7.25h-5.53v.52h5.74c-.05-.19-.12-.36-.21-.52h0ZM5.18,9.23v.52h4.06c.17-.15.32-.32.43-.52h-4.49ZM9.24,10.23h-4.06v.52h4.49c-.11-.2-.26-.37-.43-.52ZM4.14,12.73h5.53c.09-.16.16-.33.21-.52h-5.73s0,.52,0,.52ZM0,6.78h3.63v-.52H0v.52ZM0,7.77h3.63v-.52H0v.52ZM1.04,8.76h1.55v-.52h-1.55v.52ZM1.04,9.75h1.55v-.52h-1.55v.52ZM1.04,10.75h1.55v-.52h-1.55v.52ZM1.04,11.74h1.55v-.52h-1.55v.52ZM0,12.73h3.63v-.52H0v.52ZM0,13.72h3.63v-.52H0v.52Z" style="fill: #0f62fe;"/>
</svg>