<?xml version="1.0" encoding="UTF-8"?>
<svg id="Layer_1" xmlns="http://www.w3.org/2000/svg" version="1.1" viewBox="0 0 100 100">
  <!-- Generator: Adobe Illustrator 29.3.0, SVG Export Plug-In . SVG Version: 2.1.0 Build 146)  -->
  <path d="M94.52,65.4c.15,0,.23-.06.23-.2v-.14c0-.14-.08-.2-.23-.2h-.35v.54h.35ZM94.17,66.41h-.47v-1.92h.87c.43,0,.65.26.65.61,0,.3-.14.49-.35.58l.43.73h-.51l-.36-.66h-.27v.66h0ZM95.85,65.56v-.24c0-.77-.6-1.38-1.4-1.38s-1.4.61-1.4,1.38v.24c0,.77.6,1.38,1.4,1.38s1.4-.61,1.4-1.38ZM92.62,65.43c0-1.07.82-1.89,1.83-1.89s1.83.82,1.83,1.89-.82,1.89-1.83,1.89-1.83-.82-1.83-1.89ZM66.24,35.08l-.83-2.41h-13.73v2.41h14.57,0ZM67.83,39.67l-.83-2.41h-15.32v2.41h16.16ZM78.04,67.23h11.99v-2.41h-11.99v2.41ZM78.04,62.64h11.99v-2.41h-11.99v2.41ZM78.04,58.04h7.19v-2.41h-7.19v2.41ZM78.04,53.45h7.19v-2.41h-7.19v2.41ZM78.04,48.86h7.19v-2.41h-13.71l-.67,1.94-.67-1.94h-13.71v2.41h7.19v-2.21l.77,2.21h12.84l.77-2.21s0,2.21,0,2.21ZM85.24,41.86h-12.12l-.83,2.41h12.95v-2.41ZM56.47,53.45h7.19v-2.41h-7.19v2.41ZM56.47,58.04h7.19v-2.41h-7.19v2.41ZM51.67,62.64h11.99v-2.41h-11.99v2.41ZM51.67,67.23h11.99v-2.41h-11.99v2.41ZM76.3,32.67l-.83,2.41h14.57v-2.41h-13.73ZM73.88,39.67h16.16v-2.41h-15.32l-.83,2.41ZM56.47,44.26h12.95l-.83-2.41h-12.12v2.41h0ZM66.04,53.45h9.63l.84-2.41h-11.31s.84,2.41.84,2.41ZM67.65,58.04h6.41l.84-2.41h-8.09l.84,2.41ZM69.25,62.64h3.2l.84-2.41h-4.88l.84,2.41ZM70.85,67.23l.84-2.41h-1.67l.83,2.41ZM22.9,67.2l17.66.02c2.4,0,4.55-.91,6.18-2.41h-23.83v2.38ZM41.65,55.64v2.41h8.06c0-.83-.11-1.64-.32-2.41h-7.74ZM27.7,58.04h7.19v-2.41h-7.19v2.41ZM41.65,44.26h7.74c.21-.77.32-1.57.32-2.41h-8.06v2.41ZM27.7,44.26h7.19v-2.41h-7.19v2.41ZM40.56,32.67h-17.66v2.41h23.83c-1.63-1.49-3.79-2.41-6.18-2.41ZM48.48,37.26h-25.58v2.41h26.55c-.21-.86-.54-1.66-.96-2.41ZM27.7,46.45v2.41h18.78c.8-.68,1.47-1.49,2-2.41h-20.78ZM46.48,51.04h-18.78v2.41h20.78c-.53-.91-1.2-1.73-2-2.41ZM22.9,62.64h25.58c.43-.74.75-1.55.96-2.41h-26.54v2.41ZM3.72,35.08h16.78v-2.41H3.72v2.41ZM3.72,39.67h16.78v-2.41H3.72v2.41ZM8.52,44.26h7.19v-2.41h-7.19v2.41ZM8.52,48.86h7.19v-2.41h-7.19v2.41ZM8.52,53.45h7.19v-2.41h-7.19v2.41ZM8.52,58.04h7.19v-2.41h-7.19v2.41ZM3.72,62.64h16.78v-2.41H3.72v2.41ZM3.72,67.23h16.78v-2.41H3.72v2.41Z" style="fill: #0f62fe;"/>
</svg>