<?xml version="1.0" encoding="UTF-8"?>
<svg id="Layer_1" xmlns="http://www.w3.org/2000/svg" version="1.1" viewBox="0 0 32 32">
  <!-- Generator: Adobe Illustrator 29.3.0, SVG Export Plug-In . SVG Version: 2.1.0 Build 146)  -->
  <path d="M31.392,21.324c.051,0,.079-.022.079-.07v-.048c0-.048-.028-.07-.079-.07h-.12v.187h.12ZM31.272,21.673h-.161v-.664h.301c.149,0,.225.089.225.21,0,.105-.047.171-.12.2l.149.254h-.177l-.123-.229h-.092v.229ZM31.851,21.378v-.083c0-.267-.209-.476-.484-.476s-.484.21-.484.476v.083c0,.267.209.476.484.476s.484-.21.484-.476ZM30.734,21.336c0-.371.282-.654.633-.654s.633.283.633.654-.282.655-.633.655-.633-.283-.633-.655ZM21.614,10.841l-.288-.832h-4.747v.832h5.036ZM22.164,12.429l-.288-.832h-5.298v.832h5.586ZM25.696,21.957h4.144v-.832h-4.144v.832ZM25.696,20.369h4.144v-.832h-4.144v.832ZM25.696,18.781h2.487v-.832h-2.487v.832ZM25.696,17.193h2.487v-.832h-2.487v.832ZM25.696,15.605h2.487v-.832h-4.74l-.233.672-.233-.672h-4.741v.832h2.487v-.764l.267.764h4.439l.267-.764v.764ZM28.183,13.185h-4.19l-.288.832h4.478v-.832ZM18.236,17.193h2.487v-.832h-2.487v.832ZM18.236,18.781h2.487v-.832h-2.487v.832ZM16.578,20.369h4.144v-.832h-4.144v.832ZM16.578,21.957h4.144v-.832h-4.144v.832ZM25.093,10.009l-.288.832h5.036v-.832h-4.747ZM24.255,12.429h5.586v-.832h-5.298l-.288.832ZM18.236,14.017h4.479l-.288-.832h-4.19v.832ZM21.545,17.193h3.328l.291-.832h-3.91l.291.832ZM22.101,18.781h2.216l.291-.832h-2.798l.291.832ZM22.657,20.369h1.105l.291-.832h-1.687l.291.832ZM23.208,21.957l.289-.832h-.576l.287.832ZM6.631,21.948l6.104.008c.829,0,1.572-.315,2.135-.832H6.631v.824ZM13.112,17.949v.832h2.788c0-.288-.039-.566-.111-.832h-2.677ZM8.289,18.781h2.487v-.832h-2.487v.832ZM13.112,14.017h2.677c.071-.265.111-.544.111-.832h-2.788v.832ZM8.289,14.017h2.487v-.832h-2.487v.832ZM12.735,10.009h-6.104v.832h8.239c-.563-.516-1.312-.832-2.135-.832ZM15.476,11.597H6.631v.832h9.178c-.072-.296-.186-.575-.333-.832ZM8.289,14.773v.832h6.494c.275-.235.509-.516.692-.832h-7.186ZM14.783,16.361h-6.494v.832h7.186c-.182-.316-.416-.597-.692-.832ZM6.631,20.369h8.844c.148-.257.261-.536.333-.832H6.631v.832ZM0,10.841h5.802v-.832H0v.832ZM0,12.429h5.802v-.832H0v.832ZM1.658,14.017h2.487v-.832H1.658v.832ZM1.658,15.605h2.487v-.832H1.658v.832ZM1.658,17.193h2.487v-.832H1.658v.832ZM1.658,18.781h2.487v-.832H1.658v.832ZM0,20.369h5.802v-.832H0v.832ZM0,21.957h5.802v-.832H0v.832Z" fill="#0f62fe"/>
</svg>