<?xml version="1.0" encoding="UTF-8"?>
<svg id="Layer_1" xmlns="http://www.w3.org/2000/svg" version="1.1" viewBox="0 0 20 20">
  <!-- Generator: Adobe Illustrator 29.3.0, SVG Export Plug-In . SVG Version: 2.1.0 Build 146)  -->
  <g>
    <path d="M15.62,11.87c-2.77-2.58-2.3-4.97-2.26-4.97,1.04,0,1.02-1.07,1.02-1.07h2.5s-.02,1.07,1.02,1.07c.04,0,.51,2.38-2.26,4.97h-.02ZM15.62,11.03c-1.82-1.82-1.75-3.69-1.69-3.71.9-.3.91-.95.91-.95h1.57s0,.65.91.95c.05.02.13,1.89-1.69,3.71h0Z" style="fill: #0097d7; fill-rule: evenodd;"/>
    <path d="M4.36,9.69c-.14,1.11-.71,1.66-1.9,1.66s-1.62-.66-1.66-1.26c-.01-.23.01-.61.07-.88h1.33c-.02.18-.09.48-.08.66.01.21.13.34.34.34.26,0,.35-.15.38-.39l.54-3.4h1.49l-.52,3.28Z" style="fill: #0097d7;"/>
    <path d="M9.63,9.4c-.06.49-.36,1.95-2.37,1.95-1.4,0-2.12-.91-2.19-2.2-.08-1.56.82-2.86,2.46-2.86,1.07,0,2.06.47,2.16,1.91h-1.41c-.01-.45-.24-.71-.7-.71-.82,0-1.07.95-1.03,1.63.02.4.15,1.02.83,1.02.47,0,.71-.32.78-.74h1.46Z" style="fill: #0097d7;"/>
    <path d="M10.77,6.41h1.49l-.74,4.82h-1.49l.74-4.82Z" style="fill: #0097d7;"/>
    <path d="M15.78,6.99s.02.04.05.03c.02-.05-.03-.06-.06-.03,0,0,0,0,.01.01" style="fill: #0097d7; fill-rule: evenodd;"/>
    <g>
      <path d="M15.62,6.77c-.73,0-1.32.59-1.32,1.32s.59,1.32,1.32,1.32,1.32-.59,1.32-1.32-.59-1.32-1.32-1.32ZM16.84,8.05h-.19c0-.18-.06-.35-.15-.5.04.01.09.02.09-.03-.06-.02-.12-.05-.17-.09-.01-.02-.03-.03-.04-.05l.14-.14c.2.21.32.49.33.79ZM16.4,8.53s-.05.1-.03.14c-.01.02-.02.03-.04.04-.01-.06-.04-.13-.05-.15,0,0,0-.01-.01-.02.08-.11.13-.25.14-.4h.16c0,.15-.05.28-.11.4-.02,0-.04,0-.05-.01ZM16.19,7.34s0,.06,0,.09c0,.02,0,.03,0,.04l-.03.03s-.04-.04-.06-.05c-.03-.01-.06-.04-.07-.01-.11-.07-.24-.11-.37-.12v-.16c.2,0,.38.08.52.19ZM15.32,8.45l.26-.26v.37c-.1,0-.19-.05-.26-.11ZM15.73,8.31s0-.03.01-.04l.04.04s-.01.01-.01.02h0s.02,0,.03,0h-.03s-.08.08-.1.1c0,0-.01.02-.02.03v-.28l.05.05s0,.06.02.07ZM15.32,7.73s.05-.04.08-.05c-.02.03-.03.07-.03.1l-.05-.05ZM15.48,7.82c.07.01.07.05.1,0v.12s-.01-.02-.02-.03c-.04-.07-.06-.05-.09-.02l-.07-.07s.05-.01.07,0ZM15.74,8.15l-.02-.02h.04s-.02,0-.02.02ZM15.72,8.05l.03-.03s0,.02,0,.03h-.03ZM15.78,7.73s-.04.09-.05.13c0,.03,0,.05,0,.07l-.08.08v-.35s0-.02.01-.03c.05,0,.09.02.13.04-.01.02-.03.04-.04.07ZM15.59,7.55c-.12,0-.23.06-.32.13l-.1-.1c.11-.1.26-.17.42-.17v.15ZM15.34,7.86s0,0,0,0c-.05.06,0,.08.02.13,0-.03,0-.07,0-.11l.05.05s.02.08.06.11h-.32c0-.1.05-.19.11-.27l.07.07ZM15.53,8.13l-.26.26c-.06-.07-.1-.16-.11-.26h.37ZM15.23,8.55s.06,0,.1,0c.08.05.17.08.26.09v.15c-.16,0-.3-.07-.41-.17l.06-.06ZM15.66,8.68c.05.06.14.06.22.05-.07.03-.14.05-.22.05v-.1ZM15.98,7.65s-.07-.05-.1-.04c-.06-.03-.13-.05-.21-.06v-.15c.16,0,.31.07.42.17l-.09.09s-.01-.01-.02-.02ZM15.59,7.31c-.19,0-.36.08-.49.2l-.11-.11c.16-.15.37-.24.6-.25v.16ZM15.21,7.74c-.07.09-.12.2-.13.32h-.14c0-.16.07-.31.17-.42l.1.1ZM15.08,8.13s0,.06.01.08c-.02,0-.05,0-.06-.01,0,.04-.04.03-.06.05.01.02.01.04,0,.06-.02-.06-.03-.12-.04-.18h.14ZM15.1,8.67c.13.12.3.19.48.2v.16c-.23,0-.43-.1-.59-.24l.11-.11ZM15.66,8.87c.13,0,.25-.05.36-.11.03,0,.07,0,.1,0,.04,0,.07.03.1.05-.15.13-.35.21-.56.22v-.16ZM16.19,8.47s-.03-.03-.05-.04c-.02-.03-.03-.06-.04-.1.02-.05.04-.1.05-.15.02-.02.04-.03.06-.05h.09c0,.13-.05.24-.12.34ZM16.28,8.05c-.04-.06-.1-.1-.14-.16-.03-.05-.06-.11-.1-.16l.1-.1c.1.11.16.26.17.42h-.03ZM16.32,7.34s-.03-.02-.04-.04c-.03-.07-.07-.19-.11-.17,0,.03,0,.06,0,.08,0,0,0,.01,0,.02-.15-.1-.33-.16-.52-.16v-.19c.31,0,.59.13.79.33l-.14.14ZM15.59,7.07c-.25,0-.48.11-.66.27l-.14-.14c.21-.2.49-.32.79-.33v.19ZM15.04,7.57c-.12.13-.19.3-.2.48h-.16c0-.23.1-.44.24-.6l.11.11ZM14.85,8.13c0,.1.03.19.07.27-.03.03-.06.06-.08.09.08.06.1.13.21.13l-.11.11c-.15-.16-.24-.36-.25-.59h.16ZM14.93,8.84c.17.16.4.26.65.27v.19c-.31,0-.58-.13-.79-.33l.14-.14ZM15.66,9.11c.25,0,.48-.11.65-.27l.14.14c-.21.19-.49.32-.79.33v-.19ZM16.4,8.05c0-.13-.04-.24-.1-.35.02,0,.04.01.06,0-.05-.05-.1-.1-.15-.15l.06-.06s.02,0,.03,0c.02,0,.03,0,.04,0,.13.15.2.35.21.56h-.16ZM14.73,7.26l.14.14c-.16.17-.26.4-.27.66h-.19c0-.31.13-.59.33-.79ZM14.41,8.13h.19c.01.25.11.48.27.65l-.14.14c-.2-.21-.32-.49-.33-.79ZM16.51,8.92l-.14-.14s.05-.05.07-.08c.02,0,.03-.02.06-.05.04-.03.04-.03.09-.04,0-.05-.02-.06-.06-.07.06-.13.1-.27.11-.41h.19c-.01.31-.13.58-.33.79Z" style="fill: #0097d7; fill-rule: evenodd;"/>
      <path d="M16.11,7.44s0,0,0,0c0,0,.01,0,.02,0h-.02Z" style="fill: #0097d7; fill-rule: evenodd;"/>
      <path d="M16.39,8.52s0,0,.01,0c0,0,0,0,.01-.01h-.02Z" style="fill: #0097d7; fill-rule: evenodd;"/>
      <path d="M15.02,8.2s.01,0,.02,0c0,0,0,0,0,0h-.02Z" style="fill: #0097d7; fill-rule: evenodd;"/>
    </g>
    <path d="M18.59,10.6h.12l.18.54.18-.54h.12v.63h-.08v-.37s0-.03,0-.06c0-.03,0-.06,0-.1l-.18.53h-.08l-.18-.53v.02s0,.04,0,.07c0,.03,0,.06,0,.07v.37h-.08v-.63Z" style="fill: #0097d7;"/>
    <path d="M18.12,10.7h-.19v-.07h.46v.07h-.19v.55h-.08v-.55Z" style="fill: #0097d7;"/>
  </g>
  <g>
    <path d="M2.58,13.77v-1.47h.69c.31,0,.47.12.47.36,0,.14-.07.24-.2.31.18.05.27.18.27.37,0,.14-.05.25-.16.32-.09.07-.21.1-.36.1h-.71ZM2.9,12.55v.34h.33c.13,0,.2-.06.2-.17s-.07-.17-.22-.17h-.3ZM2.9,13.12v.4h.35c.16,0,.24-.06.24-.19,0-.14-.08-.21-.23-.21h-.35Z" style="fill: #edbd38;"/>
    <path d="M4.28,13.03h-.29c0-.13.06-.22.17-.28.08-.05.2-.08.33-.08.31,0,.47.1.47.3v.55c0,.12.01.2.04.24h-.3s-.02-.07-.02-.1c-.08.09-.2.13-.36.13-.11,0-.19-.03-.26-.08-.07-.06-.1-.14-.1-.24s.04-.19.11-.24c.05-.04.14-.06.25-.08.16-.02.24-.03.24-.03.07-.02.1-.05.1-.1,0-.06-.02-.1-.06-.12-.03-.02-.07-.02-.13-.02-.12,0-.18.05-.19.16ZM4.66,13.36v-.11s-.07.04-.15.05c-.09.01-.15.03-.18.04-.06.03-.09.07-.09.13,0,.09.06.14.18.14.16,0,.24-.08.24-.24Z" style="fill: #edbd38;"/>
    <path d="M5.18,13.77v-1.06h.28v.15h0c.07-.12.18-.18.32-.18s.25.04.31.12c.05.07.08.17.08.32v.65h-.29v-.6c0-.17-.06-.26-.19-.26-.08,0-.14.02-.17.07-.04.05-.05.13-.05.23v.56h-.29Z" style="fill: #edbd38;"/>
    <path d="M7.41,12.71v.99c0,.31-.18.47-.55.47-.12,0-.22-.03-.31-.08-.1-.06-.15-.15-.16-.26h.29c.02.1.1.15.22.15.16,0,.23-.09.23-.26v-.14h0c-.06.11-.17.16-.32.16s-.27-.05-.35-.16c-.07-.09-.11-.22-.11-.38,0-.15.04-.27.12-.37.08-.11.2-.16.34-.16s.25.06.32.17h0v-.14h.28ZM6.89,13.52c.08,0,.14-.03.19-.09.04-.05.06-.12.06-.2,0-.22-.08-.33-.25-.33-.08,0-.14.03-.18.09-.04.05-.06.12-.06.21s.02.16.05.22c.04.07.1.1.18.1Z" style="fill: #edbd38;"/>
    <path d="M7.66,13.77v-1.47h.29v1.47h-.29Z" style="fill: #edbd38;"/>
    <path d="M8.46,13.03h-.29c0-.13.06-.22.17-.28.08-.05.2-.08.33-.08.31,0,.47.1.47.3v.55c0,.12.01.2.04.24h-.3s-.02-.07-.02-.1c-.08.09-.2.13-.36.13-.11,0-.19-.03-.26-.08-.07-.06-.1-.14-.1-.24s.04-.19.11-.24c.05-.04.14-.06.25-.08.16-.02.24-.03.24-.03.07-.02.1-.05.1-.1,0-.06-.02-.1-.06-.12-.03-.02-.07-.02-.13-.02-.12,0-.18.05-.19.16ZM8.84,13.36v-.11s-.07.04-.15.05c-.09.01-.15.03-.18.04-.06.03-.09.07-.09.13,0,.09.06.14.18.14.16,0,.24-.08.24-.24Z" style="fill: #edbd38;"/>
    <path d="M10.12,13.77v-.14h0c-.06.11-.17.16-.32.16s-.27-.06-.36-.17c-.08-.11-.12-.24-.12-.39s.04-.28.12-.38c.09-.11.2-.17.35-.17s.25.05.32.16h0v-.53h.29v1.47h-.28ZM10.11,13.23c0-.1-.02-.18-.05-.23-.04-.07-.11-.1-.2-.1s-.16.03-.2.1c-.04.06-.06.14-.06.23s.02.17.06.23c.05.07.11.11.2.11.17,0,.25-.11.25-.34Z" style="fill: #edbd38;"/>
    <path d="M11.62,13.31h-.77c0,.18.1.27.26.27.06,0,.11-.02.15-.05.04-.03.07-.06.08-.09h.26c-.08.24-.24.36-.5.36-.17,0-.3-.05-.4-.16-.1-.1-.15-.24-.15-.4s.05-.3.15-.4c.1-.11.23-.16.39-.16.17,0,.31.06.4.19.09.12.13.26.12.44ZM10.85,13.12h.47c-.03-.15-.1-.23-.23-.23-.08,0-.15.03-.19.08-.03.04-.05.09-.05.14Z" style="fill: #edbd38;"/>
    <path d="M11.74,13.42h.28c0,.06.02.11.07.14.04.03.09.04.15.04.05,0,.09,0,.13-.03.04-.02.06-.06.06-.11,0-.04-.03-.07-.09-.1-.04-.02-.12-.04-.24-.07-.1-.02-.18-.05-.23-.09-.07-.05-.1-.11-.1-.2,0-.23.15-.34.46-.34s.45.11.47.34h-.28c0-.1-.07-.14-.2-.14-.11,0-.16.03-.16.1,0,.05.03.08.1.1,0,0,.08.02.23.05.11.02.18.05.23.09.07.05.1.12.1.21,0,.13-.05.23-.15.29-.08.05-.19.08-.33.08s-.25-.03-.34-.08c-.1-.06-.16-.16-.16-.29Z" style="fill: #edbd38;"/>
    <path d="M12.9,13.77v-1.47h.29v.55h0c.04-.06.08-.1.14-.13.05-.03.11-.04.17-.04.15,0,.25.04.31.12.05.07.08.17.08.32v.65h-.29v-.6c0-.17-.06-.26-.19-.26-.08,0-.14.02-.17.07-.04.05-.05.13-.05.23v.56h-.29Z" style="fill: #edbd38;"/>
  </g>
</svg>