<?xml version="1.0" encoding="UTF-8"?>
<svg id="Layer_1" xmlns="http://www.w3.org/2000/svg" version="1.1" xmlns:xlink="http://www.w3.org/1999/xlink" viewBox="0 0 32 32">
  <!-- Generator: Adobe Illustrator 29.3.0, SVG Export Plug-In . SVG Version: 2.1.0 Build 146)  -->
  <defs>
    <linearGradient id="linear-gradient" x1="-1065.964" y1="-123.979" x2="-1072.258" y2="-105.386" gradientTransform="translate(1679.688 196.875) scale(1.562)" gradientUnits="userSpaceOnUse">
      <stop offset="0" stop-color="#114a8b"/>
      <stop offset="1" stop-color="#0669bc"/>
    </linearGradient>
    <linearGradient id="linear-gradient1" x1="-1063.998" y1="-115.314" x2="-1065.454" y2="-114.822" gradientTransform="translate(1679.688 196.875) scale(1.562)" gradientUnits="userSpaceOnUse">
      <stop offset="0" stop-color="#000" stop-opacity=".3"/>
      <stop offset=".071" stop-color="#000" stop-opacity=".2"/>
      <stop offset=".321" stop-color="#000" stop-opacity=".1"/>
      <stop offset=".623" stop-color="#000" stop-opacity=".05"/>
      <stop offset="1" stop-color="#000" stop-opacity="0"/>
    </linearGradient>
    <linearGradient id="linear-gradient2" x1="-1064.753" y1="-124.538" x2="-1057.845" y2="-106.132" gradientTransform="translate(1679.688 196.875) scale(1.562)" gradientUnits="userSpaceOnUse">
      <stop offset="0" stop-color="#3ccbf4"/>
      <stop offset="1" stop-color="#2892df"/>
    </linearGradient>
  </defs>
  <path d="M10.668.924h9.469l-9.83,29.125c-.207.614-.783,1.027-1.43,1.027H1.508C.675,31.076,0,30.401,0,29.569c0-.164.027-.327.079-.482L9.237,1.951c.207-.614.783-1.027,1.431-1.027h0Z" fill="url(#linear-gradient)"/>
  <path d="M24.428,20.459h-15.016c-.384,0-.695.31-.696.694,0,.193.08.378.221.509l9.649,9.006c.281.262.651.408,1.035.408h8.502l-3.696-10.617Z" fill="#0078d4"/>
  <path d="M10.668.924c-.656-.003-1.237.422-1.434,1.047L.09,29.062c-.281.783.126,1.645.909,1.926.164.059.338.089.512.088h7.559c.573-.102,1.047-.505,1.24-1.055l1.823-5.374,6.513,6.075c.273.226.615.351.97.353h8.471l-3.715-10.617-10.83.003L20.171.924h-9.503Z" fill="url(#linear-gradient1)"/>
  <path d="M22.762,1.95c-.207-.613-.782-1.026-1.428-1.026h-10.553c.647,0,1.222.413,1.428,1.026l9.159,27.137c.266.789-.157,1.644-.946,1.911-.155.052-.318.079-.482.079h10.554c.833,0,1.508-.675,1.507-1.508,0-.164-.027-.327-.079-.482L22.762,1.95Z" fill="url(#linear-gradient2)"/>
</svg>