<?xml version="1.0" encoding="UTF-8"?>
<svg id="Layer_1" xmlns="http://www.w3.org/2000/svg" version="1.1" xmlns:xlink="http://www.w3.org/1999/xlink" viewBox="0 0 100 100">
  <!-- Generator: Adobe Illustrator 29.3.0, SVG Export Plug-In . SVG Version: 2.1.0 Build 146)  -->
  <defs>
    <linearGradient id="linear-gradient" x1="-1034.79" y1="207.7" x2="-1054.46" y2="149.6" gradientTransform="translate(1660.58 333.97) scale(1.56 -1.56)" gradientUnits="userSpaceOnUse">
      <stop offset="0" stop-color="#114a8b"/>
      <stop offset="1" stop-color="#0669bc"/>
    </linearGradient>
    <linearGradient id="linear-gradient1" x1="-1027.8" y1="180.72" x2="-1032.35" y2="179.18" gradientTransform="translate(1660.58 333.97) scale(1.56 -1.56)" gradientUnits="userSpaceOnUse">
      <stop offset="0" stop-color="#000" stop-opacity=".3"/>
      <stop offset=".07" stop-color="#000" stop-opacity=".2"/>
      <stop offset=".32" stop-color="#000" stop-opacity=".1"/>
      <stop offset=".62" stop-color="#000" stop-opacity=".05"/>
      <stop offset="1" stop-color="#000" stop-opacity="0"/>
    </linearGradient>
    <linearGradient id="linear-gradient2" x1="-1030.91" y1="208.78" x2="-1009.32" y2="151.26" gradientTransform="translate(1660.58 333.97) scale(1.56 -1.56)" gradientUnits="userSpaceOnUse">
      <stop offset="0" stop-color="#3ccbf4"/>
      <stop offset="1" stop-color="#2892df"/>
    </linearGradient>
  </defs>
  <path d="M33.34,2.89h29.59l-30.72,91.01c-.65,1.92-2.45,3.21-4.47,3.21H4.71C2.11,97.11,0,95,0,92.4,0,91.89.08,91.38.25,90.89L28.86,6.1c.65-1.92,2.45-3.21,4.47-3.21h0Z" style="fill: url(#linear-gradient);"/>
  <path d="M76.34,63.93H29.41c-1.2,0-2.17.97-2.17,2.17,0,.6.25,1.18.69,1.59l30.15,28.14c.88.82,2.03,1.27,3.23,1.27h26.57l-11.55-33.18h0Z" style="fill: #0078d4;"/>
  <path d="M33.34,2.89c-2.05,0-3.87,1.32-4.48,3.27L.28,90.82c-.88,2.45.39,5.14,2.84,6.02.51.18,1.06.28,1.6.27h23.62c1.79-.32,3.27-1.58,3.87-3.3l5.7-16.79,20.35,18.98c.85.71,1.92,1.1,3.03,1.1h26.47l-11.61-33.18h-33.84S63.03,2.89,63.03,2.89c0,0-29.7,0-29.7,0Z" style="fill: url(#linear-gradient1);"/>
  <path d="M71.13,6.09c-.65-1.92-2.44-3.21-4.46-3.21h-32.98c2.02,0,3.82,1.29,4.46,3.21l28.62,84.8c.83,2.47-.49,5.14-2.96,5.97-.48.16-.99.25-1.51.25h32.98c2.6,0,4.71-2.11,4.71-4.71,0-.51-.08-1.02-.25-1.51L71.13,6.09Z" style="fill: url(#linear-gradient2);"/>
</svg>