<?xml version="1.0" encoding="UTF-8"?>
<svg id="Layer_1" xmlns="http://www.w3.org/2000/svg" version="1.1" xmlns:xlink="http://www.w3.org/1999/xlink" viewBox="0 0 20 20">
  <!-- Generator: Adobe Illustrator 29.3.0, SVG Export Plug-In . SVG Version: 2.1.0 Build 146)  -->
  <defs>
    <linearGradient id="linear-gradient" x1="-1060.95" y1="-183.05" x2="-1064.88" y2="-171.43" gradientTransform="translate(1663.94 287.41) scale(1.56)" gradientUnits="userSpaceOnUse">
      <stop offset="0" stop-color="#114a8b"/>
      <stop offset="1" stop-color="#0669bc"/>
    </linearGradient>
    <linearGradient id="linear-gradient1" x1="-1059.33" y1="-177.69" x2="-1060.24" y2="-177.38" gradientTransform="translate(1663.94 287.41) scale(1.56)" gradientUnits="userSpaceOnUse">
      <stop offset="0" stop-color="#000" stop-opacity=".3"/>
      <stop offset=".07" stop-color="#000" stop-opacity=".2"/>
      <stop offset=".32" stop-color="#000" stop-opacity=".1"/>
      <stop offset=".62" stop-color="#000" stop-opacity=".05"/>
      <stop offset="1" stop-color="#000" stop-opacity="0"/>
    </linearGradient>
    <linearGradient id="linear-gradient2" x1="-1060.13" y1="-183.1" x2="-1055.81" y2="-171.59" gradientTransform="translate(1663.94 287.41) scale(1.56)" gradientUnits="userSpaceOnUse">
      <stop offset="0" stop-color="#3ccbf4"/>
      <stop offset="1" stop-color="#2892df"/>
    </linearGradient>
  </defs>
  <path d="M6.67.58h5.92l-6.14,18.2c-.13.38-.49.64-.89.64H.94c-.52,0-.94-.42-.94-.94,0-.1.02-.2.05-.3L5.77,1.22c.13-.38.49-.64.89-.64h0Z" style="fill: url(#linear-gradient);"/>
  <path d="M15.27,12.79H5.88c-.24,0-.43.19-.43.43,0,.12.05.24.14.32l6.03,5.63c.18.16.41.25.65.25h5.31l-2.31-6.64h0Z" style="fill: #0078d4;"/>
  <path d="M6.67.58c-.41,0-.77.26-.9.65L.06,18.17c-.18.49.08,1.03.57,1.2.1.04.21.06.32.05h4.72c.36-.06.65-.32.77-.66l1.14-3.36,4.07,3.8c.17.14.38.22.61.22h5.29l-2.32-6.64h-6.77L12.61.58h-5.94,0Z" style="fill: url(#linear-gradient1);"/>
  <path d="M14.23,1.22c-.13-.38-.49-.64-.89-.64h-6.6c.4,0,.76.26.89.64l5.72,16.96c.17.49-.1,1.03-.59,1.19-.1.03-.2.05-.3.05h6.6c.52,0,.94-.42.94-.94,0-.1-.02-.2-.05-.3L14.23,1.22Z" style="fill: url(#linear-gradient2);"/>
</svg>