<?xml version="1.0" encoding="UTF-8"?>
<svg id="Layer_1" xmlns="http://www.w3.org/2000/svg" version="1.1" xmlns:xlink="http://www.w3.org/1999/xlink" viewBox="0 0 100 100">
  <!-- Generator: Adobe Illustrator 29.3.0, SVG Export Plug-In . SVG Version: 2.1.0 Build 146)  -->
  <g>
    <path d="M38.08,51.74l-.22.48h0c.07-.17.18-.32.26-.48h-.04Z" style="fill: #fff;"/>
    <path d="M62.14,52.23l-.22-.48h-.05c.08.17.19.31.26.48h0Z" style="fill: #fff;"/>
    <polygon points="48.22 51.74 48.22 52.23 49.01 52.23 48.71 51.74 48.22 51.74" style="fill: #fff;"/>
    <path d="M55.99,52.23h3.44c-.05-.16-.09-.32-.15-.48h-3.46c.05.16.12.32.17.48Z" style="fill: #fff;"/>
    <path d="M46.95,52.23v-.48h-2.2c-.05.16-.09.32-.14.48h2.34Z" style="fill: #fff;"/>
    <path d="M52.33,52.23h3.07c-.05-.16-.09-.32-.14-.48h-2.93v.48Z" style="fill: #fff;"/>
    <polygon points="50.5 52.23 51.05 52.23 51.05 51.74 50.24 51.74 50.24 51.8 50.5 52.23" style="fill: #fff;"/>
    <path d="M44.11,52.23c.05-.16.09-.32.14-.48h-3.51c-.05.16-.1.32-.15.48h3.52Z" style="fill: #fff;"/>
    <path d="M40.21,51.74h-1.53c-.08.16-.19.31-.26.48h1.67c.05-.16.07-.33.12-.48Z" style="fill: #fff;"/>
    <path d="M59.94,52.23h1.64c-.08-.17-.18-.32-.26-.48h-1.5c.05.16.07.32.12.48Z" style="fill: #fff;"/>
    <path d="M61.86,52.23h.27c-.07-.17-.18-.32-.26-.48h-.27c.08.17.19.31.26.48Z" style="fill: #fff;"/>
    <path d="M38.39,51.74h-.27c-.08.17-.19.31-.26.48h.27c.07-.17.18-.32.26-.48Z" style="fill: #fff;"/>
    <path d="M61.58,52.23h.28c-.07-.17-.18-.32-.26-.48h-.28c.08.16.19.31.26.48Z" style="fill: #fff;"/>
    <path d="M38.68,51.74h-.29c-.08.17-.19.31-.26.48h.29c.08-.17.18-.32.26-.48Z" style="fill: #fff;"/>
    <path d="M44.75,51.74c.43-1.28.98-2.52,1.67-3.69-.16-.04-.31-.11-.46-.16-.72,1.22-1.27,2.51-1.71,3.85h.5Z" style="fill: #fff;"/>
    <path d="M43.68,57.3h.06c.05-1.74.37-3.43.88-5.07h-.5c-.49,1.64-.81,3.33-.86,5.07h.43Z" style="fill: #fff;"/>
    <path d="M48.78,44.85c-.22.02-.45.03-.67.07-.7.81-1.37,1.64-1.93,2.53.16.05.31.11.47.16.62-.97,1.33-1.89,2.13-2.76Z" style="fill: #fff;"/>
    <path d="M48.78,44.85s.02-.03.04-.05c-.22.02-.45.04-.67.07-.01.01-.02.03-.03.05.22-.03.44-.05.67-.07Z" style="fill: #fff;"/>
    <path d="M44.75,51.74h-.5c-.05.16-.09.32-.14.48h.5c.05-.16.09-.32.14-.48Z" style="fill: #fff;"/>
    <path d="M43.71,57.61c0-.11.03-.21.03-.32h-.06c0,.11.02.21.03.32Z" style="fill: #fff;"/>
    <path d="M43.2,57.89h.05c0-.09-.02-.18-.02-.28,0,.09-.03.18-.03.28Z" style="fill: #fff;"/>
    <path d="M40.74,51.74c.6-1.78,1.46-3.47,2.57-5.03-.02,0-.03-.02-.05-.03-.31.2-.61.42-.9.64-.89,1.4-1.64,2.86-2.15,4.42h.53Z" style="fill: #fff;"/>
    <path d="M39.77,57.3c.05-1.74.32-3.44.82-5.07h-.5c-.49,1.64-.76,3.34-.81,5.07h.49Z" style="fill: #fff;"/>
    <path d="M42.88,46.47c-.05.06-.08.13-.12.2.07-.05.16-.08.24-.13l-.12-.07Z" style="fill: #fff;"/>
    <path d="M43.26,46.69c-.06-.03-.12-.06-.17-.09l-.09-.05c-.08.05-.16.08-.24.13-.15.21-.26.44-.4.65.3-.22.59-.44.9-.64Z" style="fill: #fff;"/>
    <path d="M40.74,51.74h-.53c-.05.16-.07.32-.12.48h.5c.05-.16.09-.32.15-.48Z" style="fill: #fff;"/>
    <path d="M39.72,57.3c0,.1.02.21.02.31,0-.11.02-.21.02-.31h-.05Z" style="fill: #fff;"/>
    <path d="M39.23,57.89h.04c0-.09-.01-.18-.02-.26,0,.09-.02.17-.02.26Z" style="fill: #fff;"/>
    <path d="M55.26,51.74h.56c-.44-1.35-1.03-2.64-1.75-3.87-.16.05-.32.13-.49.17.7,1.17,1.24,2.41,1.68,3.7Z" style="fill: #fff;"/>
    <path d="M53.83,47.44c-.55-.88-1.19-1.72-1.88-2.52-.23-.04-.47-.05-.71-.07.79.86,1.5,1.78,2.12,2.75.16-.04.31-.11.47-.16Z" style="fill: #fff;"/>
    <path d="M56.28,57.3h.52c-.05-1.73-.32-3.44-.81-5.07h-.59c.51,1.64.83,3.33.88,5.07Z" style="fill: #fff;"/>
    <path d="M51.95,44.92s-.02-.03-.03-.04c-.24-.04-.48-.06-.72-.08.01.01.02.03.04.05.24.02.48.04.71.07Z" style="fill: #fff;"/>
    <path d="M55.99,52.23c-.05-.16-.11-.32-.17-.48h-.56c.05.16.09.32.14.48h.59Z" style="fill: #fff;"/>
    <path d="M56.33,57.3h-.06c0,.11.03.21.03.32,0-.11.03-.21.03-.32Z" style="fill: #fff;"/>
    <path d="M56.83,57.89c0-.13-.02-.25-.02-.38,0,.13-.03.25-.03.38h.05Z" style="fill: #fff;"/>
    <path d="M59.28,51.74h.54c-.5-1.54-1.25-2.99-2.13-4.37-.31-.24-.62-.48-.96-.69,0,0-.02,0-.03.02,1.11,1.56,1.98,3.26,2.58,5.04Z" style="fill: #fff;"/>
    <path d="M60.25,57.3h.5c-.05-1.73-.32-3.43-.81-5.07h-.51c.5,1.63.77,3.33.82,5.07Z" style="fill: #fff;"/>
    <path d="M57.28,46.72c-.06-.08-.1-.17-.16-.25l-.14.08c.1.06.2.11.29.17Z" style="fill: #fff;"/>
    <path d="M56.9,46.6c-.05.03-.12.06-.17.09.34.21.65.45.96.69-.14-.22-.26-.44-.4-.65-.09-.06-.2-.11-.29-.17l-.09.05Z" style="fill: #fff;"/>
    <path d="M59.94,52.23c-.05-.16-.07-.33-.12-.48h-.54c.05.16.1.32.15.48h.51Z" style="fill: #fff;"/>
    <path d="M60.79,57.89c0-.12-.03-.24-.03-.36,0,.12-.02.24-.02.36h.05Z" style="fill: #fff;"/>
    <path d="M60.29,57.3h-.04c0,.12.03.25.03.37,0-.12.01-.25.01-.37Z" style="fill: #fff;"/>
    <path d="M52.95,44.59c.69.16,1.35.36,1.99.62-.65-.26-1.31-.46-1.99-.62Z" style="fill: #fff;"/>
    <path d="M48.53,44.38h0c.48-.05.96-.14,1.46-.14-.79,0-1.58.1-2.35.24.29-.05.59-.06.89-.09,0,0,0,0,0,0Z" style="fill: #fff;"/>
    <path d="M43.02,46.25h.01c.57-.35,1.16-.69,1.79-.96-.6.25-1.18.54-1.74.88l-.34.21h.02c.08-.04.17-.07.25-.12,0,0,0-.02.01-.02Z" style="fill: #fff;"/>
    <path d="M45.07,45.2c.63-.25,1.28-.45,1.95-.6-.67.15-1.32.35-1.95.6Z" style="fill: #fff;"/>
    <path d="M51.49,44.38s0,0,0,0c.29.03.58.04.87.09-.78-.14-1.57-.24-2.37-.24.51,0,.99.09,1.49.15h0Z" style="fill: #fff;"/>
    <path d="M57,46.25s.02.03.03.05c.06.04.14.07.2.11h.02s-.35-.23-.35-.23c-.56-.34-1.14-.63-1.74-.89.64.27,1.23.61,1.81.98l.02-.02Z" style="fill: #fff;"/>
    <path d="M45.97,47.89c.08-.14.14-.3.22-.44-.84-.26-1.66-.59-2.43-1.03-.13.07-.27.14-.4.22-.02.03-.03.05-.05.08.84.49,1.73.88,2.66,1.18Z" style="fill: #fff;"/>
    <path d="M54.07,47.87c.92-.3,1.8-.68,2.63-1.17-.01-.01-.02-.03-.03-.05-.14-.09-.29-.15-.43-.23-.77.43-1.58.76-2.41,1.02.09.14.16.29.25.43Z" style="fill: #fff;"/>
    <path d="M53.58,48.05c-.09-.14-.14-.3-.23-.45-1.01.27-2.05.42-3.11.44v.49c1.14-.02,2.26-.17,3.34-.48Z" style="fill: #fff;"/>
    <path d="M52.28,44.95c.16.03.33.06.49.1-.16-.04-.33-.07-.49-.1Z" style="fill: #fff;"/>
    <path d="M54.9,45.71s.08.04.12.06c-.04-.02-.08-.04-.12-.06Z" style="fill: #fff;"/>
    <path d="M46.43,48.05c1.08.3,2.19.45,3.32.47v-.49c-1.05-.02-2.09-.16-3.1-.43-.09.14-.14.3-.23.44Z" style="fill: #fff;"/>
    <path d="M47.21,45.05c.17-.04.34-.07.51-.1-.17.03-.34.06-.51.1Z" style="fill: #fff;"/>
    <path d="M44.89,45.81c.07-.03.14-.08.22-.11-.08.03-.14.07-.22.11Z" style="fill: #fff;"/>
    <path d="M51.72,44.65c1.83.24,3.54.85,5.04,1.77l.21-.15c-.58-.36-1.17-.71-1.81-.98-.07-.03-.15-.05-.22-.08-.64-.26-1.31-.46-1.99-.62-.19-.04-.39-.09-.58-.12-.28-.05-.58-.05-.87-.09.08.09.15.18.23.27Z" style="fill: #fff;"/>
    <path d="M43.01,46.27c-.08.05-.17.08-.25.13l.12.07c.05-.07.08-.14.13-.2Z" style="fill: #fff;"/>
    <path d="M57.13,46.46l.1-.06c-.06-.04-.14-.07-.2-.11.04.05.06.11.1.17Z" style="fill: #fff;"/>
    <path d="M48.77,44.6c.33-.03.65-.09.98-.1v-.02h.49v.02c.34,0,.67.07,1,.1l.24-.22c-.49-.06-.98-.15-1.49-.15s-.97.09-1.46.15l.23.22Z" style="fill: #fff;"/>
    <path d="M43.24,46.41c1.52-.93,3.24-1.53,5.08-1.76.08-.08.13-.18.2-.26-.3.03-.6.04-.89.09-.21.04-.41.08-.61.13-.67.15-1.33.35-1.95.6-.08.03-.17.06-.25.09-.63.27-1.21.61-1.79.96l.21.15Z" style="fill: #fff;"/>
    <path d="M48.82,44.8c.31-.03.62-.05.93-.06v-.24c-.33,0-.65.07-.98.1l.12.11s-.04.06-.07.09Z" style="fill: #fff;"/>
    <path d="M51.2,44.8s-.04-.06-.07-.09l.11-.11c-.33-.03-.66-.09-1-.1v.24c.32,0,.64.03.96.06Z" style="fill: #fff;"/>
    <path d="M52.28,44.95c.17.03.33.06.49.1.73.16,1.44.37,2.13.66.04.02.08.04.12.06.43.19.86.39,1.28.62-.02.01-.04.02-.06.03.14.08.29.15.43.23-.03-.04-.04-.08-.07-.12l.16-.12c-1.5-.92-3.21-1.52-5.04-1.77.07.08.13.16.2.23.12.02.24.05.36.07Z" style="fill: #fff;"/>
    <path d="M43.36,46.63c.13-.08.27-.14.4-.22-.02-.01-.04-.02-.06-.03.38-.22.78-.41,1.19-.58.07-.03.14-.08.22-.11.68-.28,1.38-.49,2.1-.65.17-.04.34-.07.51-.1.15-.03.29-.06.44-.09.06-.07.11-.15.17-.22-1.84.24-3.56.84-5.08,1.76l.17.13s-.04.06-.06.1Z" style="fill: #fff;"/>
    <polygon points="48.53 44.38 48.53 44.38 48.54 44.38 48.53 44.38" style="fill: #fff;"/>
    <path d="M46.66,47.6c-.16-.04-.31-.11-.47-.16-.09.14-.14.3-.22.44.16.05.31.12.46.16.09-.14.14-.3.23-.44Z" style="fill: #fff;"/>
    <path d="M48.54,44.38s0,0,0,0c-.08.08-.13.18-.2.26.15-.02.3-.03.45-.04l-.23-.22Z" style="fill: #fff;"/>
    <path d="M48.82,44.8s.04-.06.07-.09l-.12-.11c-.15.01-.3.03-.45.04-.06.07-.11.15-.17.22.22-.03.44-.05.67-.07Z" style="fill: #fff;"/>
    <path d="M43.02,46.25s0,.02-.01.02c0,0,.02,0,.03-.01h-.01Z" style="fill: #fff;"/>
    <path d="M43.36,46.63s-.07.03-.1.05c.02,0,.03.02.05.03.02-.03.03-.05.05-.08Z" style="fill: #fff;"/>
    <path d="M43.24,46.41l-.21-.15s-.02,0-.03.01c-.05.07-.08.14-.13.2l.12.07c.08-.05.17-.08.25-.13Z" style="fill: #fff;"/>
    <path d="M43.08,46.6c.06.03.12.06.17.09.03-.02.07-.03.1-.05.02-.03.04-.06.06-.1l-.17-.13c-.08.05-.17.08-.25.13l.09.05Z" style="fill: #fff;"/>
    <path d="M51.49,44.38h0s0,0,.01,0c0,0,0,0,0,0Z" style="fill: #fff;"/>
    <path d="M53.58,48.05c.17-.05.32-.12.49-.17-.08-.14-.16-.29-.25-.43-.16.05-.31.11-.47.16.09.14.14.3.23.45Z" style="fill: #fff;"/>
    <path d="M51.49,44.39s0,0-.01,0l-.24.22c.16.02.32.03.48.05-.08-.09-.15-.18-.23-.27Z" style="fill: #fff;"/>
    <path d="M51.2,44.8c.24.02.48.05.72.08-.07-.08-.13-.16-.2-.23-.16-.02-.32-.03-.48-.05l-.11.11s.04.06.07.09Z" style="fill: #fff;"/>
    <path d="M57,46.25l-.02.02s.04.02.05.03c-.01-.01-.02-.03-.03-.05Z" style="fill: #fff;"/>
    <path d="M56.73,46.68s-.04-.02-.06-.03c.01.01.02.03.03.05,0,0,.02,0,.03-.02Z" style="fill: #fff;"/>
    <path d="M57.13,46.46c-.04-.05-.06-.11-.1-.17-.02-.01-.04-.02-.05-.03l-.21.15c.07.04.16.08.23.12l.14-.08Z" style="fill: #fff;"/>
    <path d="M56.67,46.65s.04.02.06.03c.06-.03.12-.06.17-.09l.09-.05c-.07-.05-.15-.08-.23-.12l-.16.12s.04.08.07.12Z" style="fill: #fff;"/>
    <path d="M50.21,51.74h.04v-3.22c-.08,0-.17.02-.25.02s-.16-.02-.24-.02v2.48l.45.74Z" style="fill: #fff;"/>
    <polygon points="50.24 54.21 49.75 53.42 49.75 57.3 50.24 57.3 50.24 54.21" style="fill: #fff;"/>
    <path d="M49.75,48.04c.08,0,.16.02.24.02s.17-.01.25-.02v-3.28c-.09,0-.16-.02-.25-.02s-.16.02-.24.02v3.29Z" style="fill: #fff;"/>
    <path d="M50.24,44.74c-.08,0-.17-.02-.25-.02.09,0,.16.02.25.02h0Z" style="fill: #fff;"/>
    <path d="M49.99,44.73c-.08,0-.16.01-.24.02h0c.08,0,.16-.02.24-.02Z" style="fill: #fff;"/>
    <polygon points="50.24 51.74 50.21 51.74 50.24 51.8 50.24 51.74" style="fill: #fff;"/>
    <path d="M49.99,48.54c.08,0,.17-.02.25-.02v-.49c-.08,0-.17.02-.25.02s-.16-.01-.24-.02v.49c.08,0,.16.02.24.02Z" style="fill: #fff;"/>
    <path d="M50.24,44.48h-.25c.09,0,.16.02.25.02v-.02Z" style="fill: #fff;"/>
    <path d="M49.75,44.48v.02c.08,0,.16-.02.24-.02h-.24Z" style="fill: #fff;"/>
    <path d="M49.99,44.73c.08,0,.17.01.25.02v-.24c-.09,0-.16-.02-.25-.02s-.16.02-.24.02v.24c.08,0,.16-.02.24-.02Z" style="fill: #fff;"/>
  </g>
  <g>
    <path d="M49.99,0C27.26,0,8.82,22.38,8.82,50s18.43,50,41.17,50,41.18-22.38,41.18-50S72.73,0,49.99,0ZM49.99,97.69c-21.69,0-39.27-21.35-39.27-47.69S28.3,2.31,49.99,2.31s39.28,21.36,39.28,47.69-17.58,47.69-39.28,47.69Z" style="fill: #201b4e;"/>
    <path d="M50.05,89.4c16.72,0,30.27-17.54,30.27-39.18s-13.55-39.17-30.27-39.17-30.27,17.55-30.27,39.17,13.56,39.18,30.27,39.18ZM50.05,12.85c15.95,0,28.86,16.73,28.86,37.37s-12.92,37.38-28.86,37.38-28.87-16.74-28.87-37.38S34.12,12.85,50.05,12.85Z" style="fill: #201b4e;"/>
    <path d="M20.56,26.15c.2.11.41.16.63.16.22,0,.44-.05.67-.16.22-.09.54-.29.94-.58.29-.21.5-.34.64-.41.15-.07.28-.09.4-.1.13,0,.24.02.34.07.17.09.29.24.34.45.06.21.02.43-.11.67-.16.3-.43.53-.81.66-.39.14-.83.14-1.34-.01l-.06.12,1.64.86.06-.12c-.07-.08-.11-.16-.12-.24,0-.09,0-.15.03-.21.03-.07.1-.14.19-.22.18-.14.31-.27.4-.37.09-.1.18-.22.24-.36.24-.43.29-.85.19-1.27-.12-.41-.35-.72-.72-.91-.28-.15-.58-.2-.9-.14-.31.05-.73.27-1.25.65-.37.27-.61.43-.74.49-.17.09-.32.13-.45.14-.1,0-.2-.02-.29-.06-.15-.09-.25-.22-.3-.4-.05-.19-.02-.39.09-.6.15-.28.4-.48.75-.61.35-.13.72-.12,1.11,0l.08-.13-1.47-.72-.05.1c.12.1.18.17.2.22.02.05,0,.1-.02.15-.03.06-.11.15-.26.25-.15.11-.26.21-.34.29-.1.11-.2.24-.27.38-.2.38-.25.76-.14,1.14.11.38.34.66.68.83Z" style="fill: #201b4e;"/>
    <path d="M21.73,21.58c.09-.13.2-.22.3-.25.07-.03.15-.03.23,0,.05.01.17.08.35.21l2.67,1.79c.2.14.32.23.36.29.04.07.06.15.06.22,0,.09-.05.2-.13.32l-.09.13.11.07,2.38-3.47-1.16-1.05-.08.11c.29.34.45.68.46,1.02.02.35-.1.7-.35,1.09l-.17.24c-.08.11-.16.18-.22.22-.07.03-.13.04-.2.02-.06,0-.21-.09-.42-.25l-1.14-.78c.13-.18.26-.32.37-.38.12-.07.28-.09.48-.07.2.02.42.1.67.24l.08-.11-2.12-1.44-.08.12c.29.24.48.48.56.7.09.23.04.47-.14.72l-.05.08-1.65-1.12.28-.42c.2-.3.37-.5.48-.58.19-.15.38-.24.58-.25.2-.01.46.05.79.18l.08-.11-1.19-.81-2.32,3.36.11.08.09-.13Z" style="fill: #201b4e;"/>
    <path d="M24.96,17.03c.11-.12.22-.19.33-.22.08-.02.15,0,.23.03.05.02.15.11.31.26l2.4,2.13c.19.16.28.27.31.33.04.09.05.16.04.23-.02.1-.07.2-.17.31l-.11.11.1.09,2.82-3.13-1.02-1.2-.09.1c.25.37.35.73.32,1.08-.02.34-.19.68-.49,1.02l-.2.22c-.09.1-.18.16-.25.18-.07.02-.13.02-.2,0-.06-.02-.19-.12-.38-.3l-1.03-.91c.16-.18.3-.29.42-.34.13-.05.3-.05.48,0,.2.05.41.16.64.32l.09-.1-1.9-1.7-.1.1c.26.28.41.53.46.76.05.23-.02.47-.23.69l-.07.08-1.49-1.32.34-.37c.25-.28.43-.46.55-.52.21-.12.41-.18.61-.17.2.01.45.1.77.29l.09-.1-1.07-.96-2.75,3.03.11.09.1-.12Z" style="fill: #201b4e;"/>
    <path d="M28.86,12.83c.11-.09.21-.14.3-.15.1,0,.17,0,.23.04.06.03.17.13.32.33l2.02,2.49c.16.19.24.31.26.37.02.09.02.16,0,.22-.04.09-.11.18-.22.27l-.13.1.09.1,1.92-1.54-.08-.1c-.14.12-.25.17-.35.19-.09.02-.17,0-.23-.02-.06-.03-.17-.15-.33-.34l-.84-1.03.04-.23,1.76.4c.34.08.55.15.61.23.04.04.04.09.03.15-.02.06-.08.14-.2.25l.09.11,1.99-1.58-.09-.1c-.11.09-.24.14-.39.16-.2.03-.49,0-.88-.08l-2.69-.6.39-1.78c.1-.44.17-.71.22-.81.04-.1.13-.2.26-.32l-.08-.1-1.49,1.19.09.1c.16-.12.28-.2.34-.2.12-.03.19,0,.25.06.08.1.08.3,0,.62l-.49,2.26-.96-1.18c-.15-.19-.24-.31-.25-.39-.02-.08-.02-.15,0-.22.04-.09.13-.19.25-.29l-.09-.1-1.9,1.52.08.1.13-.1Z" style="fill: #201b4e;"/>
    <path d="M36.19,7.63c.13-.05.24-.07.33-.06.1,0,.17.04.21.09.05.05.13.19.22.4l1.27,2.94c.09.22.14.36.14.43,0,.08-.03.16-.06.21-.06.08-.16.15-.3.2l-.15.06.06.12,2.28-.97-.05-.12c-.17.08-.3.1-.39.1-.09-.01-.16-.04-.21-.09-.06-.04-.13-.19-.23-.42l-.53-1.22.1-.21,1.59.86c.32.16.49.29.53.38.02.05.02.1-.01.16-.02.05-.12.11-.25.18l.06.12,2.34-.99-.06-.12c-.12.06-.26.08-.41.05-.2-.03-.48-.13-.82-.31l-2.44-1.3.88-1.61c.21-.4.35-.63.41-.71.07-.08.18-.17.34-.24l-.06-.13-1.76.75.06.12c.19-.08.32-.11.38-.11.1,0,.19.05.23.14.05.12,0,.31-.16.6l-1.09,2.04-.6-1.38c-.1-.22-.15-.37-.14-.44,0-.09.02-.16.07-.21.06-.08.16-.15.32-.21l-.06-.12-2.24.95.06.13.14-.07Z" style="fill: #201b4e;"/>
    <path d="M42.95,5.13c.08.03.18.09.31.2l.12.11.6,3.37c.04.26.02.44-.07.57-.08.13-.26.21-.53.26l.02.13,1.71-.3-.03-.13-.11.02c-.16.03-.32,0-.46-.07-.15-.08-.24-.24-.29-.53l-.53-3.04,3.96,3.42.13-.02-.7-3.99c-.04-.22-.05-.39-.03-.49.02-.1.07-.17.13-.22.06-.06.19-.11.39-.17l-.02-.13-1.59.28.02.13c.27-.05.47-.02.61.1.1.08.18.27.22.56l.36,2.05-2.9-2.55-1.71.3.02.13c.14-.02.27,0,.35.01Z" style="fill: #201b4e;"/>
    <path d="M51.71,9.15c.88.06,1.58-.2,2.1-.8.39-.44.61-.97.66-1.58.05-.71-.15-1.33-.61-1.84-.46-.51-1.07-.78-1.85-.8-.72-.08-1.34.12-1.87.55-.52.45-.81,1.04-.85,1.75-.05.64.11,1.21.45,1.7.44.62,1.11.96,1.98,1.02ZM50.97,4.97c.26-.44.61-.64,1.06-.61.24.02.45.09.63.24.18.14.33.38.41.7.1.33.13.81.09,1.45-.04.54-.13.97-.26,1.3-.15.33-.33.56-.55.7-.17.11-.39.15-.63.13-.37-.02-.65-.18-.83-.47-.26-.41-.37-1.03-.32-1.86.05-.69.18-1.22.39-1.58Z" style="fill: #201b4e;"/>
    <path d="M56.84,5.79l.17,4.26.13.05,2.32-2.5.08,3.35.12.05,2.81-3.26c.24-.27.38-.43.4-.45.08-.06.15-.11.22-.13.08-.02.15-.01.25.01l.04-.13-1.2-.42-.04.12c.18.07.29.14.33.21.04.08.05.17.02.26-.03.06-.06.13-.11.19-.05.07-.14.19-.29.36l-1.46,1.7-.07-2.46c0-.3,0-.48.03-.54.02-.05.05-.08.08-.11.04-.03.09-.04.14-.04.08,0,.19.03.35.09l.04-.13-2.23-.79-.04.12c.14.05.24.11.3.17.06.07.1.15.13.27.02.1.03.31.04.61l.02.55-1.35,1.48-.1-2.54c-.01-.31,0-.51.03-.6.02-.06.06-.1.13-.13.08-.03.18-.01.35.03l.04-.12-1.99-.71-.05.13c.14.06.23.14.27.24.03.1.06.37.07.8Z" style="fill: #201b4e;"/>
    <path d="M65.11,8.38c.05.09.06.16.05.23-.02.06-.09.2-.23.41l-1.77,2.67c-.14.2-.23.32-.29.36-.07.05-.14.07-.21.06-.1,0-.21-.05-.33-.12l-.14-.09-.07.11,3.63,2.37,1.1-1.33-.12-.08c-.3.26-.57.43-.78.53-.21.09-.42.13-.61.11-.19-.03-.4-.1-.62-.24l-.34-.22c-.2-.13-.31-.21-.35-.26-.05-.08-.07-.15-.06-.22.01-.08.09-.22.23-.42l1.72-2.59c.13-.2.22-.32.28-.35.08-.05.15-.07.22-.07.1,0,.21.05.33.13l.17.11.08-.11-2.18-1.42-.07.11.14.09c.11.08.19.16.23.24Z" style="fill: #201b4e;"/>
    <path d="M66.59,14.84l-.09.1,3.09,2.87,1.22-.97-.09-.09c-.38.23-.75.33-1.1.3-.34-.04-.68-.21-1.02-.52l-.22-.2c-.1-.1-.16-.17-.18-.25-.01-.07-.01-.14.02-.19.02-.06.13-.19.31-.38l.95-1c.17.15.28.3.32.43.05.13.04.29,0,.48-.06.2-.17.4-.34.62l.1.09,1.75-1.85-.1-.09c-.28.25-.55.4-.78.44-.24.05-.47-.04-.7-.25l-.07-.06,1.36-1.45.38.35c.26.25.44.44.51.56.11.21.17.41.16.61-.02.19-.12.45-.31.75l.1.09.99-1.05-2.99-2.78-.09.1.11.11c.13.1.19.21.21.33.02.07,0,.15-.03.23-.03.05-.12.15-.27.31l-2.2,2.33c-.17.18-.28.28-.34.3-.08.04-.15.05-.22.04-.1-.02-.2-.09-.3-.18l-.12-.11Z" style="fill: #201b4e;"/>
    <path d="M73.91,16.56l-2.54,1.96c-.2.16-.33.24-.38.25-.08.02-.16.02-.24-.02-.08-.03-.17-.1-.26-.21l-.1-.13-.1.08,1.35,1.71c.19.25.35.42.46.52.25.22.5.39.73.5.23.11.47.17.73.2.25.02.53-.02.83-.1.29-.09.58-.24.85-.45.4-.31.68-.67.85-1.09.18-.42.21-.85.09-1.31-.09-.38-.32-.79-.68-1.24l-1.35-1.72-.1.08.1.13c.09.1.13.2.15.3.01.1,0,.17-.03.23-.04.05-.14.17-.34.32ZM75.08,17.13c.25.32.39.56.44.74.06.26.04.54-.1.83-.18.39-.52.77-1.01,1.15-.61.48-1.16.72-1.63.72-.34,0-.64-.16-.89-.47-.08-.1-.12-.18-.13-.25-.01-.05,0-.1.02-.14.03-.05.12-.13.28-.25l3.01-2.33Z" style="fill: #201b4e;"/>
    <path d="M75.1,22.75c-.16.24-.28.51-.34.81-.06.3-.07.62-.03.94.04.33.17.7.4,1.09.18.31.38.6.61.86.22.26.47.49.75.69l.89-.5c.16-.09.26-.13.31-.13.09,0,.17,0,.24.05.07.04.15.14.25.29l.11-.07-1.17-2.05-.11.06.06.11c.06.1.09.2.09.3,0,.1-.02.16-.05.22-.04.05-.14.12-.31.22l-.89.5c-.11-.09-.2-.18-.29-.28-.08-.09-.15-.19-.21-.3-.16-.29-.24-.59-.21-.88.02-.3.16-.58.41-.84.25-.28.59-.52,1-.75.34-.19.69-.33,1.06-.42.37-.09.71-.08,1,.02.3.11.53.33.71.64.19.33.27.7.2,1.09-.05.4-.25.78-.58,1.15l.07.12,1.5-.84-.07-.11c-.15.02-.25.02-.32,0-.07-.03-.13-.07-.15-.13-.02-.04-.05-.18-.09-.43-.04-.26-.07-.42-.11-.52-.07-.19-.15-.39-.28-.6-.38-.68-.92-1.12-1.62-1.31-.7-.2-1.37-.13-2.01.23-.36.21-.64.46-.84.76Z" style="fill: #201b4e;"/>
    <path d="M77.35,28.83c-.09,0-.16-.02-.22-.07-.08-.06-.14-.16-.2-.29l-.06-.14-.12.05,1.58,3.89,1.52-.37-.05-.13c-.45.05-.82-.01-1.12-.18-.29-.18-.53-.48-.71-.9l-.11-.26c-.04-.13-.07-.23-.05-.31.01-.07.05-.13.08-.17.05-.04.2-.11.45-.21l1.28-.51c.09.21.13.38.12.52-.01.14-.08.28-.21.43-.14.14-.33.29-.57.42l.05.12,2.38-.95-.05-.12c-.37.1-.68.13-.91.07-.24-.06-.41-.23-.52-.52l-.04-.09,1.86-.73.18.45c.14.35.22.59.22.72.02.24-.01.45-.11.62-.1.17-.29.36-.6.55l.05.12,1.33-.53-1.52-3.77-.12.05.06.15c.06.15.07.28.05.39-.02.08-.07.14-.13.19-.04.03-.17.08-.37.17l-2.98,1.2c-.23.09-.38.13-.44.13Z" style="fill: #201b4e;"/>
    <path d="M17.54,55.84c.11.04.19.09.25.16.05.08.11.22.17.44l.14-.02-.19-1.74-.15.02c.04.29,0,.51-.14.65-.11.1-.32.17-.63.2l-2.29.25,3.02-2.97-.21-1.87h-.14c0,.17,0,.3-.04.39-.03.09-.11.2-.25.33l-.13.12-3.76.41c-.28.03-.48,0-.62-.1-.13-.1-.21-.3-.24-.59l-.15.02.21,1.87h.14s-.01-.14-.01-.14c-.02-.18.02-.34.11-.5.09-.15.29-.24.6-.28l3.39-.37-4.04,4.05.02.13,4.43-.48c.25-.03.43-.03.54,0Z" style="fill: #201b4e;"/>
    <path d="M16.71,62.75c.78-.17,1.38-.56,1.78-1.18.4-.63.5-1.35.29-2.18-.13-.77-.52-1.36-1.15-1.78-.63-.42-1.34-.54-2.11-.38-.69.15-1.25.48-1.67.99-.53.64-.69,1.44-.49,2.37.2.93.69,1.59,1.47,1.95.59.28,1.22.35,1.88.21ZM13.64,60.52c-.09-.39,0-.73.25-1.01.36-.4.99-.7,1.88-.89.76-.16,1.35-.18,1.8-.06.55.14.87.45.97.93.06.26.03.5-.07.73-.1.23-.31.45-.63.64-.31.2-.82.38-1.51.52-.59.12-1.07.16-1.46.11-.39-.05-.69-.17-.91-.36-.16-.14-.28-.35-.33-.62Z" style="fill: #201b4e;"/>
    <path d="M18.4,67.32c.33.19.69.23,1.07.1.31-.1.54-.28.72-.53.17-.25.25-.53.24-.84,0-.31-.11-.77-.32-1.38l-.76-2.35-.15.05c.08.23.11.39.09.49-.01.09-.05.17-.11.23-.06.06-.23.12-.5.22l-3.31,1.07c-.28.09-.45.13-.54.11-.08,0-.16-.05-.22-.12-.07-.06-.15-.22-.22-.45l-.14.04.84,2.58.15-.05c-.08-.23-.11-.39-.1-.49.02-.1.06-.18.12-.23.06-.06.23-.13.51-.23l1.42-.46.11.34-1.78,2.38.53,1.59.13-.04c-.04-.14-.03-.26.01-.39.03-.09.13-.24.3-.47l1.32-1.77c.18.28.38.48.59.6ZM17.46,65.02l2.22-.72.14.4c.13.4.13.72,0,.96-.13.24-.38.42-.78.55-.27.1-.5.11-.7.06-.2-.04-.36-.14-.48-.29-.12-.15-.23-.4-.35-.74l-.07-.21Z" style="fill: #201b4e;"/>
    <path d="M18.36,72.32l3.78-1.68.15.36c.11.23.16.39.16.5,0,.21-.06.38-.15.53-.09.15-.27.33-.54.55l.06.13,1.32-.59-1.97-4.36-1.32.59.06.14c.38-.1.72-.1,1.01.02.21.09.39.29.53.62l.16.35-3.77,1.68c-.25.1-.4.16-.47.16-.1,0-.18-.02-.24-.07-.08-.06-.17-.17-.23-.3l-.08-.16-.14.06,1.15,2.54.14-.06-.07-.16c-.06-.13-.09-.26-.08-.36,0-.1.04-.18.09-.23.06-.06.2-.14.45-.25Z" style="fill: #201b4e;"/>
    <path d="M22.06,79.02l3.02-1.79c.23-.14.39-.21.45-.22.09-.02.18,0,.24.05.09.04.19.13.27.27l.09.15.13-.08-1.43-2.38-.14.07.09.15c.08.13.11.25.12.35,0,.1-.02.19-.07.24-.04.06-.18.16-.41.3l-1.31.77-.97-1.61,1.31-.78c.23-.13.38-.2.45-.22.09-.01.18,0,.25.04.09.05.18.14.26.27l.09.15.13-.07-1.45-2.38-.13.08.1.15c.08.13.11.24.11.34s-.02.18-.06.24c-.04.06-.18.17-.42.3l-3.02,1.79c-.23.14-.38.21-.45.22-.09.02-.18,0-.24-.03-.1-.06-.19-.15-.27-.28l-.09-.15-.13.07,1.43,2.39.13-.08-.09-.15c-.08-.12-.11-.24-.12-.34,0-.1.03-.18.06-.24.05-.06.19-.16.42-.3l1.43-.85.97,1.62-1.43.84c-.23.14-.38.21-.45.22-.1.01-.18,0-.24-.04-.1-.05-.19-.14-.27-.28l-.08-.15-.13.08,1.43,2.38.13-.07-.08-.15c-.08-.13-.12-.24-.12-.35,0-.1.02-.18.06-.23.04-.06.19-.16.42-.3Z" style="fill: #201b4e;"/>
    <path d="M28.55,82.58c-.02-.2-.02-.37.02-.51.03-.1.08-.2.17-.27.14-.13.31-.19.53-.17.21,0,.41.12.59.31.24.25.36.58.37.98.01.4-.13.78-.4,1.14l.11.11,1.27-1.24-.09-.09c-.14.09-.24.13-.29.13-.06,0-.11-.03-.16-.08-.05-.05-.1-.17-.16-.36-.06-.18-.12-.33-.18-.44-.08-.15-.18-.29-.3-.41-.32-.34-.71-.53-1.14-.55-.43-.03-.8.11-1.11.4-.18.17-.31.37-.39.6-.07.22-.1.47-.07.74.02.27.11.66.28,1.17.11.37.18.65.19.81.02.17,0,.32-.04.45-.04.13-.11.23-.2.32-.16.15-.35.21-.6.19-.23-.02-.45-.13-.66-.35-.26-.27-.39-.63-.41-1.08,0-.44.16-.89.49-1.36l-.09-.11-1.47,1.38.1.11c.11-.04.21-.05.3-.04.09.02.16.06.2.1.06.06.1.15.16.28.08.23.17.41.25.54.07.13.17.25.29.38.36.38.79.6,1.26.62.47.04.87-.1,1.2-.41.26-.24.41-.53.46-.87.05-.34-.02-.86-.23-1.51-.14-.47-.23-.79-.25-.94Z" style="fill: #201b4e;"/>
    <path d="M33.81,85.22c-.6-.51-1.27-.73-2.02-.65-.76.08-1.38.44-1.87,1.05-.44.55-.66,1.16-.65,1.82.01.83.4,1.54,1.15,2.14.75.6,1.54.79,2.38.57.63-.16,1.16-.5,1.59-1.03.5-.62.69-1.3.6-2.04-.09-.74-.48-1.36-1.17-1.86ZM34.04,86.94c-.11.36-.39.81-.83,1.36-.37.47-.72.8-1.05,1.01-.33.21-.64.3-.93.3-.23-.02-.44-.1-.65-.27-.32-.25-.48-.56-.46-.94.02-.54.31-1.16.88-1.87.48-.6.93-.99,1.34-1.19.51-.23.96-.19,1.35.1.21.17.34.37.42.61.06.24.05.54-.07.89Z" style="fill: #201b4e;"/>
    <path d="M40.94,89.58v.03s-1.65-.86-1.65-.86l-.07.13c.19.1.33.2.41.31.05.07.07.16.07.28,0,.12-.06.27-.17.49l-1.02,1.92c-.26.5-.5.82-.69.98-.19.15-.41.24-.66.26-.24.02-.49-.03-.75-.17-.22-.11-.38-.26-.48-.43-.1-.16-.14-.33-.14-.49,0-.17.12-.47.35-.89l1.21-2.3c.15-.28.25-.43.31-.48.06-.05.15-.08.23-.08.09,0,.22.04.41.13l.13.06.06-.13-2.45-1.27-.07.13c.2.1.32.19.38.27.05.08.07.16.07.24,0,.09-.08.26-.22.52l-1.22,2.31c-.21.39-.31.74-.3,1.04,0,.29.12.59.35.9.17.23.46.45.87.66.5.26.94.36,1.33.3.4-.06.7-.2.9-.4.2-.2.45-.58.74-1.14l.95-1.78c.1-.19.18-.32.26-.38.09-.08.21-.13.32-.14.12,0,.25.03.37.1l.1.05.06-.12-.4,1.34.14.04c.17-.36.4-.61.67-.74.2-.11.48-.1.82,0l.37.11-1.17,3.93c-.07.25-.13.41-.18.46-.07.07-.13.12-.22.13-.1.03-.23.02-.38-.02l-.17-.05-.04.14,2.68.79.04-.15-.17-.05c-.14-.04-.26-.1-.32-.17-.07-.08-.11-.14-.12-.22-.01-.08.03-.24.1-.51l1.17-3.93.38.11c.23.07.4.14.49.22.14.14.25.29.3.45.06.17.08.42.07.77l.14.04.4-1.38-4.61-1.35Z" style="fill: #201b4e;"/>
    <path d="M48.7,91.35l.17.02c.16.01.27.05.36.1.09.06.14.13.17.19.02.07.03.24,0,.51l-.1,1.5-1.89-.13.11-1.5c.02-.27.04-.43.08-.49.04-.09.1-.15.17-.18.11-.05.24-.06.39-.05h.17s.02-.13.02-.13l-2.8-.18v.14s.17.01.17.01c.15,0,.27.04.35.1.08.06.14.12.16.19.02.07.02.24.01.51l-.25,3.49c-.01.27-.04.43-.07.49-.05.09-.1.14-.17.18-.1.05-.22.06-.38.06h-.17s0,.13,0,.13l2.79.19v-.14s-.17-.02-.17-.02c-.15-.01-.27-.04-.35-.1-.08-.06-.13-.12-.16-.19-.03-.07-.04-.24,0-.51l.11-1.64,1.89.12-.11,1.65c-.02.27-.05.43-.08.49-.04.09-.1.14-.17.18-.1.05-.22.06-.38.05h-.17s-.01.14-.01.14l2.79.19v-.15s-.16-.01-.16-.01c-.16,0-.28-.04-.36-.09-.09-.06-.14-.12-.16-.2-.03-.07-.03-.24,0-.52l.24-3.47c0-.27.04-.44.08-.5.04-.08.1-.14.17-.17.1-.05.22-.07.38-.06h.17s0-.13,0-.13l-2.79-.19v.14Z" style="fill: #201b4e;"/>
    <path d="M67.65,85.09c-.03-.1-.02-.2.02-.29.02-.08.12-.2.29-.36l-.09-.11-1.42,1.04.08.11c.23-.17.45-.25.64-.19.15.04.31.18.5.44l1.37,1.84-4.1-1.1-1.53,1.11-1.51.72.06.13c.2-.09.36-.14.5-.14.09,0,.17.04.26.1.09.07.19.22.29.43l.95,1.95c.25.51.37.89.39,1.13,0,.25-.06.48-.18.69-.13.2-.32.37-.58.49-.23.11-.44.15-.64.14-.2-.02-.36-.09-.49-.19-.14-.11-.31-.38-.52-.81l-1.15-2.34c-.13-.27-.2-.45-.21-.53,0-.09.03-.16.06-.23.06-.07.18-.15.36-.25l.13-.05-.07-.13-2.48,1.19.06.13c.21-.1.35-.15.45-.14.09,0,.17.03.24.09.07.04.16.21.3.49l1.14,2.34c.2.4.42.68.65.85.25.18.56.26.95.26.28,0,.63-.1,1.04-.3.5-.24.85-.54,1.04-.88.18-.35.25-.67.21-.95-.05-.28-.21-.71-.48-1.27l-.89-1.81c-.1-.19-.15-.34-.15-.43,0-.13.01-.24.08-.34.06-.09.15-.16.27-.22.13-.09.24-.15.34-.16.09,0,.23,0,.4.05l.18.05,2.24,3.02c.17.23.24.42.22.58-.01.17-.15.34-.38.51l.09.12,1.53-1.12-.09-.12-.09.07c-.15.1-.31.16-.5.16-.17,0-.36-.13-.53-.38l-2.02-2.71,5.56,1.43.11-.08-2.65-3.56c-.15-.2-.24-.36-.26-.47Z" style="fill: #201b4e;"/>
    <path d="M73.34,86.19c-.1.1-.21.16-.3.19-.1.02-.19.02-.25,0-.07-.03-.2-.14-.39-.34l-2.42-2.53c-.19-.2-.29-.32-.32-.4-.04-.09-.04-.17-.02-.24.03-.11.1-.21.22-.31l.13-.12-.1-.1-2.02,1.91.1.11.12-.13c.11-.1.22-.17.32-.19.09-.03.18-.02.25,0,.06.03.2.14.38.34l2.43,2.53c.19.19.29.32.31.39.03.08.04.17.02.24-.04.11-.1.21-.22.32l-.13.12.09.1,2.03-1.92-.1-.1-.13.13Z" style="fill: #201b4e;"/>
    <path d="M79.17,76.05c.33.37.51.73.54,1.12.03.37-.09.76-.36,1.18l-.17.27c-.09.13-.16.21-.24.25-.07.03-.14.04-.21.03-.07,0-.22-.1-.47-.26l-1.27-.8c.14-.21.27-.36.4-.44.12-.07.3-.1.52-.08.22.02.47.09.74.23l.09-.13-2.37-1.49-.08.13c.33.26.53.51.64.75.1.24.05.5-.13.79l-.06.09-1.84-1.16.3-.47c.22-.34.38-.55.51-.66.2-.17.41-.27.63-.29.22-.02.51.03.88.17l.08-.13-1.33-.84-2.41,3.76h.02s-1.1,1.32-1.1,1.32l.11.09c.12-.14.24-.25.35-.3.06-.04.15-.06.22-.06.08.01.14.04.2.09.05.04.11.1.17.19.06.08.16.27.3.55l1.14,2.31-2.78-.83c-.29-.08-.47-.14-.53-.17-.06-.03-.12-.05-.15-.09-.06-.05-.08-.11-.08-.17.01-.1.09-.24.24-.41l.06-.07-.11-.09-1.65,1.96.11.09c.16-.14.29-.21.4-.21.12,0,.45.08.98.24l4.45,1.31.08-.1-1.96-4.01c-.24-.47-.37-.8-.4-.97-.04-.23,0-.43.1-.6l-.02-.02.08-.13c.09-.14.2-.24.31-.29.08-.03.16-.03.26,0,.05.02.18.09.39.23l2.97,1.88c.22.14.35.24.39.3.06.08.09.16.08.23,0,.11-.05.23-.13.37l-.09.14.12.08,2.49-3.87-1.3-1.11-.08.12Z" style="fill: #201b4e;"/>
    <path d="M83.22,71.19c-.08.04-.26.08-.56.13l-2.18.36c.07-.33.07-.6,0-.84-.1-.37-.34-.63-.69-.8-.3-.14-.59-.18-.89-.12-.3.06-.55.22-.77.44-.21.23-.46.64-.74,1.21l-1.08,2.22.13.06c.1-.22.2-.36.28-.42.09-.06.16-.09.25-.09.08,0,.25.07.51.19l3.13,1.51c.26.13.41.22.46.29.05.06.08.14.09.24,0,.09-.05.26-.17.48l.14.06,1.19-2.44-.13-.07c-.11.22-.2.36-.28.42-.08.06-.16.09-.24.09-.09,0-.26-.06-.52-.19l-1.35-.65.15-.31,2.95-.48.74-1.5-.13-.07c-.07.13-.17.22-.29.28ZM79.64,72.95l-.1.2-2.11-1.02.18-.37c.19-.38.41-.61.67-.7.26-.09.57-.04.94.14.25.12.45.27.55.44.1.17.16.35.14.55-.02.18-.1.45-.27.77Z" style="fill: #201b4e;"/>
    <path d="M83.73,66.32c-.33-.12-.66-.13-.99-.03-.33.11-.75.41-1.26.88-.37.34-.61.56-.73.64-.17.12-.33.19-.47.22-.1.02-.21.01-.33-.03-.17-.06-.3-.19-.38-.39-.08-.2-.07-.42.02-.67.12-.32.36-.57.72-.76.36-.18.76-.24,1.21-.15l.06-.15-1.69-.57-.04.11c.14.09.22.15.24.2.03.05.03.11,0,.18-.03.06-.11.17-.25.3-.14.13-.25.25-.32.36-.1.14-.18.29-.24.45-.17.44-.15.87,0,1.26.18.39.46.67.87.82.23.09.47.11.7.07.23-.04.47-.12.7-.27.24-.14.55-.39.94-.77.28-.27.5-.44.64-.54.15-.09.29-.15.43-.17.13-.02.25-.02.37.03.2.08.35.22.44.44.09.22.08.47-.03.74-.13.36-.39.64-.78.84-.39.21-.88.27-1.45.18l-.05.14,1.9.7.05-.13c-.08-.08-.14-.16-.16-.25-.02-.09-.02-.17,0-.23.03-.07.09-.16.18-.26.17-.18.29-.34.38-.46.09-.13.16-.27.22-.43.19-.5.19-.97,0-1.4-.17-.44-.47-.73-.9-.88Z" style="fill: #201b4e;"/>
    <path d="M85.94,63.65c-.04.14-.1.25-.17.32-.07.07-.15.11-.23.12-.07.01-.24-.02-.5-.1l-3.38-.98c-.26-.07-.41-.13-.46-.18-.08-.06-.12-.13-.14-.2-.02-.1-.02-.23.03-.38l.05-.17-.14-.04-.78,2.66.14.04.06-.17c.03-.14.09-.25.17-.32.08-.06.15-.11.22-.11.07-.02.25.02.51.1l3.38.97c.26.08.41.14.47.18.07.06.12.13.13.21.03.1.02.23-.02.37l-.06.18.15.03.78-2.66-.14-.05-.05.17Z" style="fill: #201b4e;"/>
    <path d="M86.94,59.32c-.02.14-.07.26-.15.33-.06.08-.14.12-.21.13-.07.01-.24,0-.51-.06l-4.04-.86.08-.38c.05-.25.12-.41.18-.49.12-.16.26-.27.43-.34.16-.08.42-.11.76-.13l.04-.13-1.42-.3-1,4.67,1.41.3.04-.15c-.37-.14-.64-.34-.81-.61-.11-.2-.14-.46-.05-.82l.07-.37,4.04.85c.27.06.42.11.48.15.09.05.14.12.16.2.03.11.03.23,0,.38l-.04.17.14.03.58-2.72-.14-.03-.04.18Z" style="fill: #201b4e;"/>
    <path d="M87.82,53.27l-.03.3c-.02.14-.05.25-.12.32-.05.08-.12.13-.19.15s-.24,0-.52-.02l-1.29-.15-1.79-1.37c-.46-.33-.73-.58-.83-.71-.06-.1-.1-.24-.1-.42l-.14-.02-.19,1.61.15.02c.04-.24.09-.4.17-.48.06-.06.12-.09.19-.07.13.01.38.16.74.44l1.49,1.14-1.87.75c-.4.16-.66.24-.74.23-.05,0-.09-.04-.14-.11-.03-.06-.05-.18-.03-.33v-.11s-.13-.02-.13-.02l-.3,2.53h.15c.02-.15.08-.28.17-.38.08-.09.38-.24.86-.43l2.42-.97,1.07.12c.27.03.43.06.49.1.08.04.14.1.17.18.04.1.05.23.04.38l-.03.28.15.02.35-2.97-.15-.02Z" style="fill: #201b4e;"/>
    <path d="M17.57,39.97h-.8v-.33s2.46-1.7-.85-4.74c-.71,1.17-1.69,2.81-.81,4.39.07.15.34.26.34.26v.47h-.84v7.23h2.96v-7.28ZM16.12,39.24c-1.45-.73-.13-3.29-.13-3.29.51.51.84,1.61.84,1.97,0,1.05-.46,1.32-.72,1.32Z" style="fill: #201b4e;"/>
    <path d="M83.77,40.17v.5h-1.16v7.38h3v-7.38h-.88v-.51c2.26-1.22.45-3.91,0-5.04-3.4,3.16-.96,5.05-.96,5.05ZM84.39,36.17c.7.68.96,1.82.94,2.05-.17.98-.9,1.07-1.11,1.07-1.67-.61.17-3.12.17-3.12Z" style="fill: #201b4e;"/>
    <path d="M49.56,35.47h1.64c.33-5.99,12.68-3.06,12.68-3.06v-13.68c-7.55-2.29-12.48,1.04-13.84,1.89-7.97-4.82-12.98-1.76-12.98-1.76v13.03c13.21-.71,12.48,3.58,12.48,3.58ZM51.11,22.78c3-3.55,10.29-2.94,10.29-2.94v9.97c-7.9,0-10.29,1.75-10.29,1.75v-8.77ZM39.44,19.84s7.3-.61,10.31,2.94v8.77s-2.41-1.75-10.31-1.75v-9.97Z" style="fill: #201b4e;"/>
    <path d="M31.87,64.33c5.5,13.29,16.1,13.07,18.18,13.07,14.16-.25,18.53-13.07,18.53-13.07v-17.36h.75v-4.35h-4.54v21.18c-5.01,10.38-12.91,9.97-14.57,9.97-10.34,0-14.58-9.43-14.58-9.43v-22.23h-4.65v4.38h.81s.08,9.22.08,17.85Z" style="fill: #201b4e;"/>
    <path d="M41.85,22.12l.18.23h0c0,.11,0,.23.03.37.03.18.05.29.09.37.05.13.09.21.13.24.11.13.25.2.39.2.16,0,.3-.07.44-.21.05.07.08.12.08.14.05.18.08.3.09.4l.1.19.36-1.69h.32l-.19-.23h-2.03ZM43.33,23.2l-.06-.17c0-.05,0-.1,0-.16,0-.08,0-.17-.05-.26-.09-.15-.22-.24-.4-.24-.1,0-.18.03-.24.08-.08.05-.11.13-.11.22,0,.05.02.11.07.15.05.04.1.05.16.05.08,0,.14-.03.21-.11.03-.02.04-.05.05-.05h.02s.05.07.06.11c0,.05,0,.09,0,.14-.03.14-.13.22-.28.23-.1,0-.19,0-.26-.06-.03-.03-.09-.08-.16-.18-.04-.04-.07-.13-.1-.25,0-.02,0-.12-.04-.28l-.13-.06h1.45l-.18.85Z" style="fill: #201b4e;"/>
    <path d="M47.91,23.46s-.02-.04-.02-.04c-.01-.04-.02-.06-.02-.09s0-.05,0-.08l-.12-.1c-.03.13-.06.27-.07.41v.06c-.05-.08-.14-.1-.25-.12l-.02-.03h-.03s0,0,0,0c0,0-.01,0-.02,0h-1.97l.18.23c0,.1,0,.23.03.38.03.17.06.29.09.37.05.11.09.19.13.24.1.12.24.19.39.19s.3-.07.44-.22c.05.07.07.13.09.15.05.17.07.3.09.4l.09.18.36-1.68h.1c.05,0,.11.02.15.04.03.04.06.09.06.14,0,0,0,.03,0,.08l-.26,1.19.18.24.36-1.7h.32l-.18-.24h-.11ZM46.88,24.54l-.07-.18c.02-.05.02-.1.02-.15,0-.09-.02-.16-.06-.26-.09-.16-.22-.25-.4-.25-.09,0-.18.03-.24.08-.06.06-.11.13-.11.22,0,.06.02.1.08.15.04.04.09.06.15.06.07,0,.14-.04.2-.1.03-.03.05-.06.05-.06h.03s.05.06.05.12c.01.04,0,.09,0,.13-.03.15-.13.22-.28.23-.1.02-.18-.01-.26-.06-.04-.02-.09-.08-.17-.17-.03-.05-.06-.14-.09-.25,0-.03-.01-.12-.04-.29l-.11-.05h1.43l-.19.84Z" style="fill: #201b4e;"/>
    <path d="M43.97,26.61l-.19-.23h-1.94l.19.23h.94l-.02.06c-.33.1-.68.26-1.02.49l.19.31c.23.02.4.12.5.3.04.06.06.13.08.17.01,0,.01.07.02.17l.11.14.27-1.31c.11,0,.19.04.26.12.04.05.07.11.07.17-.03-.02-.07-.02-.12-.02-.04,0-.07,0-.11.02-.11.08-.16.15-.16.24,0,.06.02.1.06.13.05.04.09.06.14.06.09,0,.17-.03.23-.11.11-.08.15-.21.15-.38,0-.12-.04-.24-.13-.35-.1-.12-.21-.17-.33-.17v-.05h.78ZM42.74,27.59c-.08-.15-.2-.27-.36-.37.09-.04.14-.08.16-.1.09-.05.2-.1.34-.15l-.14.61Z" style="fill: #201b4e;"/>
    <path d="M47.35,27.18s-.01-.05,0-.09c0-.05.02-.08.02-.09l-.15-.1-.33,1.51c-.07-.13-.16-.22-.28-.3.26-.11.39-.28.39-.47,0-.08-.03-.15-.08-.22,0-.03-.08-.09-.19-.21-.17.14-.27.21-.3.22l-.05.02c0-.08-.06-.13-.16-.13-.07,0-.13.02-.18.08-.06.05-.08.11-.08.19,0,.06.03.1.07.14.04.05.1.06.16.06.15,0,.3-.05.46-.15l.09-.08s.02.06.02.1c-.02.07-.1.14-.25.19-.13.05-.24.06-.34.06-.04,0-.12,0-.22-.04l.26.44c.15,0,.3.07.44.16.12.09.19.22.21.4.01.04.02.08.03.09l.09.13.36-1.64h.3l-.19-.23c-.05-.01-.08-.02-.09-.03Z" style="fill: #201b4e;"/>
    <path d="M52.94,25.78c.05.05.08.06.1.06.04,0,.08,0,.11-.04.01-.02.04-.06.04-.1v-.02s-.04-.06-.04-.08c-.06-.13-.09-.22-.11-.26,0-.08-.02-.17-.02-.29,0-.14,0-.24.02-.33,0-.09,0-.15.02-.18.02-.03.03-.05.03-.07,0-.08-.07-.15-.2-.2-.12-.05-.21-.06-.3-.06-.23,0-.43.09-.58.24-.18.17-.26.38-.26.62s.06.43.16.56c.11.12.28.19.51.19.05,0,.12-.02.18-.04.08-.03.16-.06.25-.12.02.03.07.07.1.12ZM52.64,25.52c-.07.03-.14.05-.25.05s-.2-.05-.25-.12c-.06-.1-.09-.21-.09-.37s.06-.3.17-.42c.11-.13.25-.2.41-.2,0,0,.02.01.05.02.02,0,.05.02.09.04-.01.06-.02.11-.02.17,0,.04,0,.09,0,.13,0,.13.01.33.04.59-.06.06-.11.09-.15.12Z" style="fill: #201b4e;"/>
    <path d="M56.22,24.04c.15-.15.23-.35.23-.58,0-.22-.07-.4-.18-.56-.15-.17-.32-.24-.54-.24-.06,0-.14.01-.21.04-.08.03-.16.07-.25.13v-.37s0-.33,0-.33c0-.01,0-.03.01-.06,0-.03,0-.05,0-.06,0-.08-.04-.13-.11-.13-.06,0-.11.03-.14.09-.03.04-.04.1-.04.15v1.29c0,.21,0,.36,0,.47v.11s0,.08,0,.12c0,.04.01.08.04.09.03.03.07.05.09.05.05,0,.09-.03.12-.08.12.06.27.09.41.09.22,0,.41-.08.54-.23ZM55.28,23.89v-.24s0-.23,0-.23v-.26c.09-.07.17-.12.22-.15.09-.04.17-.07.24-.07.14,0,.25.06.33.15.07.11.11.23.11.37s-.06.27-.14.38c-.09.09-.22.14-.36.14-.08,0-.14,0-.21-.02-.09-.03-.15-.06-.19-.08Z" style="fill: #201b4e;"/>
    <path d="M59.3,22.78s-.02-.06-.05-.1c-.04-.02-.06-.04-.12-.04,0,0-.02.03-.04.04l-.16.11c-.07.04-.12.06-.19.07-.12,0-.23-.01-.33-.08-.1-.06-.15-.16-.16-.3-.01-.11,0-.26.08-.44.09-.19.18-.28.28-.29.13-.02.23,0,.29.03.02.02.05.04.06.05.02.02.04.02.08.02.04,0,.06-.02.08-.04.02-.03.04-.07.03-.11,0-.08-.09-.14-.26-.19-.12-.03-.22-.04-.32-.03-.2.01-.35.16-.47.41-.11.23-.16.43-.13.63.02.21.11.38.27.48.14.11.31.16.52.14.08-.02.2-.05.32-.13.15-.07.22-.16.22-.23Z" style="fill: #201b4e;"/>
    <path d="M53.2,28.83h-.12s0-.09,0-.15c0-.06,0-.12,0-.16,0-.07,0-.19.03-.36.02-.16.03-.29.03-.37,0-.03,0-.06,0-.11v-.1s0-.04,0-.08c0-.03,0-.06,0-.07,0-.05-.02-.08-.09-.08-.05,0-.11.03-.18.1-.07.06-.13.11-.16.14-.07.04-.09.08-.09.11,0,.03,0,.05.02.07.03.03.05.04.09.04.02,0,.09-.04.19-.12,0,.1-.02.24-.02.43-.02.19-.03.32-.03.41,0,.04,0,.09.01.16,0,.06.01.11.01.16h-.11c-.11,0-.17.03-.17.1,0,.04.02.06.06.08.02,0,.06.01.11.01h.43s.06,0,.07-.03c.02-.01.03-.05.03-.07s-.01-.05-.03-.07c-.01-.02-.04-.03-.07-.03Z" style="fill: #201b4e;"/>
    <path d="M56.33,27.91c-.06,0-.17,0-.34,0l-.22.03c0-.13.03-.22.12-.31.05-.04.13-.1.27-.19.13-.07.22-.15.28-.22.04-.05.07-.1.1-.17.03-.06.03-.12.03-.2,0-.11-.05-.2-.15-.28-.09-.06-.2-.09-.31-.09-.1,0-.19.03-.28.09-.06.02-.13.08-.22.17-.02.03-.04.05-.04.08,0,.07.03.09.11.09.02,0,.05,0,.08-.03l.16-.12c.06-.05.12-.06.19-.06.05,0,.1,0,.15.05.07.03.09.07.09.13,0,.09-.02.17-.09.24-.03.04-.11.09-.22.16-.18.13-.29.22-.33.26-.1.1-.14.24-.14.41,0,.05,0,.09.01.13.01.05.04.07.1.07h.02s.04.01.04.01c.03,0,.07-.01.12-.01.07,0,.1-.02.13-.02h.35s.03,0,.06.01c.03,0,.07,0,.07,0,.03,0,.06,0,.08-.02.01-.03.03-.05.03-.08,0-.05-.03-.08-.1-.1-.05-.02-.1-.03-.16-.03Z" style="fill: #201b4e;"/>
    <path d="M59.72,26.18s.02-.01.04-.02c.13-.06.2-.17.19-.34-.01-.13-.06-.24-.17-.31-.09-.05-.23-.09-.37-.09-.07,0-.15.04-.24.09-.1.06-.16.11-.16.17,0,.03.01.05.03.07.03.01.05.03.08.03,0,0,.03-.01.06-.03l.11-.09s.1-.04.14-.04c.1,0,.18.01.23.06.05.04.08.08.09.14,0,.04-.02.09-.04.11-.03.03-.07.05-.12.08l-.25.08c-.06.03-.09.05-.09.1,0,.06.03.08.13.09.11,0,.21.05.29.09.08.06.12.14.13.26,0,.06-.03.13-.09.18-.06.05-.12.09-.2.09-.07,0-.12,0-.17-.02-.05-.02-.08-.04-.11-.08l-.05-.07s-.05-.04-.08-.04c-.04,0-.06.02-.08.04-.02.02-.04.05-.03.06,0,.01,0,.03.01.04.04.09.1.16.21.21.09.05.19.06.3.05.14,0,.26-.06.36-.17.1-.09.15-.22.14-.37,0-.1-.03-.19-.09-.25-.05-.07-.13-.12-.22-.15Z" style="fill: #201b4e;"/>
    <path d="M46.6,42.9c-.14.04-.25.05-.33.02-.07,0-.13-.05-.17-.1-.04-.06-.09-.2-.16-.42-.34-1.19-.52-1.79-.86-2.97-.05.01-.07.02-.11.04-.64.45-.94.7-1.51,1.19.04.03.06.04.09.08.15-.13.27-.21.38-.25.07-.03.14-.04.21-.03.07,0,.1.03.15.06.03.04.07.13.14.3.26.73.4,1.1.65,1.84.09.23.12.37.12.44,0,.08-.03.14-.08.2-.06.07-.16.12-.32.18-.04.02-.06.02-.1.04,0,.04.01.06.03.09.78-.31,1.17-.44,1.97-.64,0-.04-.01-.06-.02-.09-.04,0-.06,0-.09.02Z" style="fill: #201b4e;"/>
    <path d="M49.6,39.46c-.16-.24-.37-.4-.63-.51-.27-.11-.55-.14-.84-.11-.27.02-.52.11-.76.27-.23.16-.4.34-.48.57-.09.23-.1.46-.06.71.07.35.24.6.49.77.26.17.53.21.86.18.1-.01.2-.04.28-.06.08-.03.3-.17.32-.17,0,0-.1.51-.22.73-.12.22-.28.41-.48.58-.2.17-.45.31-.75.44,0,.03,0,.05,0,.08.53-.12.96-.3,1.34-.56.37-.26.66-.56.86-.94.19-.38.3-.76.29-1.15,0-.3-.08-.57-.23-.81ZM48.83,40.87c-.04.05-.24.11-.32.12-.15,0-.28-.04-.39-.15-.16-.18-.29-.52-.37-1.03-.04-.3-.02-.51.05-.64.07-.08.15-.13.27-.15.1,0,.18.02.24.05.12.06.22.17.29.33.13.27.19.59.22.91.01.16.07.47.01.56Z" style="fill: #201b4e;"/>
    <path d="M51.09,42.29c-.23.12-.5.22-.83.29v.07c.53,0,1-.09,1.41-.27.42-.18.77-.42,1.04-.75.27-.33.45-.68.53-1.06.06-.3.04-.58-.06-.84-.1-.26-.28-.47-.51-.64-.24-.15-.51-.25-.8-.28-.27-.03-.54,0-.8.11-.24.1-.45.26-.58.46-.13.19-.2.43-.2.68,0,.35.1.64.33.85.21.21.48.32.79.36.1,0,.19,0,.28-.01.1,0,.34-.09.35-.08,0,0-.21.46-.37.65-.17.19-.36.34-.6.46ZM51.79,41c-.15-.02-.28-.09-.36-.23-.12-.2-.17-.56-.14-1.07.02-.31.08-.52.18-.62.08-.07.18-.11.29-.09.1,0,.17.04.23.08.1.09.18.22.21.38.06.31.07.63.02.96-.02.16-.02.47-.1.54-.04.06-.25.06-.34.06Z" style="fill: #201b4e;"/>
    <path d="M53.17,42.83s0,.03-.01.06c.91.19,1.35.32,2.21.66.25-.37.38-.56.63-.92-.05-.02-.07-.02-.1-.05-.12.1-.2.15-.25.17-.06.03-.12.04-.19.03-.07-.02-.2-.05-.41-.12-.35-.13-.52-.19-.85-.27.83-.41,1.45-.68,1.79-.92.24-.18.43-.4.52-.61.05-.13.05-.28,0-.47-.05-.18-.16-.36-.32-.51-.17-.15-.38-.27-.62-.34-.35-.11-.66-.11-.97-.01-.3.09-.55.31-.75.63.04.02.06.04.11.05.25-.23.57-.3.91-.21.22.06.38.18.47.35.12.17.14.34.07.52-.09.26-.25.49-.5.72-.25.21-.88.58-1.75,1.22Z" style="fill: #201b4e;"/>
    <path d="M44.89,45.81c-.4.18-.8.36-1.19.58.02.01.04.02.06.03.77.44,1.59.77,2.43,1.03.56-.9,1.22-1.73,1.93-2.53.01-.01.02-.03.03-.05-.15.02-.29.06-.44.09-.17.03-.34.06-.51.1-.72.16-1.43.37-2.1.65-.07.03-.14.07-.22.11Z" style="fill: #201b4e;"/>
    <path d="M61.31,51.74h.56c-1.04-2.17-2.64-4.02-4.65-5.34l-.1.06c.06.08.1.17.16.25.15.21.27.44.4.65.88,1.39,1.62,2.84,2.13,4.37h1.5Z" style="fill: #201b4e;"/>
    <path d="M49.75,48.52c-1.13-.02-2.25-.17-3.32-.47-.7,1.17-1.24,2.41-1.67,3.69h2.2v-3.13h1.33l1.47,2.39v-2.48Z" style="fill: #201b4e;"/>
    <path d="M55.26,51.74c-.43-1.28-.98-2.53-1.68-3.7-1.08.3-2.2.46-3.34.48v3.22h.81v-3.13h1.27v3.13h2.93Z" style="fill: #201b4e;"/>
    <polygon points="48.22 51.74 48.71 51.74 48.22 50.96 48.22 51.74" style="fill: #201b4e;"/>
    <path d="M55.4,52.23h-3.07v3.12h-1.38l-.71-1.14v3.09h6.04c-.05-1.74-.37-3.43-.88-5.07Z" style="fill: #201b4e;"/>
    <path d="M49.01,52.23h-.79v3.12h-1.27v-3.12h-2.34c-.51,1.64-.82,3.33-.88,5.07h6.02v-3.88l-.74-1.19Z" style="fill: #201b4e;"/>
    <path d="M45.97,47.89c-.92-.3-1.82-.68-2.66-1.18-1.11,1.56-1.97,3.25-2.57,5.03h3.51c.44-1.34,1-2.63,1.71-3.85Z" style="fill: #201b4e;"/>
    <polygon points="51.05 52.23 50.5 52.23 51.05 53.12 51.05 52.23" style="fill: #201b4e;"/>
    <path d="M59.28,51.74c-.6-1.78-1.46-3.48-2.58-5.04-.83.49-1.71.88-2.63,1.17.72,1.23,1.31,2.52,1.75,3.87h3.46Z" style="fill: #201b4e;"/>
    <path d="M49.75,44.75h0c-.31,0-.62.02-.93.05-.01.01-.02.03-.04.05-.79.86-1.51,1.78-2.13,2.76,1,.27,2.04.41,3.1.43v-3.29Z" style="fill: #201b4e;"/>
    <path d="M42.88,46.47l-.12-.07c-2.01,1.31-3.6,3.17-4.64,5.34h2.08c.51-1.55,1.26-3.02,2.15-4.42.14-.22.26-.44.4-.65.04-.06.08-.13.12-.2Z" style="fill: #201b4e;"/>
    <path d="M50.24,44.75v3.28c1.06-.02,2.1-.16,3.11-.44-.61-.97-1.33-1.89-2.12-2.75-.01-.01-.02-.03-.04-.05-.32-.03-.64-.05-.96-.06h0Z" style="fill: #201b4e;"/>
    <path d="M51.92,44.88s.02.02.03.04c.69.8,1.33,1.63,1.88,2.52.83-.26,1.65-.59,2.41-1.02.02-.01.04-.02.06-.03-.41-.24-.84-.44-1.28-.62-.04-.02-.08-.04-.12-.06-.68-.28-1.4-.49-2.13-.66-.16-.04-.33-.07-.49-.1-.12-.02-.24-.05-.36-.07Z" style="fill: #201b4e;"/>
    <path d="M41.63,67.34l.17.1c.36.28.7.57,1.09.82l-.03.02.34.21c.54.32,1.09.59,1.66.83.02.01.05.02.07.03.68.28,1.39.49,2.12.65.19.04.39.08.59.12.77.14,1.55.24,2.36.24s1.59-.1,2.36-.24c.19-.03.38-.07.57-.12.75-.17,1.48-.38,2.18-.67,0,0,0,0,0,0,.58-.24,1.14-.52,1.68-.84l.35-.21-.04-.02c.41-.26.78-.57,1.16-.88l.12-.05s.02-.06.04-.08c2.88-2.4,4.75-5.95,4.75-9.96,0-1.8-.37-3.51-1.04-5.07h-2.2c.49,1.64.76,3.34.81,5.07h-.45c0,.12-.01.25-.01.37-.04,1.71-.33,3.74-.8,5.57h-3.54c.49-1.74.78-3.54.84-5.34,0-.13.03-.25.03-.38,0-.07.02-.15.02-.22h3.42c-.05-1.74-.32-3.44-.82-5.07h-3.44c.49,1.63.76,3.34.81,5.07h-.46c0,.11-.02.21-.03.32-.03,1.9-.35,3.8-.87,5.62h-3.19c-.04-.22-.05-.46-.16-.63-.17-.28-.43-.51-.75-.67-.26-.13-.64-.26-1.1-.38v-1.44s.14.01.18.05c.19.15.32.4.38.75l1.36-.06c-.02-.63-.24-1.11-.68-1.48-.3-.26-.74-.39-1.25-.47v-1.59h-.49v1.53c-.07,0-.12-.02-.19-.02-.52,0-.97.08-1.34.23-.36.16-.65.39-.84.68-.2.31-.3.62-.3.98,0,.52.21.97.63,1.34.29.26.81.49,1.55.66.2.05.34.09.49.13v.41h-5.17c-.53-1.82-.84-3.72-.87-5.62,0-.11-.03-.21-.03-.32h-.43c.05-1.74.37-3.43.86-5.07h-3.52c-.5,1.63-.77,3.33-.82,5.07h3.43c0,.11.02.21.03.32,0,.09.02.18.02.28.05,1.81.35,3.61.83,5.34h-3.5c-.49-1.86-.8-3.83-.83-5.62,0-.1-.02-.21-.02-.31h-.44c.05-1.73.32-3.43.81-5.07h-2.23c-.67,1.56-1.04,3.27-1.04,5.07,0,4.02,1.88,7.58,4.78,9.98.01.02.02.04.03.06ZM43.89,68.25c.59-.32,1.2-.58,1.82-.8.38.72.82,1.39,1.28,2.03,0,.01.01.02.02.03-.65-.15-1.28-.36-1.9-.61-.06-.03-.12-.06-.19-.09-.38-.16-.75-.33-1.11-.52.02-.01.05-.02.07-.03ZM56.18,68.29c-.37.21-.77.38-1.16.55-.04.02-.09.04-.13.06-.61.25-1.25.46-1.89.61,0-.01.02-.03.02-.04.46-.64.9-1.3,1.28-2.01.62.22,1.22.48,1.8.79.02.01.05.02.08.04ZM52.33,69.63s-.03,0-.05,0c-.67.12-1.35.2-2.04.21h0v-3.16c1.22.02,2.42.24,3.57.6-.45.83-.93,1.62-1.48,2.34ZM49.75,69.85h0c-.69,0-1.37-.08-2.05-.21,0,0-.01,0-.02,0-.55-.72-1.04-1.51-1.49-2.35,1.15-.36,2.34-.57,3.56-.6v3.15ZM58.64,66.77c.08-.16.15-.34.23-.51.36-.8.68-1.64.94-2.53h1.31c-.67,1.14-1.5,2.16-2.48,3.05ZM60.74,57.89c0-.12.02-.24.02-.36,0-.08.01-.16.01-.23h2.14c0,2.21-.61,4.25-1.6,6.06v-.13h-1.36c.46-1.72.73-3.54.78-5.34ZM59.35,63.72c-.33,1.19-.71,2.28-1.13,3.08-.14.26-.28.47-.43.67-.3.23-.6.45-.92.65l-.07-.04c-.06-.04-.13-.06-.19-.1-.66-.38-1.36-.69-2.08-.96.52-1.04.95-2.15,1.31-3.3h3.52ZM54.05,66.86c-1.23-.4-2.51-.63-3.81-.65v-.55c.3-.04.65-.04.88-.14.4-.16.71-.41.92-.75.21-.33.3-.68.31-1.05h2.97c-.34,1.09-.76,2.15-1.27,3.14ZM50.24,63.72h.75c-.01.24-.12.44-.33.62-.11.09-.25.16-.41.2v-.82ZM48.6,60.99c-.13-.11-.2-.25-.2-.41,0-.18.08-.32.22-.42.22-.16.53-.24.93-.24.09,0,.12.04.2.05v1.43c-.59-.15-.98-.29-1.15-.42ZM50.24,62.96s.09.03.12.03c.2.08.32.16.41.24h-.53v-.28ZM49.75,63.72v.88s-.06.01-.09.01c-.42,0-.75-.09-.99-.31-.16-.13-.28-.34-.36-.58h1.45ZM46.92,63.72c.12.61.36,1.11.76,1.46.47.38,1.11.58,1.97.58.04,0,.06-.02.1-.02v.47c-1.3.02-2.57.25-3.79.64-.5-.99-.92-2.04-1.26-3.13h2.22ZM44.2,63.72c.35,1.15.78,2.25,1.3,3.3-.73.26-1.43.57-2.11.96-.06.04-.13.06-.19.1l-.07.04c-.35-.22-.68-.47-1-.72-.08-.16-.15-.34-.23-.51-.45-.95-.84-2.02-1.17-3.17h3.47ZM37.32,57.3h1.91c0,.11.02.22.02.33,0,.09.01.17.02.26.05,1.8.32,3.62.79,5.34h-1.39v.12c-.99-1.81-1.6-3.85-1.6-6.06h.26ZM38.87,63.72h1.34c.27.9.58,1.75.95,2.56.08.17.15.35.23.51-.99-.89-1.83-1.92-2.51-3.07Z" style="fill: #201b4e;"/>
  </g>
  <g>
    <path d="M70.05,42.7v21.63s-4.2,14.9-19.47,14.9c-3.12,0-16.24-.31-20.58-14.9v-22.23h-3.54v22.23c0,.81,2.45,16.43,23.53,18.51,0,0,17.91.51,24-18.51v-21.63h-3.94Z" style="fill: #2ba0da;"/>
    <path d="M39.16,63.72h-.29c.68,1.15,1.52,2.18,2.51,3.07-.08-.16-.15-.34-.23-.51-.36-.8-.68-1.65-.95-2.56h-1.05Z" style="fill: #2ba0da;"/>
    <path d="M55.94,63.23h3.54c.46-1.83.76-3.86.8-5.57,0-.12-.02-.25-.03-.37h-3.42c0,.07-.02.15-.02.22,0,.13.02.25.02.38h-.05c-.05,1.8-.35,3.6-.84,5.34Z" style="fill: #2ba0da;"/>
    <path d="M49.75,63.23v-.41c-.15-.04-.29-.08-.49-.13-.73-.18-1.26-.4-1.55-.66-.42-.37-.63-.83-.63-1.34,0-.36.1-.67.3-.98.2-.3.48-.52.84-.68.37-.15.82-.23,1.34-.23.07,0,.12.02.19.02v-1.53h-6.02c0,.11-.03.21-.03.32.03,1.9.35,3.8.87,5.62h5.17Z" style="fill: #2ba0da;"/>
    <path d="M49.75,65.74s-.06.02-.1.02c-.86,0-1.51-.2-1.97-.58-.4-.35-.64-.85-.76-1.46h-2.22c.34,1.09.76,2.14,1.26,3.13,1.22-.39,2.5-.62,3.79-.64v-.47Z" style="fill: #2ba0da;"/>
    <path d="M44.08,63.23c-.49-1.74-.78-3.54-.83-5.34h-.05c0-.09.02-.18.03-.28,0-.11-.03-.21-.03-.32h-3.43c0,.11-.02.21-.02.31.03,1.8.34,3.76.83,5.62h3.5Z" style="fill: #2ba0da;"/>
    <path d="M55.32,63.72h-2.97c0,.37-.1.72-.31,1.05-.21.34-.52.58-.92.75-.23.1-.57.1-.88.14v.55c1.3.02,2.58.25,3.81.65.5-.99.92-2.05,1.27-3.14Z" style="fill: #2ba0da;"/>
    <path d="M47.71,69.64c.67.12,1.35.2,2.05.21h0v-3.16c-1.22.02-2.41.23-3.56.6.45.83.94,1.63,1.49,2.35,0,0,.01,0,.02,0Z" style="fill: #2ba0da;"/>
    <path d="M50.36,62.99s-.08-.02-.12-.03v.28h.53c-.09-.08-.21-.17-.41-.24Z" style="fill: #2ba0da;"/>
    <path d="M59.96,63.23h1.36v.13c.99-1.81,1.6-3.86,1.6-6.06h-2.14c0,.08-.01.16-.01.23,0,.12.03.24.03.36h-.05c-.05,1.8-.32,3.62-.78,5.34Z" style="fill: #2ba0da;"/>
    <path d="M52.09,62.6c.11.17.12.41.16.63h3.19c.52-1.82.84-3.72.87-5.62,0-.11-.03-.21-.03-.32h-6.04v1.59c.51.08.95.21,1.25.47.43.37.66.86.68,1.48l-1.36.06c-.06-.35-.19-.6-.38-.75-.04-.03-.13-.02-.18-.05v1.44c.46.12.85.25,1.1.38.32.16.58.39.75.67Z" style="fill: #2ba0da;"/>
    <path d="M53.02,69.47s-.02.03-.02.04c.65-.15,1.28-.36,1.89-.61.04-.02.09-.04.13-.06.39-.17.78-.34,1.16-.55-.02-.01-.05-.02-.08-.04-.58-.32-1.19-.57-1.8-.79-.38.72-.82,1.38-1.28,2.01Z" style="fill: #2ba0da;"/>
    <path d="M45.12,68.9c.62.25,1.25.46,1.9.61,0-.01-.01-.02-.02-.03-.46-.64-.9-1.31-1.28-2.03-.62.22-1.24.48-1.82.8-.02.01-.05.02-.07.03.36.2.73.36,1.11.52.06.03.12.06.19.09Z" style="fill: #2ba0da;"/>
    <path d="M49.75,63.72h-1.45c.09.24.2.44.36.58.24.21.57.31.99.31.03,0,.06,0,.09-.01v-.88Z" style="fill: #2ba0da;"/>
    <path d="M52.33,69.63c.55-.72,1.04-1.51,1.48-2.34-1.15-.37-2.35-.58-3.57-.6v3.15h0c.69,0,1.37-.08,2.04-.2.02,0,.03,0,.05,0Z" style="fill: #2ba0da;"/>
    <path d="M48.62,60.17c-.14.1-.22.25-.22.42,0,.16.07.3.2.41.17.13.56.27,1.15.42v-1.43c-.08,0-.11-.05-.2-.05-.4,0-.72.08-.93.24Z" style="fill: #2ba0da;"/>
    <path d="M50.99,63.72h-.75v.82c.16-.05.3-.11.41-.2.21-.17.32-.38.33-.62Z" style="fill: #2ba0da;"/>
    <path d="M38.67,63.23h1.39c-.46-1.72-.74-3.54-.79-5.34h-.04c0-.09.02-.17.02-.26,0-.11-.02-.22-.02-.33h-2.17c0,2.2.61,4.25,1.6,6.06v-.12Z" style="fill: #2ba0da;"/>
    <path d="M42.13,67.4c.33.25.65.5,1,.72l.07-.04c.06-.04.13-.06.19-.1.67-.39,1.38-.7,2.11-.96-.52-1.04-.95-2.15-1.3-3.3h-3.47c.33,1.16.72,2.22,1.17,3.17.08.16.15.35.23.51Z" style="fill: #2ba0da;"/>
    <path d="M56.79,68.08l.07.04c.32-.2.62-.42.92-.65.15-.2.29-.41.43-.67.42-.8.81-1.89,1.13-3.08h-3.52c-.35,1.15-.78,2.26-1.31,3.3.72.26,1.42.57,2.08.96.06.04.13.06.19.1Z" style="fill: #2ba0da;"/>
    <path d="M60.84,63.72h-1.03c-.26.9-.58,1.74-.94,2.53-.08.17-.15.35-.23.51.98-.88,1.81-1.9,2.48-3.05h-.28Z" style="fill: #2ba0da;"/>
  </g>
  <g>
    <path d="M84.22,39.29c.21,0,.94-.09,1.11-1.07.03-.23-.24-1.37-.94-2.05,0,0-1.84,2.51-.17,3.12Z" style="fill: #fff;"/>
    <path d="M16,35.95s-1.32,2.57.13,3.29c.25,0,.72-.27.72-1.32,0-.35-.33-1.46-.84-1.97Z" style="fill: #fff;"/>
    <path d="M79.22,71.2c-.37-.18-.68-.22-.94-.14-.26.09-.48.32-.67.7l-.18.37,2.11,1.02.1-.2c.17-.32.25-.58.27-.77.02-.2-.03-.38-.14-.55-.11-.17-.3-.31-.55-.44Z" style="fill: #fff;"/>
    <path d="M16.34,61.38c.69-.14,1.2-.32,1.51-.52.32-.2.52-.41.63-.64.1-.23.12-.47.07-.73-.11-.48-.43-.78-.97-.93-.44-.12-1.04-.09-1.8.06-.89.19-1.52.49-1.88.89-.25.28-.34.61-.25,1.01.06.26.17.47.33.62.22.19.52.31.91.36.39.05.87,0,1.46-.11Z" style="fill: #fff;"/>
    <path d="M18.36,66.26c.2.05.43.04.7-.06.39-.13.65-.31.78-.55.12-.24.12-.56,0-.96l-.14-.4-2.22.72.07.21c.11.35.23.6.35.74.12.15.28.25.48.29Z" style="fill: #fff;"/>
    <path d="M49.99,2.31C28.3,2.31,10.72,23.67,10.72,50s17.58,47.69,39.27,47.69,39.28-21.35,39.28-47.69S71.69,2.31,49.99,2.31ZM84.73,35.12c.45,1.13,2.26,3.82,0,5.04v.51h.88v7.38h-3v-7.38h1.16v-.5s-2.44-1.89.96-5.05ZM81.15,27.34c.07-.05.11-.12.13-.19.02-.11.01-.24-.05-.39l-.06-.15.12-.05,1.52,3.77-1.33.53-.05-.12c.31-.2.5-.38.6-.55.09-.17.13-.38.11-.62,0-.14-.08-.38-.22-.72l-.18-.45-1.86.73.04.09c.12.29.29.46.52.52.23.05.54.02.91-.07l.05.12-2.38.95-.05-.12c.24-.13.43-.28.57-.42.13-.15.2-.29.21-.43.01-.14-.03-.31-.12-.52l-1.28.51c-.25.1-.39.17-.45.21-.04.05-.07.1-.08.17-.01.08,0,.18.05.31l.11.26c.18.42.41.71.71.9.31.17.67.23,1.12.18l.05.13-1.52.37-1.58-3.89.12-.05.06.14c.06.13.12.24.2.29.06.05.13.07.22.07.06,0,.21-.04.44-.13l2.98-1.2c.21-.08.33-.14.37-.17ZM77.95,21.75c.7.19,1.24.63,1.62,1.31.12.21.21.41.28.6.04.1.07.27.11.52.04.25.07.39.09.43.03.05.08.1.15.13.07.02.17.02.32,0l.07.11-1.5.84-.07-.12c.33-.37.52-.75.58-1.15.07-.4,0-.76-.2-1.09-.18-.31-.42-.52-.71-.64-.29-.11-.64-.12-1-.02-.37.09-.72.23-1.06.42-.41.23-.75.47-1,.75-.25.27-.39.55-.41.84-.03.29.05.59.21.88.06.1.13.2.21.3.08.1.18.19.29.28l.89-.5c.17-.1.27-.17.31-.22.04-.05.05-.12.05-.22s-.03-.19-.09-.3l-.06-.11.11-.06,1.17,2.05-.11.07c-.1-.15-.18-.25-.25-.29-.07-.05-.15-.06-.24-.05-.05,0-.15.05-.31.13l-.89.5c-.28-.2-.53-.43-.75-.69-.23-.26-.43-.55-.61-.86-.23-.4-.37-.77-.4-1.09-.04-.33-.03-.64.03-.94.06-.3.18-.57.34-.81.21-.31.49-.56.84-.76.65-.36,1.31-.44,2.01-.23ZM74.14,15.72l-.1-.13.1-.08,1.35,1.72c.35.46.59.87.68,1.24.12.46.09.9-.09,1.31-.17.42-.45.78-.85,1.09-.27.2-.55.36-.85.45-.3.09-.57.12-.83.1-.26-.03-.5-.09-.73-.2-.24-.11-.48-.28-.73-.5-.11-.1-.27-.27-.46-.52l-1.35-1.71.1-.08.1.13c.09.11.17.18.26.21.08.04.16.04.24.02.05-.01.18-.09.38-.25l2.54-1.96c.19-.15.3-.26.34-.32.04-.06.04-.13.03-.23-.01-.09-.06-.19-.15-.3ZM67.24,15.09c.06-.02.17-.12.34-.3l2.2-2.33c.15-.16.24-.27.27-.31.04-.07.05-.15.03-.23-.02-.11-.08-.22-.21-.33l-.11-.11.09-.1,2.99,2.78-.99,1.05-.1-.09c.19-.3.29-.56.31-.75,0-.2-.04-.4-.16-.61-.07-.12-.25-.3-.51-.56l-.38-.35-1.36,1.45.07.06c.23.21.46.29.7.25.23-.05.5-.19.78-.44l.1.09-1.75,1.85-.1-.09c.17-.22.28-.42.34-.62.05-.19.06-.35,0-.48-.05-.13-.16-.27-.32-.43l-.95,1c-.18.19-.29.32-.31.38-.03.06-.03.13-.02.19.02.07.08.15.18.25l.22.2c.34.31.68.48,1.02.52.35.02.71-.07,1.1-.3l.09.09-1.22.97-3.09-2.87.09-.1.12.11c.1.09.2.16.3.18.07.01.14,0,.22-.04ZM64.82,7.95l2.18,1.42-.08.11-.17-.11c-.12-.08-.23-.12-.33-.13-.07,0-.14.02-.22.07-.06.03-.15.15-.28.35l-1.72,2.59c-.14.2-.21.34-.23.42-.01.07,0,.14.06.22.04.05.16.13.35.26l.34.22c.22.14.43.22.62.24.2.01.4-.03.61-.11.21-.1.48-.27.78-.53l.12.08-1.1,1.33-3.63-2.37.07-.11.14.09c.12.08.23.12.33.12.07,0,.14-.01.21-.06.06-.03.15-.15.29-.36l1.77-2.67c.14-.2.21-.35.23-.41,0-.06,0-.14-.05-.23-.04-.08-.12-.16-.23-.24l-.14-.09.07-.11ZM56.55,4.62l1.99.71-.04.12c-.17-.05-.27-.06-.35-.03-.07.03-.11.07-.13.13-.03.09-.05.28-.03.6l.1,2.54,1.35-1.48-.02-.55c0-.3-.03-.51-.04-.61-.03-.11-.07-.2-.13-.27-.06-.07-.16-.12-.3-.17l.04-.12,2.23.79-.04.13c-.16-.06-.27-.08-.35-.09-.06,0-.1.01-.14.04-.04.02-.07.06-.08.11-.03.05-.03.23-.03.54l.07,2.46,1.46-1.7c.15-.17.25-.29.29-.36.05-.06.08-.13.11-.19.03-.09.02-.17-.02-.26-.04-.07-.15-.14-.33-.21l.04-.12,1.2.42-.04.13c-.09-.03-.17-.03-.25-.01-.07.02-.14.07-.22.13-.02.02-.16.17-.4.45l-2.81,3.26-.12-.05-.08-3.35-2.32,2.5-.13-.05-.17-4.26c-.02-.43-.04-.7-.07-.8-.04-.1-.13-.18-.27-.24l.05-.13ZM50.14,4.67c.53-.44,1.15-.63,1.87-.55.78.02,1.39.29,1.85.8.46.51.66,1.13.61,1.84-.05.61-.26,1.14-.66,1.58-.52.59-1.22.85-2.1.8-.87-.06-1.54-.4-1.98-1.02-.35-.49-.5-1.06-.45-1.7.05-.71.33-1.3.85-1.75ZM44.29,4.69l2.9,2.55-.36-2.05c-.05-.29-.12-.47-.22-.56-.14-.13-.34-.15-.61-.1l-.02-.13,1.59-.28.02.13c-.2.06-.33.11-.39.17-.06.05-.11.12-.13.22-.02.1-.01.27.03.49l.7,3.99-.13.02-3.96-3.42.53,3.04c.05.28.14.44.29.53.14.07.3.1.46.07l.11-.02.03.13-1.71.3-.02-.13c.27-.05.44-.14.53-.26.09-.13.11-.31.07-.57l-.6-3.37-.12-.11c-.13-.11-.23-.17-.31-.2-.09-.02-.21-.03-.35-.01l-.02-.13,1.71-.3ZM38.22,6.62l.06.12c-.15.06-.26.13-.32.21-.05.05-.07.13-.07.21,0,.06.04.21.14.44l.6,1.38,1.09-2.04c.16-.29.21-.48.16-.6-.04-.08-.12-.13-.23-.14-.07,0-.19.03-.38.11l-.06-.12,1.76-.75.06.13c-.16.07-.27.16-.34.24-.07.08-.21.32-.41.71l-.88,1.61,2.44,1.3c.34.18.62.28.82.31.15.03.29,0,.41-.05l.06.12-2.34.99-.06-.12c.14-.07.23-.14.25-.18.03-.06.03-.1.01-.16-.04-.09-.21-.22-.53-.38l-1.59-.86-.1.21.53,1.22c.09.23.17.37.23.42.05.05.12.07.21.09.09,0,.22-.02.39-.1l.05.12-2.28.97-.06-.12.15-.06c.14-.06.24-.13.3-.2.03-.05.06-.13.06-.21,0-.07-.04-.21-.14-.43l-1.27-2.94c-.09-.22-.17-.35-.22-.4-.05-.05-.11-.08-.21-.09-.09-.01-.2,0-.33.06l-.14.07-.06-.13,2.24-.95ZM30.55,11.31l.09.1c-.13.1-.22.2-.25.29-.03.07-.03.14,0,.22.02.07.1.19.25.39l.96,1.18.49-2.26c.07-.31.07-.52,0-.62-.06-.06-.14-.09-.25-.06-.06,0-.18.08-.34.2l-.09-.1,1.49-1.19.08.1c-.13.12-.22.22-.26.32-.05.1-.12.37-.22.81l-.39,1.78,2.69.6c.38.08.68.11.88.08.15-.02.28-.07.39-.16l.09.1-1.99,1.58-.09-.11c.12-.1.18-.19.2-.25,0-.06,0-.1-.03-.15-.06-.08-.27-.16-.61-.23l-1.76-.4-.04.23.84,1.03c.16.2.27.31.33.34.06.03.14.04.23.02.09-.02.21-.08.35-.19l.08.1-1.92,1.54-.09-.1.13-.1c.11-.09.18-.18.22-.27.02-.06.02-.14,0-.22-.01-.06-.1-.19-.26-.37l-2.02-2.49c-.15-.2-.26-.3-.32-.33-.06-.04-.13-.05-.23-.04-.09.01-.19.06-.3.15l-.13.1-.08-.1,1.9-1.52ZM27.5,14.03l1.07.96-.09.1c-.32-.18-.57-.28-.77-.29-.2,0-.4.05-.61.17-.13.07-.3.24-.55.52l-.34.37,1.49,1.32.07-.08c.2-.23.28-.46.23-.69-.05-.23-.2-.48-.46-.76l.1-.1,1.9,1.7-.09.1c-.23-.16-.44-.27-.64-.32-.19-.05-.35-.05-.48,0-.13.05-.27.16-.42.34l1.03.91c.2.18.32.28.38.3.07.03.13.03.2,0,.07-.02.15-.08.25-.18l.2-.22c.31-.34.47-.68.49-1.02.03-.34-.08-.7-.32-1.08l.09-.1,1.02,1.2-2.82,3.13-.1-.09.11-.11c.1-.1.15-.2.17-.31.02-.07,0-.14-.04-.23-.03-.05-.12-.17-.31-.33l-2.4-2.13c-.16-.15-.26-.24-.31-.26-.08-.04-.15-.05-.23-.03-.11.02-.22.09-.33.22l-.1.12-.11-.09,2.75-3.03ZM23.85,18.28l1.19.81-.08.11c-.33-.14-.6-.2-.79-.18-.2,0-.4.1-.58.25-.11.09-.28.28-.48.58l-.28.42,1.65,1.12.05-.08c.18-.25.22-.49.14-.72-.08-.22-.27-.46-.56-.7l.08-.12,2.12,1.44-.08.11c-.25-.13-.47-.21-.67-.24-.2-.02-.36,0-.48.07-.12.06-.24.19-.37.38l1.14.78c.22.15.37.24.42.25.07.02.13.01.2-.02.06-.03.14-.1.22-.22l.17-.24c.25-.38.37-.74.35-1.09,0-.34-.17-.68-.46-1.02l.08-.11,1.16,1.05-2.38,3.47-.11-.07.09-.13c.08-.12.12-.23.13-.32,0-.07-.02-.15-.06-.22-.04-.05-.15-.14-.36-.29l-2.67-1.79c-.17-.13-.3-.2-.35-.21-.08-.03-.16-.03-.23,0-.1.03-.21.12-.3.25l-.09.13-.11-.08,2.32-3.36ZM20.03,24.18c.07-.14.16-.27.27-.38.07-.09.19-.19.34-.29.15-.1.23-.19.26-.25.03-.05.04-.1.02-.15-.02-.05-.08-.12-.2-.22l.05-.1,1.47.72-.08.13c-.39-.13-.76-.13-1.11,0-.35.13-.6.32-.75.61-.11.21-.14.41-.09.6.04.19.15.32.3.4.09.04.19.07.29.06.13-.01.28-.05.45-.14.13-.06.37-.22.74-.49.52-.37.93-.59,1.25-.65.32-.06.62,0,.9.14.37.19.6.49.72.91.11.42.05.84-.19,1.27-.07.14-.15.26-.24.36-.09.1-.22.23-.4.37-.09.08-.16.15-.19.22-.03.05-.04.12-.03.21,0,.08.05.16.12.24l-.06.12-1.64-.86.06-.12c.51.15.95.15,1.34.01.38-.13.66-.36.81-.66.13-.24.17-.46.11-.67-.05-.21-.17-.36-.34-.45-.1-.05-.21-.08-.34-.07-.12,0-.26.03-.4.1-.14.07-.35.2-.64.41-.4.28-.72.48-.94.58-.23.11-.45.16-.67.16-.22,0-.43-.05-.63-.16-.34-.18-.57-.45-.68-.83-.11-.38-.06-.76.14-1.14ZM50.05,11.04c16.72,0,30.27,17.55,30.27,39.17s-13.55,39.18-30.27,39.18-30.27-17.54-30.27-39.18S33.34,11.04,50.05,11.04ZM14.61,40.02h.84v-.47s-.27-.11-.34-.26c-.89-1.58.1-3.22.81-4.39,3.31,3.04.85,4.74.85,4.74v.33h.8v7.28h-2.96v-7.23ZM12.55,56.18l4.04-4.05-3.39.37c-.3.03-.5.12-.6.28-.09.15-.13.31-.11.5v.13s-.12.01-.12.01l-.21-1.87.15-.02c.03.29.11.49.24.59.14.1.34.13.62.1l3.76-.41.13-.12c.13-.13.22-.24.25-.33.04-.09.05-.22.04-.38h.14s.21,1.85.21,1.85l-3.02,2.97,2.29-.25c.32-.03.53-.1.63-.2.13-.14.19-.35.14-.65l.15-.02.19,1.74-.14.02c-.06-.22-.11-.36-.17-.44-.06-.07-.14-.12-.25-.16-.11-.04-.29-.04-.54,0l-4.43.48-.02-.13ZM13.36,60.59c-.2-.94-.04-1.73.49-2.37.42-.51.98-.84,1.67-.99.78-.16,1.48-.04,2.11.38.63.41,1.02,1.01,1.15,1.78.21.83.11,1.55-.29,2.18-.4.62-1,1.02-1.78,1.18-.66.14-1.29.08-1.88-.21-.78-.37-1.28-1.02-1.47-1.95ZM16.19,68.96c-.04.13-.05.26-.01.39l-.13.04-.53-1.59,1.78-2.38-.11-.34-1.42.46c-.28.09-.45.17-.51.23-.06.05-.1.12-.12.23-.01.1.02.26.1.49l-.15.05-.84-2.58.14-.04c.08.23.15.39.22.45.06.07.14.11.22.12.08.01.26-.03.54-.11l3.31-1.07c.27-.09.45-.16.5-.22.06-.06.1-.14.11-.23.02-.11-.01-.27-.09-.49l.15-.05.76,2.35c.21.61.31,1.08.32,1.38,0,.31-.07.59-.24.84-.17.25-.41.43-.72.53-.38.12-.74.09-1.07-.1-.21-.12-.4-.33-.59-.6l-1.32,1.77c-.17.23-.27.38-.3.47ZM17.9,73.16l.07.16-.14.06-1.15-2.54.14-.06.08.16c.06.14.14.24.23.3.07.05.14.08.24.07.07,0,.22-.06.47-.16l3.77-1.68-.16-.35c-.14-.33-.32-.53-.53-.62-.29-.12-.62-.13-1.01-.02l-.06-.14,1.32-.59,1.97,4.36-1.32.59-.06-.13c.27-.22.45-.39.54-.55.09-.15.15-.32.15-.53,0-.11-.05-.27-.16-.5l-.15-.36-3.78,1.68c-.25.11-.39.19-.45.25-.06.05-.08.13-.09.23,0,.1.02.23.08.36ZM21.71,79.91l.08.15-.13.07-1.43-2.38.13-.08.08.15c.08.14.17.23.27.28.06.04.15.05.24.04.07,0,.22-.08.45-.22l1.43-.84-.97-1.62-1.43.85c-.23.14-.37.24-.42.3-.04.06-.06.14-.06.24,0,.1.04.21.12.34l.09.15-.13.08-1.43-2.39.13-.07.09.15c.08.13.17.22.27.28.06.03.15.05.24.03.07,0,.22-.08.45-.22l3.02-1.79c.24-.14.38-.24.42-.3.04-.06.06-.13.06-.24s-.04-.21-.11-.34l-.1-.15.13-.08,1.45,2.38-.13.07-.09-.15c-.08-.13-.17-.23-.26-.27-.07-.04-.15-.05-.25-.04-.07.01-.22.09-.45.22l-1.31.78.97,1.61,1.31-.77c.23-.14.37-.24.41-.3.05-.05.07-.14.07-.24,0-.1-.05-.22-.12-.35l-.09-.15.14-.07,1.43,2.38-.13.08-.09-.15c-.07-.14-.17-.23-.27-.27-.06-.04-.15-.07-.24-.05-.06,0-.22.08-.45.22l-3.02,1.79c-.23.14-.37.24-.42.3-.04.05-.07.13-.06.23,0,.1.04.22.12.35ZM28.57,85.89c-.32.3-.73.44-1.2.41-.47-.03-.9-.24-1.26-.62-.12-.12-.22-.25-.29-.38-.07-.14-.17-.31-.25-.54-.06-.13-.1-.22-.16-.28-.05-.04-.12-.08-.2-.1-.09-.02-.19,0-.3.04l-.1-.11,1.47-1.38.09.11c-.33.47-.49.92-.49,1.36.01.45.15.81.41,1.08.2.21.42.33.66.35.24.02.44-.05.6-.19.09-.09.16-.19.2-.32.04-.14.06-.28.04-.45-.02-.17-.08-.44-.19-.81-.17-.51-.26-.9-.28-1.17-.03-.27,0-.52.07-.74.08-.22.21-.43.39-.6.31-.29.68-.42,1.11-.4.43.02.82.2,1.14.55.12.12.22.26.3.41.06.11.12.25.18.44.06.19.11.31.16.36.04.04.09.08.16.08.06,0,.16-.04.29-.13l.09.09-1.27,1.24-.11-.11c.27-.36.41-.74.4-1.14,0-.4-.13-.73-.37-.98-.18-.19-.38-.3-.59-.31-.22-.02-.39.04-.53.17-.09.08-.14.17-.17.27-.04.14-.04.31-.02.51.02.15.11.47.25.94.21.66.29,1.17.23,1.51-.05.34-.2.63-.46.87ZM32.79,90.15c-.84.21-1.63.02-2.38-.57-.75-.59-1.14-1.3-1.15-2.14,0-.66.22-1.27.65-1.82.49-.61,1.12-.97,1.87-1.05.75-.08,1.43.13,2.02.65.69.5,1.08,1.12,1.17,1.86.09.74-.1,1.42-.6,2.04-.42.53-.95.87-1.59,1.03ZM45.01,92.27c.02-.35,0-.6-.07-.77-.05-.16-.16-.31-.3-.45-.09-.07-.25-.15-.49-.22l-.38-.11-1.17,3.93c-.07.26-.11.43-.1.51.01.07.05.14.12.22.07.07.18.13.32.17l.17.05-.04.15-2.68-.79.04-.14.17.05c.15.04.28.05.38.02.08,0,.15-.06.22-.13.04-.05.11-.21.18-.46l1.17-3.93-.37-.11c-.35-.1-.62-.11-.82,0-.27.13-.5.38-.67.74l-.14-.04.4-1.34-.06.12-.1-.05c-.13-.07-.25-.1-.37-.1-.11.01-.22.06-.32.14-.07.06-.16.19-.26.38l-.95,1.78c-.29.56-.54.94-.74,1.14-.2.2-.5.34-.9.4-.39.06-.83-.04-1.33-.3-.41-.21-.69-.43-.87-.66-.22-.3-.34-.6-.35-.9,0-.3.1-.65.3-1.04l1.22-2.31c.14-.27.22-.44.22-.52,0-.08-.02-.16-.07-.24-.06-.08-.18-.16-.38-.27l.07-.13,2.45,1.27-.06.13-.13-.06c-.19-.09-.32-.14-.41-.13-.08,0-.17.03-.23.08-.06.05-.17.21-.31.48l-1.21,2.3c-.23.43-.34.72-.35.89,0,.17.04.33.14.49.1.17.26.32.48.43.25.14.51.19.75.17.25-.02.46-.11.66-.26.19-.16.43-.48.69-.98l1.02-1.92c.11-.21.16-.37.17-.49,0-.12-.02-.21-.07-.28-.07-.11-.22-.21-.41-.31l.07-.13,1.64.86v-.03s4.62,1.35,4.62,1.35l-.4,1.38-.14-.04ZM51.48,91.54h-.17c-.16-.02-.28,0-.38.05-.07.03-.13.09-.17.17-.04.06-.07.22-.08.5l-.24,3.47c-.02.28-.02.45,0,.52.03.07.08.14.16.2.08.05.2.09.36.09h.17s0,.16,0,.16l-2.79-.19v-.14s.18,0,.18,0c.16,0,.29,0,.38-.05.07-.04.13-.09.17-.18.03-.06.06-.22.08-.49l.11-1.65-1.89-.12-.11,1.64c-.03.27-.02.44,0,.51.03.07.08.13.16.19.09.06.2.09.35.1l.18.02v.14s-2.8-.19-2.8-.19v-.14s.18.01.18.01c.16,0,.29,0,.38-.06.07-.04.13-.09.17-.18.03-.06.06-.22.07-.49l.25-3.49c.01-.27.01-.45-.01-.51-.02-.07-.08-.13-.16-.19-.09-.05-.2-.09-.35-.1h-.18s0-.15,0-.15l2.8.18-.02.14h-.17c-.15-.02-.29,0-.39.04-.07.03-.12.09-.17.18-.03.06-.06.22-.08.49l-.11,1.5,1.89.13.1-1.5c.02-.27.02-.44,0-.51-.03-.06-.08-.13-.17-.19-.08-.05-.2-.09-.36-.1l-.17-.02v-.14s2.8.19,2.8.19v.14ZM70.45,89.2l-5.56-1.43,2.02,2.71c.18.25.36.37.53.38.18,0,.34-.05.5-.16l.09-.07.09.12-1.53,1.12-.09-.12c.23-.18.37-.34.38-.51.02-.16-.04-.36-.22-.58l-2.24-3.02-.18-.05c-.18-.05-.31-.06-.4-.05-.1.02-.21.07-.34.16-.12.06-.21.14-.27.22-.07.1-.09.21-.08.34,0,.09.05.24.15.43l.89,1.81c.27.57.44.99.48,1.27.05.28-.03.6-.21.95-.19.34-.54.64-1.04.88-.41.2-.76.3-1.04.3-.39,0-.7-.08-.95-.26-.23-.17-.45-.46-.65-.85l-1.14-2.34c-.14-.28-.23-.44-.3-.49-.06-.05-.14-.08-.24-.09-.1,0-.24.04-.45.14l-.06-.13,2.48-1.19.07.13-.13.05c-.19.09-.31.18-.36.25-.04.07-.07.15-.06.23,0,.08.07.26.21.53l1.15,2.34c.21.43.38.7.52.81.13.11.29.17.49.19.2.02.41-.03.64-.14.26-.13.45-.29.58-.49.13-.21.19-.43.18-.69-.02-.24-.14-.62-.39-1.13l-.95-1.95c-.1-.22-.2-.36-.29-.43-.09-.06-.18-.1-.26-.1-.14,0-.3.04-.5.14l-.06-.13,1.51-.72,1.53-1.11,4.1,1.1-1.37-1.84c-.19-.26-.35-.41-.5-.44-.18-.05-.4.02-.64.19l-.08-.11,1.42-1.04.09.11c-.17.16-.27.28-.29.36-.04.09-.05.18-.02.29.03.11.12.27.26.47l2.65,3.56-.11.08ZM71.54,88.08l-.09-.1.13-.12c.12-.11.18-.21.22-.32.01-.07.01-.16-.02-.24-.02-.07-.12-.2-.31-.39l-2.43-2.53c-.18-.2-.32-.31-.38-.34-.07-.03-.16-.04-.25,0-.1.02-.21.08-.32.19l-.12.13-.1-.11,2.02-1.91.1.1-.13.12c-.11.1-.18.21-.22.31-.02.07-.02.15.02.24.03.07.12.2.32.4l2.42,2.53c.19.19.32.31.39.34.07.03.15.03.25,0,.09-.02.2-.09.3-.19l.13-.13.1.1-2.03,1.92ZM78.06,80.91l-.12-.08.09-.14c.09-.14.13-.25.13-.37,0-.07-.02-.15-.08-.23-.04-.05-.17-.15-.39-.3l-2.97-1.88c-.21-.13-.34-.21-.39-.23-.09-.02-.18-.02-.26,0-.11.05-.22.14-.31.29l-.08.13.02.02c-.1.17-.14.37-.1.6.03.16.16.49.4.97l1.96,4.01-.08.1-4.45-1.31c-.53-.16-.86-.24-.98-.24-.11,0-.25.07-.4.21l-.11-.09,1.65-1.96.11.09-.06.07c-.16.17-.23.31-.24.41,0,.07.02.13.08.17.03.04.09.06.15.09.06.03.24.08.53.17l2.78.83-1.14-2.31c-.14-.28-.24-.46-.3-.55-.06-.09-.12-.15-.17-.19-.06-.05-.12-.08-.2-.09-.07,0-.15.01-.22.06-.11.06-.23.16-.35.3l-.11-.09,1.1-1.31h-.02s2.41-3.77,2.41-3.77l1.33.84-.08.13c-.37-.14-.65-.19-.88-.17-.21.03-.43.12-.63.29-.12.1-.29.32-.51.66l-.3.47,1.84,1.16.06-.09c.18-.29.23-.55.13-.79-.11-.25-.31-.5-.64-.75l.08-.13,2.37,1.49-.09.13c-.27-.14-.52-.21-.74-.23-.21-.02-.4.01-.52.08-.13.08-.26.23-.4.44l1.27.8c.25.15.41.25.47.26.07.01.14,0,.21-.03.08-.04.15-.12.24-.25l.17-.27c.27-.42.39-.82.36-1.18-.04-.38-.22-.75-.54-1.12l.08-.12,1.3,1.11-2.49,3.87ZM82.9,72.48l-2.95.48-.15.31,1.35.65c.26.13.43.19.52.19.08,0,.17-.03.24-.09.08-.06.17-.2.28-.42l.13.07-1.19,2.44-.14-.06c.11-.22.17-.38.17-.48,0-.1-.04-.18-.09-.24-.06-.07-.2-.17-.46-.29l-3.13-1.51c-.26-.12-.44-.19-.51-.19-.08,0-.16.03-.25.09-.08.06-.17.2-.28.42l-.13-.06,1.08-2.22c.29-.58.53-.98.74-1.21.22-.22.47-.37.77-.44.3-.06.59-.03.89.12.35.17.59.44.69.8.07.24.07.51,0,.84l2.18-.36c.29-.05.47-.1.56-.13.12-.06.21-.15.29-.28l.13.07-.74,1.5ZM84.62,68.6c-.06.16-.13.3-.22.43-.08.12-.21.28-.38.46-.09.09-.15.18-.18.26-.03.06-.03.14,0,.23.02.09.08.17.16.25l-.05.13-1.9-.7.05-.14c.57.09,1.06.03,1.45-.18.39-.2.65-.48.78-.84.1-.27.11-.52.03-.74-.09-.21-.24-.36-.44-.44-.13-.04-.25-.05-.37-.03-.14.02-.28.08-.43.17-.14.09-.36.27-.64.54-.39.37-.7.62-.94.77-.23.14-.47.23-.7.27-.23.04-.47.01-.7-.07-.4-.15-.69-.42-.87-.82-.16-.39-.17-.82,0-1.26.06-.16.14-.31.24-.45.07-.1.17-.23.32-.36.14-.14.22-.24.25-.3.02-.07.02-.13,0-.18-.02-.05-.1-.12-.24-.2l.04-.11,1.69.57-.06.15c-.45-.09-.85-.03-1.21.15-.36.19-.6.44-.72.76-.09.25-.11.47-.02.67.08.19.21.32.38.39.12.04.23.05.33.03.14-.03.3-.1.47-.22.12-.08.37-.3.73-.64.51-.47.93-.77,1.26-.88.33-.1.66-.1.99.03.42.15.72.44.9.88.19.44.19.91,0,1.4ZM85.34,66.18l-.15-.03.06-.18c.03-.15.05-.27.02-.37-.02-.08-.06-.15-.13-.21-.06-.04-.21-.1-.47-.18l-3.38-.97c-.26-.08-.44-.12-.51-.1-.06,0-.14.05-.22.11-.07.07-.14.18-.17.32l-.06.17-.14-.04.78-2.66.14.04-.05.17c-.05.14-.05.28-.03.38.02.07.06.14.14.2.05.05.21.11.46.18l3.38.98c.26.08.43.12.5.1.08,0,.16-.05.23-.12.07-.07.13-.17.17-.32l.05-.17.14.05-.78,2.66ZM86.54,61.9l-.14-.03.04-.17c.03-.14.03-.27,0-.38-.02-.08-.07-.14-.16-.2-.06-.04-.21-.09-.48-.15l-4.04-.85-.07.37c-.09.36-.06.62.05.82.16.26.43.47.81.61l-.04.15-1.41-.3,1-4.67,1.42.3-.04.13c-.34.02-.6.05-.76.13-.16.07-.3.18-.43.34-.07.08-.13.25-.18.49l-.08.38,4.04.86c.27.06.44.07.51.06.08-.01.15-.05.21-.13.07-.07.12-.19.15-.33l.04-.18.14.03-.58,2.72ZM87.47,56.24l.03-.28c.01-.15,0-.28-.04-.38-.03-.07-.09-.13-.17-.18-.06-.04-.22-.07-.49-.1l-1.07-.12-2.42.97c-.48.19-.77.34-.86.43-.09.1-.15.23-.17.39h-.15s.3-2.54.3-2.54l.14.02v.11c-.04.15-.02.27.01.33.04.07.08.1.14.11.09,0,.34-.06.74-.23l1.87-.75-1.49-1.14c-.37-.28-.61-.43-.74-.44-.07-.01-.13.02-.19.07-.08.09-.13.24-.17.48l-.15-.02.19-1.61.14.02c0,.18.04.32.1.42.1.14.37.38.83.71l1.79,1.37,1.29.15c.27.03.45.04.52.02s.14-.07.19-.15c.07-.07.1-.18.12-.32l.03-.3.15.02-.35,2.97-.15-.02Z" style="fill: #fff;"/>
    <path d="M51.73,8.87c.24.02.45-.02.63-.13.22-.14.4-.37.55-.7.14-.33.22-.76.26-1.3.04-.65,0-1.13-.09-1.45-.09-.33-.23-.56-.41-.7-.17-.14-.39-.22-.63-.24-.45-.03-.8.17-1.06.61-.22.35-.35.88-.39,1.58-.06.83.06,1.45.32,1.86.19.29.46.45.83.47Z" style="fill: #fff;"/>
    <path d="M32.35,85.34c-.42.2-.86.59-1.34,1.19-.57.71-.86,1.33-.88,1.87-.02.38.14.69.46.94.21.16.42.25.65.27.29,0,.6-.09.93-.3.33-.21.68-.54,1.05-1.01.44-.55.72-1,.83-1.36.12-.35.14-.65.07-.89-.08-.24-.21-.43-.42-.61-.38-.3-.83-.33-1.35-.1Z" style="fill: #fff;"/>
    <path d="M71.78,19.71s-.03.09-.02.14c0,.07.05.16.13.25.25.31.54.47.89.47.47,0,1.02-.24,1.63-.72.49-.38.83-.77,1.01-1.15.14-.3.16-.58.1-.83-.05-.18-.19-.43-.44-.74l-3.01,2.33c-.16.12-.26.2-.28.25Z" style="fill: #fff;"/>
    <path d="M48.82,40.31c-.03-.33-.09-.64-.22-.91-.07-.16-.16-.27-.29-.33-.06-.03-.14-.05-.24-.05-.12.02-.2.07-.27.15-.07.13-.09.35-.05.64.08.51.2.85.37,1.03.11.11.24.16.39.15.08-.01.28-.07.32-.12.06-.09,0-.39-.01-.56Z" style="fill: #fff;"/>
    <path d="M52.23,40.4c.05-.33.04-.65-.02-.96-.04-.16-.11-.29-.21-.38-.06-.05-.13-.08-.23-.08-.11-.01-.21.02-.29.09-.1.1-.16.31-.18.62-.04.51.01.87.14,1.07.08.14.2.21.36.23.09,0,.3,0,.34-.06.08-.07.08-.38.1-.54Z" style="fill: #fff;"/>
    <path d="M50.05,87.59c15.95,0,28.86-16.74,28.86-37.38s-12.92-37.37-28.86-37.37-28.87,16.73-28.87,37.37,12.94,37.38,28.87,37.38ZM37.08,18.86s5-3.06,12.98,1.76c1.35-.85,6.28-4.18,13.84-1.89v13.68s-12.36-2.93-12.68,3.06h-1.64s.73-4.3-12.48-3.58v-13.03ZM55.05,42.67c.21.07.34.1.41.12.07,0,.13,0,.19-.03.06-.02.14-.07.25-.17.04.02.06.03.1.05-.25.37-.38.55-.63.92-.86-.34-1.31-.47-2.21-.66.01-.03.01-.05.01-.06.87-.64,1.5-1.01,1.75-1.22.25-.22.41-.45.5-.72.07-.18.05-.36-.07-.52-.09-.17-.25-.28-.47-.35-.34-.09-.66-.03-.91.21-.06-.02-.08-.04-.11-.05.19-.32.45-.54.75-.63.31-.1.62-.1.97.01.25.07.45.19.62.34.16.15.27.33.32.51.05.19.05.35,0,.47-.09.21-.28.42-.52.61-.34.24-.96.52-1.79.92.34.08.51.14.85.27ZM51.7,41.25c-.09.01-.18.01-.28.01-.31-.03-.58-.15-.79-.36-.22-.21-.33-.5-.33-.85,0-.25.07-.48.2-.68.14-.2.34-.36.58-.46.26-.1.53-.14.8-.11.28.03.55.13.8.28.23.17.4.38.51.64.1.27.12.54.06.84-.08.39-.26.74-.53,1.06-.27.33-.62.57-1.04.75-.41.18-.88.27-1.41.27v-.07c.33-.07.6-.17.83-.29.24-.12.43-.27.6-.46.15-.19.37-.65.37-.65-.02-.02-.25.07-.35.08ZM48.48,41.27c-.08.03-.18.05-.28.06-.32.03-.6-.02-.86-.18-.25-.17-.42-.42-.49-.77-.04-.25-.03-.48.06-.71.08-.23.24-.41.48-.57.24-.15.48-.24.76-.27.28-.03.57,0,.84.11.26.11.47.28.63.51.15.24.22.51.23.81,0,.39-.1.78-.29,1.15-.2.37-.49.67-.86.94-.38.25-.81.44-1.34.56,0-.03,0-.05,0-.08.3-.13.55-.27.75-.44.21-.17.37-.36.48-.58.12-.22.22-.73.22-.73-.01,0-.23.13-.32.17ZM45.08,42.67c-.26-.74-.39-1.1-.65-1.84-.07-.17-.11-.26-.14-.3-.05-.03-.09-.05-.15-.06-.07-.01-.14,0-.21.03-.11.04-.23.12-.38.25-.03-.04-.06-.05-.09-.08.56-.5.87-.74,1.51-1.19.04-.01.06-.03.11-.04.34,1.18.53,1.78.86,2.97.07.22.12.35.16.42.04.05.1.09.17.1.08.03.19.02.33-.02.03,0,.05,0,.09-.02,0,.04.02.06.02.09-.8.2-1.19.33-1.97.64-.02-.03-.03-.06-.03-.09.03-.02.06-.03.1-.04.15-.06.26-.12.32-.18.05-.06.08-.12.08-.2,0-.06-.03-.21-.12-.44ZM37.86,52.23h0l.22-.48h.04c1.04-2.17,2.63-4.02,4.64-5.34h-.02s.34-.23.34-.23c.56-.34,1.14-.63,1.74-.88.08-.03.17-.06.25-.09.63-.25,1.29-.45,1.95-.6.2-.05.41-.09.61-.13.78-.14,1.56-.24,2.35-.24s1.59.1,2.37.24c.2.04.39.08.58.12.68.16,1.35.36,1.99.62.07.03.15.05.22.08.6.25,1.18.54,1.74.89l.35.21h-.02c2.01,1.33,3.61,3.18,4.65,5.35h.05l.22.48h0c.67,1.56,1.04,3.27,1.04,5.07,0,4.01-1.87,7.56-4.75,9.96-.01.03-.02.06-.04.08l-.12.05c-.38.3-.75.61-1.16.88l.04.02-.35.21c-.54.32-1.1.6-1.68.84,0,0,0,0,0,0-.7.29-1.44.5-2.18.67-.19.04-.38.08-.57.12-.78.14-1.56.24-2.36.24s-1.58-.1-2.36-.24c-.2-.04-.39-.08-.59-.12-.72-.16-1.43-.37-2.12-.65-.02-.01-.05-.02-.07-.03-.57-.24-1.13-.51-1.66-.83l-.34-.21.03-.02c-.39-.25-.73-.54-1.09-.82l-.17-.1s-.02-.04-.03-.06c-2.89-2.4-4.78-5.96-4.78-9.98,0-1.8.37-3.51,1.04-5.07ZM30.99,42.1h4.65v22.23s4.24,9.43,14.58,9.43c1.66,0,9.56.41,14.57-9.97v-21.18h4.54v4.35h-.75v17.36s-4.38,12.82-18.53,13.07c-2.08,0-12.68.22-18.18-13.07,0-8.63-.08-17.85-.08-17.85h-.81v-4.38ZM26.46,64.34v-22.23h3.54v22.23c4.34,14.59,17.46,14.9,20.58,14.9,15.27,0,19.47-14.9,19.47-14.9v-21.63h3.94v21.63c-6.09,19.02-24,18.51-24,18.51-21.08-2.09-23.53-17.7-23.53-18.51Z" style="fill: #fff;"/>
    <path d="M42.2,22.41c.03.16.04.25.04.28.04.12.06.21.1.25.07.1.13.15.16.18.07.05.16.07.26.06.15,0,.24-.09.28-.23.01-.04.01-.09,0-.14,0-.05-.02-.09-.06-.11h-.02s-.02.03-.05.05c-.07.08-.13.11-.21.11-.07,0-.12-.01-.16-.05-.05-.04-.07-.09-.07-.15,0-.09.04-.17.11-.22.06-.05.13-.08.24-.08.18,0,.31.09.4.24.04.09.05.18.05.26,0,.07,0,.11,0,.16l.06.17.18-.85h-1.45l.13.06Z" style="fill: #fff;"/>
    <path d="M42.38,27.22c.16.09.29.22.36.37l.14-.61c-.14.05-.26.1-.34.15-.02.02-.08.05-.16.1Z" style="fill: #fff;"/>
    <path d="M46.77,23.95c.04.1.06.17.06.26,0,.05,0,.1-.02.15l.07.18.19-.84h-.7c.19,0,.31.09.4.25Z" style="fill: #fff;"/>
    <path d="M49.75,22.78c-3.01-3.55-10.31-2.94-10.31-2.94v9.97c7.9,0,10.31,1.75,10.31,1.75v-8.77ZM43.51,26.83c.09.11.13.23.13.35,0,.17-.04.3-.15.38-.07.07-.14.11-.23.11-.05,0-.1-.02-.14-.06-.03-.03-.06-.07-.06-.13,0-.09.05-.17.16-.24.04,0,.07-.02.11-.02.05,0,.09,0,.12.02,0-.05-.03-.12-.07-.17-.07-.08-.15-.12-.26-.12l-.27,1.31-.11-.14c-.01-.1-.01-.16-.02-.17-.02-.04-.04-.1-.08-.17-.1-.18-.28-.28-.5-.3l-.19-.31c.34-.23.68-.39,1.02-.49l.02-.06h-.94l-.19-.23h1.94l.19.23h-.77v.05c.11,0,.22.05.31.17ZM43.75,22.35l-.36,1.69-.1-.19c-.02-.09-.05-.22-.09-.4,0-.02-.03-.07-.08-.14-.14.14-.29.21-.44.21-.15,0-.28-.06-.39-.2-.03-.04-.08-.11-.13-.24-.04-.08-.06-.19-.09-.37-.02-.14-.03-.26-.03-.37h0l-.18-.23h2.03l.19.23h-.32ZM47.34,27.43l-.36,1.64-.09-.13s-.02-.05-.03-.09c-.02-.19-.09-.32-.21-.4-.14-.09-.28-.15-.44-.16l-.26-.44c.11.04.19.04.22.04.1,0,.21-.02.34-.06.15-.05.23-.13.25-.19,0-.03,0-.06-.02-.1l-.09.08c-.17.1-.31.15-.46.15-.06,0-.12-.01-.16-.06-.05-.04-.07-.07-.07-.14,0-.08.03-.13.08-.19.05-.05.11-.08.18-.08.1,0,.15.05.16.13l.05-.02s.13-.08.3-.22c.11.11.18.18.19.21.05.07.08.14.08.22,0,.19-.13.36-.39.47.12.08.21.18.28.3l.33-1.51.15.1s0,.05-.02.09c-.01.04-.01.08,0,.09.02,0,.04.01.09.03l.19.23h-.3ZM47.88,23.7l-.36,1.7-.18-.24.26-1.19s0-.08,0-.08c0-.06-.02-.11-.06-.14-.04-.02-.1-.04-.15-.04h-.1l-.36,1.68-.09-.18c-.02-.09-.05-.23-.09-.4-.01-.02-.03-.08-.09-.15-.14.14-.29.22-.44.22s-.28-.06-.39-.19c-.04-.05-.08-.13-.13-.24-.04-.08-.07-.2-.09-.37-.02-.15-.03-.28-.03-.38l-.18-.23h1.97s.01,0,.02,0c0,0,0,0,0,0h.03l.02.03c.11.02.2.04.24.12v-.06c.02-.14.04-.28.07-.41l.12.1s0,.05,0,.08,0,.05.02.09c0,0,0,.02.02.04h.11l.18.24h-.32Z" style="fill: #fff;"/>
    <path d="M45.74,23.75c.03.16.04.26.04.29.04.12.06.2.09.25.08.09.13.15.17.17.08.05.16.08.26.06.15,0,.25-.08.28-.23,0-.04.01-.09,0-.13,0-.06-.02-.1-.05-.12h-.03s-.02.03-.05.06c-.06.06-.13.1-.2.1-.07,0-.11-.02-.15-.06-.06-.04-.08-.09-.08-.15,0-.09.04-.16.11-.22.06-.05.15-.08.24-.08h-.73l.11.05Z" style="fill: #fff;"/>
    <path d="M52.75,24.68c0-.06,0-.11.02-.17-.04-.02-.07-.03-.09-.04-.03,0-.05-.02-.05-.02-.17,0-.3.07-.41.2-.11.12-.17.26-.17.42s.04.27.09.37c.06.07.15.12.25.12s.18-.03.25-.05c.04-.03.09-.06.15-.12-.03-.26-.04-.46-.04-.59,0-.04,0-.08,0-.13Z" style="fill: #fff;"/>
    <path d="M56.04,23.84c.08-.11.14-.23.14-.38s-.04-.27-.11-.37c-.08-.09-.19-.15-.33-.15-.07,0-.15.02-.24.07-.04.03-.12.08-.21.15v.26s0,.23,0,.23v.24c.05.02.12.05.2.08.07.01.13.02.21.02.14,0,.26-.05.36-.14Z" style="fill: #fff;"/>
    <path d="M61.4,19.84s-7.3-.61-10.29,2.94v8.77s2.4-1.75,10.29-1.75v-9.97ZM52.41,25.83c-.23,0-.4-.07-.51-.19-.1-.12-.16-.31-.16-.56s.08-.45.26-.62c.15-.16.35-.24.58-.24.09,0,.18.01.3.06.13.05.2.13.2.2,0,.01,0,.04-.03.07-.01.03-.01.1-.02.18-.02.09-.02.19-.02.33,0,.11.02.21.02.29.02.04.05.13.11.26,0,.02.01.04.03.08v.02s-.02.08-.03.1c-.03.03-.06.04-.11.04-.02,0-.05-.01-.1-.06-.03-.05-.08-.08-.1-.12-.09.06-.17.09-.25.12-.06.02-.13.04-.18.04ZM53.27,29s-.04.03-.07.03h-.43s-.09,0-.11-.01c-.04-.02-.06-.04-.06-.08,0-.07.06-.11.17-.11h.05s.06,0,.06,0c0-.05-.01-.1-.01-.16-.01-.06-.01-.12-.01-.16,0-.09.01-.22.03-.41,0-.19.02-.33.02-.43-.1.08-.17.12-.19.12-.03,0-.06,0-.09-.04-.01-.02-.02-.04-.02-.07,0-.03.02-.07.09-.11.04-.03.1-.08.16-.14.06-.06.13-.1.18-.1.06,0,.09.03.09.08,0,.01,0,.04,0,.07,0,.04,0,.07,0,.08v.1c0,.05,0,.08,0,.11,0,.08,0,.2-.03.37-.02.17-.03.29-.03.36,0,.04,0,.1,0,.16,0,.06,0,.1,0,.15h.12s.06,0,.07.03c.02.02.03.05.03.07s-.01.06-.03.07ZM55.15,24.26s-.06-.02-.09-.05c-.03-.01-.04-.05-.04-.09,0-.03,0-.07,0-.12v-.11c0-.11,0-.26,0-.47v-1.29c0-.06,0-.11.04-.15.02-.07.07-.09.14-.09.07,0,.11.05.11.13,0,.01,0,.03,0,.06-.01.02-.01.04-.01.06v.7c.08-.05.16-.1.24-.13.08-.03.15-.04.21-.04.22,0,.39.07.54.24.11.16.18.35.18.56,0,.23-.07.42-.23.58-.13.16-.32.23-.54.23-.14,0-.29-.03-.41-.09-.03.05-.07.08-.12.08ZM56.57,28.12s-.05.02-.08.02c0,0-.04,0-.07,0-.03-.01-.06-.01-.06-.01h-.35s-.07.01-.13.02c-.04,0-.09.01-.12.01,0,0-.03,0-.04-.01h-.02c-.06,0-.09-.02-.1-.07,0-.03-.01-.07-.01-.13,0-.17.04-.31.14-.41.04-.04.15-.13.33-.26.11-.07.18-.12.22-.16.07-.07.09-.15.09-.24,0-.05-.02-.1-.09-.13-.05-.04-.11-.05-.15-.05-.07,0-.13,0-.19.06l-.16.12s-.06.03-.08.03c-.07,0-.11-.02-.11-.09,0-.02.01-.05.04-.08.09-.08.17-.14.22-.17.09-.06.18-.09.28-.09.12,0,.22.03.31.09.1.07.15.17.15.28,0,.08,0,.14-.03.2-.02.06-.06.12-.1.17-.05.07-.15.14-.28.22-.13.09-.22.15-.27.19-.09.09-.12.18-.12.31l.22-.03c.16,0,.27,0,.34,0,.05,0,.11,0,.16.03.07.03.1.05.1.1,0,.03-.01.05-.03.08ZM58.24,23c-.16-.1-.25-.27-.27-.48-.02-.2.03-.4.13-.63.13-.25.27-.39.47-.41.09-.01.2,0,.32.03.17.05.25.11.26.19,0,.04,0,.07-.03.11-.02.03-.04.04-.08.04-.04,0-.07,0-.08-.02-.01,0-.05-.03-.06-.05-.06-.03-.16-.05-.29-.03-.1.01-.19.1-.28.29-.07.17-.09.32-.08.44,0,.14.06.23.16.3.09.06.2.08.33.08.07,0,.12-.03.19-.07l.16-.11s.04-.04.04-.04c.06,0,.08.02.12.04.03.03.05.06.05.1,0,.07-.07.15-.22.23-.12.08-.23.12-.32.13-.21.02-.38-.03-.52-.14ZM59.89,26.95c-.1.11-.22.17-.36.17-.11,0-.2,0-.3-.05-.11-.05-.17-.13-.21-.21,0-.02-.01-.03-.01-.04,0-.02.01-.05.03-.06.02-.02.04-.04.08-.04.03,0,.04.02.08.04l.05.07s.06.06.11.08c.04.02.1.02.17.02.08,0,.14-.04.2-.09.06-.05.09-.12.09-.18,0-.12-.05-.2-.13-.26-.08-.05-.17-.09-.29-.09-.09,0-.12-.04-.13-.09,0-.05.03-.07.09-.1l.25-.08s.08-.04.12-.08c.01-.03.04-.07.04-.11-.01-.06-.04-.11-.09-.14-.05-.04-.13-.06-.23-.06-.04,0-.1.02-.14.04l-.11.09s-.06.03-.06.03c-.03,0-.05-.01-.08-.03-.02-.02-.03-.04-.03-.07,0-.06.06-.11.16-.17.1-.05.17-.09.24-.09.14,0,.27.03.37.09.1.07.15.18.17.31,0,.17-.06.28-.19.34-.02.01-.03.02-.04.02.09.04.17.09.22.15.06.06.08.15.09.25,0,.14-.04.27-.14.37Z" style="fill: #fff;"/>
    <polygon points="48.22 52.23 48.22 51.74 48.22 50.96 48.71 51.74 49.01 52.23 49.75 53.42 50.24 54.21 50.95 55.34 52.33 55.34 52.33 52.23 52.33 51.74 52.33 48.62 51.05 48.62 51.05 51.74 51.05 52.23 51.05 53.12 50.5 52.23 50.24 51.8 50.21 51.74 49.75 51.01 48.28 48.62 46.95 48.62 46.95 51.74 46.95 52.23 46.95 55.34 48.22 55.34 48.22 52.23" style="fill: #fff;"/>
  </g>
</svg>