<?xml version="1.0" encoding="UTF-8"?>
<svg id="Layer_1" xmlns="http://www.w3.org/2000/svg" version="1.1" xmlns:xlink="http://www.w3.org/1999/xlink" viewBox="0 0 20 20">
  <!-- Generator: Adobe Illustrator 29.3.0, SVG Export Plug-In . SVG Version: 2.1.0 Build 146)  -->
  <g>
    <path d="M7.62,10.35l-.04.1h0s.04-.06.05-.1c0,0,0,0,0,0Z" style="fill: #fff;"/>
    <path d="M12.43,10.45l-.04-.1h0s.04.06.05.1h0Z" style="fill: #fff;"/>
    <polygon points="9.65 10.35 9.65 10.45 9.8 10.45 9.74 10.35 9.65 10.35" style="fill: #fff;"/>
    <path d="M11.2,10.45h.69s-.02-.06-.03-.1h-.69s.02.06.03.1Z" style="fill: #fff;"/>
    <path d="M9.39,10.45v-.1h-.44s-.02.06-.03.1h.47Z" style="fill: #fff;"/>
    <path d="M10.47,10.45h.61s-.02-.06-.03-.1h-.59v.1Z" style="fill: #fff;"/>
    <polygon points="10.1 10.45 10.21 10.45 10.21 10.35 10.05 10.35 10.05 10.36 10.1 10.45" style="fill: #fff;"/>
    <path d="M8.82,10.45s.02-.06.03-.1h-.7s-.02.06-.03.1h.7Z" style="fill: #fff;"/>
    <path d="M8.04,10.35h-.31s-.04.06-.05.1h.33s.01-.07.02-.1Z" style="fill: #fff;"/>
    <path d="M11.99,10.45h.33s-.04-.06-.05-.1h-.3s.01.06.02.1Z" style="fill: #fff;"/>
    <path d="M12.37,10.45h.05s-.04-.06-.05-.1h-.05s.04.06.05.1Z" style="fill: #fff;"/>
    <path d="M7.68,10.35h-.05s-.04.06-.05.1h.05s.04-.06.05-.1Z" style="fill: #fff;"/>
    <path d="M12.32,10.45h.06s-.04-.06-.05-.1h-.06s.04.06.05.1Z" style="fill: #fff;"/>
    <path d="M7.74,10.35h-.06s-.04.06-.05.1h.06s.04-.06.05-.1Z" style="fill: #fff;"/>
    <path d="M8.95,10.35c.09-.26.2-.5.33-.74-.03,0-.06-.02-.09-.03-.14.24-.25.5-.34.77h.1Z" style="fill: #fff;"/>
    <path d="M8.74,11.46h.01c0-.35.07-.69.18-1.01h-.1c-.1.33-.16.67-.17,1.01h.09,0Z" style="fill: #fff;"/>
    <path d="M9.76,8.97s-.09,0-.13.01c-.14.16-.27.33-.39.51.03,0,.06.02.09.03.12-.19.27-.38.43-.55Z" style="fill: #fff;"/>
    <path d="M9.76,8.97s0,0,0,0c-.04,0-.09,0-.13.01,0,0,0,0,0,0,.04,0,.09,0,.13-.01h0Z" style="fill: #fff;"/>
    <path d="M8.95,10.35h-.1s-.02.06-.03.1h.1s.02-.06.03-.1Z" style="fill: #fff;"/>
    <path d="M8.74,11.52s0-.04,0-.06h-.01s0,.04,0,.06Z" style="fill: #fff;"/>
    <path d="M8.64,11.58h0s0-.04,0-.06c0,.02,0,.04,0,.06Z" style="fill: #fff;"/>
    <path d="M8.15,10.35c.12-.36.29-.69.51-1.01,0,0,0,0,0,0-.06.04-.12.08-.18.13-.18.28-.33.57-.43.88,0,0,.11,0,.11,0Z" style="fill: #fff;"/>
    <path d="M7.96,11.46c0-.35.06-.69.16-1.01h-.1c-.1.33-.15.67-.16,1.01h.1Z" style="fill: #fff;"/>
    <path d="M8.58,9.29s-.02.03-.02.04c.01,0,.03-.02.05-.03,0,0-.02-.01-.02-.01Z" style="fill: #fff;"/>
    <path d="M8.65,9.34s-.02-.01-.03-.02h-.02s-.03,0-.05.02c-.03.04-.05.09-.08.13.06-.04.12-.09.18-.13Z" style="fill: #fff;"/>
    <path d="M8.15,10.35h-.11s-.01.06-.02.1h.1s.02-.06.03-.1Z" style="fill: #fff;"/>
    <path d="M7.95,11.46s0,.04,0,.06c0-.02,0-.04,0-.06h0,0Z" style="fill: #fff;"/>
    <path d="M7.85,11.58h0s0-.04,0-.05c0,.02,0,.03,0,.05Z" style="fill: #fff;"/>
    <path d="M11.05,10.35h.11c-.09-.27-.21-.53-.35-.77-.03,0-.06.03-.1.03.14.23.25.48.34.74Z" style="fill: #fff;"/>
    <path d="M10.77,9.49c-.11-.18-.24-.34-.38-.5-.05,0-.09,0-.14-.01.16.17.3.36.42.55.03,0,.06-.02.09-.03Z" style="fill: #fff;"/>
    <path d="M11.26,11.46h.1c0-.35-.06-.69-.16-1.01h-.12c.1.33.17.67.18,1.01Z" style="fill: #fff;"/>
    <path d="M10.39,8.98s0,0,0,0c-.05,0-.1-.01-.14-.02,0,0,0,0,0,0,.05,0,.1,0,.14.01Z" style="fill: #fff;"/>
    <path d="M11.2,10.45s-.02-.06-.03-.1h-.11s.02.06.03.1h.12Z" style="fill: #fff;"/>
    <path d="M11.27,11.46h-.01s0,.04,0,.06c0-.02,0-.04,0-.06Z" style="fill: #fff;"/>
    <path d="M11.37,11.58s0-.05,0-.08c0,.03,0,.05,0,.08h0Z" style="fill: #fff;"/>
    <path d="M11.86,10.35h.11c-.1-.31-.25-.6-.43-.87-.06-.05-.12-.1-.19-.14,0,0,0,0,0,0,.22.31.4.65.52,1.01Z" style="fill: #fff;"/>
    <path d="M12.05,11.46h.1c0-.35-.06-.69-.16-1.01h-.1c.1.33.15.67.16,1.01Z" style="fill: #fff;"/>
    <path d="M11.46,9.34s-.02-.03-.03-.05l-.03.02s.04.02.06.03h0Z" style="fill: #fff;"/>
    <path d="M11.38,9.32s-.02.01-.03.02c.07.04.13.09.19.14-.03-.04-.05-.09-.08-.13-.02-.01-.04-.02-.06-.03h-.02s0,0,0,0Z" style="fill: #fff;"/>
    <path d="M11.99,10.45s-.01-.07-.02-.1h-.11s.02.06.03.1h.1Z" style="fill: #fff;"/>
    <path d="M12.16,11.58s0-.05,0-.07c0,.02,0,.05,0,.07h0Z" style="fill: #fff;"/>
    <path d="M12.06,11.46h0s0,.05,0,.07c0-.02,0-.05,0-.07Z" style="fill: #fff;"/>
    <path d="M10.59,8.92c.14.03.27.07.4.12-.13-.05-.26-.09-.4-.12Z" style="fill: #fff;"/>
    <path d="M9.71,8.88h0c.1,0,.19-.03.29-.03-.16,0-.32.02-.47.05.06,0,.12-.01.18-.02h0Z" style="fill: #fff;"/>
    <path d="M8.61,9.25h0c.11-.07.23-.14.36-.19-.12.05-.24.11-.35.18l-.07.04h0s.03-.01.05-.02c0,0,0,0,0,0h0Z" style="fill: #fff;"/>
    <path d="M9.02,9.04c.13-.05.26-.09.39-.12-.13.03-.26.07-.39.12Z" style="fill: #fff;"/>
    <path d="M10.3,8.88h0c.06,0,.12,0,.17.02-.16-.03-.31-.05-.47-.05.1,0,.2.02.3.03h0Z" style="fill: #fff;"/>
    <path d="M11.4,9.25s0,0,0,0c.01,0,.03.01.04.02h0l-.07-.05c-.11-.07-.23-.13-.35-.18.13.05.25.12.36.2h0s0,0,0,0Z" style="fill: #fff;"/>
    <path d="M9.2,9.58s.03-.06.04-.09c-.17-.05-.33-.12-.49-.21-.03.01-.05.03-.08.04,0,0,0,0,0,.02.17.1.35.18.53.24h0Z" style="fill: #fff;"/>
    <path d="M10.82,9.57c.18-.06.36-.14.53-.23,0,0,0,0,0,0-.03-.02-.06-.03-.09-.05-.15.09-.32.15-.48.2.02.03.03.06.05.09h0Z" style="fill: #fff;"/>
    <path d="M10.72,9.61s-.03-.06-.05-.09c-.2.05-.41.08-.62.09v.1c.23,0,.45-.03.67-.1Z" style="fill: #fff;"/>
    <path d="M10.46,8.99s.07.01.1.02c-.03,0-.07-.01-.1-.02Z" style="fill: #fff;"/>
    <path d="M10.98,9.14s.02,0,.02.01c0,0-.02,0-.02-.01Z" style="fill: #fff;"/>
    <path d="M9.29,9.61c.22.06.44.09.66.09v-.1c-.21,0-.42-.03-.62-.09-.02.03-.03.06-.05.09h0Z" style="fill: #fff;"/>
    <path d="M9.44,9.01s.07-.01.1-.02c-.03,0-.07.01-.1.02Z" style="fill: #fff;"/>
    <path d="M8.98,9.16s.03-.02.04-.02c-.02,0-.03.01-.04.02Z" style="fill: #fff;"/>
    <path d="M10.35,8.93c.37.05.71.17,1.01.35l.04-.03c-.12-.07-.23-.14-.36-.2-.01,0-.03,0-.04-.02-.13-.05-.26-.09-.4-.12-.04,0-.08-.02-.12-.02-.06,0-.12,0-.17-.02.02.02.03.04.05.05h0Z" style="fill: #fff;"/>
    <path d="M8.6,9.25s-.03.02-.05.03h.02s.02-.01.03-.03Z" style="fill: #fff;"/>
    <path d="M11.43,9.29h.02s-.03-.03-.04-.03c0,0,.01.02.02.03Z" style="fill: #fff;"/>
    <path d="M9.76,8.92c.07,0,.13-.02.2-.02h0s.1,0,.1,0h0c.07,0,.13.02.2.02l.05-.04c-.1-.01-.2-.03-.3-.03s-.19.02-.29.03l.05.04h0Z" style="fill: #fff;"/>
    <path d="M8.65,9.28c.3-.19.65-.31,1.02-.35.02-.02.03-.04.04-.05-.06,0-.12,0-.18.02-.04,0-.08.02-.12.03-.13.03-.27.07-.39.12-.02,0-.03.01-.05.02-.13.05-.24.12-.36.19,0,0,.04.03.04.03Z" style="fill: #fff;"/>
    <path d="M9.77,8.96c.06,0,.12,0,.19-.01v-.05c-.07,0-.13.01-.2.02l.02.02s0,.01-.01.02Z" style="fill: #fff;"/>
    <path d="M10.24,8.96s0-.01-.01-.02l.02-.02c-.07,0-.13-.02-.2-.02v.05c.06,0,.13,0,.19.01Z" style="fill: #fff;"/>
    <path d="M10.46,8.99s.07.01.1.02c.15.03.29.07.43.13,0,0,.02,0,.02.01.09.04.17.08.26.12,0,0,0,0-.01,0,.03.02.06.03.09.05,0,0,0-.02-.01-.02l.03-.02c-.3-.18-.64-.3-1.01-.35.01.02.03.03.04.05.02,0,.05,0,.07.01h0Z" style="fill: #fff;"/>
    <path d="M8.67,9.33s.05-.03.08-.04c0,0,0,0-.01,0,.08-.04.16-.08.24-.12.01,0,.03-.02.04-.02.14-.06.28-.1.42-.13.03,0,.07-.01.1-.02.03,0,.06-.01.09-.02.01-.01.02-.03.03-.04-.37.05-.71.17-1.02.35l.03.03s0,.01-.01.02h0Z" style="fill: #fff;"/>
    <polygon points="9.71 8.88 9.71 8.88 9.71 8.88 9.71 8.88" style="fill: #fff;"/>
    <path d="M9.33,9.52s-.06-.02-.09-.03c-.02.03-.03.06-.04.09.03,0,.06.02.09.03.02-.03.03-.06.05-.09Z" style="fill: #fff;"/>
    <path d="M9.71,8.88h0s-.03.04-.04.05c.03,0,.06,0,.09,0l-.05-.04h0Z" style="fill: #fff;"/>
    <path d="M9.77,8.96s0-.01.01-.02l-.02-.02s-.06,0-.09,0c-.01.01-.02.03-.03.04.04,0,.09,0,.13-.01h0Z" style="fill: #fff;"/>
    <path d="M8.61,9.25s0,0,0,0c0,0,0,0,0,0h0Z" style="fill: #fff;"/>
    <path d="M8.67,9.33s-.01,0-.02,0c0,0,0,0,0,0,0,0,0,0,0-.02Z" style="fill: #fff;"/>
    <path d="M8.65,9.28l-.04-.03s0,0,0,0c0,.01-.02.03-.03.04h.02s.03,0,.05-.01Z" style="fill: #fff;"/>
    <path d="M8.62,9.32s.02.01.03.02c0,0,.01,0,.02,0,0,0,0-.01.01-.02l-.03-.03s-.03.02-.05.03h.02Z" style="fill: #fff;"/>
    <path d="M10.3,8.88h0,0Z" style="fill: #fff;"/>
    <path d="M10.72,9.61s.06-.02.1-.03c-.02-.03-.03-.06-.05-.09-.03,0-.06.02-.09.03.02.03.03.06.05.09h0Z" style="fill: #fff;"/>
    <path d="M10.3,8.88h0l-.05.04s.06,0,.1,0c-.02-.02-.03-.04-.05-.05Z" style="fill: #fff;"/>
    <path d="M10.24,8.96s.1,0,.14.02c-.01-.02-.03-.03-.04-.05-.03,0-.06,0-.1,0l-.02.02s0,.01.01.02Z" style="fill: #fff;"/>
    <path d="M11.4,9.25h0s0,0,0,0c0,0,0,0,0,0Z" style="fill: #fff;"/>
    <path d="M11.35,9.34s0,0-.01,0c0,0,0,0,0,0,0,0,0,0,0,0Z" style="fill: #fff;"/>
    <path d="M11.43,9.29s-.01-.02-.02-.03c0,0,0,0,0,0l-.04.03s.03.02.05.02l.03-.02h0Z" style="fill: #fff;"/>
    <path d="M11.33,9.33s0,0,.01,0c.01,0,.02-.01.03-.02h.02s-.03-.03-.05-.03l-.03.02s0,.02.01.02h0Z" style="fill: #fff;"/>
    <path d="M10.04,10.35h0v-.64s-.03,0-.05,0-.03,0-.05,0v.5l.09.15Z" style="fill: #fff;"/>
    <polygon points="10.05 10.84 9.95 10.68 9.95 11.46 10.05 11.46 10.05 10.84" style="fill: #fff;"/>
    <path d="M9.95,9.61s.03,0,.05,0,.03,0,.05,0v-.66s-.03,0-.05,0-.03,0-.05,0v.66h0Z" style="fill: #fff;"/>
    <path d="M10.05,8.95s-.03,0-.05,0c.02,0,.03,0,.05,0h0Z" style="fill: #fff;"/>
    <path d="M10,8.95s-.03,0-.05,0h0s.03,0,.05,0Z" style="fill: #fff;"/>
    <polygon points="10.05 10.35 10.04 10.35 10.05 10.36 10.05 10.35" style="fill: #fff;"/>
    <path d="M10,9.71s.03,0,.05,0v-.1s-.03,0-.05,0-.03,0-.05,0v.1s.03,0,.05,0Z" style="fill: #fff;"/>
    <path d="M10.05,8.9h-.05s.03,0,.05,0h0Z" style="fill: #fff;"/>
    <path d="M9.95,8.9h0s.03,0,.05,0h-.05Z" style="fill: #fff;"/>
    <path d="M10,8.95s.03,0,.05,0v-.05s-.03,0-.05,0-.03,0-.05,0v.05s.03,0,.05,0Z" style="fill: #fff;"/>
  </g>
  <g>
    <path d="M10,0C5.45,0,1.77,4.48,1.77,10s3.69,10,8.23,10,8.24-4.48,8.24-10S14.55,0,10,0ZM10,19.54c-4.34,0-7.85-4.27-7.85-9.54S5.66.46,10,.46s7.86,4.27,7.86,9.54-3.52,9.54-7.86,9.54Z" style="fill: #201b4e;"/>
    <path d="M10.01,17.88c3.34,0,6.05-3.51,6.05-7.84s-2.71-7.83-6.05-7.83-6.05,3.51-6.05,7.83,2.71,7.84,6.05,7.84ZM10.01,2.57c3.19,0,5.77,3.35,5.77,7.47s-2.58,7.48-5.77,7.48-5.77-3.35-5.77-7.48,2.59-7.47,5.77-7.47Z" style="fill: #201b4e;"/>
    <path d="M4.11,5.23s.08.03.13.03.09,0,.13-.03c.04-.02.11-.06.19-.12.06-.04.1-.07.13-.08.03-.01.06-.02.08-.02.03,0,.05,0,.07.01.03.02.06.05.07.09.01.04,0,.09-.02.13-.03.06-.09.11-.16.13-.08.03-.17.03-.27,0v.02s.32.17.32.17v-.02s-.01-.03-.01-.05c0-.02,0-.03,0-.04,0-.01.02-.03.04-.04.04-.03.06-.05.08-.07s.04-.04.05-.07c.05-.09.06-.17.04-.25-.02-.08-.07-.14-.14-.18-.06-.03-.12-.04-.18-.03-.06,0-.15.05-.25.13-.07.05-.12.09-.15.1-.03.02-.06.03-.09.03-.02,0-.04,0-.06-.01-.03-.02-.05-.04-.06-.08,0-.04,0-.08.02-.12.03-.06.08-.1.15-.12.07-.03.14-.02.22,0l.02-.03-.29-.14v.02s.03.03.03.04,0,.02,0,.03c0,.01-.02.03-.05.05-.03.02-.05.04-.07.06-.02.02-.04.05-.05.08-.04.08-.05.15-.03.23s.07.13.14.17h0Z" style="fill: #201b4e;"/>
    <path d="M4.35,4.32s.04-.04.06-.05c.01,0,.03,0,.05,0,0,0,.03.02.07.04l.53.36s.06.05.07.06c0,.01.01.03.01.04,0,.02,0,.04-.03.06l-.02.03h.02s.48-.68.48-.68l-.23-.21-.02.02c.06.07.09.14.09.2,0,.07-.02.14-.07.22l-.03.05s-.03.04-.04.04c-.01,0-.03,0-.04,0-.01,0-.04-.02-.08-.05l-.23-.16s.05-.06.07-.08c.02-.01.06-.02.1-.01.04,0,.08.02.13.05l.02-.02-.42-.29-.02.02c.06.05.1.1.11.14.02.05,0,.09-.03.14v.02s-.34-.22-.34-.22l.06-.08c.04-.06.07-.1.1-.12.04-.03.08-.05.12-.05s.09,0,.16.04l.02-.02-.24-.16-.46.67.02.02.02-.03h0Z" style="fill: #201b4e;"/>
    <path d="M4.99,3.41s.04-.04.07-.04c.02,0,.03,0,.05,0,0,0,.03.02.06.05l.48.43s.06.05.06.07c0,.02,0,.03,0,.05,0,.02-.01.04-.03.06l-.02.02.02.02.56-.63-.2-.24-.02.02c.05.07.07.15.06.22,0,.07-.04.14-.1.2l-.04.04s-.04.03-.05.04-.03,0-.04,0c-.01,0-.04-.02-.08-.06l-.21-.18s.06-.06.08-.07c.03,0,.06,0,.1,0,.04,0,.08.03.13.06l.02-.02-.38-.34-.02.02c.05.06.08.11.09.15s0,.09-.05.14v.02s-.31-.26-.31-.26l.07-.07c.05-.06.09-.09.11-.1.04-.02.08-.04.12-.03s.09.02.15.06l.02-.02-.21-.19-.55.61.02.02.02-.02h0Z" style="fill: #201b4e;"/>
    <path d="M5.77,2.57s.04-.03.06-.03c.02,0,.03,0,.05,0,.01,0,.03.03.06.07l.4.5s.05.06.05.07c0,.02,0,.03,0,.04,0,.02-.02.04-.04.05l-.03.02.02.02.38-.31-.02-.02s-.05.03-.07.04c-.02,0-.03,0-.05,0-.01,0-.03-.03-.07-.07l-.17-.21v-.05s.36.08.36.08c.07.02.11.03.12.05,0,0,0,.02,0,.03,0,.01-.02.03-.04.05l.02.02.4-.32-.02-.02s-.05.03-.08.03c-.04,0-.1,0-.18-.02l-.54-.12.08-.36c.02-.09.03-.14.04-.16,0-.02.03-.04.05-.06l-.02-.02-.3.24.02.02s.06-.04.07-.04c.02,0,.04,0,.05.01.02.02.02.06,0,.12l-.1.45-.19-.24s-.05-.06-.05-.08c0-.02,0-.03,0-.04,0-.02.03-.04.05-.06l-.02-.02-.38.3.02.02.03-.02h0Z" style="fill: #201b4e;"/>
    <path d="M7.24,1.53s.05-.01.07-.01c.02,0,.03,0,.04.02,0,.01.03.04.04.08l.25.59s.03.07.03.09c0,.02,0,.03-.01.04-.01.02-.03.03-.06.04h-.03s.01.04.01.04l.46-.19v-.02s-.07.02-.09.02c-.02,0-.03,0-.04-.02-.01,0-.03-.04-.05-.08l-.11-.24.02-.04.32.17c.06.03.1.06.11.08,0,.01,0,.02,0,.03,0,.01-.02.02-.05.04v.02s.48-.2.48-.2v-.02s-.06.02-.09.01c-.04,0-.1-.03-.16-.06l-.49-.26.18-.32c.04-.08.07-.13.08-.14.01-.02.04-.03.07-.05v-.03s-.36.15-.36.15v.02s.08-.02.09-.02c.02,0,.04.01.05.03,0,.02,0,.06-.03.12l-.22.41-.12-.28s-.03-.07-.03-.09c0-.02,0-.03.01-.04.01-.02.03-.03.06-.04v-.02s-.46.19-.46.19v.03s.04-.01.04-.01h0Z" style="fill: #201b4e;"/>
    <path d="M8.59,1.03s.04.02.06.04l.02.02.12.67c0,.05,0,.09-.01.11-.02.03-.05.04-.11.05v.03s.35-.06.35-.06v-.03s-.03,0-.03,0c-.03,0-.06,0-.09-.01-.03-.02-.05-.05-.06-.11l-.11-.61.79.68h.03s-.14-.8-.14-.8c0-.04,0-.08,0-.1s.01-.03.03-.04c.01-.01.04-.02.08-.03v-.03s-.32.06-.32.06v.03c.06-.01.1,0,.13.02.02.02.04.05.04.11l.07.41-.58-.51-.34.06v.03s.06,0,.07,0h0Z" style="fill: #201b4e;"/>
    <path d="M10.34,1.83c.18.01.32-.04.42-.16.08-.09.12-.19.13-.32,0-.14-.03-.27-.12-.37s-.21-.16-.37-.16c-.14-.02-.27.02-.37.11-.1.09-.16.21-.17.35,0,.13.02.24.09.34.09.12.22.19.4.2h0ZM10.2.99c.05-.09.12-.13.21-.12.05,0,.09.02.13.05.04.03.07.08.08.14.02.07.03.16.02.29,0,.11-.03.19-.05.26-.03.07-.07.11-.11.14-.03.02-.08.03-.13.03-.07,0-.13-.04-.17-.09-.05-.08-.07-.21-.06-.37,0-.14.04-.24.08-.32h0Z" style="fill: #201b4e;"/>
    <path d="M11.37,1.16l.03.85h.03s.46-.49.46-.49l.02.67h.02s.56-.64.56-.64c.05-.05.08-.09.08-.09.02-.01.03-.02.04-.03.02,0,.03,0,.05,0v-.03s-.23-.08-.23-.08v.02s.05.03.06.04c0,.02,0,.03,0,.05,0,.01-.01.03-.02.04,0,.01-.03.04-.06.07l-.29.34v-.49c-.01-.06-.01-.1,0-.11,0-.01,0-.02.02-.02,0,0,.02,0,.03,0,.02,0,.04,0,.07.02v-.03s-.44-.16-.44-.16v.02s.04.02.05.03c.01.01.02.03.03.05,0,.02,0,.06,0,.12v.11s-.27.3-.27.3l-.02-.51c0-.06,0-.1,0-.12,0-.01.01-.02.03-.03.02,0,.04,0,.07,0v-.02s-.39-.14-.39-.14v.03s.04.03.04.05c0,.02.01.07.01.16h0Z" style="fill: #201b4e;"/>
    <path d="M13.02,1.68s.01.03.01.05c0,.01-.02.04-.05.08l-.35.53s-.05.06-.06.07c-.01.01-.03.01-.04.01-.02,0-.04-.01-.07-.02l-.03-.02v.02s.71.47.71.47l.22-.27-.02-.02c-.06.05-.11.09-.16.11-.04.02-.08.03-.12.02-.04,0-.08-.02-.12-.05l-.07-.04s-.06-.04-.07-.05c0-.02-.01-.03-.01-.04,0-.02.02-.04.05-.08l.34-.52s.04-.06.06-.07c.02-.01.03-.01.04-.01.02,0,.04.01.07.03l.03.02.02-.02-.44-.28v.02s.01.02.01.02c.02.02.04.03.05.05h0Z" style="fill: #201b4e;"/>
    <path d="M13.32,2.97l-.02.02.62.57.24-.19-.02-.02c-.08.05-.15.07-.22.06-.07,0-.14-.04-.2-.1l-.04-.04s-.03-.03-.04-.05c0-.01,0-.03,0-.04,0-.01.03-.04.06-.08l.19-.2s.06.06.06.09c.01.03,0,.06,0,.1-.01.04-.03.08-.07.12l.02.02.35-.37-.02-.02c-.06.05-.11.08-.16.09-.05.01-.09,0-.14-.05h-.01s.27-.3.27-.3l.08.07c.05.05.09.09.1.11.02.04.03.08.03.12,0,.04-.02.09-.06.15l.02.02.2-.21-.6-.56-.02.02.02.02s.04.04.04.07c0,.01,0,.03,0,.05,0,.01-.02.03-.05.06l-.44.47s-.06.06-.07.06c-.02,0-.03.01-.04,0-.02,0-.04-.02-.06-.04l-.02-.02h0Z" style="fill: #201b4e;"/>
    <path d="M14.78,3.31l-.51.39s-.07.05-.08.05c-.02,0-.03,0-.05,0-.02,0-.03-.02-.05-.04l-.02-.03-.02.02.27.34c.04.05.07.08.09.1.05.04.1.08.15.1s.09.03.15.04c.05,0,.11,0,.17-.02.06-.02.12-.05.17-.09.08-.06.14-.13.17-.22.04-.08.04-.17.02-.26-.02-.08-.06-.16-.14-.25l-.27-.34-.02.02.02.03s.03.04.03.06c0,.02,0,.03,0,.05,0,0-.03.03-.07.06h0ZM15.02,3.43c.05.06.08.11.09.15.01.05,0,.11-.02.17-.04.08-.1.15-.2.23-.12.1-.23.14-.33.14-.07,0-.13-.03-.18-.09-.02-.02-.02-.04-.03-.05,0,0,0-.02,0-.03,0,0,.02-.03.06-.05l.6-.47h0Z" style="fill: #201b4e;"/>
    <path d="M15.02,4.55s-.06.1-.07.16-.01.12,0,.19c0,.07.03.14.08.22.04.06.08.12.12.17.04.05.09.1.15.14l.18-.1s.05-.03.06-.03c.02,0,.03,0,.05,0,.01,0,.03.03.05.06h.02s-.23-.42-.23-.42h-.02s.01.03.01.03c.01.02.02.04.02.06s0,.03-.01.04c0,0-.03.02-.06.04l-.18.1s-.04-.04-.06-.06c-.02-.02-.03-.04-.04-.06-.03-.06-.05-.12-.04-.18,0-.06.03-.12.08-.17.05-.06.12-.1.2-.15.07-.04.14-.07.21-.08.07-.02.14-.02.2,0,.06.02.11.07.14.13.04.07.05.14.04.22-.01.08-.05.16-.12.23v.02s.31-.17.31-.17v-.02s-.06,0-.08,0c-.01,0-.03-.01-.03-.03,0,0-.01-.04-.02-.09,0-.05-.01-.08-.02-.1-.01-.04-.03-.08-.06-.12-.08-.14-.18-.22-.32-.26-.14-.04-.27-.03-.4.05-.07.04-.13.09-.17.15h0Z" style="fill: #201b4e;"/>
    <path d="M15.47,5.77s-.03,0-.04-.01c-.02-.01-.03-.03-.04-.06v-.03s-.04,0-.04,0l.32.78.3-.07v-.03c-.1,0-.17,0-.23-.04-.06-.04-.11-.1-.14-.18l-.02-.05s-.01-.05-.01-.06c0-.01.01-.03.02-.03.01,0,.04-.02.09-.04l.26-.1s.03.08.02.1c0,.03-.02.06-.04.09-.03.03-.07.06-.11.08v.02s.49-.19.49-.19v-.02c-.08.02-.15.03-.19.01-.05-.01-.08-.05-.1-.1v-.02s.36-.15.36-.15l.04.09c.03.07.04.12.04.14,0,.05,0,.09-.02.12s-.06.07-.12.11v.02s.28-.11.28-.11l-.3-.75h-.02s.01.04.01.04c.01.03.01.06.01.08,0,.02-.01.03-.03.04,0,0-.03.02-.07.03l-.6.24s-.08.03-.09.03h0Z" style="fill: #201b4e;"/>
    <path d="M3.51,11.17s.04.02.05.03c0,.02.02.04.03.09h.03s-.04-.35-.04-.35h-.03c0,.06,0,.11-.03.13-.02.02-.06.03-.13.04l-.46.05.6-.59-.04-.37h-.03s0,.06,0,.08c0,.02-.02.04-.05.07l-.03.02-.75.08c-.06,0-.1,0-.12-.02-.03-.02-.04-.06-.05-.12h-.03s.04.38.04.38h.03v-.03s0-.07.02-.1c.02-.03.06-.05.12-.06l.68-.07-.81.81v.03s.89-.1.89-.1c.05,0,.09,0,.11,0h0Z" style="fill: #201b4e;"/>
    <path d="M3.34,12.55c.16-.03.28-.11.36-.24.08-.13.1-.27.06-.44-.03-.15-.1-.27-.23-.36s-.27-.11-.42-.08c-.14.03-.25.1-.33.2-.11.13-.14.29-.1.47s.14.32.29.39c.12.06.24.07.38.04ZM2.73,12.1c-.02-.08,0-.15.05-.2.07-.08.2-.14.38-.18.15-.03.27-.04.36-.01.11.03.17.09.19.19.01.05,0,.1-.01.15s-.06.09-.13.13c-.06.04-.16.08-.3.1-.12.02-.21.03-.29.02s-.14-.03-.18-.07c-.03-.03-.06-.07-.07-.12h0Z" style="fill: #201b4e;"/>
    <path d="M3.68,13.46c.07.04.14.05.21.02.06-.02.11-.06.14-.11.03-.05.05-.11.05-.17,0-.06-.02-.15-.06-.28l-.15-.47h-.03c.02.06.02.09.02.11,0,.02,0,.03-.02.05-.01.01-.05.02-.1.04l-.66.21c-.06.02-.09.03-.11.02-.02,0-.03-.01-.04-.02-.01-.01-.03-.04-.04-.09h-.03s.17.52.17.52h.03c-.02-.06-.02-.09-.02-.11,0-.02.01-.04.02-.05.01-.01.05-.03.1-.05l.28-.09.02.07-.36.48.11.32h.03s0-.06,0-.09c0-.02.03-.05.06-.09l.26-.35c.04.06.08.1.12.12ZM3.49,13l.44-.14.03.08c.03.08.03.14,0,.19s-.08.08-.16.11c-.05.02-.1.02-.14.01-.04,0-.07-.03-.1-.06-.02-.03-.05-.08-.07-.15v-.04s0,0,0,0Z" style="fill: #201b4e;"/>
    <path d="M3.67,14.46l.76-.34.03.07s.03.08.03.1c0,.04-.01.08-.03.11s-.05.07-.11.11v.03s.28-.12.28-.12l-.39-.87-.26.12v.03c.09-.02.16-.02.21,0,.04.02.08.06.11.12l.03.07-.75.34c-.05.02-.08.03-.09.03-.02,0-.04,0-.05-.01-.02-.01-.03-.03-.05-.06l-.02-.03h-.03s.23.52.23.52h.03s-.01-.04-.01-.04c-.01-.03-.02-.05-.02-.07,0-.02,0-.04.02-.05.01-.01.04-.03.09-.05h0Z" style="fill: #201b4e;"/>
    <path d="M4.41,15.8l.6-.36s.08-.04.09-.04c.02,0,.04,0,.05.01.02,0,.04.03.05.05l.02.03.03-.02-.29-.48h-.03s.02.04.02.04c.02.03.02.05.02.07,0,.02,0,.04-.01.05,0,.01-.04.03-.08.06l-.26.15-.19-.32.26-.16s.08-.04.09-.04c.02,0,.04,0,.05,0,.02.01.04.03.05.05l.02.03h.03s-.29-.49-.29-.49l-.03.02.02.03s.02.05.02.07,0,.04-.01.05c0,.01-.04.03-.08.06l-.6.36s-.08.04-.09.04c-.02,0-.04,0-.05,0-.02-.01-.04-.03-.05-.06l-.02-.03h-.03s.29.49.29.49l.03-.02-.02-.03s-.02-.05-.02-.07c0-.02,0-.04.01-.05,0-.01.04-.03.08-.06l.29-.17.19.32-.29.17s-.08.04-.09.04c-.02,0-.04,0-.05,0-.02-.01-.04-.03-.05-.06l-.02-.03-.03.02.29.48h.03s-.02-.04-.02-.04c-.02-.03-.02-.05-.02-.07,0-.02,0-.04.01-.05,0-.01.04-.03.08-.06h0Z" style="fill: #201b4e;"/>
    <path d="M5.71,16.52s0-.07,0-.1c0-.02.02-.04.03-.05.03-.03.06-.04.11-.03.04,0,.08.02.12.06.05.05.07.12.07.2s-.03.16-.08.23l.02.02.25-.25-.02-.02s-.05.03-.06.03c-.01,0-.02,0-.03-.02s-.02-.03-.03-.07c-.01-.04-.02-.07-.04-.09-.02-.03-.04-.06-.06-.08-.06-.07-.14-.11-.23-.11-.09,0-.16.02-.22.08-.04.03-.06.07-.08.12-.01.04-.02.09-.01.15,0,.05.02.13.06.23.02.07.04.13.04.16,0,.03,0,.06,0,.09s-.02.05-.04.06c-.03.03-.07.04-.12.04-.05,0-.09-.03-.13-.07-.05-.05-.08-.13-.08-.22,0-.09.03-.18.1-.27l-.02-.02-.29.28.02.02s.04-.01.06,0c.02,0,.03.01.04.02.01.01.02.03.03.06.02.05.03.08.05.11.01.03.03.05.06.08.07.08.16.12.25.12.09,0,.17-.02.24-.08.05-.05.08-.11.09-.17,0-.07,0-.17-.05-.3-.03-.09-.05-.16-.05-.19h0Z" style="fill: #201b4e;"/>
    <path d="M6.76,17.04c-.12-.1-.25-.15-.4-.13-.15.02-.28.09-.37.21-.09.11-.13.23-.13.36,0,.17.08.31.23.43s.31.16.48.11c.13-.03.23-.1.32-.21.1-.12.14-.26.12-.41s-.1-.27-.23-.37h0ZM6.81,17.39c-.02.07-.08.16-.17.27-.07.09-.14.16-.21.2-.07.04-.13.06-.19.06-.05,0-.09-.02-.13-.05-.06-.05-.1-.11-.09-.19,0-.11.06-.23.18-.37.1-.12.19-.2.27-.24.1-.05.19-.04.27.02.04.03.07.07.08.12.01.05,0,.11-.01.18Z" style="fill: #201b4e;"/>
    <path d="M8.19,17.92h0s-.33-.17-.33-.17v.03s.05.04.07.06c0,.01.01.03.01.06s-.01.05-.03.1l-.2.38c-.05.1-.1.16-.14.2-.04.03-.08.05-.13.05-.05,0-.1,0-.15-.03-.04-.02-.08-.05-.1-.09-.02-.03-.03-.07-.03-.1,0-.03.02-.09.07-.18l.24-.46c.03-.06.05-.09.06-.1s.03-.02.05-.02c.02,0,.04,0,.08.03h.03s.01-.01.01-.01l-.49-.25v.03s.05.04.06.05c0,.02.01.03.01.05,0,.02-.02.05-.04.1l-.24.46c-.04.08-.06.15-.06.21,0,.06.02.12.07.18.03.05.09.09.17.13.1.05.19.07.27.06.08-.01.14-.04.18-.08.04-.04.09-.12.15-.23l.19-.36s.04-.06.05-.08c.02-.02.04-.03.06-.03.02,0,.05,0,.07.02h.02s.01-.01.01-.01l-.08.27h.03c.03-.06.08-.11.13-.14.04-.02.1-.02.16,0l.07.02-.23.79c-.01.05-.03.08-.04.09-.01.01-.03.02-.04.03-.02,0-.05,0-.08,0h-.03s0,.02,0,.02l.54.16v-.03s-.03-.01-.03-.01c-.03,0-.05-.02-.06-.03-.01-.02-.02-.03-.02-.04s0-.05.02-.1l.23-.79.08.02s.08.03.1.04c.03.03.05.06.06.09.01.03.02.08.01.15h.03s.08-.27.08-.27l-.92-.27h0Z" style="fill: #201b4e;"/>
    <path d="M9.74,18.27h.03s.05.01.07.02c.02.01.03.03.03.04,0,.01,0,.05,0,.1l-.02.3-.38-.03.02-.3c0-.05,0-.09.02-.1,0-.02.02-.03.03-.04.02-.01.05-.01.08-.01h.03v-.03s-.56-.04-.56-.04v.03h.03s.05.01.07.02c.02.01.03.02.03.04s0,.05,0,.1l-.05.7c0,.05,0,.09-.01.1,0,.02-.02.03-.03.04-.02.01-.04.01-.08.01h-.03v.03l.56.04v-.03h-.03s-.05-.01-.07-.02c-.02-.01-.03-.02-.03-.04s0-.05,0-.1l.02-.33.38.02-.02.33c0,.05,0,.09-.02.1,0,.02-.02.03-.03.04-.02.01-.04.01-.08.01h-.03v.03s.56.04.56.04v-.03h-.03s-.06-.01-.07-.02c-.02-.01-.03-.02-.03-.04,0-.01,0-.05,0-.1l.05-.69c0-.05,0-.09.02-.1,0-.02.02-.03.03-.03.02-.01.04-.01.08-.01h.03v-.03l-.56-.04v.03h-.01Z" style="fill: #201b4e;"/>
    <path d="M13.53,17.02s0-.04,0-.06c0-.02.02-.04.06-.07l-.02-.02-.28.21.02.02s.09-.05.13-.04c.03,0,.06.04.1.09l.27.37-.82-.22-.31.22-.3.14v.03c.05-.02.08-.03.11-.03.02,0,.03,0,.05.02.02.01.04.04.06.09l.19.39c.05.1.07.18.08.23,0,.05-.01.1-.04.14-.03.04-.06.07-.12.1-.05.02-.09.03-.13.03-.04,0-.07-.02-.1-.04-.03-.02-.06-.08-.1-.16l-.23-.47c-.03-.05-.04-.09-.04-.11,0-.02,0-.03.01-.05.01-.01.04-.03.07-.05h.03s-.01-.04-.01-.04l-.5.24v.03c.05-.02.08-.03.1-.03.02,0,.03,0,.05.02.01,0,.03.04.06.1l.23.47c.04.08.08.14.13.17.05.04.11.05.19.05.06,0,.13-.02.21-.06.1-.05.17-.11.21-.18.04-.07.05-.13.04-.19-.01-.06-.04-.14-.1-.25l-.18-.36s-.03-.07-.03-.09c0-.03,0-.05.02-.07.01-.02.03-.03.05-.04.03-.02.05-.03.07-.03.02,0,.05,0,.08.01h.04s.45.61.45.61c.03.05.05.08.04.12,0,.03-.03.07-.08.1l.02.02.31-.22-.02-.02h-.02s-.06.05-.1.05c-.03,0-.07-.03-.11-.08l-.4-.54,1.11.29.02-.02-.53-.71s-.05-.07-.05-.09h0Z" style="fill: #201b4e;"/>
    <path d="M14.67,17.24s-.04.03-.06.04c-.02,0-.04,0-.05,0-.01,0-.04-.03-.08-.07l-.48-.51s-.06-.06-.06-.08c0-.02,0-.03,0-.05,0-.02.02-.04.04-.06l.03-.02-.02-.02-.4.38.02.02.02-.03s.04-.03.06-.04c.02,0,.04,0,.05,0,.01,0,.04.03.08.07l.49.51s.06.06.06.08c0,.02,0,.03,0,.05,0,.02-.02.04-.04.06l-.03.02.02.02.41-.38-.02-.02s-.03.03-.03.03Z" style="fill: #201b4e;"/>
    <path d="M15.83,15.21c.07.07.1.15.11.22,0,.07-.02.15-.07.24l-.03.05s-.03.04-.05.05c-.01,0-.03,0-.04,0-.01,0-.04-.02-.09-.05l-.25-.16s.05-.07.08-.09c.02-.01.06-.02.1-.02.04,0,.09.02.15.05l.02-.03-.47-.3-.02.03c.07.05.11.1.13.15.02.05.01.1-.03.16v.02s-.38-.23-.38-.23l.06-.09c.04-.07.08-.11.1-.13.04-.03.08-.05.13-.06.04,0,.1,0,.18.03l.02-.03-.27-.17-.48.75h0l-.22.26.02.02s.05-.05.07-.06c.01,0,.03-.01.04-.01.02,0,.03,0,.04.02.01,0,.02.02.03.04.01.02.03.05.06.11l.23.46-.56-.17c-.06-.02-.09-.03-.11-.03s-.02-.01-.03-.02c-.01-.01-.02-.02-.02-.03,0-.02.02-.05.05-.08h.01s-.02-.03-.02-.03l-.33.39.02.02s.06-.04.08-.04c.02,0,.09.02.2.05l.89.26.02-.02-.39-.8c-.05-.09-.07-.16-.08-.19,0-.05,0-.09.02-.12h0s.02-.03.02-.03c.02-.03.04-.05.06-.06.02,0,.03,0,.05,0,.01,0,.04.02.08.05l.59.38s.07.05.08.06c.01.02.02.03.02.05,0,.02-.01.05-.03.07l-.02.03.02.02.5-.77-.26-.22-.02.02h0Z" style="fill: #201b4e;"/>
    <path d="M16.65,14.24s-.05.02-.11.03l-.44.07c.01-.07.01-.12,0-.17-.02-.07-.07-.13-.14-.16-.06-.03-.12-.04-.18-.02s-.11.04-.15.09c-.04.05-.09.13-.15.24l-.22.44h.03s.04-.06.06-.07c.02-.01.03-.02.05-.02.02,0,.05.01.1.04l.63.3c.05.03.08.04.09.06.01.01.02.03.02.05,0,.02-.01.05-.03.1h.03s.24-.48.24-.48h-.03s-.04.06-.06.07-.03.02-.05.02c-.02,0-.05-.01-.1-.04l-.27-.13.03-.06.59-.1.15-.3h-.03s-.03.03-.06.04ZM15.93,14.59l-.02.04-.42-.2.04-.07c.04-.08.08-.12.13-.14.05-.02.11,0,.19.03.05.02.09.05.11.09.02.03.03.07.03.11,0,.04-.02.09-.05.15h0Z" style="fill: #201b4e;"/>
    <path d="M16.75,13.26c-.07-.02-.13-.03-.2,0-.07.02-.15.08-.25.18-.07.07-.12.11-.15.13-.03.02-.07.04-.09.04-.02,0-.04,0-.07,0-.03-.01-.06-.04-.08-.08-.02-.04-.01-.08,0-.13.02-.06.07-.11.14-.15.07-.04.15-.05.24-.03v-.03s-.33-.11-.33-.11v.02s.04.03.04.04c0,.01,0,.02,0,.04,0,.01-.02.03-.05.06-.03.03-.05.05-.06.07-.02.03-.04.06-.05.09-.03.09-.03.17,0,.25.04.08.09.13.17.16.05.02.09.02.14.01.05,0,.09-.02.14-.05.05-.03.11-.08.19-.15.06-.05.1-.09.13-.11.03-.02.06-.03.09-.03.03,0,.05,0,.07,0,.04.02.07.04.09.09.02.04.02.09,0,.15-.03.07-.08.13-.16.17-.08.04-.18.05-.29.04v.03s.37.14.37.14v-.03s-.02-.03-.02-.05c0-.02,0-.03,0-.05,0-.01.02-.03.04-.05.03-.04.06-.07.08-.09.02-.03.03-.05.04-.09.04-.1.04-.19,0-.28-.03-.09-.09-.15-.18-.18h0Z" style="fill: #201b4e;"/>
    <path d="M17.19,12.73s-.02.05-.03.06-.03.02-.05.02c-.01,0-.05,0-.1-.02l-.68-.2c-.05-.01-.08-.03-.09-.04-.02-.01-.02-.03-.03-.04,0-.02,0-.05,0-.08v-.03s-.02,0-.02,0l-.16.53h.03s.01-.03.01-.03c0-.03.02-.05.03-.06.02-.01.03-.02.04-.02.01,0,.05,0,.1.02l.68.19c.05.02.08.03.09.04.01.01.02.03.03.04,0,.02,0,.05,0,.07v.04s.02,0,.02,0l.16-.53h-.03s-.01.02-.01.02h0Z" style="fill: #201b4e;"/>
    <path d="M17.39,11.86s-.01.05-.03.07c-.01.02-.03.02-.04.03-.01,0-.05,0-.1-.01l-.81-.17.02-.08s.02-.08.04-.1c.02-.03.05-.05.09-.07.03-.02.08-.02.15-.03v-.03s-.28-.06-.28-.06l-.2.93.28.06v-.03c-.07-.03-.12-.07-.15-.12-.02-.04-.03-.09-.01-.16v-.07s.82.17.82.17c.05.01.08.02.1.03.02,0,.03.02.03.04,0,.02,0,.05,0,.08v.03s.02,0,.02,0l.12-.54h-.03s0,.03,0,.03h0Z" style="fill: #201b4e;"/>
    <path d="M17.57,10.65v.06s-.02.05-.03.06c-.01.02-.02.03-.04.03s-.05,0-.1,0l-.26-.03-.36-.27c-.09-.07-.15-.12-.17-.14-.01-.02-.02-.05-.02-.08h-.03s-.04.32-.04.32h.03s.02-.08.03-.09c.01-.01.02-.02.04-.01.03,0,.08.03.15.09l.3.23-.37.15c-.08.03-.13.05-.15.05-.01,0-.02,0-.03-.02,0-.01-.01-.04,0-.07v-.02h-.03s-.06.5-.06.5h.03s.02-.06.03-.08c.02-.02.08-.05.17-.09l.48-.19.21.02c.05,0,.09.01.1.02.02,0,.03.02.03.04,0,.02.01.05,0,.08v.06s.02,0,.02,0l.07-.59h-.03s0,0,0,0Z" style="fill: #201b4e;"/>
    <path d="M3.52,7.99h-.16v-.07s.49-.34-.17-.95c-.14.23-.34.56-.16.88.01.03.07.05.07.05v.09h-.17v1.45h.59v-1.46ZM3.23,7.85c-.29-.15-.03-.66-.03-.66.1.1.17.32.17.39,0,.21-.09.26-.14.26h0Z" style="fill: #201b4e;"/>
    <path d="M16.75,8.03v.1h-.23v1.48h.6v-1.48h-.18v-.1c.45-.24.09-.78,0-1.01-.68.63-.19,1.01-.19,1.01ZM16.88,7.23c.14.14.19.36.19.41-.03.2-.18.21-.22.21-.33-.12.03-.62.03-.62Z" style="fill: #201b4e;"/>
    <path d="M9.91,7.09h.33c.07-1.2,2.54-.61,2.54-.61v-2.74c-1.51-.46-2.5.21-2.77.38-1.59-.96-2.6-.35-2.6-.35v2.61c2.64-.14,2.5.72,2.5.72h0ZM10.22,4.56c.6-.71,2.06-.59,2.06-.59v1.99c-1.58,0-2.06.35-2.06.35v-1.75h0ZM7.89,3.97s1.46-.12,2.06.59v1.75s-.48-.35-2.06-.35v-1.99h0Z" style="fill: #201b4e;"/>
    <path d="M6.38,12.87c1.1,2.66,3.22,2.61,3.64,2.61,2.83-.05,3.71-2.61,3.71-2.61v-3.47h.15v-.87h-.91v4.24c-1,2.08-2.58,1.99-2.91,1.99-2.07,0-2.92-1.89-2.92-1.89v-4.45h-.93v.88h.16s.02,1.84.02,3.57h0Z" style="fill: #201b4e;"/>
    <path d="M8.37,4.42l.04.05h0s0,.05,0,.07c0,.04,0,.06.02.07,0,.03.02.04.03.05.02.03.05.04.08.04.03,0,.06-.01.09-.04,0,.01.02.02.02.03,0,.04.02.06.02.08l.02.04.07-.34h.06l-.04-.05h-.41,0ZM8.67,4.64v-.03s-.01-.02-.01-.03c0-.02,0-.03,0-.05-.02-.03-.04-.05-.08-.05-.02,0-.04,0-.05.02-.02,0-.02.03-.02.04,0,0,0,.02.01.03,0,0,.02,0,.03,0,.02,0,.03,0,.04-.02,0,0,0,0,0,0h0s0,.01.01.02v.03s-.03.04-.06.05c-.02,0-.04,0-.05-.01,0,0-.02-.02-.03-.04,0,0-.01-.03-.02-.05,0,0,0-.02,0-.06h-.03s.29-.01.29-.01l-.04.17h0Z" style="fill: #201b4e;"/>
    <path d="M9.58,4.69h0s0-.02,0-.03v-.02l-.02-.02s-.01.05-.01.08h0s-.03,0-.05-.01h0s0,0,0,0h-.4l.04.05s0,.05,0,.08c0,.03.01.06.02.07,0,.02.02.04.03.05.02.02.05.04.08.04s.06-.01.09-.04c0,.01.01.03.02.03,0,.03.01.06.02.08l.02.04.07-.34h.02s.02,0,.03,0c0,0,.01.02.01.03v.02l-.05.24.04.05.07-.34h.06l-.04-.05h-.02,0ZM9.38,4.91v-.04s0-.02,0-.03c0-.02,0-.03-.01-.05-.02-.03-.04-.05-.08-.05-.02,0-.04,0-.05.02-.01.01-.02.03-.02.04,0,.01,0,.02.02.03,0,0,.02.01.03.01.01,0,.03,0,.04-.02,0,0,0-.01,0-.01h0s0,.01,0,.02c0,0,0,.02,0,.03,0,.03-.03.04-.06.05-.02,0-.04,0-.05-.01,0,0-.02-.02-.03-.03,0,0-.01-.03-.02-.05,0,0,0-.02,0-.06h-.02s.29,0,.29,0l-.04.17h0Z" style="fill: #201b4e;"/>
    <path d="M8.8,5.32l-.04-.05h-.39l.04.05h.19,0c-.07.03-.14.06-.2.11l.04.06s.08.02.1.06c0,.01.01.03.02.03,0,0,0,.01,0,.03l.02.03.05-.26s.04,0,.05.02c0,0,.01.02.01.03,0,0-.01,0-.02,0,0,0-.01,0-.02,0-.02.02-.03.03-.03.05,0,.01,0,.02.01.03,0,0,.02.01.03.01.02,0,.03,0,.05-.02.02-.02.03-.04.03-.08,0-.02,0-.05-.03-.07-.02-.02-.04-.03-.07-.03h0s.16,0,.16,0h0ZM8.55,5.52s-.04-.05-.07-.07c.02,0,.03-.02.03-.02.02,0,.04-.02.07-.03l-.03.12h0Z" style="fill: #201b4e;"/>
    <path d="M9.47,5.44s0,0,0-.02c0,0,0-.02,0-.02l-.03-.02-.07.3s-.03-.04-.06-.06c.05-.02.08-.06.08-.09,0-.02,0-.03-.02-.04,0,0-.02-.02-.04-.04-.03.03-.05.04-.06.04h0s-.01-.02-.03-.02c-.01,0-.03,0-.04.02-.01,0-.02.02-.02.04,0,.01,0,.02.01.03,0,0,.02.01.03.01.03,0,.06,0,.09-.03l.02-.02s0,.01,0,.02c0,.01-.02.03-.05.04-.03,0-.05.01-.07.01,0,0-.02,0-.04,0l.05.09s.06.01.09.03c.02.02.04.04.04.08,0,0,0,.02,0,.02l.02.03.07-.33h.06l-.04-.05s-.02,0-.02,0h0Z" style="fill: #201b4e;"/>
    <path d="M10.59,5.16s.02.01.02.01c0,0,.02,0,.02,0,0,0,0-.01,0-.02h0s0-.02,0-.02c-.01-.03-.02-.04-.02-.05,0-.02,0-.03,0-.06,0-.03,0-.05,0-.07,0-.02,0-.03,0-.04s0,0,0-.01c0-.02-.01-.03-.04-.04-.02,0-.04-.01-.06-.01-.05,0-.09.02-.12.05-.04.03-.05.08-.05.12s.01.09.03.11c.02.02.06.04.1.04,0,0,.02,0,.04,0,.02,0,.03-.01.05-.02,0,0,.01.01.02.02h0ZM10.53,5.1s-.03,0-.05,0-.04,0-.05-.02c-.01-.02-.02-.04-.02-.07s.01-.06.03-.08c.02-.03.05-.04.08-.04,0,0,0,0,0,0,0,0,0,0,.02,0,0,.01,0,.02,0,.03v.03s0,.07,0,.12c-.01.01-.02.02-.03.02h0Z" style="fill: #201b4e;"/>
    <path d="M11.25,4.81s.05-.07.05-.12-.01-.08-.04-.11c-.03-.03-.06-.05-.11-.05-.01,0-.03,0-.04,0-.02,0-.03.01-.05.03v-.14s0,0,0-.01h0s0-.04-.02-.04c-.01,0-.02,0-.03.02,0,0,0,.02,0,.03v.4s0,.02,0,.02c0,0,.01,0,.02,0,0,0,.02,0,.02-.02.02.01.05.02.08.02.04,0,.08-.02.11-.05h0ZM11.06,4.78v-.15s.03-.02.04-.03c.02,0,.03-.01.05-.01.03,0,.05.01.07.03.01.02.02.05.02.07s-.01.05-.03.08c-.02.02-.04.03-.07.03-.02,0-.03,0-.04,0-.02,0-.03-.01-.04-.02h0Z" style="fill: #201b4e;"/>
    <path d="M11.86,4.56s0-.01,0-.02c0,0-.01,0-.02,0,0,0,0,0,0,0l-.03.02s-.02.01-.04.01c-.02,0-.05,0-.07-.02-.02-.01-.03-.03-.03-.06,0-.02,0-.05.02-.09.02-.04.04-.06.06-.06.03,0,.05,0,.06,0,0,0,0,0,.01,0,0,0,0,0,.02,0s.01,0,.02,0c0,0,0-.01,0-.02,0-.02-.02-.03-.05-.04-.02,0-.04,0-.06,0-.04,0-.07.03-.09.08-.02.05-.03.09-.03.13,0,.04.02.08.05.1.03.02.06.03.1.03.02,0,.04,0,.06-.03.03-.01.04-.03.04-.05Z" style="fill: #201b4e;"/>
    <path d="M10.64,5.77h-.02v-.06s0-.04,0-.07c0-.03,0-.06,0-.07v-.06h0s0-.03-.02-.03c0,0-.02,0-.04.02-.01.01-.03.02-.03.03-.01,0-.02.02-.02.02s0,0,0,.01c0,0,0,0,.02,0,0,0,.02,0,.04-.02,0,.02,0,.05,0,.09,0,.04,0,.06,0,.08,0,0,0,.02,0,.03,0,.01,0,.02,0,.03h-.02s-.03,0-.03.02c0,0,0,.01.01.02,0,0,.01,0,.02,0h.09s.01,0,.01,0c0,0,0,0,0-.01s0,0,0-.01c0,0,0,0-.01,0h0Z" style="fill: #201b4e;"/>
    <path d="M11.27,5.58h-.11s0-.04.02-.06c0,0,.03-.02.05-.04.03-.01.04-.03.06-.04,0,0,.01-.02.02-.03,0-.01,0-.02,0-.04,0-.02,0-.04-.03-.06-.02-.01-.04-.02-.06-.02-.02,0-.04,0-.06.02-.01,0-.03.02-.04.03,0,0,0,0,0,.02,0,.01,0,.02.02.02,0,0,0,0,.02,0l.03-.02s.02-.01.04-.01c0,0,.02,0,.03,0,.01,0,.02.01.02.03,0,.02,0,.03-.02.05,0,0-.02.02-.04.03-.04.03-.06.04-.07.05-.02.02-.03.05-.03.08,0,0,0,.02,0,.03,0,0,0,.01.02.01h.01s.01,0,.02,0c.01,0,.02,0,.03,0h.07s0,0,.01,0h.01s.01,0,.02,0c0,0,0,0,0-.02,0,0,0-.02-.02-.02,0,0-.02,0-.03,0h0Z" style="fill: #201b4e;"/>
    <path d="M11.95,5.24h0s.04-.04.04-.07c0-.03-.01-.05-.03-.06-.02,0-.05-.02-.07-.02-.01,0-.03,0-.05.02-.02.01-.03.02-.03.03,0,0,0,0,0,.01,0,0,0,0,.02,0,0,0,0,0,.01,0l.02-.02s.02,0,.03,0c.02,0,.04,0,.05.01,0,0,.02.02.02.03,0,0,0,.02,0,.02,0,0-.01,0-.02.02l-.05.02s-.02,0-.02.02c0,.01,0,.02.03.02.02,0,.04,0,.06.02.02.01.02.03.03.05,0,.01,0,.03-.02.04-.01,0-.02.02-.04.02-.01,0-.02,0-.03,0s-.02,0-.02-.02h0s0-.02-.02-.02c0,0-.01,0-.02,0s0,0,0,.01c0,0,0,0,0,0,0,.02.02.03.04.04.02,0,.04.01.06,0,.03,0,.05-.01.07-.03.02-.02.03-.04.03-.07,0-.02,0-.04-.02-.05,0-.01-.03-.02-.04-.03h0Z" style="fill: #201b4e;"/>
    <path d="M9.32,8.58s-.05,0-.07,0c-.01,0-.03,0-.03-.02,0-.01-.02-.04-.03-.08-.07-.24-.1-.36-.17-.59,0,0-.01,0-.02,0-.13.09-.19.14-.3.24,0,0,.01,0,.02.02.03-.03.05-.04.08-.05.01,0,.03,0,.04,0,.01,0,.02,0,.03.01,0,0,.01.03.03.06.05.15.08.22.13.37.02.05.02.07.02.09,0,.02,0,.03-.02.04-.01.01-.03.02-.06.04,0,0-.01,0-.02,0,0,0,0,.01,0,.02.16-.06.23-.09.39-.13,0,0,0-.01,0-.02,0,0-.01,0-.02,0h0Z" style="fill: #201b4e;"/>
    <path d="M9.92,7.89s-.07-.08-.13-.1c-.05-.02-.11-.03-.17-.02-.05,0-.1.02-.15.05-.05.03-.08.07-.1.11-.02.05-.02.09-.01.14.01.07.05.12.1.15.05.03.11.04.17.04.02,0,.04,0,.06-.01.02,0,.06-.03.06-.03,0,0-.02.1-.04.15-.02.04-.06.08-.1.12-.04.03-.09.06-.15.09v.02c.11-.02.19-.06.27-.11.07-.05.13-.11.17-.19.04-.08.06-.15.06-.23,0-.06-.02-.11-.05-.16h0ZM9.77,8.17s-.05.02-.06.02c-.03,0-.06,0-.08-.03-.03-.04-.06-.1-.07-.21,0-.06,0-.1,0-.13.01-.02.03-.03.05-.03.02,0,.04,0,.05,0,.02.01.04.03.06.07.03.05.04.12.04.18,0,.03.01.09,0,.11Z" style="fill: #201b4e;"/>
    <path d="M10.22,8.46s-.1.04-.17.06h0c.11.01.2,0,.28-.04.08-.04.15-.08.21-.15s.09-.14.11-.21c.01-.06,0-.12-.01-.17-.02-.05-.06-.09-.1-.13-.05-.03-.1-.05-.16-.06-.05,0-.11,0-.16.02-.05.02-.09.05-.12.09-.03.04-.04.09-.04.14,0,.07.02.13.07.17.04.04.1.06.16.07.02,0,.04,0,.06,0,.02,0,.07-.02.07-.02,0,0-.04.09-.07.13-.03.04-.07.07-.12.09h0ZM10.36,8.2s-.06-.02-.07-.05c-.02-.04-.03-.11-.03-.21,0-.06.02-.1.04-.12.02-.01.04-.02.06-.02.02,0,.03,0,.05.02.02.02.04.04.04.08.01.06.01.13,0,.19,0,.03,0,.09-.02.11,0,.01-.05.01-.07.01h0Z" style="fill: #201b4e;"/>
    <path d="M10.63,8.57s0,0,0,.01c.18.04.27.06.44.13.05-.07.08-.11.13-.18,0,0-.01,0-.02,0-.02.02-.04.03-.05.03-.01,0-.02,0-.04,0-.01,0-.04,0-.08-.02-.07-.03-.1-.04-.17-.05.17-.08.29-.14.36-.18.05-.04.09-.08.1-.12,0-.03,0-.06,0-.09,0-.04-.03-.07-.06-.1-.03-.03-.08-.05-.12-.07-.07-.02-.13-.02-.19,0-.06.02-.11.06-.15.13,0,0,.01,0,.02,0,.05-.05.11-.06.18-.04.04.01.08.04.09.07.02.03.03.07.01.1-.02.05-.05.1-.1.14-.05.04-.18.12-.35.24h0Z" style="fill: #201b4e;"/>
    <path d="M8.98,9.16c-.08.04-.16.07-.24.12,0,0,0,0,.01,0,.15.09.32.15.49.21.11-.18.24-.35.39-.51,0,0,0,0,0,0-.03,0-.06.01-.09.02-.03,0-.07.01-.1.02-.14.03-.29.07-.42.13-.01,0-.03.01-.04.02h0Z" style="fill: #201b4e;"/>
    <path d="M12.26,10.35h.11c-.21-.43-.53-.8-.93-1.07h-.02s.02.05.03.06c.03.04.05.09.08.13.18.28.32.57.43.87h.3,0Z" style="fill: #201b4e;"/>
    <path d="M9.95,9.7c-.23,0-.45-.03-.66-.09-.14.23-.25.48-.33.74h.44v-.63h.27l.29.48v-.5h0Z" style="fill: #201b4e;"/>
    <path d="M11.05,10.35c-.09-.26-.2-.51-.34-.74-.22.06-.44.09-.67.1v.64h.16v-.63h.25v.63h.59Z" style="fill: #201b4e;"/>
    <polygon points="9.65 10.35 9.74 10.35 9.65 10.19 9.65 10.35" style="fill: #201b4e;"/>
    <path d="M11.08,10.45h-.61v.62h-.28l-.14-.23v.62h1.21c0-.35-.07-.69-.18-1.01Z" style="fill: #201b4e;"/>
    <path d="M9.8,10.45h-.16v.62h-.25v-.62h-.47c-.1.33-.16.67-.18,1.01h1.2v-.78s-.15-.24-.15-.24Z" style="fill: #201b4e;"/>
    <path d="M9.2,9.58c-.18-.06-.36-.14-.53-.24-.22.31-.39.65-.51,1.01h.7c.09-.27.2-.53.34-.77h0Z" style="fill: #201b4e;"/>
    <polygon points="10.21 10.45 10.1 10.45 10.21 10.62 10.21 10.45" style="fill: #201b4e;"/>
    <path d="M11.86,10.35c-.12-.36-.29-.7-.52-1.01-.17.1-.34.18-.53.23.14.25.26.5.35.77,0,0,.69,0,.69,0Z" style="fill: #201b4e;"/>
    <path d="M9.95,8.95h0c-.06,0-.12,0-.19,0,0,0,0,0,0,0-.16.17-.3.36-.43.55.2.05.41.08.62.09,0,0,0-.66,0-.66Z" style="fill: #201b4e;"/>
    <path d="M8.58,9.29h-.02c-.4.25-.72.62-.93,1.05h.42c.1-.31.25-.6.43-.88.03-.04.05-.09.08-.13,0-.01.02-.03.02-.04h0Z" style="fill: #201b4e;"/>
    <path d="M10.05,8.95v.66c.21,0,.42-.03.62-.09-.12-.19-.27-.38-.42-.55,0,0,0,0,0,0-.06,0-.13,0-.19-.01h0Z" style="fill: #201b4e;"/>
    <path d="M10.38,8.98s0,0,0,0c.14.16.27.33.38.5.17-.05.33-.12.48-.2,0,0,0,0,.01,0-.08-.05-.17-.09-.26-.12,0,0-.02,0-.02-.01-.14-.06-.28-.1-.43-.13-.03,0-.07-.01-.1-.02-.02,0-.05,0-.07-.01Z" style="fill: #201b4e;"/>
    <path d="M8.33,13.47l.03.02c.07.06.14.11.22.16h0s.07.05.07.05c.11.06.22.12.33.17,0,0,0,0,.01,0,.14.06.28.1.42.13.04,0,.08.02.12.02.15.03.31.05.47.05s.32-.02.47-.05c.04,0,.08-.01.11-.02.15-.03.3-.08.44-.13h0c.12-.05.23-.1.34-.17l.07-.04h0c.08-.06.16-.12.23-.18h.02s0-.02,0-.03c.58-.48.95-1.19.95-1.99,0-.36-.07-.7-.21-1.01h-.44c.1.33.15.67.16,1.01h-.09s0,.05,0,.07c0,.34-.07.75-.16,1.11h-.71c.1-.35.16-.71.17-1.07,0-.03,0-.05,0-.08,0-.01,0-.03,0-.04h.68c0-.35-.06-.69-.16-1.01h-.69c.1.33.15.67.16,1.01h-.09s0,.04,0,.06c0,.38-.07.76-.17,1.12h-.64s0-.09-.03-.13c-.03-.06-.09-.1-.15-.13-.05-.03-.13-.05-.22-.08v-.29s.03,0,.04,0c.04.03.06.08.08.15h.27c0-.14-.05-.23-.14-.31-.06-.05-.15-.08-.25-.09v-.32h-.1v.31s-.02,0-.04,0c-.1,0-.19.02-.27.05-.07.03-.13.08-.17.14-.04.06-.06.12-.06.2,0,.1.04.19.13.27.06.05.16.1.31.13.04,0,.07.02.1.03v.08h-1.03c-.11-.36-.17-.74-.17-1.12,0-.02,0-.04,0-.06h-.09c0-.35.07-.69.17-1.01h-.7c-.1.33-.15.67-.16,1.01h.69s0,.04,0,.06c0,.02,0,.04,0,.06,0,.36.07.72.17,1.07h-.7c-.1-.37-.16-.77-.17-1.12,0-.02,0-.04,0-.06h-.09c0-.35.06-.69.16-1.01h-.45c-.13.31-.21.65-.21,1.01,0,.8.38,1.52.96,2h0s0,0,0,0ZM8.78,13.65c.12-.06.24-.12.36-.16.08.14.16.28.26.41,0,0,0,0,0,0-.13-.03-.26-.07-.38-.12-.01,0-.02-.01-.04-.02-.08-.03-.15-.07-.22-.1,0,0,0,0,.01,0h0ZM11.24,13.66c-.07.04-.15.08-.23.11,0,0-.02,0-.03.01-.12.05-.25.09-.38.12,0,0,0,0,0,0,.09-.13.18-.26.26-.4.12.04.24.1.36.16,0,0,0,0,.02,0ZM10.47,13.93h0c-.13.02-.27.04-.41.04h0v-.63c.24,0,.48.05.71.12-.09.17-.19.32-.3.47h0ZM9.95,13.97h0c-.14,0-.27-.02-.41-.04h0c-.11-.14-.21-.3-.3-.47.23-.07.47-.11.71-.12v.63h0ZM11.73,13.35s.03-.07.05-.1c.07-.16.14-.33.19-.51h.26c-.13.23-.3.43-.5.61h0ZM12.15,11.58s0-.05,0-.07c0-.02,0-.03,0-.05h.43c0,.44-.12.85-.32,1.21v-.03h-.27c.09-.34.15-.71.16-1.07h0ZM11.87,12.74c-.07.24-.14.46-.23.62-.03.05-.06.09-.09.13-.06.05-.12.09-.18.13h-.01s-.03-.02-.04-.03c-.13-.08-.27-.14-.42-.19.1-.21.19-.43.26-.66h.7,0ZM10.81,13.37c-.25-.08-.5-.13-.76-.13v-.11c.06,0,.13,0,.18-.03.08-.03.14-.08.18-.15.04-.07.06-.14.06-.21h.59c-.07.22-.15.43-.25.63ZM10.05,12.74h.15s-.02.09-.07.12c-.02.02-.05.03-.08.04v-.16h0ZM9.72,12.2s-.04-.05-.04-.08c0-.04.02-.06.04-.08.04-.03.11-.05.19-.05.02,0,.02,0,.04,0v.29c-.12-.03-.2-.06-.23-.08h0ZM10.05,12.59s.02,0,.02,0c.04.02.06.03.08.05h-.11v-.06h0ZM9.95,12.74v.18s-.01,0-.02,0c-.08,0-.15-.02-.2-.06-.03-.03-.06-.07-.07-.12h.29,0ZM9.38,12.74c.02.12.07.22.15.29.09.08.22.12.39.12,0,0,.01,0,.02,0v.09c-.26,0-.51.05-.76.13-.1-.2-.18-.41-.25-.63,0,0,.44,0,.44,0ZM8.84,12.74c.07.23.16.45.26.66-.15.05-.29.11-.42.19-.01,0-.03.01-.04.02h-.01c-.07-.04-.14-.09-.2-.14-.02-.03-.03-.07-.05-.1-.09-.19-.17-.4-.23-.63,0,0,.69,0,.69,0ZM7.47,11.46h.38s0,.04,0,.07c0,.02,0,.03,0,.05,0,.36.06.72.16,1.07h-.28v.02c-.2-.36-.32-.77-.32-1.21h.05,0ZM7.77,12.74h.27c.05.18.12.35.19.51.02.03.03.07.05.1-.2-.18-.37-.38-.5-.61h0Z" style="fill: #201b4e;"/>
  </g>
  <g>
    <path d="M14.01,8.54v4.33s-.84,2.98-3.89,2.98c-.62,0-3.25-.06-4.12-2.98v-4.45h-.71v4.45c0,.16.49,3.29,4.71,3.7,0,0,3.58.1,4.8-3.7v-4.33s-.79,0-.79,0Z" style="fill: #2ba0da;"/>
    <path d="M7.83,12.74h-.06c.14.23.3.44.5.61-.02-.03-.03-.07-.05-.1-.07-.16-.14-.33-.19-.51h-.21,0Z" style="fill: #2ba0da;"/>
    <path d="M11.19,12.65h.71c.09-.37.15-.77.16-1.11,0-.02,0-.05,0-.07h-.68s0,.03,0,.04c0,.03,0,.05,0,.08h0c0,.36-.07.72-.17,1.07Z" style="fill: #2ba0da;"/>
    <path d="M9.95,12.65v-.08s-.06-.02-.1-.03c-.15-.04-.25-.08-.31-.13-.08-.07-.13-.17-.13-.27,0-.07.02-.13.06-.2.04-.06.1-.1.17-.14.07-.03.16-.05.27-.05.01,0,.02,0,.04,0v-.31h-1.2s0,.04,0,.06c0,.38.07.76.17,1.12h1.04Z" style="fill: #2ba0da;"/>
    <path d="M9.95,13.15s-.01,0-.02,0c-.17,0-.3-.04-.39-.12-.08-.07-.13-.17-.15-.29h-.44c.07.22.15.43.25.63.24-.08.5-.12.76-.13,0,0,0-.09,0-.09Z" style="fill: #2ba0da;"/>
    <path d="M8.82,12.65c-.1-.35-.16-.71-.17-1.07h0s0-.04,0-.06c0-.02,0-.04,0-.06h-.69s0,.04,0,.06c0,.36.07.75.17,1.12h.7Z" style="fill: #2ba0da;"/>
    <path d="M11.07,12.74h-.59c0,.07-.02.14-.06.21-.04.07-.1.12-.18.15-.05.02-.11.02-.18.03v.11c.26,0,.52.05.76.13.1-.2.18-.41.25-.63Z" style="fill: #2ba0da;"/>
    <path d="M9.54,13.93c.13.02.27.04.41.04h0v-.63c-.24,0-.48.05-.71.12.09.17.19.33.3.47,0,0,0,0,0,0Z" style="fill: #2ba0da;"/>
    <path d="M10.07,12.6s-.02,0-.02,0v.06h.11s-.04-.03-.08-.05h0Z" style="fill: #2ba0da;"/>
    <path d="M11.99,12.65h.27v.03c.2-.36.32-.77.32-1.21h-.43s0,.03,0,.05c0,.02,0,.05,0,.07h0c0,.36-.06.72-.16,1.07h0Z" style="fill: #2ba0da;"/>
    <path d="M10.42,12.52s.02.08.03.13h.64c.1-.36.17-.74.17-1.12,0-.02,0-.04,0-.06h-1.21v.32c.1.02.19.04.25.09.09.07.13.17.14.3h-.27c-.01-.06-.04-.11-.08-.14,0,0-.03,0-.04,0v.29c.09.02.17.05.22.08.06.03.12.08.15.13h0Z" style="fill: #2ba0da;"/>
    <path d="M10.61,13.89s0,0,0,0c.13-.03.26-.07.38-.12,0,0,.02,0,.03-.01.08-.03.16-.07.23-.11,0,0,0,0-.02,0-.12-.06-.24-.11-.36-.16-.08.14-.16.28-.26.4Z" style="fill: #2ba0da;"/>
    <path d="M9.02,13.78c.12.05.25.09.38.12,0,0,0,0,0,0-.09-.13-.18-.26-.26-.41-.12.04-.25.1-.36.16,0,0,0,0-.01,0,.07.04.15.07.22.1.01,0,.02.01.04.02h0Z" style="fill: #2ba0da;"/>
    <path d="M9.95,12.74h-.29s.04.09.07.12c.05.04.11.06.2.06,0,0,.01,0,.02,0v-.18h0Z" style="fill: #2ba0da;"/>
    <path d="M10.47,13.93c.11-.14.21-.3.3-.47-.23-.07-.47-.12-.71-.12v.63h0c.14,0,.27-.02.41-.04h0Z" style="fill: #2ba0da;"/>
    <path d="M9.73,12.03s-.04.05-.04.08c0,.03.01.06.04.08.03.03.11.05.23.08v-.29s-.02,0-.04,0c-.08,0-.14.02-.19.05h0Z" style="fill: #2ba0da;"/>
    <path d="M10.2,12.74h-.15v.16s.06-.02.08-.04c.04-.03.06-.08.07-.12h0Z" style="fill: #2ba0da;"/>
    <path d="M7.73,12.65h.28c-.09-.34-.15-.71-.16-1.07h0s0-.03,0-.05c0-.02,0-.04,0-.07h-.43c0,.44.12.85.32,1.21v-.02h0Z" style="fill: #2ba0da;"/>
    <path d="M8.43,13.48c.07.05.13.1.2.14h.01s.03-.02.04-.03c.13-.08.28-.14.42-.19-.1-.21-.19-.43-.26-.66h-.69c.07.23.14.44.23.63.02.03.03.07.05.1Z" style="fill: #2ba0da;"/>
    <path d="M11.36,13.62h.01c.06-.03.12-.08.18-.12.03-.04.06-.08.09-.13.08-.16.16-.38.23-.62h-.7c-.07.23-.16.45-.26.66.14.05.28.11.42.19.01,0,.03.01.04.02h0Z" style="fill: #2ba0da;"/>
    <path d="M12.17,12.74h-.21c-.05.18-.12.35-.19.51-.02.03-.03.07-.05.1.2-.18.36-.38.5-.61h-.06Z" style="fill: #2ba0da;"/>
  </g>
  <g>
    <path d="M16.85,7.86s.19-.02.22-.21c0-.05-.05-.27-.19-.41,0,0-.37.5-.03.62Z" style="fill: #fff;"/>
    <path d="M3.2,7.19s-.26.51.03.66c.05,0,.14-.05.14-.26,0-.07-.07-.29-.17-.39h0Z" style="fill: #fff;"/>
    <path d="M15.85,14.24c-.07-.04-.14-.04-.19-.03-.05.02-.1.06-.13.14l-.04.07.42.2.02-.04c.03-.06.05-.12.05-.15,0-.04,0-.08-.03-.11-.02-.03-.06-.06-.11-.09h0Z" style="fill: #fff;"/>
    <path d="M3.27,12.28c.14-.03.24-.06.3-.1.06-.04.1-.08.13-.13.02-.05.02-.09.01-.15-.02-.1-.09-.16-.19-.19-.09-.02-.21-.02-.36.01-.18.04-.3.1-.38.18-.05.06-.07.12-.05.2.01.05.03.09.07.12.04.04.1.06.18.07.08,0,.17,0,.29-.02h0Z" style="fill: #fff;"/>
    <path d="M3.67,13.25s.09,0,.14-.01c.08-.03.13-.06.16-.11.02-.05.02-.11,0-.19l-.03-.08-.44.14v.04c.04.07.06.12.08.15.02.03.06.05.1.06h0Z" style="fill: #fff;"/>
    <path d="M10,.46C5.66.46,2.15,4.73,2.15,10s3.52,9.54,7.85,9.54,7.86-4.27,7.86-9.54S14.34.46,10,.46ZM16.95,7.02c.09.23.45.76,0,1.01v.1h.18v1.48h-.6v-1.48h.23v-.1s-.49-.38.19-1.01ZM16.23,5.47s.02-.02.03-.04c0-.02,0-.05-.01-.08v-.03s.01,0,.01,0l.3.75-.27.11v-.02c.05-.04.09-.08.11-.11.02-.03.03-.08.02-.12,0-.03-.02-.08-.04-.14l-.04-.09-.37.15v.02c.03.06.07.09.11.1.05,0,.11,0,.18-.01v.02s-.47.19-.47.19v-.02s.08-.06.1-.08c.03-.03.04-.06.04-.09s0-.06-.02-.1l-.26.1s-.08.03-.09.04c0,0-.01.02-.02.03,0,.02,0,.04.01.06l.02.05c.04.08.08.14.14.18.06.03.13.05.22.04v.03s-.29.07-.29.07l-.32-.78h.02s.01.02.01.02c.01.03.02.05.04.06.01,0,.03.01.04.01.01,0,.04,0,.09-.03l.6-.24s.07-.03.07-.03h0ZM15.59,4.35c.14.04.25.13.32.26.02.04.04.08.06.12,0,.02.01.05.02.1s.01.08.02.09c0,0,.02.02.03.03.01,0,.03,0,.06,0v.02s-.29.17-.29.17v-.02c.05-.07.09-.15.1-.23.01-.08,0-.15-.04-.22-.04-.06-.08-.1-.14-.13-.06-.02-.13-.02-.2,0-.07.02-.14.05-.21.08-.08.05-.15.09-.2.15-.05.05-.08.11-.08.17,0,.06.01.12.04.18.01.02.03.04.04.06.02.02.04.04.06.06l.18-.1s.05-.03.06-.04.01-.02.01-.04,0-.04-.02-.06v-.02s.01-.01.01-.01l.23.41h-.02s-.04-.04-.05-.04c-.01,0-.03-.01-.05,0-.01,0-.03,0-.06.03l-.18.1c-.06-.04-.11-.09-.15-.14-.05-.05-.09-.11-.12-.17-.05-.08-.07-.15-.08-.22,0-.07,0-.13,0-.19.01-.06.04-.11.07-.16.04-.06.1-.11.17-.15.13-.07.26-.09.4-.05h0ZM14.83,3.14l-.02-.03.02-.02.27.34c.07.09.12.17.14.25.02.09.02.18-.02.26-.03.08-.09.16-.17.22-.05.04-.11.07-.17.09-.06.02-.11.02-.17.02-.05,0-.1-.02-.15-.04-.05-.02-.1-.06-.15-.1-.02-.02-.05-.05-.09-.1l-.27-.34.02-.02.02.03s.03.04.05.04c.02,0,.03,0,.05,0,.01,0,.04-.02.08-.05l.51-.39s.06-.05.07-.06c0-.01,0-.03,0-.05,0-.02-.01-.04-.03-.06h0ZM13.45,3.02s.03-.02.07-.06l.44-.47s.05-.05.05-.06c0-.01.01-.03,0-.05,0-.02-.02-.04-.04-.07l-.02-.02.02-.02.6.56-.2.21-.02-.02c.04-.06.06-.11.06-.15,0-.04,0-.08-.03-.12-.01-.02-.05-.06-.1-.11l-.08-.07-.27.29h.01c.05.05.09.07.14.06.05-.01.1-.04.16-.09l.02.02-.35.37-.02-.02s.06-.08.07-.12c.01-.04.01-.07,0-.1-.01-.03-.03-.05-.06-.09l-.19.2s-.06.06-.06.08c0,.01,0,.03,0,.04,0,.01.02.03.04.05l.04.04c.07.06.14.1.2.1.07,0,.14-.01.22-.06l.02.02-.24.19-.62-.57.02-.02.02.02s.04.03.06.04c.01,0,.03,0,.04,0h0ZM12.97,1.59l.44.28-.02.02-.03-.02s-.05-.02-.07-.03c-.01,0-.03,0-.04.01-.01,0-.03.03-.06.07l-.34.52s-.04.07-.05.08c0,.01,0,.03.01.04,0,.01.03.03.07.05l.07.04s.09.04.12.05c.04,0,.08,0,.12-.02.04-.02.1-.05.16-.11l.02.02-.22.27-.73-.47v-.02s.04.02.04.02c.02.02.05.02.07.02.01,0,.03,0,.04-.01.01,0,.03-.03.06-.07l.35-.53s.04-.07.05-.08c0-.01,0-.03-.01-.05,0-.02-.02-.03-.05-.05l-.03-.02v-.02s.02,0,.02,0ZM11.31.92l.4.14v.02s-.06-.01-.08,0c-.01,0-.02.01-.03.03,0,.02,0,.06,0,.12l.02.51.27-.3v-.11c0-.06,0-.1-.01-.12,0-.02-.01-.04-.03-.05s-.03-.02-.06-.03v-.02s.45.16.45.16v.03s-.06-.02-.08-.02c-.01,0-.02,0-.03,0,0,0-.01.01-.02.02,0,.01,0,.05,0,.11v.49s.31-.34.31-.34c.03-.03.05-.06.06-.07,0-.01.02-.03.02-.04,0-.02,0-.03,0-.05,0-.01-.03-.03-.07-.04v-.02s.25.08.25.08v.03s-.04,0-.06,0c-.01,0-.03.01-.04.03,0,0-.03.03-.08.09l-.56.65h-.02s-.02-.68-.02-.68l-.46.5h-.03s-.03-.86-.03-.86c0-.09,0-.14-.01-.16,0-.02-.03-.04-.05-.05v-.03s0,0,0,0ZM10.03.93c.11-.09.23-.13.37-.11.16,0,.28.06.37.16s.13.23.12.37c0,.12-.05.23-.13.32-.1.12-.24.17-.42.16-.17-.01-.31-.08-.4-.2-.07-.1-.1-.21-.09-.34,0-.14.07-.26.17-.35h0ZM8.86.94l.58.51-.07-.41c0-.06-.02-.09-.04-.11-.03-.03-.07-.03-.12-.02v-.03s.31-.06.31-.06v.03s-.06.02-.07.03c-.01.01-.02.02-.03.04s0,.05,0,.1l.14.8h-.03s-.79-.68-.79-.68l.11.61c0,.06.03.09.06.11.03.01.06.02.09.01h.02s0,.02,0,.02l-.34.06v-.03s.08-.03.1-.05c.02-.03.02-.06.01-.11l-.12-.67-.02-.02s-.05-.03-.06-.04c-.02,0-.04,0-.07,0v-.03s.34-.06.34-.06h0ZM7.65,1.32v.02s-.04.03-.05.04c0,.01-.01.03-.01.04,0,.01,0,.04.03.09l.12.28.22-.41c.03-.06.04-.1.03-.12,0-.02-.02-.03-.05-.03-.01,0-.04,0-.08.02v-.02s.34-.15.34-.15v.03s-.04.03-.06.05-.04.06-.08.14l-.18.32.49.26c.07.04.12.06.16.06.03,0,.06,0,.08-.01v.02s-.46.2-.46.2v-.02s.03-.03.04-.04c0-.01,0-.02,0-.03,0-.02-.04-.04-.11-.08l-.32-.17-.02.04.11.24s.03.07.05.08c0,.01.02.01.04.02.02,0,.04,0,.08-.02v.02s-.45.19-.45.19v-.02s.02-.01.02-.01c.03-.01.05-.03.06-.04,0-.01.01-.03.01-.04,0-.01,0-.04-.03-.09l-.25-.59s-.03-.07-.04-.08c0-.01-.02-.02-.04-.02-.02,0-.04,0-.07.01h-.03s-.01-.01-.01-.01l.45-.19h0ZM6.11,2.26l.02.02s-.04.04-.05.06c0,.01,0,.03,0,.04,0,.01.02.04.05.08l.19.24.1-.45c.01-.06.01-.1,0-.12-.01-.01-.03-.02-.05-.01-.01,0-.04.02-.07.04l-.02-.02.3-.24.02.02s-.04.04-.05.06c0,.02-.02.07-.04.16l-.08.36.54.12c.08.02.14.02.18.02.03,0,.06-.01.08-.03l.02.02-.4.32-.02-.02s.04-.04.04-.05c0-.01,0-.02,0-.03-.01-.02-.05-.03-.12-.05l-.35-.08v.05s.16.21.16.21c.03.04.05.06.07.07s.03,0,.05,0c.02,0,.04-.02.07-.04l.02.02-.38.31-.02-.02.03-.02s.04-.04.04-.05c0-.01,0-.03,0-.04,0-.01-.02-.04-.05-.07l-.4-.5s-.05-.06-.06-.07c-.01,0-.03-.01-.05,0-.02,0-.04.01-.06.03l-.03.02-.02-.02.38-.3h0ZM5.5,2.81l.21.19-.02.02c-.06-.04-.11-.06-.15-.06-.04,0-.08.01-.12.03-.03.01-.06.05-.11.1l-.07.07.3.26v-.02c.05-.05.07-.09.06-.14,0-.05-.04-.1-.09-.15l.02-.02.38.34-.02.02s-.09-.05-.13-.06c-.04,0-.07,0-.1,0s-.05.03-.08.07l.21.18s.06.06.08.06c.01,0,.03,0,.04,0,.01,0,.03-.02.05-.04l.04-.04c.06-.07.09-.14.1-.2,0-.07-.02-.14-.06-.22l.02-.02.2.24-.56.63-.02-.02.02-.02s.03-.04.03-.06c0-.01,0-.03,0-.05,0,0-.02-.03-.06-.07l-.48-.43s-.05-.05-.06-.05c-.02,0-.03,0-.05,0-.02,0-.04.02-.07.04l-.02.02-.02-.02.55-.61h0ZM4.77,3.66l.24.16-.02.02c-.07-.03-.12-.04-.16-.04-.04,0-.08.02-.12.05-.02.02-.06.06-.1.12l-.06.08.33.22v-.02c.05-.05.05-.1.04-.14-.02-.04-.05-.09-.11-.14l.02-.02.42.29-.02.02c-.05-.03-.09-.04-.13-.05-.04,0-.07,0-.1.01-.02.01-.05.04-.07.08l.23.16s.07.05.08.05c.01,0,.03,0,.04,0,.01,0,.03-.02.04-.04l.03-.05c.05-.08.07-.15.07-.22,0-.07-.03-.14-.09-.2l.02-.02.23.21-.48.69h-.02s.02-.04.02-.04c.02-.02.02-.05.03-.06,0-.01,0-.03-.01-.04,0,0-.03-.03-.07-.06l-.53-.36s-.06-.04-.07-.04c-.02,0-.03,0-.05,0-.02,0-.04.02-.06.05l-.02.03-.02-.02.46-.67h0ZM4.01,4.84s.03-.05.05-.08c.01-.02.04-.04.07-.06s.05-.04.05-.05c0,0,0-.02,0-.03s-.02-.02-.04-.04v-.02s.3.14.3.14l-.02.03c-.08-.03-.15-.03-.22,0s-.12.06-.15.12c-.02.04-.03.08-.02.12,0,.04.03.06.06.08.02,0,.04.01.06.01.03,0,.06,0,.09-.03.03-.01.07-.04.15-.1.1-.07.19-.12.25-.13s.12,0,.18.03c.07.04.12.1.14.18.02.08,0,.17-.04.25-.01.03-.03.05-.05.07s-.04.05-.08.07c-.02.02-.03.03-.04.04,0,0,0,.02,0,.04,0,.02,0,.03.02.05v.02s-.34-.17-.34-.17v-.02c.11.03.2.03.28,0,.08-.03.13-.07.16-.13.03-.05.03-.09.02-.13,0-.04-.03-.07-.07-.09-.02,0-.04-.02-.07-.01-.02,0-.05,0-.08.02s-.07.04-.13.08c-.08.06-.14.1-.19.12-.05.02-.09.03-.13.03s-.09,0-.13-.03c-.07-.04-.11-.09-.14-.17s-.01-.15.03-.23h0ZM10.01,2.21c3.34,0,6.05,3.51,6.05,7.83s-2.71,7.84-6.05,7.84-6.05-3.51-6.05-7.84,2.71-7.83,6.05-7.83ZM2.92,8h.17v-.09s-.05-.02-.07-.05c-.18-.32.02-.64.16-.88.66.61.17.95.17.95v.07h.16v1.46h-.59v-1.45ZM2.51,11.24l.81-.81-.68.07c-.06,0-.1.02-.12.06-.02.03-.03.06-.02.1v.03h-.02s-.04-.37-.04-.37h.03c0,.05.02.09.05.11.03.02.07.03.12.02l.75-.08.03-.02s.04-.05.05-.07c0-.02,0-.04,0-.08h.03l.04.37-.6.59.46-.05c.06,0,.11-.02.13-.04.03-.03.04-.07.03-.13h.03s.04.34.04.34h-.03s-.02-.07-.03-.08c-.01-.01-.03-.02-.05-.03s-.06,0-.11,0l-.89.1v-.03s0,0,0,0ZM2.67,12.12c-.04-.19,0-.35.1-.47.08-.1.2-.17.33-.2.16-.03.3,0,.42.08.13.08.2.2.23.36.04.17.02.31-.06.44-.08.12-.2.2-.36.24-.13.03-.26.02-.38-.04-.16-.07-.26-.2-.29-.39ZM3.24,13.79s0,.05,0,.08h-.03s-.11-.31-.11-.31l.36-.48-.02-.07-.28.09c-.06.02-.09.03-.1.05-.01.01-.02.02-.02.05,0,.02,0,.05.02.1h-.03s-.17-.51-.17-.51h.03s.03.07.04.08c.01.01.03.02.04.02s.05,0,.11-.02l.66-.21c.05-.02.09-.03.1-.04.01-.01.02-.03.02-.05,0-.02,0-.05-.02-.1h.03s.15.46.15.46c.04.12.06.22.06.28,0,.06-.01.12-.05.17s-.08.09-.14.11c-.08.02-.15.02-.21-.02-.04-.02-.08-.07-.12-.12l-.26.35s-.05.08-.06.09ZM3.58,14.63v.03s-.01.01-.01.01l-.23-.51h.03s.02.02.02.02c.01.03.03.05.05.06.01.01.03.02.05.01.01,0,.04-.01.09-.03l.75-.34-.03-.07c-.03-.07-.06-.11-.11-.12-.06-.02-.12-.03-.2,0v-.03s.25-.12.25-.12l.39.87-.26.12v-.03s.08-.08.1-.11c.02-.03.03-.06.03-.11,0-.02,0-.05-.03-.1l-.03-.07-.76.34c-.05.02-.08.04-.09.05-.01.01-.02.03-.02.05,0,.02,0,.05.02.07h0ZM4.34,15.98l.02.03h-.03s-.29-.46-.29-.46l.03-.02.02.03s.03.05.05.06c.01,0,.03.01.05,0,.01,0,.04-.02.09-.04l.29-.17-.19-.32-.29.17s-.07.05-.08.06c0,.01-.01.03-.01.05s0,.04.02.07l.02.03-.03.02-.29-.48h.03s.02.02.02.02c.02.03.03.04.05.06.01,0,.03.01.05,0,.01,0,.04-.02.09-.04l.6-.36s.08-.05.08-.06c0-.01.01-.03.01-.05s0-.04-.02-.07l-.02-.03.03-.02.29.48h-.03s-.02-.02-.02-.02c-.02-.03-.03-.05-.05-.05-.01,0-.03-.01-.05,0-.01,0-.04.02-.09.04l-.26.16.19.32.26-.15s.07-.05.08-.06c0-.01.01-.03.01-.05s0-.04-.02-.07l-.02-.03h.03s.29.46.29.46l-.03.02-.02-.03s-.03-.05-.05-.05c-.01,0-.03-.01-.05-.01-.01,0-.04.02-.09.04l-.6.36s-.07.05-.08.06c0,.01-.01.03-.01.05,0,.02,0,.04.02.07h0ZM5.72,17.18c-.06.06-.15.09-.24.08-.09,0-.18-.05-.25-.12-.02-.02-.04-.05-.06-.08-.01-.03-.03-.06-.05-.11-.01-.03-.02-.04-.03-.06,0,0-.02-.02-.04-.02-.02,0-.04,0-.06,0l-.02-.02.29-.28.02.02c-.07.09-.1.18-.1.27,0,.09.03.16.08.22.04.04.08.07.13.07s.09-.01.12-.04c.02-.02.03-.04.04-.06,0-.03.01-.06,0-.09,0-.03-.02-.09-.04-.16-.03-.1-.05-.18-.06-.23,0-.05,0-.1.01-.15.02-.04.04-.09.08-.12.06-.06.14-.08.22-.08s.16.04.23.11c.02.02.04.05.06.08.01.02.02.05.04.09s.02.06.03.07c0,0,.02.02.03.02.01,0,.03,0,.06-.03l.02.02-.25.25-.02-.02c.05-.07.08-.15.08-.23,0-.08-.03-.15-.07-.2-.04-.04-.08-.06-.12-.06-.04,0-.08,0-.11.03-.02.02-.03.03-.03.05,0,.03,0,.06,0,.1,0,.03.02.09.05.19.04.13.06.23.05.3,0,.07-.04.13-.09.17h0ZM6.56,18.03c-.17.04-.33,0-.48-.11-.15-.12-.23-.26-.23-.43,0-.13.04-.25.13-.36.1-.12.22-.19.37-.21.15-.02.29.03.4.13.14.1.22.22.23.37.02.15-.02.28-.12.41-.08.11-.19.17-.32.21h0ZM9,18.45c0-.07,0-.12-.01-.15,0-.03-.03-.06-.06-.09-.02-.01-.05-.03-.1-.04l-.08-.02-.23.79c-.01.05-.02.09-.02.1,0,.01,0,.03.02.04.01.01.04.03.06.03h.03s0,.04,0,.04l-.54-.16v-.03s.04.01.04.01c.03,0,.06.01.08,0,.02,0,.03-.01.04-.03,0-.01.02-.04.04-.09l.23-.79-.07-.02c-.07-.02-.12-.02-.16,0-.05.03-.1.08-.13.15h-.03s.08-.28.08-.28v.02s-.03-.01-.03-.01c-.03-.01-.05-.02-.07-.02-.02,0-.04.01-.06.03-.01.01-.03.04-.05.08l-.19.36c-.06.11-.11.19-.15.23s-.1.07-.18.08c-.08.01-.17,0-.27-.06-.08-.04-.14-.09-.17-.13-.04-.06-.07-.12-.07-.18,0-.06.02-.13.06-.21l.24-.46c.03-.05.04-.09.04-.1s0-.03-.01-.05c-.01-.02-.04-.03-.08-.05v-.03s.5.25.5.25v.03s-.04-.01-.04-.01c-.04-.02-.06-.03-.08-.03-.02,0-.03,0-.05.02s-.03.04-.06.1l-.24.46c-.05.09-.07.14-.07.18,0,.03,0,.07.03.1.02.03.05.06.1.09.05.03.1.04.15.03.05,0,.09-.02.13-.05.04-.03.09-.1.14-.2l.2-.38s.03-.07.03-.1c0-.02,0-.04-.01-.06-.01-.02-.04-.04-.08-.06v-.03s.34.17.34.17h0s.92.26.92.26l-.08.28h-.03s0,0,0,0ZM10.3,18.31h-.03s-.06,0-.08.01c-.01,0-.03.02-.03.03,0,.01-.01.04-.02.1l-.05.69c0,.06,0,.09,0,.1,0,.01.02.03.03.04.02.01.04.02.07.02h.03v.03l-.56-.04v-.03h.04s.06,0,.08-.01c.01,0,.03-.02.03-.04,0-.01.01-.04.02-.1l.02-.33-.38-.02-.02.33c0,.05,0,.09,0,.1,0,.01.02.03.03.04.02.01.04.02.07.02h.04v.03l-.56-.04v-.03h.04s.06,0,.08,0c.01,0,.03-.02.03-.04,0-.01.01-.04.01-.1l.05-.7c0-.05,0-.09,0-.1,0-.01-.02-.03-.03-.04-.02-.01-.04-.02-.07-.02h-.04v-.03l.56.04v.03h-.04s-.06,0-.08,0c-.01,0-.02.02-.03.04,0,.01-.01.04-.02.1l-.02.3.38.03.02-.3c0-.05,0-.09,0-.1,0-.01-.02-.03-.03-.04-.02-.01-.04-.02-.07-.02h-.03v-.03l.56.04v.03h0ZM14.09,17.84l-1.11-.29.4.54c.04.05.07.07.11.08.04,0,.07-.01.1-.03h.02s.02.01.02.01l-.31.22-.02-.02s.07-.07.08-.1c0-.03,0-.07-.04-.12l-.45-.6h-.04s-.06-.02-.08-.02c-.02,0-.04.01-.07.03-.02.01-.04.03-.05.04-.01.02-.02.04-.02.07,0,.02,0,.05.03.09l.18.36c.05.11.09.2.1.25.01.06,0,.12-.04.19-.04.07-.11.13-.21.18-.08.04-.15.06-.21.06-.08,0-.14-.02-.19-.05-.05-.03-.09-.09-.13-.17l-.23-.47c-.03-.06-.05-.09-.06-.1-.01-.01-.03-.02-.05-.02-.02,0-.05,0-.09.03v-.03s.48-.24.48-.24v.03s-.01.01-.01.01c-.04.02-.06.04-.07.05,0,.01-.01.03-.01.05,0,.02.01.05.04.11l.23.47c.04.09.08.14.1.16.03.02.06.03.1.04.04,0,.08,0,.13-.03.05-.03.09-.06.12-.1.03-.04.04-.09.04-.14,0-.05-.03-.12-.08-.23l-.19-.39s-.04-.07-.06-.09c-.02-.01-.04-.02-.05-.02-.03,0-.06,0-.1.03v-.03s.29-.14.29-.14l.31-.22.82.22-.27-.37c-.04-.05-.07-.08-.1-.09-.04-.01-.08,0-.13.04l-.02-.02.28-.21.02.02s-.05.06-.06.07c0,.02-.01.04,0,.06,0,.02.02.05.05.09l.53.71-.02.02h0ZM14.31,17.62l-.02-.02.03-.02s.04-.04.04-.06c0-.01,0-.03,0-.05,0-.01-.02-.04-.06-.08l-.49-.51s-.06-.06-.08-.07c-.01,0-.03,0-.05,0-.02,0-.04.02-.06.04l-.02.03-.02-.02.4-.38.02.02-.03.02s-.04.04-.04.06c0,.01,0,.03,0,.05,0,.01.02.04.06.08l.48.51s.06.06.08.07.03,0,.05,0c.02,0,.04-.02.06-.04l.03-.03.02.02s-.41.38-.41.38ZM15.61,16.18l-.02-.02.02-.03s.03-.05.03-.07c0-.01,0-.03-.02-.05,0-.01-.03-.03-.08-.06l-.59-.38s-.07-.04-.08-.05c-.02,0-.04,0-.05,0-.02.01-.04.03-.06.06l-.02.03h0s-.03.08-.02.12c0,.03.03.1.08.19l.39.8-.02.02-.89-.26c-.11-.03-.17-.05-.2-.05-.02,0-.05.01-.08.04l-.02-.02.33-.39.02.02h-.01s-.05.08-.05.1c0,.01,0,.03.02.03,0,0,.02.01.03.02.01,0,.05.02.11.03l.56.17-.23-.46c-.03-.06-.05-.09-.06-.11-.01-.02-.02-.03-.03-.04-.01-.01-.02-.02-.04-.02-.01,0-.03,0-.04.01-.02.01-.05.03-.07.06l-.02-.02.22-.26h0l.48-.75.27.17-.02.03c-.07-.03-.13-.04-.18-.03-.04,0-.09.02-.13.06-.02.02-.06.06-.1.13l-.06.09.37.23v-.02c.05-.06.06-.11.04-.16-.02-.05-.06-.1-.13-.15l.02-.03.47.3-.02.03c-.05-.03-.1-.04-.15-.05-.04,0-.08,0-.1.02-.03.02-.05.05-.08.09l.25.16s.08.05.09.05c.01,0,.03,0,.04,0,.02,0,.03-.02.05-.05l.03-.05c.05-.08.08-.16.07-.24,0-.08-.04-.15-.11-.22l.02-.02.26.22-.5.77h0ZM16.58,14.5l-.59.1-.03.06.27.13c.05.03.09.04.1.04.02,0,.03,0,.05-.02.02-.01.03-.04.06-.08h.03s-.24.5-.24.5h-.03c.02-.06.03-.09.03-.11s0-.04-.02-.05c-.01-.01-.04-.03-.09-.06l-.63-.3c-.05-.02-.09-.04-.1-.04-.02,0-.03,0-.05.02-.02.01-.03.04-.06.08h-.03s.22-.46.22-.46c.06-.12.11-.2.15-.24.04-.04.09-.07.15-.09.06-.01.12,0,.18.02.07.03.12.09.14.16.01.05.01.1,0,.17l.44-.07c.06-.01.09-.02.11-.03.02-.01.04-.03.06-.06h.03s-.15.31-.15.31ZM16.93,13.72s-.03.06-.04.09c-.02.02-.04.06-.08.09-.02.02-.03.04-.04.05,0,.01,0,.03,0,.05,0,.02.02.03.03.05v.03s-.39-.14-.39-.14v-.03c.12.02.22,0,.3-.04.08-.04.13-.1.16-.17.02-.05.02-.1,0-.15-.02-.04-.05-.07-.09-.09-.03,0-.05-.01-.07,0-.03,0-.06.02-.09.03-.03.02-.07.05-.13.11-.08.07-.14.12-.19.15-.05.03-.09.05-.14.05-.05,0-.09,0-.14-.01-.08-.03-.14-.08-.17-.16-.03-.08-.03-.16,0-.25.01-.03.03-.06.05-.09.01-.02.03-.05.06-.07.03-.03.04-.05.05-.06,0-.01,0-.03,0-.04s-.02-.02-.05-.04v-.02s.35.11.35.11v.03c-.1-.02-.18,0-.25.03-.07.04-.12.09-.14.15-.02.05-.02.09,0,.13.02.04.04.06.08.08.02,0,.05.01.07,0,.03,0,.06-.02.09-.04.02-.02.07-.06.15-.13.1-.09.19-.15.25-.18.07-.02.13-.02.2,0,.08.03.14.09.18.18.04.09.04.18,0,.28h0ZM17.07,13.24h-.03s.01-.04.01-.04c0-.03.01-.05,0-.07,0-.02-.01-.03-.03-.04-.01,0-.04-.02-.09-.04l-.68-.19c-.05-.02-.09-.02-.1-.02-.01,0-.03.01-.04.02-.01.01-.03.04-.03.06v.03s-.04,0-.04,0l.16-.53h.03s-.01.04-.01.04c-.01.03-.01.06,0,.08,0,.01.01.03.03.04.01,0,.04.02.09.04l.68.2c.05.02.09.02.1.02.02,0,.03-.01.05-.02.01-.01.03-.03.03-.06v-.03s.04,0,.04,0l-.16.53h0ZM17.31,12.38h-.03s0-.04,0-.04c0-.03,0-.05,0-.08,0-.02-.01-.03-.03-.04-.01,0-.04-.02-.1-.03l-.81-.17v.07c-.03.07-.03.12,0,.16.03.05.09.09.16.12v.03s-.29-.06-.29-.06l.2-.93.28.06v.03c-.08,0-.13,0-.16.03-.03.01-.06.04-.09.07-.01.02-.03.05-.04.1l-.02.08.81.17c.05.01.09.01.1.01.02,0,.03,0,.04-.03.01-.01.02-.04.03-.07v-.04s.04,0,.04,0l-.12.54h0ZM17.5,11.25v-.06s0-.06,0-.08c0-.01-.02-.03-.03-.04-.01,0-.04-.01-.1-.02l-.21-.02-.48.19c-.1.04-.15.07-.17.09-.02.02-.03.05-.03.08h-.03l.06-.51h.03v.03s0,.05,0,.07c0,.01.02.02.03.02.02,0,.07-.01.15-.05l.37-.15-.3-.23c-.07-.06-.12-.09-.15-.09-.01,0-.03,0-.04.01-.02.02-.03.05-.03.1h-.03s.04-.33.04-.33h.03s0,.07.02.09c.02.03.07.08.17.14l.36.27.26.03c.05,0,.09,0,.1,0s.03-.01.04-.03c.01-.01.02-.04.02-.06v-.06s.04,0,.04,0l-.07.59h-.03s0,0,0,0Z" style="fill: #fff;"/>
    <path d="M10.35,1.77s.09,0,.13-.03c.04-.03.08-.07.11-.14.03-.07.04-.15.05-.26,0-.13,0-.23-.02-.29-.02-.07-.05-.11-.08-.14-.03-.03-.08-.04-.13-.05-.09,0-.16.03-.21.12-.04.07-.07.18-.08.32-.01.17.01.29.06.37.04.06.09.09.17.09h0Z" style="fill: #fff;"/>
    <path d="M6.47,17.07c-.08.04-.17.12-.27.24-.11.14-.17.27-.18.37,0,.08.03.14.09.19.04.03.08.05.13.05.06,0,.12-.02.19-.06.07-.04.14-.11.21-.2.09-.11.14-.2.17-.27.02-.07.03-.13.01-.18-.02-.05-.04-.09-.08-.12-.08-.06-.17-.07-.27-.02Z" style="fill: #fff;"/>
    <path d="M14.36,3.94s0,.02,0,.03c0,.01.01.03.03.05.05.06.11.09.18.09.09,0,.2-.05.33-.14.1-.08.17-.15.2-.23.03-.06.03-.12.02-.17-.01-.04-.04-.09-.09-.15l-.6.47s-.05.04-.06.05h0Z" style="fill: #fff;"/>
    <path d="M9.77,8.06c0-.07-.02-.13-.04-.18-.01-.03-.03-.05-.06-.07-.01,0-.03,0-.05,0-.02,0-.04.01-.05.03-.01.03-.02.07,0,.13.02.1.04.17.07.21.02.02.05.03.08.03.02,0,.06-.01.06-.02.01-.02,0-.08,0-.11Z" style="fill: #fff;"/>
    <path d="M10.45,8.08c0-.07,0-.13,0-.19,0-.03-.02-.06-.04-.08-.01,0-.03-.02-.05-.02-.02,0-.04,0-.06.02-.02.02-.03.06-.04.12,0,.1,0,.17.03.21.02.03.04.04.07.05.02,0,.06,0,.07-.01.02-.01.02-.08.02-.11h0Z" style="fill: #fff;"/>
    <path d="M10.01,17.52c3.19,0,5.77-3.35,5.77-7.48s-2.58-7.47-5.77-7.47-5.77,3.35-5.77,7.47,2.59,7.48,5.77,7.48ZM7.42,3.77s1-.61,2.6.35c.27-.17,1.26-.84,2.77-.38v2.74s-2.47-.59-2.54.61h-.33s.15-.86-2.5-.72v-2.61h0ZM11.01,8.53s.07.02.08.02c.01,0,.03,0,.04,0,.01,0,.03-.01.05-.03,0,0,.01,0,.02,0-.05.07-.08.11-.13.18-.17-.07-.26-.09-.44-.13,0,0,0,0,0-.01.17-.13.3-.2.35-.24.05-.04.08-.09.1-.14.01-.04,0-.07-.01-.1-.02-.03-.05-.06-.09-.07-.07-.02-.13,0-.18.04-.01,0-.02,0-.02,0,.04-.06.09-.11.15-.13.06-.02.12-.02.19,0,.05.01.09.04.12.07.03.03.05.07.06.1,0,.04,0,.07,0,.09-.02.04-.06.08-.1.12-.07.05-.19.1-.36.18.07.02.1.03.17.05h0ZM10.34,8.25s-.04,0-.06,0c-.06,0-.12-.03-.16-.07-.04-.04-.07-.1-.07-.17,0-.05.01-.1.04-.14.03-.04.07-.07.12-.09.05-.02.11-.03.16-.02.06,0,.11.03.16.06.05.03.08.08.1.13.02.05.02.11.01.17-.02.08-.05.15-.11.21-.05.07-.12.11-.21.15-.08.04-.18.05-.28.05h0c.07-.03.12-.05.17-.07.05-.02.09-.05.12-.09.03-.04.07-.13.07-.13,0,0-.05.01-.07.02h0ZM9.7,8.25s-.04,0-.06.01c-.06,0-.12,0-.17-.04-.05-.03-.08-.08-.1-.15,0-.05,0-.1.01-.14.02-.05.05-.08.1-.11.05-.03.1-.05.15-.05s.11,0,.17.02c.05.02.09.06.13.1.03.05.04.1.05.16,0,.08-.02.16-.06.23-.04.07-.1.13-.17.19-.08.05-.16.09-.27.11v-.02c.06-.03.11-.05.15-.09.04-.03.07-.07.1-.12.02-.04.04-.15.04-.15,0,0-.05.03-.06.03h0ZM9.02,8.53c-.05-.15-.08-.22-.13-.37-.01-.03-.02-.05-.03-.06,0,0-.02,0-.03-.01-.01,0-.03,0-.04,0-.02,0-.05.02-.08.05,0,0-.01,0-.02-.02.11-.1.17-.15.3-.24,0,0,.01,0,.02,0,.07.24.11.36.17.59.01.04.02.07.03.08,0,0,.02.02.03.02.02,0,.04,0,.07,0,0,0,0,0,.02,0,0,0,0,.01,0,.02-.16.04-.24.07-.39.13,0,0,0-.01,0-.02,0,0,.01,0,.02,0,.03-.01.05-.02.06-.04,0-.01.02-.02.02-.04,0-.01,0-.04-.02-.09h0ZM7.57,10.45h0l.04-.1h0c.21-.43.53-.8.93-1.07h0l.07-.05c.11-.07.23-.13.35-.18.02,0,.03-.01.05-.02.13-.05.26-.09.39-.12.04,0,.08-.02.12-.03.16-.03.31-.05.47-.05s.32.02.47.05c.04,0,.08.02.12.02.14.03.27.07.4.12.01,0,.03,0,.04.02.12.05.24.11.35.18l.07.04h0c.4.27.72.64.93,1.07h0l.04.1h0c.13.31.21.65.21,1.01,0,.8-.37,1.51-.95,1.99,0,0,0,.01,0,.02h-.02c-.08.07-.15.13-.23.19h0s-.07.05-.07.05c-.11.06-.22.12-.34.17h0c-.14.06-.29.1-.44.13-.04,0-.08.02-.11.02-.16.03-.31.05-.47.05s-.32-.02-.47-.05c-.04,0-.08-.02-.12-.02-.14-.03-.29-.07-.42-.13,0,0,0,0-.01,0-.11-.05-.23-.1-.33-.17l-.07-.04h0c-.08-.05-.15-.11-.22-.17l-.03-.02h0c-.58-.49-.96-1.2-.96-2.01,0-.36.07-.7.21-1.01h0ZM6.2,8.42h.93v4.45s.85,1.89,2.92,1.89c.33,0,1.91.08,2.91-1.99v-4.24h.91v.87h-.15v3.47s-.88,2.56-3.71,2.61c-.42,0-2.54.04-3.64-2.61,0-1.73-.02-3.57-.02-3.57h-.16v-.88h0ZM5.29,12.87v-4.45h.71v4.45c.87,2.92,3.49,2.98,4.12,2.98,3.05,0,3.89-2.98,3.89-2.98v-4.33h.79v4.33c-1.22,3.8-4.8,3.7-4.8,3.7-4.22-.42-4.71-3.54-4.71-3.7Z" style="fill: #fff;"/>
    <path d="M8.44,4.48s0,.05,0,.06c0,.02.01.04.02.05.01.02.03.03.03.04.01,0,.03.01.05.01.03,0,.05-.02.06-.05,0,0,0-.02,0-.03,0,0,0-.02-.01-.02h0s0,0,0,0c-.01.02-.03.02-.04.02-.01,0-.02,0-.03,0,0,0-.01-.02-.01-.03,0-.02,0-.03.02-.04.01,0,.03-.02.05-.02.04,0,.06.02.08.05,0,.02,0,.04,0,.05v.07s.05-.17.05-.17h-.29.03s0,.01,0,.01Z" style="fill: #fff;"/>
    <path d="M8.48,5.44s.06.04.07.07l.03-.12s-.05.02-.07.03c0,0-.02,0-.03.02h0Z" style="fill: #fff;"/>
    <path d="M9.36,4.79s.01.03.01.05c0,0,0,.02,0,.03v.04s.05-.17.05-.17h-.14s.06.02.08.05Z" style="fill: #fff;"/>
    <path d="M9.95,4.56c-.6-.71-2.06-.59-2.06-.59v1.99c1.58,0,2.06.35,2.06.35v-1.75h0ZM8.7,5.37s.03.05.03.07c0,.03,0,.06-.03.08-.01.01-.03.02-.05.02,0,0-.02,0-.03-.01,0,0-.01-.01-.01-.03,0-.02,0-.03.03-.05,0,0,.01,0,.02,0,0,0,.02,0,.02,0,0,0,0-.02-.01-.03-.01-.02-.03-.02-.05-.02l-.05.26-.02-.03s0-.03,0-.03c0,0,0-.02-.02-.03-.02-.04-.06-.06-.1-.06l-.04-.06c.07-.05.14-.08.2-.1h0s-.19-.01-.19-.01l-.04-.05h.39l.04.05h-.15s.04.02.06.04h0ZM8.75,4.47l-.07.34-.02-.04s0-.04-.02-.08c0,0,0-.01-.02-.03-.03.03-.06.04-.09.04s-.06-.01-.08-.04c0,0-.02-.02-.03-.05,0-.02-.01-.04-.02-.07,0-.03,0-.05,0-.07h0l-.04-.05h.41l.04.05h-.07ZM9.47,5.49l-.07.33-.02-.03s0,0,0-.02c0-.04-.02-.06-.04-.08-.03-.02-.06-.03-.09-.03l-.05-.09s.04,0,.04,0c.02,0,.04,0,.07-.01.03,0,.05-.03.05-.04,0,0,0-.01,0-.02l-.02.02s-.06.03-.09.03c-.01,0-.02,0-.03-.01,0,0-.01-.01-.01-.03,0-.02,0-.03.02-.04,0,0,.02-.02.04-.02.02,0,.03,0,.03.03h0s.03-.02.06-.05c.02.02.04.04.04.04,0,.01.02.03.02.04,0,.04-.03.07-.08.09.02.02.04.04.06.06l.07-.3.03.02s0,0,0,.02c0,0,0,.02,0,.02,0,0,0,0,.02,0l.04.05h-.06,0ZM9.58,4.74l-.07.34-.04-.05.05-.24v-.02s0-.02-.01-.03c0,0-.02,0-.03,0h-.02l-.07.34-.02-.04s0-.05-.02-.08c0,0,0-.02-.02-.03-.03.03-.06.04-.09.04s-.06-.01-.08-.04c0,0-.02-.03-.03-.05,0-.02-.01-.04-.02-.07,0-.03,0-.06,0-.08l-.04-.05h.41s.04.01.05.03h0s0-.07.01-.09l.02.02v.02s0,0,0,.02c0,0,0,0,0,0h.02l.04.05s-.06,0-.06,0Z" style="fill: #fff;"/>
    <path d="M9.15,4.75s0,.05,0,.06c0,.02.01.04.02.05.02.02.03.03.03.03.02,0,.03.02.05.01.03,0,.05-.02.06-.05,0,0,0-.02,0-.03,0-.01,0-.02,0-.02h0s0,0,0,.01c-.01.01-.03.02-.04.02s-.02,0-.03-.01c-.01,0-.02-.02-.02-.03,0-.02,0-.03.02-.04.01,0,.03-.02.05-.02h-.15.02s0,.01,0,.01Z" style="fill: #fff;"/>
    <path d="M10.55,4.94s0-.02,0-.03c0,0-.01,0-.02,0,0,0,0,0,0,0-.03,0-.06.01-.08.04-.02.02-.03.05-.03.08s0,.05.02.07c.01.01.03.02.05.02s.04,0,.05,0c0,0,.02-.01.03-.02,0-.05,0-.09,0-.12v-.03h0Z" style="fill: #fff;"/>
    <path d="M11.21,4.77s.03-.05.03-.08,0-.05-.02-.07c-.02-.02-.04-.03-.07-.03-.01,0-.03,0-.05.01,0,0-.02.02-.04.03v.15s.02,0,.04.02c.01,0,.03,0,.04,0,.03,0,.05,0,.07-.03h0Z" style="fill: #fff;"/>
    <path d="M12.28,3.97s-1.46-.12-2.06.59v1.75s.48-.35,2.06-.35v-1.99h0ZM10.48,5.17s-.08-.01-.1-.04c-.02-.02-.03-.06-.03-.11s.02-.09.05-.12c.03-.03.07-.05.12-.05.02,0,.04,0,.06.01.03,0,.04.03.04.04,0,0,0,0,0,.01,0,0,0,.02,0,.04,0,.02,0,.04,0,.07,0,.02,0,.04,0,.06,0,0,0,.03.02.05,0,0,0,0,0,.02h0s0,.02,0,.02c0,0-.01,0-.02,0,0,0,0,0-.02-.01,0,0-.02-.02-.02-.02-.02.01-.03.02-.05.02-.01,0-.03,0-.04,0h0ZM10.66,5.8s0,0-.01,0h-.09s-.02,0-.02,0c0,0-.01,0-.01-.02,0-.01.01-.02.03-.02h.02s0-.02,0-.03c0-.01,0-.02,0-.03,0-.02,0-.04,0-.08,0-.04,0-.07,0-.09-.02.02-.03.02-.04.02,0,0-.01,0-.02,0,0,0,0,0,0-.01s0-.01.02-.02c0,0,.02-.02.03-.03s.03-.02.04-.02c.01,0,.02,0,.02.02h0v.07s0,.04,0,.07c0,.03,0,.06,0,.07v.06h.02s.01,0,.01,0c0,0,0,0,0,.01s0,.01,0,.01h0ZM11.03,4.85s-.01,0-.02,0c0,0,0,0,0-.02v-.4s0-.02,0-.03c0-.01.01-.02.03-.02s.02,0,.02.03h0s0,.02,0,.02v.14s.03-.02.05-.03c.02,0,.03,0,.04,0,.04,0,.08.01.11.05.02.03.04.07.04.11,0,.05-.01.08-.05.12-.03.03-.06.05-.11.05-.03,0-.06,0-.08-.02,0,0-.01.02-.02.02h0ZM11.32,5.62s0,0-.02,0h-.01s-.01,0-.01,0h-.07s-.01,0-.03,0c0,0-.02,0-.02,0,0,0,0,0,0,0h0s-.02,0-.02-.01c0,0,0-.01,0-.03,0-.03,0-.06.03-.08,0,0,.03-.03.07-.05.02-.01.04-.02.04-.03.01-.01.02-.03.02-.05,0,0,0-.02-.02-.03,0,0-.02,0-.03,0-.01,0-.03,0-.04.01l-.03.02s-.01,0-.02,0c-.01,0-.02,0-.02-.02,0,0,0,0,0-.02.02-.02.03-.03.04-.03.02-.01.04-.02.06-.02.02,0,.04,0,.06.02.02.01.03.03.03.06,0,.02,0,.03,0,.04,0,.01-.01.02-.02.03,0,.01-.03.03-.06.04-.03.02-.04.03-.05.04-.02.02-.02.04-.02.06h.04s.05,0,.07,0c0,0,.02,0,.03,0,.01,0,.02,0,.02.02,0,0,0,0,0,.02h0ZM11.65,4.6s-.05-.05-.05-.1c0-.04,0-.08.03-.13.03-.05.05-.08.09-.08.02,0,.04,0,.06,0,.03,0,.05.02.05.04,0,0,0,.01,0,.02,0,0,0,0-.02,0s-.01,0-.02,0c0,0,0,0-.01,0-.01,0-.03,0-.06,0-.02,0-.04.02-.06.06-.01.03-.02.06-.02.09,0,.03.01.05.03.06.02.01.04.02.07.02.01,0,.02,0,.04-.01l.03-.02h0s.02,0,.02,0c0,0,0,.01,0,.02,0,.01-.01.03-.04.05-.02.02-.05.02-.06.03-.04,0-.08,0-.1-.03ZM11.98,5.39s-.04.03-.07.03c-.02,0-.04,0-.06,0-.02,0-.03-.03-.04-.04,0,0,0,0,0,0,0,0,0,0,0-.01,0,0,0,0,.02,0,0,0,0,0,.02,0h0s.01.03.02.03c0,0,.02,0,.03,0,.02,0,.03,0,.04-.02s.02-.02.02-.04c0-.02,0-.04-.03-.05-.02,0-.03-.02-.06-.02-.02,0-.02,0-.03-.02,0,0,0-.01.02-.02l.05-.02s.02,0,.02-.02c0,0,0-.01,0-.02,0-.01,0-.02-.02-.03,0,0-.03-.01-.05-.01,0,0-.02,0-.03,0l-.02.02h-.01s0,0-.02,0c0,0,0,0,0-.01,0-.01.01-.02.03-.03.02,0,.03-.02.05-.02.03,0,.05,0,.07.02.02.01.03.04.03.06,0,.03-.01.06-.04.07,0,0,0,0,0,0,.02,0,.03.02.04.03.01.01.02.03.02.05,0,.03,0,.05-.03.07h0Z" style="fill: #fff;"/>
    <polygon points="9.65 10.45 9.65 10.35 9.65 10.19 9.74 10.35 9.8 10.45 9.95 10.68 10.05 10.84 10.19 11.07 10.47 11.07 10.47 10.45 10.47 10.35 10.47 9.72 10.21 9.72 10.21 10.35 10.21 10.45 10.21 10.62 10.1 10.45 10.05 10.36 10.04 10.35 9.95 10.2 9.66 9.72 9.39 9.72 9.39 10.35 9.39 10.45 9.39 11.07 9.65 11.07 9.65 10.45" style="fill: #fff;"/>
  </g>
</svg>