<?xml version="1.0" encoding="UTF-8"?>
<svg id="Layer_1" xmlns="http://www.w3.org/2000/svg" version="1.1" xmlns:xlink="http://www.w3.org/1999/xlink" viewBox="0 0 32 32">
  <!-- Generator: Adobe Illustrator 29.3.0, SVG Export Plug-In . SVG Version: 2.1.0 Build 146)  -->
  <g>
    <path d="M12.185,16.558l-.071.154h0c.023-.054.059-.101.084-.154h-.014Z" fill="#fff"/>
    <path d="M19.885,16.712l-.07-.154h-.015c.025.053.061.1.084.154h.001Z" fill="#fff"/>
    <polygon points="15.43 16.558 15.43 16.712 15.682 16.712 15.586 16.558 15.43 16.558" fill="#fff"/>
    <path d="M17.916,16.712h1.1c-.016-.052-.03-.103-.047-.154h-1.106c.017.052.037.102.053.154Z" fill="#fff"/>
    <path d="M15.024,16.712v-.154h-.703c-.017.051-.029.103-.045.154h.747Z" fill="#fff"/>
    <path d="M16.745,16.712h.983c-.016-.051-.028-.104-.045-.154h-.938v.154Z" fill="#fff"/>
    <polygon points="16.161 16.712 16.337 16.712 16.337 16.558 16.077 16.558 16.077 16.577 16.161 16.712" fill="#fff"/>
    <path d="M14.116,16.712c.015-.051.028-.104.045-.154h-1.125c-.017.051-.031.103-.047.154h1.127Z" fill="#fff"/>
    <path d="M12.866,16.558h-.488c-.026.053-.06.101-.085.154h.534c.015-.051.022-.104.039-.154Z" fill="#fff"/>
    <path d="M19.179,16.712h.526c-.024-.054-.058-.102-.085-.154h-.48c.017.05.023.104.039.154Z" fill="#fff"/>
    <path d="M19.796,16.712h.087c-.023-.054-.059-.101-.084-.154h-.088c.026.053.061.1.085.154Z" fill="#fff"/>
    <path d="M12.284,16.558h-.085c-.025.053-.061.1-.084.154h.085c.024-.054.059-.102.085-.154Z" fill="#fff"/>
    <path d="M19.705,16.712h.091c-.024-.054-.059-.102-.085-.154h-.091c.026.053.061.101.085.154Z" fill="#fff"/>
    <path d="M12.378,16.558h-.094c-.026.053-.061.1-.085.154h.094c.024-.054.058-.102.085-.154Z" fill="#fff"/>
    <path d="M14.322,16.558c.139-.411.313-.807.536-1.182-.05-.014-.098-.036-.148-.051-.23.391-.408.805-.548,1.233h.161Z" fill="#fff"/>
    <path d="M13.977,18.335h.018c.017-.557.119-1.099.281-1.623h-.161c-.157.525-.258,1.066-.275,1.623h.136Z" fill="#fff"/>
    <path d="M15.61,14.351c-.071.007-.143.011-.213.021-.225.258-.439.525-.617.811.05.016.099.036.149.05.197-.312.427-.606.681-.882Z" fill="#fff"/>
    <path d="M15.61,14.351s.007-.01.011-.015c-.071.007-.142.011-.213.022-.004.005-.007.01-.011.014.07-.01.142-.015.213-.021Z" fill="#fff"/>
    <path d="M14.322,16.558h-.161c-.017.051-.029.103-.045.154h.161c.016-.051.028-.104.045-.154Z" fill="#fff"/>
    <path d="M13.986,18.437c0-.034.009-.068.01-.102h-.018c0,.034.008.068.008.102Z" fill="#fff"/>
    <path d="M13.823,18.525h.016c0-.03-.007-.059-.007-.089,0,.03-.008.059-.008.089Z" fill="#fff"/>
    <path d="M13.036,16.558c.191-.569.467-1.11.823-1.61-.005-.003-.011-.005-.016-.008-.101.063-.194.134-.289.205-.285.448-.526.916-.688,1.413h.17Z" fill="#fff"/>
    <path d="M12.726,18.335c.017-.556.102-1.1.263-1.623h-.161c-.156.524-.242,1.068-.258,1.623h.157Z" fill="#fff"/>
    <path d="M13.722,14.872c-.014.02-.025.043-.039.063.024-.016.052-.026.076-.042l-.037-.022Z" fill="#fff"/>
    <path d="M13.843,14.94c-.018-.011-.038-.018-.056-.029l-.028-.017c-.024.016-.052.026-.076.042-.047.068-.085.14-.129.209.094-.071.188-.142.289-.205Z" fill="#fff"/>
    <path d="M13.036,16.558h-.17c-.017.05-.023.104-.039.154h.161c.016-.052.03-.103.047-.154Z" fill="#fff"/>
    <path d="M12.711,18.335c0,.032.007.068.007.1,0-.034.007-.066.008-.1h-.015Z" fill="#fff"/>
    <path d="M12.554,18.525h.012c0-.028-.005-.056-.005-.084,0,.028-.007.056-.007.084Z" fill="#fff"/>
    <path d="M17.683,16.558h.181c-.142-.431-.329-.846-.56-1.238-.053.017-.103.04-.157.055.223.375.397.772.536,1.183Z" fill="#fff"/>
    <path d="M17.225,15.181c-.176-.283-.38-.551-.601-.806-.075-.012-.152-.015-.228-.023.252.276.481.568.678.879.051-.014.1-.034.151-.05Z" fill="#fff"/>
    <path d="M18.009,18.335h.166c-.017-.555-.102-1.1-.259-1.623h-.189c.162.524.264,1.065.282,1.623Z" fill="#fff"/>
    <path d="M16.624,14.375s-.007-.008-.01-.012c-.076-.011-.152-.019-.229-.026.004.005.007.01.012.015.076.007.153.011.228.023Z" fill="#fff"/>
    <path d="M17.916,16.712c-.016-.052-.036-.103-.053-.154h-.181c.017.051.029.103.045.154h.189Z" fill="#fff"/>
    <path d="M18.027,18.335h-.018c.001.034.009.068.01.102,0-.034.008-.068.008-.102Z" fill="#fff"/>
    <path d="M18.184,18.525c0-.041-.005-.08-.006-.121,0,.04-.009.081-.01.121h.016Z" fill="#fff"/>
    <path d="M18.969,16.558h.171c-.161-.492-.4-.956-.681-1.399-.1-.077-.199-.152-.307-.219-.003.002-.006.003-.009.005.357.5.633,1.043.825,1.614Z" fill="#fff"/>
    <path d="M19.279,18.335h.159c-.017-.555-.102-1.099-.259-1.623h-.163c.161.523.246,1.067.263,1.623Z" fill="#fff"/>
    <path d="M18.331,14.949c-.018-.026-.032-.055-.05-.081l-.044.026c.031.02.064.035.094.056Z" fill="#fff"/>
    <path d="M18.208,14.91c-.018.011-.037.018-.055.029.107.067.206.143.307.219-.044-.069-.082-.141-.129-.209-.03-.02-.063-.036-.094-.056l-.029.017Z" fill="#fff"/>
    <path d="M19.179,16.712c-.015-.051-.022-.104-.039-.154h-.171c.017.051.031.103.047.154h.163Z" fill="#fff"/>
    <path d="M19.454,18.525c0-.039-.008-.077-.009-.116,0,.038-.006.078-.007.116h.016Z" fill="#fff"/>
    <path d="M19.293,18.335h-.014c.001.04.009.078.009.118,0-.039.005-.081.005-.118Z" fill="#fff"/>
    <path d="M16.943,14.27c.219.05.433.114.638.197-.207-.083-.42-.147-.638-.197Z" fill="#fff"/>
    <path d="M15.53,14.201h.001c.155-.016.307-.046.466-.046-.254,0-.505.031-.753.076.093-.017.19-.018.284-.029,0,0,0-.001.001-.002Z" fill="#fff"/>
    <path d="M13.767,14.799l.004.003c.183-.114.371-.223.572-.308-.191.081-.378.174-.556.283l-.11.068.007.004c.025-.016.053-.027.079-.042.002-.002.003-.005.005-.007Z" fill="#fff"/>
    <path d="M14.423,14.465c.201-.081.41-.144.625-.193-.213.049-.422.112-.625.193Z" fill="#fff"/>
    <path d="M16.476,14.201s.002.002.002.003c.092.011.187.011.277.028-.249-.045-.501-.076-.758-.076.163,0,.318.03.476.048l.002-.002Z" fill="#fff"/>
    <path d="M18.239,14.799s.006.01.009.015c.021.013.044.022.065.035l.007-.004-.112-.068c-.178-.11-.364-.203-.556-.284.203.087.394.196.579.312l.008-.006Z" fill="#fff"/>
    <path d="M14.709,15.324c.027-.046.043-.096.071-.141-.269-.084-.532-.19-.778-.33-.042.024-.087.044-.128.069-.006.008-.01.017-.016.025.269.158.554.282.85.376Z" fill="#fff"/>
    <path d="M17.303,15.319c.293-.095.575-.218.841-.375-.003-.005-.006-.01-.009-.015-.044-.028-.093-.049-.139-.075-.245.138-.505.243-.772.326.028.045.052.092.078.138Z" fill="#fff"/>
    <path d="M17.147,15.375c-.028-.046-.044-.098-.073-.143-.323.088-.658.133-.996.14v.156c.364-.007.724-.056,1.069-.153Z" fill="#fff"/>
    <path d="M16.729,14.385c.053.009.106.019.158.031-.052-.012-.105-.021-.158-.031Z" fill="#fff"/>
    <path d="M17.568,14.626c.013.006.026.013.039.019-.013-.006-.026-.013-.039-.019Z" fill="#fff"/>
    <path d="M14.857,15.376c.344.096.702.145,1.063.151v-.156c-.336-.006-.669-.051-.991-.138-.029.045-.045.096-.072.142Z" fill="#fff"/>
    <path d="M15.107,14.417c.054-.012.108-.022.162-.032-.054.01-.108.02-.162.032Z" fill="#fff"/>
    <path d="M14.364,14.658c.024-.01.046-.024.07-.034-.024.01-.046.024-.07.034Z" fill="#fff"/>
    <path d="M16.55,14.289c.586.078,1.132.271,1.614.565l.067-.049c-.186-.116-.376-.226-.579-.312-.023-.01-.048-.016-.071-.025-.205-.083-.419-.147-.638-.197-.062-.014-.124-.028-.187-.039-.09-.016-.185-.017-.277-.028.025.027.047.057.072.085Z" fill="#fff"/>
    <path d="M13.762,14.806c-.025.016-.054.026-.079.042l.039.023c.015-.021.025-.044.04-.065Z" fill="#fff"/>
    <path d="M18.281,14.868l.032-.019c-.021-.013-.044-.022-.065-.035.012.017.021.036.033.054Z" fill="#fff"/>
    <path d="M15.606,14.272c.105-.01.207-.029.314-.031v-.008h.157v.008c.109.002.214.022.321.032l.075-.07c-.158-.018-.313-.048-.476-.048-.16,0-.311.03-.466.047l.075.07Z" fill="#fff"/>
    <path d="M13.838,14.851c.485-.296,1.035-.488,1.626-.565.024-.027.041-.058.065-.084-.095.011-.192.012-.284.029-.066.012-.131.026-.196.041-.215.049-.424.112-.625.193-.027.011-.055.018-.081.029-.201.086-.388.194-.572.308l.067.049Z" fill="#fff"/>
    <path d="M15.622,14.336c.099-.009.199-.017.299-.019v-.076c-.107.002-.209.021-.314.031l.037.035c-.008.009-.014.02-.022.029Z" fill="#fff"/>
    <path d="M16.384,14.337c-.008-.009-.014-.02-.023-.029l.037-.034c-.107-.01-.211-.03-.321-.032v.076c.103.002.205.01.307.02Z" fill="#fff"/>
    <path d="M16.729,14.385c.053.01.106.019.158.031.233.052.461.118.681.21.013.006.026.013.039.019.139.06.277.124.409.2-.006.004-.013.006-.02.01.046.026.094.047.139.075-.009-.012-.014-.025-.023-.037l.052-.038c-.481-.295-1.027-.487-1.614-.565.022.024.042.05.063.074.039.006.077.016.116.023Z" fill="#fff"/>
    <path d="M13.874,14.923c.041-.025.086-.045.128-.069-.006-.003-.012-.005-.018-.009.123-.071.251-.13.38-.187.024-.01.046-.024.07-.034.217-.091.443-.156.673-.207.054-.012.107-.022.162-.032.047-.008.093-.02.14-.027.02-.023.035-.049.055-.071-.59.076-1.141.268-1.626.565l.055.041c-.007.01-.012.021-.019.03Z" fill="#fff"/>
    <polygon points="15.53 14.201 15.529 14.202 15.531 14.202 15.53 14.201" fill="#fff"/>
    <path d="M14.93,15.233c-.051-.014-.099-.034-.149-.05-.028.045-.045.095-.071.141.05.016.098.037.148.051.027-.046.044-.097.072-.142Z" fill="#fff"/>
    <path d="M15.531,14.202s-.002,0-.003,0c-.025.026-.041.058-.065.084.047-.006.095-.01.143-.014l-.075-.07Z" fill="#fff"/>
    <path d="M15.622,14.336c.008-.009.014-.02.022-.029l-.037-.035c-.048.005-.095.008-.143.014-.02.023-.035.049-.055.071.071-.01.142-.015.213-.022Z" fill="#fff"/>
    <polygon points="13.767 14.799 13.762 14.806 13.771 14.802 13.767 14.799" fill="#fff"/>
    <path d="M13.874,14.923c-.01.006-.021.011-.031.017.005.003.011.005.016.008.006-.008.01-.017.016-.025Z" fill="#fff"/>
    <path d="M13.838,14.851l-.067-.049s-.006.003-.008.005c-.015.021-.025.044-.04.065l.037.022c.025-.016.053-.027.079-.042Z" fill="#fff"/>
    <path d="M13.787,14.91c.018.011.038.018.056.029.01-.006.021-.011.031-.017.007-.01.012-.021.019-.03l-.055-.041c-.025.016-.054.026-.079.042l.028.017Z" fill="#fff"/>
    <polygon points="16.476 14.201 16.474 14.203 16.478 14.203 16.476 14.201" fill="#fff"/>
    <path d="M17.147,15.375c.053-.015.104-.038.157-.055-.027-.046-.05-.093-.078-.138-.051.016-.1.036-.151.05.029.046.045.097.073.143Z" fill="#fff"/>
    <path d="M16.478,14.203s-.003,0-.005,0l-.075.07c.051.005.102.008.152.015-.025-.028-.047-.058-.072-.085Z" fill="#fff"/>
    <path d="M16.384,14.337c.077.007.153.015.229.026-.021-.025-.041-.05-.063-.074-.05-.007-.101-.01-.152-.015l-.037.034c.008.009.014.02.023.029Z" fill="#fff"/>
    <path d="M18.239,14.799l-.008.006c.005.003.011.006.017.009-.003-.005-.006-.01-.009-.015Z" fill="#fff"/>
    <path d="M18.153,14.939c-.006-.004-.012-.006-.018-.01.003.005.005.01.009.015.003-.002.006-.003.009-.005Z" fill="#fff"/>
    <path d="M18.281,14.868c-.012-.017-.021-.036-.033-.054-.005-.003-.011-.006-.017-.009l-.067.049c.023.014.05.024.073.039l.044-.026Z" fill="#fff"/>
    <path d="M18.135,14.929c.006.004.012.006.018.01.018-.011.037-.018.055-.029l.029-.017c-.023-.015-.049-.025-.073-.039l-.052.038c.009.012.014.025.023.037Z" fill="#fff"/>
    <path d="M16.066,16.558h.012v-1.031c-.027,0-.053.005-.08.005-.026,0-.051-.005-.077-.005v.795l.145.236Z" fill="#fff"/>
    <polygon points="16.077 17.346 15.92 17.094 15.92 18.335 16.077 18.335 16.077 17.346" fill="#fff"/>
    <path d="M15.92,15.371c.026,0,.051.005.077.005.027,0,.053-.005.08-.005v-1.051c-.027,0-.052-.008-.08-.008-.027,0-.051.007-.077.008v1.051Z" fill="#fff"/>
    <path d="M16.077,14.317c-.027,0-.053-.005-.08-.005.027,0,.053.007.08.008v-.003Z" fill="#fff"/>
    <path d="M15.998,14.312c-.026,0-.052.004-.077.005v.003c.026,0,.051-.008.077-.008Z" fill="#fff"/>
    <polygon points="16.077 16.558 16.066 16.558 16.077 16.577 16.077 16.558" fill="#fff"/>
    <path d="M15.998,15.533c.027,0,.053-.005.08-.005v-.156c-.027,0-.053.005-.08.005-.026,0-.052-.005-.077-.005v.156c.026,0,.051.005.077.005Z" fill="#fff"/>
    <path d="M16.077,14.233h-.08c.027,0,.053.007.08.008v-.008Z" fill="#fff"/>
    <path d="M15.92,14.233v.008c.026,0,.051-.008.077-.008h-.077Z" fill="#fff"/>
    <path d="M15.998,14.312c.027,0,.053.005.08.005v-.076c-.027,0-.052-.008-.08-.008-.027,0-.051.007-.077.008v.076c.026,0,.051-.005.077-.005Z" fill="#fff"/>
  </g>
  <g>
    <path d="M15.998,0C8.722,0,2.824,7.162,2.824,15.999s5.898,16.001,13.174,16.001,13.179-7.162,13.179-16.001S23.275,0,15.998,0ZM15.998,31.26c-6.941,0-12.567-6.831-12.567-15.261S9.057.738,15.998.738s12.569,6.835,12.569,15.261-5.625,15.261-12.569,15.261Z" fill="#201b4e"/>
    <path d="M16.017,28.607c5.351,0,9.687-5.612,9.687-12.538S21.368,3.534,16.017,3.534s-9.685,5.615-9.685,12.535,4.338,12.538,9.685,12.538ZM16.017,4.112c5.103,0,9.237,5.354,9.237,11.957s-4.133,11.961-9.237,11.961-9.238-5.358-9.238-11.961,4.14-11.957,9.238-11.957Z" fill="#201b4e"/>
    <path d="M6.579,8.369c.065.036.132.052.201.052.071-.002.142-.017.215-.052.071-.03.173-.093.301-.184.093-.068.16-.11.206-.132.047-.021.089-.03.129-.031.042-.002.077.005.11.023.056.03.092.077.109.144.019.067.005.137-.036.214-.05.096-.139.169-.26.212-.124.044-.266.044-.428-.004l-.019.037.523.275.019-.039c-.021-.026-.034-.052-.037-.078-.003-.028,0-.049.009-.066.009-.022.033-.046.062-.07.057-.045.099-.085.129-.119.029-.033.057-.072.077-.115.076-.138.094-.273.06-.408-.037-.132-.112-.23-.229-.29-.09-.048-.186-.064-.289-.045-.101.017-.232.088-.399.207-.119.086-.196.137-.236.156-.055.028-.103.041-.144.045-.032.002-.064-.007-.094-.02-.048-.028-.081-.069-.095-.129-.016-.06-.005-.124.029-.192.048-.091.126-.154.239-.194.112-.04.232-.04.356.002l.025-.042-.469-.231-.017.031c.038.031.058.053.063.07.008.017.003.032-.006.049-.009.018-.036.047-.083.079-.047.034-.084.066-.108.094-.033.034-.063.076-.085.121-.065.121-.081.243-.046.365.034.122.108.21.217.267Z" fill="#201b4e"/>
    <path d="M6.954,6.904c.029-.04.064-.069.096-.079.024-.01.049-.01.075,0,.016.004.055.026.111.068l.853.574c.065.045.101.074.114.092.013.024.02.048.019.071-.002.028-.016.065-.042.103l-.029.042.035.023.763-1.109-.371-.336-.025.036c.093.109.145.217.148.327.008.111-.032.225-.112.347l-.054.076c-.025.036-.05.058-.07.069-.022.011-.041.012-.063.007-.018-.003-.066-.029-.135-.079l-.365-.248c.043-.059.082-.101.12-.12.038-.023.089-.03.153-.023.065.008.136.033.214.075l.025-.035-.68-.461-.025.037c.094.078.154.153.18.224.028.072.012.149-.044.23l-.016.026-.526-.357.091-.133c.065-.097.119-.159.153-.186.06-.048.122-.077.187-.08.063-.005.148.014.254.058l.025-.035-.382-.259-.742,1.074.036.024.029-.042Z" fill="#201b4e"/>
    <path d="M7.987,5.45c.035-.04.07-.062.105-.069.026-.006.049-.002.075.01.016.008.048.036.101.084l.768.682c.06.052.091.087.099.105.013.027.017.051.011.072-.008.033-.024.064-.055.098l-.035.036.032.03.904-1.001-.325-.383-.027.033c.078.119.112.235.103.345-.007.11-.06.219-.158.328l-.063.07c-.03.032-.057.052-.079.058-.023.007-.043.007-.063-.002-.019-.006-.06-.037-.122-.095l-.331-.292c.05-.057.095-.092.135-.109.043-.016.095-.016.155,0,.063.017.13.051.204.103l.029-.033-.608-.543-.031.033c.082.09.131.17.147.245.016.075-.008.149-.073.221l-.022.026-.475-.424.109-.118c.08-.09.137-.146.177-.167.066-.038.132-.057.195-.055.064.004.145.033.246.092l.028-.033-.344-.306-.879.969.034.029.033-.038Z" fill="#201b4e"/>
    <path d="M9.234,4.106c.035-.028.066-.045.095-.049.032-.003.055-.002.074.012.019.009.055.043.104.106l.646.797c.05.06.077.1.082.119.008.027.008.051,0,.072-.013.03-.036.059-.07.087l-.043.034.029.033.615-.492-.026-.032c-.046.038-.081.055-.111.062-.03.005-.054.002-.074-.007-.019-.01-.056-.047-.105-.11l-.268-.33.014-.074.564.127c.109.024.175.048.196.074.012.014.012.028.01.047-.006.019-.027.046-.064.079l.027.035.636-.507-.028-.033c-.034.029-.076.045-.125.051-.063.009-.158,0-.28-.025l-.86-.192.126-.569c.032-.141.054-.227.069-.26.013-.032.04-.065.082-.103l-.027-.033-.477.381.028.033c.052-.04.088-.063.108-.065.037-.008.062,0,.081.021.024.032.026.097.002.198l-.156.724-.308-.376c-.049-.061-.076-.1-.081-.123-.005-.026-.005-.049.003-.07.012-.028.04-.061.081-.094l-.028-.033-.607.485.026.033.04-.033Z" fill="#201b4e"/>
    <path d="M11.579,2.441c.042-.018.077-.024.104-.02.033.003.054.013.069.028.016.017.041.06.071.13l.408.942c.03.072.044.116.044.138,0,.026-.008.051-.018.068-.019.025-.051.047-.095.065l-.048.02.018.04.728-.311-.017-.039c-.055.024-.096.033-.125.032-.028-.005-.053-.013-.067-.028-.018-.014-.043-.06-.073-.133l-.168-.389.033-.068.508.274c.101.052.157.093.169.122.007.018.006.032-.004.05-.008.015-.038.036-.081.059l.018.039.748-.318-.02-.038c-.038.018-.083.024-.13.015-.065-.01-.153-.042-.262-.1l-.78-.415.28-.515c.066-.127.112-.203.132-.229.023-.027.057-.053.108-.077l-.018-.041-.562.24.018.04c.062-.026.102-.037.123-.037.033.003.06.018.073.044.015.038-.001.1-.051.193l-.349.653-.192-.443c-.033-.072-.047-.12-.046-.14.001-.028.008-.051.023-.068.018-.025.053-.049.102-.067l-.018-.039-.716.303.018.04.046-.021Z" fill="#201b4e"/>
    <path d="M13.745,1.642c.026.009.059.03.1.064l.039.036.191,1.08c.014.082.006.141-.022.181-.027.04-.083.068-.169.084l.008.041.548-.096-.009-.041-.035.007c-.051.01-.102,0-.147-.023-.047-.026-.077-.078-.092-.168l-.17-.973,1.267,1.096.04-.006-.225-1.276c-.014-.072-.015-.124-.009-.157.008-.032.022-.056.042-.072.02-.018.061-.036.125-.055l-.008-.043-.509.089.006.04c.085-.016.15-.007.195.034.032.026.056.085.071.178l.116.658-.928-.817-.546.095.007.04c.046-.005.085-.003.112.004Z" fill="#201b4e"/>
    <path d="M16.548,2.927c.281.018.505-.065.671-.255.126-.141.195-.312.21-.507.016-.229-.049-.426-.196-.59-.146-.163-.342-.248-.592-.256-.23-.024-.43.037-.598.177-.167.144-.258.332-.273.561-.016.205.034.388.145.545.141.198.354.307.634.326ZM16.31,1.589c.084-.142.197-.206.341-.197.077.005.146.03.201.077.059.046.104.12.133.224.032.105.041.258.029.465-.012.172-.04.309-.084.415-.047.105-.105.179-.176.224-.056.034-.125.049-.201.042-.12-.007-.207-.057-.267-.151-.084-.131-.119-.329-.101-.594.015-.222.057-.392.126-.505Z" fill="#201b4e"/>
    <path d="M18.19,1.854l.055,1.364.04.016.743-.8.026,1.072.039.015.899-1.044c.077-.087.122-.137.127-.143.026-.021.049-.036.072-.042.026-.005.049-.005.079.003l.014-.041-.383-.135-.013.038c.057.023.092.046.106.068.012.026.016.054.007.082-.009.02-.02.042-.035.062-.015.022-.046.062-.094.116l-.466.543-.022-.788c0-.097,0-.154.009-.172.006-.014.015-.027.027-.035.014-.009.028-.013.046-.013.024,0,.062.009.112.027l.014-.04-.715-.253-.014.038c.046.018.078.035.097.056.018.021.033.049.041.085.005.031.011.099.014.195l.005.177-.432.473-.032-.814c-.005-.1,0-.164.01-.191.006-.021.02-.033.043-.042.025-.01.058-.004.112.011l.012-.039-.638-.228-.015.042c.046.019.073.044.086.078.009.032.018.117.023.256Z" fill="#201b4e"/>
    <path d="M20.837,2.681c.016.027.018.052.016.072-.006.02-.029.065-.074.131l-.566.855c-.043.064-.073.103-.091.114-.023.016-.046.023-.068.021-.031-.002-.067-.015-.106-.039l-.045-.028-.022.035,1.161.76.352-.425-.039-.026c-.098.082-.182.138-.25.17-.068.028-.133.04-.197.037-.062-.008-.128-.032-.198-.078l-.108-.071c-.063-.041-.099-.068-.112-.084-.016-.026-.023-.049-.019-.07.005-.025.03-.07.073-.134l.551-.829c.042-.065.071-.103.089-.113.026-.016.047-.023.07-.022.032.003.067.015.105.042l.056.035.025-.034-.699-.455-.024.034.045.028c.036.025.061.05.074.076Z" fill="#201b4e"/>
    <path d="M21.31,4.748l-.028.031.989.918.39-.311-.03-.03c-.123.075-.239.104-.351.096-.11-.013-.219-.066-.327-.166l-.07-.064c-.031-.031-.05-.056-.057-.079-.005-.021-.005-.044.005-.062.008-.019.04-.06.099-.122l.303-.318c.054.049.089.095.104.137.015.041.014.091-.003.152-.019.063-.054.128-.108.198l.032.03.56-.593-.032-.03c-.09.08-.176.127-.25.142-.077.015-.15-.011-.223-.079l-.022-.02.434-.464.121.112c.084.081.14.139.162.179.036.067.053.131.05.195-.005.061-.037.143-.099.24l.033.029.317-.334-.958-.891-.028.032.036.037c.041.033.06.068.066.104.006.024.002.049-.01.073-.008.014-.039.049-.086.1l-.705.746c-.054.057-.09.089-.11.095-.025.014-.049.016-.07.011-.032-.007-.064-.028-.097-.058l-.04-.036Z" fill="#201b4e"/>
    <path d="M23.652,5.298l-.814.628c-.064.05-.106.076-.122.08-.026.007-.051.005-.078-.006-.026-.009-.054-.033-.082-.068l-.031-.04-.033.025.431.547c.061.081.111.135.147.167.081.069.159.124.235.159.073.036.15.055.234.064.081.005.17-.005.264-.033.094-.029.186-.077.272-.143.126-.099.216-.215.271-.348.057-.133.067-.273.029-.42-.029-.121-.103-.252-.216-.398l-.434-.55-.033.027.032.041c.027.034.043.065.047.095.004.031.002.054-.01.073-.012.018-.046.053-.108.101ZM24.025,5.483c.081.101.126.179.141.237.021.082.013.172-.031.267-.057.124-.165.247-.323.369-.194.154-.371.229-.52.229-.11,0-.206-.051-.284-.149-.026-.031-.039-.057-.042-.081-.004-.018-.003-.031.005-.046.009-.014.039-.041.091-.079l.963-.747Z" fill="#201b4e"/>
    <path d="M24.031,7.281c-.051.077-.088.163-.108.261-.018.096-.024.198-.01.302.012.105.055.222.129.35.058.1.121.192.196.275.071.083.152.157.24.221l.284-.16c.05-.028.082-.042.099-.043.03-.003.054.003.077.018.022.014.048.044.08.092l.036-.022-.373-.657-.037.019.019.035c.018.033.029.065.029.095,0,.031-.005.052-.017.069-.012.017-.044.038-.098.07l-.283.159c-.034-.029-.065-.058-.092-.089-.026-.029-.047-.061-.068-.094-.052-.093-.076-.188-.067-.281.007-.095.051-.185.132-.27.081-.089.187-.166.319-.24.108-.06.222-.104.34-.135.118-.029.228-.026.321.008.094.036.171.105.228.203.062.106.085.223.064.35-.017.128-.081.25-.185.369l.022.037.482-.27-.022-.036c-.048.008-.081.008-.104,0-.022-.008-.04-.023-.049-.041-.008-.014-.017-.059-.029-.138-.013-.082-.023-.135-.036-.167-.021-.06-.049-.124-.088-.191-.122-.217-.295-.359-.518-.42-.224-.065-.437-.04-.644.075-.115.066-.204.146-.27.244Z" fill="#201b4e"/>
    <path d="M24.752,9.227c-.028,0-.053-.007-.07-.022-.026-.018-.044-.051-.064-.094l-.019-.045-.039.015.506,1.246.488-.119-.016-.04c-.145.016-.261-.004-.359-.059-.094-.059-.17-.152-.226-.288l-.036-.084c-.014-.041-.021-.073-.017-.098.005-.022.015-.04.027-.056.017-.014.064-.036.143-.068l.41-.163c.028.068.041.123.037.166-.005.045-.026.089-.067.139-.044.046-.104.092-.182.135l.016.039.761-.303-.015-.039c-.117.031-.216.04-.29.024-.077-.019-.131-.074-.168-.166l-.013-.029.594-.234.059.145c.046.111.069.188.071.232.006.078-.004.145-.034.2-.033.054-.094.114-.191.177l.016.038.427-.17-.487-1.207-.04.015.019.048c.019.049.022.09.016.124-.007.024-.021.045-.043.062-.013.009-.053.026-.12.053l-.955.385c-.072.027-.12.041-.14.04Z" fill="#201b4e"/>
    <path d="M5.611,17.868c.036.011.061.027.079.05.017.024.035.069.053.14l.045-.005-.06-.558-.049.005c.014.094-.003.163-.046.207-.034.033-.102.055-.203.065l-.733.08.965-.949-.066-.597-.046.005c.003.051,0,.092-.012.121-.009.028-.036.064-.078.105l-.04.04-1.203.131c-.089.01-.155,0-.199-.033-.042-.033-.067-.097-.076-.189l-.048.005.067.6.044-.004-.005-.04c-.005-.058.006-.11.036-.159.029-.049.094-.078.19-.088l1.084-.117-1.293,1.297.006.042,1.418-.154c.079-.011.137-.011.172,0Z" fill="#201b4e"/>
    <path d="M5.346,20.078c.249-.053.44-.181.569-.379.129-.202.16-.432.094-.697-.043-.246-.165-.436-.368-.569-.202-.133-.427-.173-.676-.121-.222.048-.401.152-.534.316-.168.206-.222.459-.156.759.063.299.221.508.472.625.188.091.39.112.6.066ZM4.366,19.365c-.028-.126,0-.233.081-.323.116-.129.317-.224.602-.284.242-.05.434-.058.575-.021.175.046.277.145.311.297.018.084.01.161-.022.233-.033.073-.099.143-.201.205-.098.065-.262.122-.482.168-.188.037-.342.051-.467.037-.125-.015-.222-.054-.29-.115-.051-.046-.089-.112-.107-.197Z" fill="#201b4e"/>
    <path d="M5.889,21.543c.107.061.221.073.342.033.099-.033.174-.089.229-.17.055-.081.08-.171.077-.269-.002-.099-.034-.248-.101-.443l-.245-.752-.047.015c.026.072.037.124.03.158-.004.03-.016.055-.036.074-.018.019-.074.04-.16.07l-1.058.343c-.09.028-.145.04-.172.037-.026-.002-.051-.016-.071-.039-.024-.02-.048-.071-.072-.143l-.043.014.269.827.049-.015c-.027-.073-.036-.126-.032-.157.005-.033.018-.057.037-.073.018-.02.073-.043.162-.073l.455-.148.036.108-.569.761.169.508.042-.014c-.011-.044-.009-.084.005-.126.01-.029.043-.078.097-.15l.423-.568c.059.088.122.154.187.193ZM5.589,20.805l.711-.231.044.127c.043.128.043.23.003.307-.041.077-.123.135-.249.175-.087.031-.16.034-.225.02-.063-.012-.114-.044-.153-.093-.038-.047-.074-.127-.111-.238l-.022-.068Z" fill="#201b4e"/>
    <path d="M5.874,23.143l1.209-.536.049.115c.037.073.051.126.051.16,0,.066-.019.12-.047.17-.028.049-.086.105-.173.175l.018.042.423-.189-.631-1.395-.422.189.02.044c.123-.033.231-.033.323.007.067.027.124.093.17.198l.05.113-1.207.537c-.08.033-.129.052-.15.051-.033,0-.056-.007-.077-.023-.027-.02-.054-.053-.073-.097l-.024-.052-.044.02.369.812.043-.021-.023-.052c-.02-.042-.028-.082-.026-.115.003-.032.012-.057.029-.073.018-.019.063-.046.143-.081Z" fill="#201b4e"/>
    <path d="M7.061,25.287l.968-.573c.074-.044.124-.068.144-.071.03-.005.058.002.077.016.03.014.061.043.085.087l.03.047.04-.025-.459-.761-.044.023.03.048c.025.041.036.079.039.11,0,.033-.007.06-.022.077-.014.019-.059.052-.132.096l-.42.246-.311-.514.419-.249c.074-.042.122-.065.143-.069.029-.005.057,0,.079.013.029.015.058.046.084.088l.029.048.043-.023-.462-.762-.041.025.031.048c.025.042.036.077.036.109,0,.033-.007.056-.02.076-.014.021-.057.053-.135.097l-.966.574c-.074.044-.122.067-.144.069-.03.006-.056,0-.077-.01-.031-.019-.06-.048-.086-.09l-.028-.048-.04.023.458.764.041-.024-.03-.049c-.025-.04-.035-.076-.038-.108,0-.032.009-.059.02-.078.015-.018.06-.051.134-.095l.458-.271.31.517-.457.268c-.073.044-.121.068-.142.069-.031.004-.057,0-.078-.012-.031-.015-.061-.045-.086-.089l-.026-.048-.042.025.458.761.041-.023-.027-.049c-.026-.041-.039-.078-.039-.11-.002-.033.006-.058.02-.075.013-.021.06-.052.133-.097Z" fill="#201b4e"/>
    <path d="M9.136,26.424c-.008-.065-.006-.119.005-.164.01-.033.027-.063.054-.087.045-.041.1-.06.169-.053.067.003.132.038.189.1.077.08.116.185.118.313.004.129-.041.251-.127.366l.034.036.407-.398-.027-.027c-.045.027-.076.042-.094.042-.02,0-.036-.01-.05-.024-.016-.017-.032-.055-.052-.115-.02-.059-.039-.106-.059-.14-.026-.048-.058-.093-.097-.132-.104-.11-.227-.169-.365-.175-.138-.009-.256.034-.355.127-.058.054-.101.119-.125.19-.023.071-.032.149-.023.236.006.086.037.212.09.375.035.12.057.206.062.26.006.056,0,.101-.011.145-.013.041-.036.074-.063.102-.05.047-.113.068-.191.062-.074-.006-.145-.043-.21-.112-.084-.087-.126-.203-.131-.346,0-.141.051-.284.157-.436l-.03-.034-.471.44.032.035c.036-.013.067-.017.098-.012.028.006.05.019.065.033.018.02.033.049.051.09.026.074.055.131.078.174.022.041.055.081.094.121.116.123.252.191.404.2.151.012.28-.033.383-.13.083-.075.132-.169.147-.277.017-.11-.008-.274-.074-.484-.045-.151-.074-.252-.081-.3Z" fill="#201b4e"/>
    <path d="M10.818,27.271c-.19-.165-.408-.233-.647-.207-.242.025-.442.14-.599.335-.139.177-.21.371-.209.581.004.267.126.494.368.683.24.191.494.251.763.184.203-.05.372-.159.507-.329.159-.198.222-.415.192-.651-.028-.238-.153-.437-.374-.596ZM10.892,27.82c-.035.115-.124.259-.265.436-.119.149-.23.255-.336.323-.105.066-.205.097-.296.095-.073-.005-.142-.034-.208-.086-.104-.079-.152-.178-.147-.299.006-.173.1-.37.282-.598.154-.191.297-.318.43-.381.164-.074.308-.062.43.033.067.055.109.118.135.194.02.075.016.172-.024.284Z" fill="#201b4e"/>
    <path d="M13.099,28.664l-.003.01-.525-.274-.023.042c.061.031.107.065.13.1.017.022.023.051.023.088-.002.038-.019.088-.054.156l-.326.614c-.084.16-.16.264-.222.314-.061.049-.131.076-.21.083-.076.006-.157-.011-.239-.055-.072-.035-.123-.083-.154-.138-.031-.052-.045-.104-.045-.158.003-.056.039-.149.112-.285l.388-.737c.047-.088.081-.137.101-.154.019-.015.047-.026.074-.026.028-.002.071.014.131.043l.041.021.02-.042-.784-.406-.021.041c.064.033.104.06.122.085.016.025.022.053.022.078-.001.028-.026.083-.071.168l-.39.738c-.066.126-.1.236-.098.333.002.094.039.19.111.287.056.073.147.143.277.211.159.083.301.116.425.096.128-.019.223-.064.287-.129.065-.065.144-.186.237-.365l.303-.571c.031-.061.059-.102.082-.121.03-.027.066-.041.102-.045.038,0,.078.009.119.033l.033.016.019-.039-.127.43.045.013c.055-.115.128-.195.215-.237.064-.034.152-.033.263,0l.118.035-.374,1.258c-.022.081-.043.131-.056.148-.022.023-.043.039-.069.042-.033.009-.075.007-.123-.007l-.054-.018-.011.046.859.252.014-.047-.054-.016c-.046-.014-.082-.032-.103-.055-.024-.024-.035-.046-.039-.07-.004-.024.009-.077.032-.162l.376-1.258.122.036c.075.023.128.046.156.069.046.043.079.092.096.144.019.055.027.135.022.246l.045.012.129-.441-1.476-.432Z" fill="#201b4e"/>
    <path d="M15.582,29.23l.054.005c.05.004.087.014.114.032.027.018.045.04.054.061.006.023.008.077,0,.164l-.032.481-.606-.041.034-.48c.006-.087.014-.138.025-.157.014-.027.032-.047.053-.058.034-.015.076-.019.125-.017l.054.004.005-.046-.895-.059-.003.045.057.005c.047.003.085.014.112.031.027.02.044.039.052.061.008.021.008.076.004.164l-.079,1.116c-.005.085-.011.136-.022.156-.015.027-.033.045-.055.058-.032.016-.072.021-.123.019l-.055-.005-.003.046.894.06.002-.046-.057-.005c-.048-.004-.085-.013-.113-.032-.026-.019-.042-.037-.051-.061-.009-.022-.011-.075-.002-.163l.035-.526.604.04-.037.527c-.005.086-.015.137-.025.156-.014.028-.032.046-.055.058-.031.015-.071.02-.123.017l-.054-.003-.004.046.894.061v-.047s-.052-.005-.052-.005c-.05-.003-.089-.014-.114-.03-.028-.019-.044-.039-.053-.063-.009-.022-.009-.076-.001-.165l.076-1.112c.003-.088.012-.14.024-.159.014-.026.033-.045.056-.055.032-.015.072-.023.122-.018l.055.003.002-.045-.892-.061-.002.045Z" fill="#201b4e"/>
    <path d="M21.649,27.228c-.009-.033-.007-.064.006-.091.007-.026.04-.064.093-.114l-.028-.036-.455.332.027.036c.075-.055.146-.079.204-.062.047.011.099.058.16.141l.44.588-1.312-.352-.489.357-.484.231.019.042c.064-.03.115-.044.159-.044.028,0,.056.014.085.033.028.023.06.069.093.139l.305.623c.081.163.119.283.125.362.002.081-.018.154-.058.22-.043.065-.103.117-.185.158-.074.036-.14.049-.204.044-.064-.008-.115-.028-.156-.062-.044-.034-.099-.121-.165-.258l-.367-.749c-.043-.086-.063-.143-.066-.169-.002-.027.008-.053.021-.074.018-.023.057-.049.116-.079l.04-.017-.021-.042-.795.381.019.042c.066-.031.111-.047.144-.045.03,0,.056.01.075.027.021.014.052.068.096.156l.366.75c.063.127.134.218.208.273.079.057.179.084.303.084.091,0,.201-.031.334-.095.16-.078.271-.173.332-.283.058-.112.081-.214.067-.305-.015-.09-.067-.226-.154-.407l-.285-.581c-.033-.061-.047-.108-.048-.136-.003-.042.004-.077.026-.109.018-.027.048-.051.086-.071.04-.029.077-.047.108-.052.029-.003.073,0,.129.017l.059.014.716.965c.055.072.077.135.069.186-.005.054-.048.107-.122.164l.028.037.49-.357-.029-.038-.03.023c-.049.033-.1.052-.159.05-.055,0-.114-.041-.171-.121l-.647-.869,1.779.457.036-.026-.847-1.139c-.047-.065-.076-.115-.084-.15Z" fill="#201b4e"/>
    <path d="M23.469,27.58c-.033.031-.067.052-.097.06-.033.006-.06.006-.082-.003-.023-.009-.063-.046-.125-.108l-.776-.808c-.062-.063-.092-.104-.101-.127-.012-.03-.012-.055-.005-.078.011-.034.033-.067.069-.1l.041-.04-.033-.034-.647.612.033.035.039-.04c.036-.033.069-.053.102-.06.028-.008.057-.007.081.003.019.01.064.046.122.109l.777.809c.06.061.092.103.1.124.011.027.012.055.007.077-.012.034-.033.068-.07.102l-.041.039.03.034.649-.614-.031-.034-.042.04Z" fill="#201b4e"/>
    <path d="M25.334,24.336c.105.117.162.234.174.357.01.118-.029.244-.114.379l-.054.086c-.027.041-.051.067-.075.079-.022.01-.044.013-.067.008-.021-.003-.07-.033-.152-.082l-.407-.257c.044-.068.087-.114.128-.14.039-.022.098-.033.166-.026.07.007.15.03.235.075l.027-.042-.758-.478-.024.04c.105.082.17.162.205.241.031.076.016.159-.043.252l-.019.028-.588-.371.096-.149c.069-.109.123-.177.162-.21.063-.055.132-.085.201-.094.072-.007.164.011.281.055l.025-.04-.427-.269-.773,1.202.007.004-.353.42.035.03c.039-.046.076-.079.112-.097.02-.014.047-.02.07-.018.024.003.045.012.064.028.016.013.035.033.053.061.018.027.05.086.095.175l.365.74-.891-.265c-.094-.027-.15-.045-.17-.053-.02-.009-.037-.015-.048-.027-.018-.015-.027-.034-.026-.056.004-.033.029-.078.078-.132l.018-.024-.036-.029-.527.627.036.027c.05-.045.093-.066.129-.068.039,0,.142.026.314.077l1.425.418.026-.031-.627-1.282c-.077-.152-.118-.257-.129-.31-.012-.073,0-.136.033-.191l-.006-.005.025-.04c.029-.046.064-.076.1-.092.026-.01.053-.01.083-.003.016.006.058.03.125.072l.951.601c.071.045.112.077.125.095.019.026.028.051.025.075,0,.036-.016.073-.043.117l-.03.044.039.025.797-1.239-.416-.354-.027.039Z" fill="#201b4e"/>
    <path d="M26.63,22.78c-.027.011-.084.025-.178.042l-.699.115c.021-.104.021-.193,0-.269-.033-.117-.109-.201-.222-.257-.095-.046-.189-.058-.284-.037-.095.02-.176.07-.246.14-.068.074-.147.205-.238.389l-.347.711.042.021c.033-.07.063-.116.088-.134.028-.02.053-.029.08-.029.024,0,.081.023.164.06l1,.483c.084.04.13.071.149.093.016.018.026.045.028.077,0,.03-.016.082-.053.153l.044.02.382-.782-.041-.021c-.036.072-.064.115-.089.135-.024.018-.052.028-.077.028-.027,0-.082-.02-.165-.06l-.432-.209.049-.1.944-.153.236-.481-.041-.022c-.024.041-.054.072-.092.09ZM25.483,23.344l-.031.065-.675-.327.059-.119c.06-.122.131-.196.215-.224.082-.028.183-.013.3.044.081.039.142.085.176.139.033.054.05.112.044.175-.007.059-.033.143-.087.246Z" fill="#201b4e"/>
    <path d="M26.793,21.222c-.107-.039-.212-.042-.318-.008-.104.036-.241.131-.403.282-.117.11-.195.179-.234.205-.056.038-.106.061-.151.07-.032.006-.069.004-.106-.01-.054-.021-.098-.062-.122-.124-.027-.063-.023-.133.007-.214.038-.102.115-.183.229-.243.115-.059.244-.077.388-.049l.018-.049-.541-.183-.012.036c.043.028.07.049.077.065.009.017.009.034.002.057-.008.019-.035.053-.079.097-.046.042-.081.081-.102.115-.032.045-.058.092-.077.143-.053.142-.049.277.002.403.057.126.149.214.277.261.075.028.15.035.225.024.074-.012.149-.039.224-.085.076-.046.176-.126.3-.245.09-.086.16-.141.206-.172.047-.029.091-.047.137-.053.041-.007.08-.005.12.009.063.025.111.072.14.14.028.07.025.151-.008.236-.042.116-.125.205-.251.269-.125.067-.283.085-.465.057l-.017.044.609.222.016-.043c-.027-.026-.045-.052-.052-.081-.008-.029-.008-.055,0-.075.009-.023.028-.052.057-.082.053-.058.094-.109.121-.148.028-.042.05-.087.069-.138.06-.159.06-.309,0-.449-.056-.14-.152-.234-.287-.282Z" fill="#201b4e"/>
    <path d="M27.5,20.367c-.014.046-.032.079-.056.101-.021.022-.048.036-.072.038-.023.004-.076-.007-.16-.033l-1.083-.313c-.082-.023-.132-.042-.149-.058-.026-.019-.038-.042-.043-.065-.008-.033-.006-.075.008-.121l.015-.056-.046-.012-.25.852.044.014.019-.054c.01-.046.03-.081.053-.103.025-.021.049-.035.069-.036.024-.005.08.006.164.033l1.083.312c.083.025.132.043.149.058.022.018.037.041.043.067.009.033.005.072-.005.119l-.02.057.047.011.251-.851-.044-.016-.017.056Z" fill="#201b4e"/>
    <path d="M27.821,18.983c-.008.045-.023.084-.047.106-.021.026-.043.039-.068.043-.023.005-.077,0-.164-.019l-1.293-.275.026-.123c.016-.079.037-.131.058-.158.039-.051.084-.087.136-.108.053-.026.135-.037.244-.042l.011-.042-.455-.097-.321,1.493.452.096.011-.047c-.12-.045-.205-.11-.258-.194-.036-.063-.044-.147-.016-.261l.024-.118,1.293.273c.085.018.135.034.152.047.028.017.044.038.051.063.01.034.01.075,0,.121l-.012.056.046.01.186-.871-.046-.011-.013.057Z" fill="#201b4e"/>
    <path d="M28.102,17.047l-.009.096c-.007.045-.016.081-.039.104-.017.026-.04.042-.062.049s-.078.003-.165-.005l-.413-.048-.571-.439c-.147-.107-.235-.184-.266-.229-.02-.032-.033-.077-.033-.134l-.046-.007-.06.517.047.007c.014-.077.029-.127.056-.154.018-.018.038-.028.06-.024.041.004.12.051.238.141l.476.365-.599.24c-.129.052-.211.075-.238.072-.016-.001-.03-.012-.043-.035-.011-.019-.016-.056-.009-.105l.004-.035-.046-.006-.096.809.049.005c.006-.052.025-.094.054-.125.027-.029.122-.076.274-.137l.776-.311.341.038c.086.01.139.02.158.033.026.014.045.034.055.057.012.032.016.073.012.121l-.011.09.047.006.111-.949-.047-.005Z" fill="#201b4e"/>
    <path d="M5.623,12.791h-.256v-.104s.787-.545-.272-1.518c-.227.374-.542.899-.259,1.403.022.049.108.084.108.084v.15h-.267v2.314h.947v-2.329ZM5.159,12.557c-.463-.233-.04-1.054-.04-1.054.163.162.27.516.27.63,0,.336-.148.424-.229.424Z" fill="#201b4e"/>
    <path d="M26.806,12.855v.161h-.37v2.362h.959v-2.362h-.281v-.163c.722-.391.145-1.252,0-1.614-1.088,1.011-.307,1.617-.307,1.617ZM27.005,11.573c.223.217.308.583.299.655-.053.312-.288.343-.354.343-.534-.194.055-.998.055-.998Z" fill="#201b4e"/>
    <path d="M15.86,11.351h.526c.105-1.917,4.059-.98,4.059-.98v-4.377c-2.417-.732-3.995.333-4.428.605-2.552-1.541-4.152-.562-4.152-.562v4.168c4.227-.229,3.995,1.146,3.995,1.146ZM16.355,7.288c.959-1.136,3.294-.94,3.294-.94v3.19c-2.528,0-3.294.558-3.294.558v-2.808ZM12.622,6.348s2.335-.196,3.299.94v2.808s-.771-.558-3.299-.558v-3.19Z" fill="#201b4e"/>
    <path d="M10.199,20.587c1.759,4.254,5.152,4.184,5.818,4.184,4.53-.081,5.931-4.184,5.931-4.184v-5.557h.24v-1.393h-1.454v6.779c-1.604,3.322-4.132,3.19-4.662,3.19-3.31,0-4.667-3.018-4.667-3.018v-7.113h-1.489v1.402h.259s.025,2.949.025,5.712Z" fill="#201b4e"/>
    <path d="M13.392,7.078l.057.074h0c0,.035.002.073.01.119.009.058.016.093.029.118.016.042.03.066.041.077.036.043.079.063.126.063.05,0,.097-.023.142-.068.017.023.026.039.026.044.015.056.025.097.03.128l.031.06.116-.541h.101l-.06-.074h-.651ZM13.865,7.423l-.02-.055c.003-.018.003-.031.003-.052,0-.026-.003-.053-.017-.084-.028-.049-.072-.078-.128-.078-.033,0-.057.008-.075.026-.025.017-.036.041-.036.072,0,.018.008.035.022.047.015.013.032.018.053.018.024,0,.044-.01.066-.035.008-.006.013-.014.016-.017l.005.002c.012.004.017.02.02.034.002.015.002.03-.003.044-.011.044-.04.072-.089.073-.033.002-.061-.003-.082-.02-.011-.01-.03-.026-.052-.058-.014-.012-.021-.041-.033-.08,0-.007-.003-.037-.011-.089l-.042-.019h.463l-.059.271Z" fill="#201b4e"/>
    <path d="M15.332,7.508c-.007-.006-.007-.011-.007-.013-.004-.012-.006-.019-.006-.029,0-.01,0-.016.002-.027l-.037-.033c-.01.041-.018.085-.022.131l-.002.018c-.013-.025-.044-.033-.078-.038l-.008-.009h-.011s0,0,0,0c0,0-.004,0-.005,0h-.63l.058.073c0,.032.003.074.009.121.009.055.019.094.03.119.015.036.029.062.041.077.033.04.075.06.124.06s.097-.023.142-.07c.017.023.024.042.028.048.015.053.022.097.03.128l.029.058.115-.539h.033c.016,0,.034.006.047.013.011.011.018.027.019.046,0,0,0,.01-.002.024l-.082.382.056.078.116-.544h.102l-.056-.077h-.035ZM15.001,7.854l-.022-.057c.007-.017.007-.033.007-.049,0-.028-.007-.052-.019-.084-.029-.051-.07-.079-.129-.079-.03,0-.057.01-.077.025-.021.021-.034.041-.034.071,0,.02.008.034.026.047.014.012.028.018.049.018.023,0,.046-.013.065-.032.009-.011.016-.019.016-.019h.01c.009.007.015.019.015.038.004.013,0,.029,0,.041-.009.047-.04.07-.09.073-.032.005-.058-.005-.082-.02-.012-.006-.029-.026-.054-.053-.01-.017-.018-.044-.03-.081,0-.01-.004-.039-.014-.092l-.034-.017h.459l-.06.269Z" fill="#201b4e"/>
    <path d="M14.069,8.516l-.06-.072h-.622l.06.072h.302l-.005.021c-.106.031-.218.084-.325.157l.061.1c.073.006.128.04.161.096.012.02.019.04.026.053.004.003.004.022.008.056l.036.044.087-.419c.034,0,.062.013.083.04.013.017.022.037.022.054-.009-.005-.022-.008-.037-.008-.012,0-.022.002-.034.005-.036.025-.052.049-.052.078,0,.018.008.031.018.04.016.013.029.018.046.018.03,0,.053-.011.074-.034.034-.025.048-.068.048-.122,0-.038-.014-.076-.042-.112-.031-.037-.066-.054-.105-.054l.005-.014h.246ZM13.677,8.828c-.025-.048-.064-.087-.116-.118.028-.014.046-.026.053-.031.028-.015.064-.031.11-.048l-.046.197Z" fill="#201b4e"/>
    <path d="M15.154,8.697s-.004-.016,0-.03c.003-.015.005-.024.005-.03l-.047-.032-.104.482c-.022-.04-.051-.07-.09-.096.084-.034.126-.088.126-.149,0-.025-.01-.048-.026-.071-.003-.009-.026-.03-.061-.066-.054.043-.085.068-.095.07l-.016.008c-.003-.026-.018-.042-.05-.042-.022,0-.042.008-.058.024-.018.018-.026.035-.026.06,0,.02.009.032.024.044.013.014.032.018.05.018.048,0,.095-.016.148-.048l.028-.025c.007.011.008.021.007.031-.007.021-.033.045-.08.062-.041.014-.076.021-.108.021-.012,0-.037-.002-.072-.013l.083.14c.049.003.096.022.139.052.038.028.06.069.067.129.005.012.008.025.011.028l.028.041.114-.526h.096l-.062-.074c-.016-.004-.024-.006-.03-.008Z" fill="#201b4e"/>
    <path d="M16.942,8.249c.016.015.025.019.033.019.014,0,.025-.002.034-.012.005-.007.012-.019.012-.032v-.006c-.008-.012-.012-.019-.012-.026-.019-.042-.028-.07-.034-.084-.002-.025-.008-.056-.008-.092,0-.044,0-.077.006-.105.002-.028.002-.049.006-.059.007-.009.009-.018.009-.022,0-.024-.022-.047-.064-.065-.037-.016-.066-.02-.095-.02-.074,0-.137.028-.187.078-.057.056-.084.121-.084.2,0,.078.018.138.05.178.034.04.088.062.162.062.016,0,.038-.007.058-.014.025-.009.05-.019.081-.039.008.01.021.023.032.038ZM16.843,8.166c-.021.009-.046.017-.079.017-.033,0-.064-.015-.082-.039-.018-.031-.03-.068-.03-.119,0-.052.019-.097.056-.135.037-.042.079-.063.132-.063,0,0,.006.004.016.006.008.003.017.006.03.012-.005.018-.006.036-.008.055-.002.014-.002.028-.002.04,0,.042.004.104.014.189-.019.019-.035.03-.048.038Z" fill="#201b4e"/>
    <path d="M17.99,7.693c.049-.049.073-.111.073-.185,0-.069-.022-.129-.056-.18-.048-.053-.103-.076-.172-.076-.019,0-.043.004-.067.013-.027.01-.053.024-.081.041l.003-.119v-.106s0-.01.005-.018c0-.01,0-.017,0-.021,0-.026-.012-.04-.035-.04-.019,0-.036.009-.043.03-.011.014-.013.031-.013.049v.413c.002.067.002.115.002.151v.036c-.002.014-.002.027-.002.037,0,.012.005.025.014.029.01.01.021.015.03.015.016,0,.03-.01.039-.026.038.021.087.03.132.03.069,0,.131-.024.172-.074ZM17.69,7.643l-.003-.077v-.075l.003-.083c.027-.024.053-.04.067-.048.029-.014.054-.021.078-.021.044,0,.079.019.106.049.023.034.036.072.036.119,0,.049-.018.088-.045.122-.03.028-.069.045-.114.045-.026,0-.045-.002-.066-.007-.027-.01-.048-.018-.062-.025Z" fill="#201b4e"/>
    <path d="M18.975,7.29c0-.01-.007-.021-.016-.031-.012-.006-.019-.011-.039-.011,0,0-.008.008-.014.011l-.053.035c-.022.012-.037.019-.06.021-.039,0-.074-.004-.104-.025-.032-.02-.049-.052-.05-.095-.004-.037.003-.084.025-.139.03-.06.059-.088.091-.092.042-.007.073,0,.094.01.005.005.016.011.02.014.006.005.013.008.027.005.012,0,.018-.005.026-.014.008-.011.012-.022.009-.034-.002-.025-.029-.045-.082-.061-.039-.01-.072-.014-.101-.01-.064.005-.112.05-.152.131-.034.072-.05.138-.043.201.005.068.035.121.086.154.044.035.1.052.167.045.026-.005.063-.018.101-.042.047-.024.069-.05.069-.073Z" fill="#201b4e"/>
    <path d="M17.024,9.224h-.039c0-.015,0-.029-.003-.048-.002-.018-.002-.037-.002-.05,0-.024.002-.062.008-.116.008-.052.01-.091.01-.117,0-.009,0-.018-.002-.036v-.033c0-.005,0-.013.002-.026.003-.01.003-.018.003-.023,0-.016-.008-.026-.028-.026-.016,0-.037.011-.057.031-.022.018-.04.034-.053.045-.022.014-.03.026-.03.037,0,.01.003.017.008.023.008.009.017.012.028.012.007,0,.029-.012.06-.038,0,.034-.006.077-.008.138-.005.06-.01.102-.01.131,0,.011,0,.03.005.05,0,.019.004.036.004.05h-.018l-.016-.002c-.037,0-.056.012-.056.035,0,.012.006.021.019.026.007.002.019.004.035.004h.139c.009,0,.018-.002.022-.01.006-.005.011-.016.011-.024,0-.008-.005-.017-.011-.024-.005-.006-.014-.008-.022-.008Z" fill="#201b4e"/>
    <path d="M18.027,8.931c-.021,0-.055.001-.108.003l-.07.009c0-.041.01-.069.038-.099.015-.014.043-.033.085-.062.042-.024.072-.049.089-.07.011-.016.023-.033.031-.054.009-.019.009-.04.009-.065,0-.035-.016-.065-.049-.089-.029-.019-.064-.03-.101-.03-.032,0-.06.009-.088.028-.018.008-.042.027-.07.053-.008.009-.012.018-.012.025,0,.023.011.03.035.03.006,0,.016-.002.024-.011l.052-.039c.019-.015.039-.018.06-.018.015,0,.033.003.049.015.022.01.029.023.029.04,0,.03-.006.055-.029.077-.011.014-.035.029-.069.052-.057.043-.093.07-.105.084-.032.033-.044.078-.044.131,0,.017.002.03.005.04.004.016.011.023.032.023h.008s.012.004.012.004c.01,0,.024-.004.038-.004.022-.002.033-.007.043-.007h.113s.008,0,.019.005c.009.002.022.002.022.002.01,0,.018-.002.026-.007.005-.009.008-.016.008-.026,0-.016-.008-.025-.032-.033-.016-.006-.033-.009-.05-.009Z" fill="#201b4e"/>
    <path d="M19.109,8.378c.005,0,.007-.004.014-.007.043-.018.063-.055.061-.109-.004-.042-.02-.077-.054-.1-.03-.018-.073-.029-.117-.027-.023,0-.047.012-.077.027-.033.02-.053.036-.051.056,0,.01.004.016.01.023.011.005.017.009.026.009,0,0,.011-.005.018-.009l.036-.027c.015-.007.032-.013.046-.013.032,0,.057.004.073.018.017.011.025.026.029.046,0,.014-.007.028-.012.037-.011.01-.022.015-.037.024l-.081.026c-.019.01-.029.016-.029.032,0,.018.011.027.04.029.036.002.067.014.092.03.026.019.039.045.042.083,0,.021-.009.042-.028.058-.019.016-.039.028-.064.03-.022,0-.039-.002-.053-.008-.015-.006-.027-.011-.035-.024l-.016-.022c-.011-.006-.016-.013-.025-.013-.012,0-.018.007-.025.013-.005.005-.013.014-.01.021,0,.004.002.009.005.014.012.027.032.052.066.068.029.014.06.018.095.017.046,0,.084-.02.115-.054.031-.03.047-.071.044-.117-.001-.033-.009-.061-.028-.081-.016-.021-.041-.037-.071-.049Z" fill="#201b4e"/>
    <path d="M14.913,13.729c-.045.013-.081.016-.105.005-.023-.003-.042-.015-.056-.032-.012-.021-.029-.065-.052-.134-.108-.381-.167-.572-.276-.949-.017.004-.023.008-.036.012-.204.145-.302.223-.482.382.012.01.02.013.03.025.049-.042.086-.068.122-.08.023-.009.045-.013.068-.009.021.002.033.009.048.019.01.012.023.042.045.096.083.235.126.352.208.588.029.073.039.119.039.14,0,.025-.009.044-.025.063-.019.022-.053.039-.102.059-.013.005-.02.007-.031.014,0,.011.005.019.011.03.251-.099.376-.14.631-.205,0-.012-.005-.019-.008-.03-.012.003-.018.003-.029.006Z" fill="#201b4e"/>
    <path d="M15.873,12.628c-.052-.076-.117-.129-.201-.164-.086-.036-.177-.046-.267-.036-.087.007-.166.036-.242.085-.074.05-.128.109-.152.182-.029.074-.033.148-.019.227.022.112.077.192.158.246.082.053.17.068.274.058.032-.004.065-.011.091-.021.027-.01.097-.055.101-.053,0,0-.033.163-.071.233-.037.07-.088.13-.155.184-.063.053-.143.1-.24.141,0,.011,0,.016,0,.025.168-.038.306-.096.428-.178.118-.084.211-.18.276-.299.061-.121.096-.245.094-.369-.002-.097-.026-.182-.074-.261ZM15.625,13.079c-.012.017-.076.034-.103.039-.049.003-.091-.013-.126-.047-.053-.058-.092-.165-.117-.329-.012-.095-.006-.164.017-.206.022-.025.047-.043.085-.049.031-.002.057.005.077.014.039.02.071.055.092.107.041.086.062.188.07.292.004.052.022.151.004.179Z" fill="#201b4e"/>
    <path d="M16.349,13.531c-.074.04-.161.07-.266.093v.021c.17-.002.321-.03.452-.087.134-.056.247-.134.332-.238.088-.104.146-.217.171-.34.019-.096.014-.185-.019-.27-.033-.084-.089-.15-.163-.204-.078-.049-.164-.08-.255-.089-.086-.009-.172.003-.255.036-.078.032-.142.083-.187.148-.043.062-.063.138-.063.217-.002.112.033.204.104.271.067.067.153.104.254.114.032,0,.06,0,.09-.005.032-.002.108-.029.113-.024,0,0-.068.147-.117.209-.053.061-.115.109-.192.147ZM16.573,13.12c-.049-.006-.088-.03-.114-.074-.039-.065-.056-.179-.043-.343.006-.1.026-.166.057-.198.027-.023.058-.035.094-.03.031.002.053.012.073.026.032.028.057.069.069.12.019.098.023.201.006.306-.006.052-.008.151-.032.173-.014.019-.081.019-.11.019Z" fill="#201b4e"/>
    <path d="M17.013,13.706c0,.005,0,.01-.005.02.29.061.432.103.709.213.081-.118.122-.178.203-.295-.015-.006-.021-.008-.032-.015-.038.033-.064.049-.081.054-.018.01-.039.012-.06.01-.021-.006-.064-.018-.131-.039-.111-.041-.165-.06-.273-.087.265-.13.465-.218.572-.295.078-.058.137-.127.166-.194.016-.04.016-.091,0-.151-.017-.057-.053-.115-.103-.163-.055-.047-.121-.087-.2-.108-.111-.037-.211-.037-.309-.004-.095.03-.177.1-.239.203.011.006.019.012.036.017.081-.075.184-.096.293-.066.071.02.122.057.152.111.039.054.046.109.023.168-.028.084-.08.158-.16.229-.081.068-.282.186-.56.391Z" fill="#201b4e"/>
    <path d="M14.364,14.658c-.129.057-.257.116-.38.187.006.003.012.005.018.009.247.139.509.246.778.33.178-.286.392-.553.617-.811.004-.005.007-.01.011-.014-.047.007-.093.019-.14.027-.054.01-.108.02-.162.032-.232.052-.458.118-.673.207-.024.01-.046.024-.07.034Z" fill="#201b4e"/>
    <path d="M19.621,16.558h.179c-.333-.694-.844-1.288-1.487-1.709l-.032.019c.019.026.032.055.05.081.047.068.085.14.129.209.281.444.52.908.681,1.399h.48Z" fill="#201b4e"/>
    <path d="M15.92,15.527c-.361-.007-.719-.055-1.063-.151-.223.374-.397.771-.536,1.182h.703v-1h.424l.471.764v-.795Z" fill="#201b4e"/>
    <path d="M17.683,16.558c-.139-.411-.313-.808-.536-1.183-.345.097-.705.146-1.069.153v1.031h.26v-1h.407v1h.938Z" fill="#201b4e"/>
    <polygon points="15.43 16.558 15.586 16.558 15.43 16.308 15.43 16.558" fill="#201b4e"/>
    <path d="M17.728,16.712h-.983v.998h-.441l-.227-.364v.988h1.932c-.017-.557-.12-1.099-.282-1.623Z" fill="#201b4e"/>
    <path d="M15.682,16.712h-.252v.998h-.406v-.998h-.747c-.162.524-.264,1.065-.281,1.623h1.925v-1.241l-.238-.382Z" fill="#201b4e"/>
    <path d="M14.709,15.324c-.296-.094-.581-.219-.85-.376-.356.499-.632,1.04-.823,1.61h1.125c.141-.429.318-.842.548-1.233Z" fill="#201b4e"/>
    <polygon points="16.337 16.712 16.161 16.712 16.337 16.998 16.337 16.712" fill="#201b4e"/>
    <path d="M18.969,16.558c-.192-.571-.469-1.113-.825-1.614-.265.157-.548.28-.841.375.231.393.419.807.56,1.238h1.106Z" fill="#201b4e"/>
    <path d="M15.92,14.32v-.003c-.1.002-.199.01-.299.019-.004.005-.007.01-.011.015-.254.277-.484.57-.681.882.321.087.654.132.991.138v-1.051Z" fill="#201b4e"/>
    <path d="M13.722,14.872l-.039-.023c-.642.421-1.152,1.014-1.484,1.709h.667c.162-.497.404-.965.688-1.413.044-.069.082-.141.129-.209.014-.021.025-.043.039-.063Z" fill="#201b4e"/>
    <path d="M16.077,14.32v1.051c.339-.007.673-.052.996-.14-.196-.311-.425-.603-.678-.879-.004-.005-.007-.01-.012-.015-.102-.01-.204-.018-.307-.02v.003Z" fill="#201b4e"/>
    <path d="M16.613,14.363s.007.008.01.012c.221.256.425.523.601.806.267-.084.527-.189.772-.326.006-.004.013-.006.02-.01-.132-.076-.27-.14-.409-.2-.013-.006-.026-.014-.039-.019-.217-.091-.447-.158-.681-.21-.052-.012-.105-.021-.158-.031-.039-.007-.077-.017-.116-.023Z" fill="#201b4e"/>
    <path d="M13.321,21.549l.056.033c.114.091.225.184.349.263l-.011.007.109.066c.171.102.349.19.532.267.008.003.016.005.024.008.216.09.445.156.677.209.062.014.125.027.188.038.245.044.496.076.754.076s.51-.031.756-.076c.061-.011.122-.024.183-.037.24-.055.475-.122.697-.215.001,0,.002,0,.003-.001.184-.077.364-.165.536-.269l.112-.066-.013-.007c.131-.084.25-.183.371-.281l.039-.014c.005-.008.008-.019.012-.027.922-.768,1.522-1.904,1.522-3.187,0-.575-.118-1.123-.332-1.623h-.704c.157.524.243,1.068.259,1.623h-.145c0,.038-.004.08-.005.118-.012.548-.107,1.196-.255,1.781h-1.133c.156-.556.251-1.132.268-1.709.001-.04.009-.081.01-.121,0-.023.006-.047.006-.07h1.095c-.017-.556-.102-1.1-.263-1.623h-1.1c.157.523.242,1.068.259,1.623h-.148c0,.034-.008.068-.008.102-.01.607-.111,1.215-.279,1.798h-1.021c-.014-.069-.017-.146-.051-.201-.055-.09-.138-.163-.239-.216-.082-.042-.206-.082-.352-.122v-.461c.015.008.044.005.057.015.06.047.102.128.121.239l.437-.02c-.006-.2-.078-.356-.216-.474-.095-.084-.236-.126-.399-.15v-.509h-.157v.49c-.022,0-.037-.007-.06-.007-.166,0-.31.025-.428.073-.115.05-.207.123-.27.218-.063.098-.094.197-.094.312,0,.165.066.31.201.429.092.084.26.155.495.212.063.016.108.028.156.04v.132h-1.656c-.168-.582-.269-1.19-.279-1.798,0-.034-.008-.068-.008-.102h-.136c.017-.557.117-1.098.275-1.623h-1.127c-.16.523-.246,1.067-.263,1.623h1.097c0,.034.008.068.008.102,0,.03.006.059.007.089.017.578.111,1.154.267,1.709h-1.12c-.158-.596-.257-1.224-.267-1.8,0-.032-.007-.068-.007-.1h-.142c.016-.555.102-1.099.258-1.623h-.713c-.213.499-.331,1.048-.331,1.623,0,1.288.602,2.427,1.528,3.195.003.006.006.014.009.02ZM14.045,21.841c.188-.102.384-.185.584-.256.122.231.264.444.41.649.002.003.004.007.006.01-.208-.049-.411-.114-.608-.196-.021-.008-.04-.02-.06-.029-.12-.052-.24-.104-.355-.168.008-.004.016-.007.023-.011ZM17.977,21.852c-.12.066-.245.121-.37.175-.014.006-.027.014-.042.02-.196.081-.399.147-.605.196.003-.004.005-.008.008-.012.146-.204.286-.415.408-.644.198.071.392.153.577.254.008.004.016.007.024.012ZM16.747,22.283c-.005,0-.01.002-.015.003-.216.039-.434.064-.654.069v-1.011c.391.008.775.076,1.144.192-.143.265-.299.518-.475.747ZM15.92,22.352v.003c-.221-.004-.439-.03-.654-.069-.002,0-.004,0-.006-.001-.176-.23-.334-.484-.477-.751.367-.116.749-.183,1.138-.19v1.008ZM18.765,21.366c.026-.053.049-.109.074-.163.116-.255.216-.524.301-.811h.419c-.215.365-.48.693-.794.975ZM19.437,18.525c.001-.039.007-.078.007-.116,0-.025.005-.05.005-.074h.686c0,.706-.196,1.36-.513,1.94v-.04h-.435c.148-.55.235-1.132.25-1.709ZM18.991,20.391c-.104.381-.227.729-.363.984-.044.084-.091.152-.137.215-.096.073-.192.144-.295.209l-.022-.013c-.02-.012-.041-.02-.061-.031-.213-.123-.437-.222-.666-.306.167-.334.305-.689.418-1.057h1.127ZM17.297,21.396c-.393-.127-.803-.2-1.22-.208v-.177c.097-.012.206-.014.28-.045.127-.052.228-.131.294-.238.067-.105.097-.217.1-.336h.951c-.11.35-.244.687-.405,1.005ZM16.077,20.391h.239c-.004.076-.04.142-.107.197-.036.029-.08.05-.132.065v-.262ZM15.552,19.518c-.042-.035-.064-.08-.064-.13,0-.057.024-.103.07-.135.07-.051.17-.076.299-.076.028,0,.039.014.064.016v.458c-.187-.047-.315-.093-.368-.134ZM16.077,20.146c.01.003.03.008.037.011.064.025.102.051.132.078h-.169v-.088ZM15.92,20.391v.281c-.011,0-.018.003-.029.003-.135,0-.24-.03-.317-.099-.052-.043-.088-.109-.117-.185h.463ZM15.013,20.391c.038.196.114.356.242.466.149.122.356.185.632.185.013,0,.02-.005.033-.005v.151c-.415.008-.822.08-1.213.206-.16-.317-.294-.653-.404-1.003h.71ZM14.143,20.391c.112.367.249.721.415,1.055-.232.084-.458.184-.674.308-.02.012-.042.02-.062.031l-.022.013c-.113-.07-.216-.15-.321-.23-.026-.05-.048-.109-.072-.162-.143-.305-.269-.646-.375-1.015h1.111ZM11.943,18.335h.611c0,.035.006.071.007.107,0,.028.004.056.005.084.016.577.103,1.159.252,1.709h-.444v.039c-.316-.58-.513-1.233-.513-1.939h.083ZM12.438,20.391h.427c.085.289.186.562.303.818.025.055.048.111.074.164-.318-.284-.587-.614-.804-.982Z" fill="#201b4e"/>
  </g>
  <g>
    <path d="M22.416,13.666v6.922s-1.343,4.769-6.23,4.769c-.998,0-5.198-.099-6.586-4.769v-7.114h-1.132v7.114c0,.259.783,5.257,7.53,5.925,0,0,5.731.162,7.681-5.925v-6.922h-1.262Z" fill="#2ba0da"/>
    <path d="M12.53,20.391h-.093c.217.368.486.698.804.982-.026-.053-.049-.109-.074-.164-.117-.257-.217-.529-.303-.818h-.334Z" fill="#2ba0da"/>
    <path d="M17.901,20.235h1.133c.148-.586.242-1.234.255-1.781,0-.04-.008-.079-.009-.118h-1.095c0,.023-.005.047-.006.07,0,.04.006.08.006.121h-.016c-.017.577-.111,1.153-.268,1.709Z" fill="#2ba0da"/>
    <path d="M15.92,20.235v-.132c-.048-.013-.093-.025-.156-.04-.235-.057-.403-.129-.495-.212-.136-.119-.201-.264-.201-.429,0-.116.032-.214.094-.312.063-.095.155-.168.27-.218.119-.048.262-.073.428-.073.023,0,.038.006.06.007v-.49h-1.925c-.001.034-.009.068-.01.102.01.607.111,1.215.279,1.798h1.656Z" fill="#2ba0da"/>
    <path d="M15.92,21.037c-.013,0-.02.005-.033.005-.276,0-.483-.063-.632-.185-.128-.111-.203-.271-.242-.466h-.71c.11.349.244.686.404,1.003.391-.126.799-.198,1.213-.206v-.151Z" fill="#2ba0da"/>
    <path d="M14.105,20.235c-.156-.555-.25-1.131-.267-1.709h-.016c0-.03.008-.059.008-.089,0-.034-.008-.068-.008-.102h-1.097c-.001.034-.007.066-.008.1.01.575.109,1.204.267,1.8h1.12Z" fill="#2ba0da"/>
    <path d="M17.702,20.391h-.951c-.003.119-.033.232-.1.336-.066.108-.167.186-.294.238-.074.031-.183.033-.28.045v.177c.417.008.827.081,1.22.208.16-.318.295-.655.405-1.005Z" fill="#2ba0da"/>
    <path d="M15.266,22.286c.215.039.433.064.654.069v-1.011c-.389.008-.77.075-1.138.19.143.267.301.521.477.751.002,0,.004,0,.006.001Z" fill="#2ba0da"/>
    <path d="M16.115,20.157c-.007-.002-.027-.008-.037-.011v.088h.169c-.03-.027-.068-.053-.132-.078Z" fill="#2ba0da"/>
    <path d="M19.187,20.235h.435v.04c.316-.58.513-1.234.513-1.94h-.686c0,.025-.004.05-.005.074,0,.039.009.077.009.116h-.016c-.016.577-.102,1.159-.25,1.709Z" fill="#2ba0da"/>
    <path d="M16.669,20.034c.034.055.037.132.051.201h1.021c.168-.583.269-1.191.279-1.798,0-.035-.009-.068-.01-.102h-1.932v.509c.163.024.304.066.399.15.138.119.21.274.216.474l-.437.02c-.019-.111-.06-.191-.121-.239-.013-.01-.042-.007-.057-.015v.461c.146.039.271.08.352.122.101.052.184.126.239.216Z" fill="#2ba0da"/>
    <path d="M16.967,22.231s-.005.008-.008.012c.207-.05.409-.115.605-.196.014-.006.028-.014.042-.02.125-.054.25-.109.37-.175-.008-.004-.016-.007-.024-.012-.185-.101-.379-.183-.577-.254-.122.23-.263.44-.408.644Z" fill="#2ba0da"/>
    <path d="M14.437,22.048c.198.081.401.146.608.196-.002-.003-.004-.007-.006-.01-.147-.206-.288-.418-.41-.649-.2.072-.396.154-.584.256-.008.004-.016.007-.023.011.115.064.235.116.355.168.02.009.04.02.06.029Z" fill="#2ba0da"/>
    <path d="M15.92,20.391h-.463c.029.076.064.142.117.185.077.068.182.099.317.099.011,0,.018-.003.029-.003v-.281Z" fill="#2ba0da"/>
    <path d="M16.747,22.283c.175-.229.332-.482.475-.747-.369-.117-.753-.185-1.144-.192v1.011c.221-.004.439-.03.654-.069.005,0,.01-.002.015-.003Z" fill="#2ba0da"/>
    <path d="M15.558,19.253c-.046.032-.07.079-.07.135,0,.05.022.095.064.13.053.041.18.087.368.134v-.458c-.025-.002-.035-.016-.064-.016-.129,0-.229.024-.299.076Z" fill="#2ba0da"/>
    <path d="M16.316,20.391h-.239v.262c.052-.014.096-.036.132-.065.067-.055.102-.121.107-.197Z" fill="#2ba0da"/>
    <path d="M12.373,20.235h.444c-.148-.55-.236-1.132-.252-1.709h-.012c0-.028.006-.056.007-.084,0-.035-.007-.071-.007-.107h-.694c0,.705.196,1.359.513,1.939v-.039Z" fill="#2ba0da"/>
    <path d="M13.48,21.569c.105.08.209.16.321.23l.022-.013c.02-.012.042-.02.062-.031.216-.124.442-.224.674-.308-.166-.333-.303-.687-.415-1.055h-1.111c.106.37.232.711.375,1.015.025.053.047.112.072.162Z" fill="#2ba0da"/>
    <path d="M18.173,21.786l.022.013c.103-.064.198-.136.295-.209.046-.063.092-.131.137-.215.136-.256.259-.603.363-.984h-1.127c-.113.368-.251.723-.418,1.057.23.084.454.183.666.306.02.012.042.02.061.031Z" fill="#2ba0da"/>
    <path d="M19.468,20.391h-.328c-.084.287-.185.556-.301.811-.025.055-.048.111-.074.163.314-.282.579-.609.794-.975h-.091Z" fill="#2ba0da"/>
  </g>
  <g>
    <path d="M26.95,12.571c.066,0,.301-.03.354-.343.009-.072-.076-.438-.299-.655,0,0-.589.804-.055.998Z" fill="#fff"/>
    <path d="M5.119,11.503s-.423.821.04,1.054c.081,0,.229-.087.229-.424,0-.114-.107-.468-.27-.63Z" fill="#fff"/>
    <path d="M25.35,22.783c-.117-.057-.218-.071-.3-.044-.084.028-.155.102-.215.224l-.059.119.675.327.031-.065c.054-.103.081-.187.087-.246.005-.063-.011-.121-.044-.175-.034-.054-.095-.1-.176-.139Z" fill="#fff"/>
    <path d="M5.23,19.641c.22-.045.383-.103.482-.168.102-.063.168-.132.201-.205.032-.072.04-.15.022-.233-.034-.152-.136-.251-.311-.297-.141-.037-.332-.029-.575.021-.286.061-.486.156-.602.284-.081.09-.109.197-.081.323.018.084.056.15.107.197.069.062.166.1.29.115.125.014.279,0,.467-.037Z" fill="#fff"/>
    <path d="M5.874,21.204c.064.014.138.011.225-.02.125-.04.207-.098.249-.175.039-.077.039-.179-.003-.307l-.044-.127-.711.231.022.068c.036.111.073.191.111.238.039.049.09.08.153.093Z" fill="#fff"/>
    <path d="M15.998.738C9.057.738,3.431,7.573,3.431,15.999s5.626,15.261,12.567,15.261,12.569-6.831,12.569-15.261S22.942.738,15.998.738ZM27.113,11.238c.145.362.722,1.224,0,1.614v.163h.281v2.362h-.959v-2.362h.37v-.161s-.781-.605.307-1.617ZM25.967,8.749c.021-.017.036-.038.043-.062.007-.034.004-.075-.016-.124l-.019-.048.04-.015.487,1.207-.427.17-.016-.038c.098-.063.159-.123.191-.177.03-.055.04-.122.034-.2-.002-.044-.026-.121-.071-.232l-.059-.145-.594.234.013.029c.037.091.091.147.168.166.074.017.173.008.29-.024l.015.039-.761.303-.016-.039c.077-.042.138-.089.182-.135.042-.049.063-.094.067-.139.004-.044-.009-.099-.037-.166l-.41.163c-.08.032-.126.054-.143.068-.012.015-.022.033-.027.056-.004.025.003.057.017.098l.036.084c.056.136.132.229.226.288.098.055.214.075.359.059l.016.04-.488.119-.506-1.246.039-.015.019.045c.019.043.038.075.064.094.018.015.042.022.07.022.019,0,.067-.013.14-.04l.955-.385c.067-.027.107-.045.12-.053ZM24.945,6.961c.223.061.396.203.518.42.039.067.067.131.088.191.012.032.022.085.036.167.012.08.021.124.029.138.009.017.026.033.049.041.022.008.056.008.104,0l.022.036-.482.27-.022-.037c.104-.119.168-.241.185-.369.021-.128-.002-.244-.064-.35-.057-.099-.134-.167-.228-.203-.094-.034-.204-.037-.321-.008-.118.03-.232.075-.34.135-.132.073-.239.151-.319.24-.081.085-.125.175-.132.27-.009.094.016.189.067.281.021.033.043.065.068.094.027.031.058.061.092.089l.283-.159c.054-.032.086-.053.098-.07.011-.017.017-.038.017-.069,0-.03-.011-.061-.029-.095l-.019-.035.037-.019.373.657-.036.022c-.032-.049-.058-.079-.08-.092-.023-.014-.047-.021-.077-.018-.017.002-.049.015-.099.043l-.284.16c-.088-.065-.169-.138-.24-.221-.075-.083-.138-.175-.196-.275-.074-.127-.118-.245-.129-.35-.014-.104-.008-.205.01-.302.019-.097.057-.184.108-.261.066-.098.156-.178.27-.244.207-.116.42-.14.644-.075ZM23.723,5.029l-.032-.041.033-.027.434.55c.113.147.187.277.216.398.038.147.028.287-.029.42-.055.133-.145.249-.271.348-.086.065-.177.114-.272.143-.094.028-.184.039-.264.033-.084-.009-.161-.028-.234-.064-.075-.034-.154-.089-.235-.159-.036-.033-.086-.086-.147-.167l-.431-.547.033-.025.031.04c.028.035.056.058.082.068.027.011.053.013.078.006.016-.004.059-.03.122-.08l.814-.628c.062-.048.097-.084.108-.101.012-.019.014-.042.01-.073-.005-.029-.02-.061-.047-.095ZM21.516,4.83c.02-.006.056-.038.11-.095l.705-.746c.047-.051.077-.085.086-.1.012-.024.016-.049.01-.073-.007-.036-.025-.072-.066-.104l-.036-.037.028-.032.958.891-.317.334-.033-.029c.062-.096.094-.178.099-.24.003-.064-.013-.128-.05-.195-.022-.04-.079-.098-.162-.179l-.121-.112-.434.464.022.02c.073.068.146.094.223.079.074-.015.16-.062.25-.142l.032.03-.56.593-.032-.03c.054-.07.088-.135.108-.198.017-.061.018-.111.003-.152-.015-.042-.05-.088-.104-.137l-.303.318c-.059.061-.092.103-.099.122-.009.018-.009.041-.005.062.007.023.027.048.057.079l.07.064c.108.1.217.154.327.166.112.008.228-.022.351-.096l.03.03-.39.311-.989-.918.028-.031.04.036c.033.029.065.05.097.058.021.005.045.002.07-.011ZM20.741,2.543l.699.455-.025.034-.056-.035c-.039-.026-.074-.039-.105-.042-.024,0-.045.006-.07.022-.018.01-.047.049-.089.113l-.551.829c-.043.064-.068.109-.073.134-.004.021.003.044.019.07.013.015.05.043.112.084l.108.071c.07.046.136.07.198.078.064.004.129-.008.197-.037.068-.032.152-.088.25-.17l.039.026-.352.425-1.161-.76.022-.035.045.028c.039.024.075.038.106.039.022.002.045-.005.068-.021.019-.01.048-.049.091-.114l.566-.855c.045-.065.067-.11.074-.131.002-.021,0-.045-.016-.072-.013-.026-.039-.051-.074-.076l-.045-.028.024-.034ZM18.096,1.478l.638.228-.012.039c-.054-.015-.087-.021-.112-.011-.022.009-.037.021-.043.042-.01.027-.015.091-.01.191l.032.814.432-.473-.005-.177c-.003-.096-.009-.164-.014-.195-.008-.037-.023-.064-.041-.085-.019-.021-.052-.038-.097-.056l.014-.038.715.253-.014.04c-.05-.018-.087-.026-.112-.027-.018,0-.032.004-.046.013-.012.008-.021.021-.027.035-.009.018-.009.075-.009.172l.022.788.466-.543c.048-.054.079-.094.094-.116.015-.021.026-.042.035-.062.009-.028.006-.056-.007-.082-.014-.021-.049-.045-.106-.068l.013-.038.383.135-.014.041c-.03-.008-.054-.009-.079-.003-.022.006-.046.021-.072.042-.005.006-.05.056-.127.143l-.899,1.044-.039-.015-.026-1.072-.743.8-.04-.016-.055-1.364c-.005-.138-.014-.224-.023-.256-.013-.033-.04-.059-.086-.078l.015-.042ZM16.043,1.495c.168-.14.368-.201.598-.177.25.008.446.093.592.256.147.164.212.362.196.59-.015.196-.084.366-.21.507-.167.19-.39.273-.671.255-.28-.019-.493-.128-.634-.326-.111-.157-.161-.34-.145-.545.016-.229.106-.416.273-.561ZM14.172,1.502l.928.817-.116-.658c-.015-.093-.039-.151-.071-.178-.045-.04-.11-.049-.195-.034l-.006-.04.509-.089.008.043c-.064.019-.105.037-.125.055-.019.016-.034.04-.042.072-.005.034-.005.086.009.157l.225,1.276-.04.006-1.267-1.096.17.973c.015.09.045.142.092.168.045.024.096.033.147.023l.035-.007.009.041-.548.096-.008-.041c.086-.016.142-.044.169-.084.028-.04.036-.099.022-.181l-.191-1.08-.039-.036c-.041-.034-.074-.056-.1-.064-.027-.007-.066-.01-.112-.004l-.007-.04.546-.095ZM12.232,2.12l.018.039c-.049.018-.084.042-.102.067-.016.017-.022.04-.023.068,0,.021.014.068.046.14l.192.443.349-.653c.05-.093.066-.155.051-.193-.012-.026-.039-.04-.073-.044-.021,0-.061.01-.123.037l-.018-.04.562-.24.018.041c-.051.024-.085.05-.108.077-.021.026-.066.102-.132.229l-.28.515.78.415c.109.057.197.09.262.1.047.009.092.003.13-.015l.02.038-.748.318-.018-.039c.043-.023.073-.044.081-.059.01-.018.011-.033.004-.05-.012-.029-.067-.07-.169-.122l-.508-.274-.033.068.168.389c.03.073.055.119.073.133.015.015.04.023.067.028.029.002.07-.008.125-.032l.017.039-.728.311-.018-.04.048-.02c.044-.019.075-.04.095-.065.01-.017.018-.042.018-.068,0-.022-.014-.066-.044-.138l-.408-.942c-.03-.07-.055-.113-.071-.13-.015-.015-.036-.025-.069-.028-.028-.004-.063.002-.104.02l-.046.021-.018-.04.716-.303ZM9.776,3.62l.028.033c-.041.033-.07.065-.081.094-.009.021-.009.045-.003.07.005.023.032.062.081.123l.308.376.156-.724c.024-.1.022-.166-.002-.198-.019-.021-.044-.029-.081-.021-.02.002-.056.026-.108.065l-.028-.033.477-.381.027.033c-.042.038-.069.071-.082.103-.015.033-.037.119-.069.26l-.126.569.86.192c.122.025.218.034.28.025.049-.006.091-.022.125-.051l.028.033-.636.507-.027-.035c.037-.032.058-.06.064-.079.002-.019.002-.033-.01-.047-.021-.026-.087-.05-.196-.074l-.564-.127-.014.074.268.33c.05.063.086.1.105.11.02.009.043.012.074.007.03-.007.066-.024.111-.062l.026.032-.615.492-.029-.033.043-.034c.035-.028.057-.056.07-.087.008-.021.008-.045,0-.072-.005-.019-.032-.06-.082-.119l-.646-.797c-.049-.063-.084-.097-.104-.106-.019-.014-.042-.015-.074-.012-.029.004-.06.021-.095.049l-.04.033-.026-.033.607-.485ZM8.799,4.49l.344.306-.028.033c-.102-.058-.183-.088-.246-.092-.063-.002-.129.017-.195.055-.04.021-.098.077-.177.167l-.109.118.475.424.022-.026c.065-.072.089-.147.073-.221-.016-.074-.065-.155-.147-.245l.031-.033.608.543-.029.033c-.073-.052-.141-.086-.204-.103-.06-.016-.112-.016-.155,0-.04.017-.086.051-.135.109l.331.292c.063.058.104.089.122.095.021.008.041.008.063.002.022-.006.049-.026.079-.058l.063-.07c.098-.109.151-.217.158-.328.009-.11-.025-.225-.103-.345l.027-.033.325.383-.904,1.001-.032-.03.035-.036c.031-.034.047-.065.055-.098.005-.021.002-.045-.011-.072-.009-.018-.039-.053-.099-.105l-.768-.682c-.053-.047-.084-.076-.101-.084-.026-.011-.049-.016-.075-.01-.035.007-.07.03-.105.069l-.033.038-.034-.029.879-.969ZM7.631,5.848l.382.259-.025.035c-.106-.044-.19-.063-.254-.058-.064.003-.127.032-.187.08-.034.028-.088.089-.153.186l-.091.133.526.357.016-.026c.056-.081.072-.158.044-.23-.026-.072-.087-.147-.18-.224l.025-.037.68.461-.025.035c-.079-.042-.149-.068-.214-.075-.064-.007-.115,0-.153.023-.038.019-.077.061-.12.12l.365.248c.069.049.117.076.135.079.022.005.04.004.063-.007.02-.011.046-.033.07-.069l.054-.076c.081-.122.12-.236.112-.347-.003-.11-.055-.218-.148-.327l.025-.036.371.336-.763,1.109-.035-.023.029-.042c.026-.037.039-.075.042-.103.002-.023-.005-.047-.019-.071-.013-.017-.049-.046-.114-.092l-.853-.574c-.056-.042-.094-.065-.111-.068-.026-.01-.051-.01-.075,0-.032.01-.067.039-.096.079l-.029.042-.036-.024.742-1.074ZM6.409,7.737c.022-.045.052-.086.085-.121.023-.028.06-.06.108-.094.047-.032.074-.061.083-.079.009-.017.014-.032.006-.049-.005-.017-.025-.039-.063-.07l.017-.031.469.231-.025.042c-.124-.041-.243-.042-.356-.002-.112.04-.19.103-.239.194-.035.068-.046.132-.029.192.014.06.047.101.095.129.03.014.061.023.094.02.041-.003.089-.017.144-.045.04-.019.118-.07.236-.156.166-.119.298-.189.399-.207.103-.019.199-.003.289.045.117.06.192.158.229.29.034.135.016.27-.06.408-.021.044-.048.082-.077.115-.029.033-.071.074-.129.119-.029.024-.053.048-.062.07-.009.017-.012.038-.009.066.003.026.016.052.037.078l-.019.039-.523-.275.019-.037c.162.048.304.048.428.004.122-.043.21-.115.26-.212.041-.077.054-.147.036-.214-.017-.067-.054-.114-.109-.144-.032-.017-.068-.025-.11-.023-.039.002-.082.01-.129.031-.046.022-.113.065-.206.132-.128.091-.23.154-.301.184-.074.034-.144.05-.215.052-.069,0-.136-.015-.201-.052-.109-.057-.183-.145-.217-.267-.034-.122-.019-.244.046-.365ZM16.017,3.534c5.351,0,9.687,5.615,9.687,12.535s-4.336,12.538-9.687,12.538-9.685-5.612-9.685-12.538S10.67,3.534,16.017,3.534ZM4.676,12.806h.267v-.15s-.085-.036-.108-.084c-.283-.504.032-1.03.259-1.403,1.059.973.272,1.518.272,1.518v.104h.256v2.329h-.947v-2.314ZM4.015,17.979l1.293-1.297-1.084.117c-.097.01-.161.039-.19.088-.029.049-.041.1-.036.159l.005.04-.044.004-.067-.6.048-.005c.008.092.034.157.076.189.044.032.11.043.199.033l1.203-.131.04-.04c.043-.041.07-.077.078-.105.012-.029.015-.07.012-.121l.046-.005.066.597-.965.949.733-.08c.101-.01.169-.032.203-.065.043-.044.06-.113.046-.207l.049-.005.06.558-.045.005c-.018-.071-.036-.116-.053-.14-.018-.023-.043-.039-.079-.05-.035-.011-.093-.011-.172,0l-1.418.154-.006-.042ZM4.275,19.388c-.065-.299-.012-.553.156-.759.133-.164.313-.268.534-.316.249-.052.474-.012.676.121.203.132.325.322.368.569.067.265.035.495-.094.697-.129.198-.32.326-.569.379-.211.046-.412.025-.6-.066-.251-.117-.408-.326-.472-.625ZM5.182,22.068c-.014.043-.016.082-.005.126l-.042.014-.169-.508.569-.761-.036-.108-.455.148c-.089.03-.143.053-.162.073-.019.016-.032.04-.037.073-.004.031.005.085.032.157l-.049.015-.269-.827.043-.014c.024.072.048.123.072.143.02.023.046.037.071.039.027.004.082-.009.172-.037l1.058-.343c.087-.03.142-.051.16-.07.02-.019.032-.045.036-.074.006-.034-.004-.086-.03-.158l.047-.015.245.752c.067.195.099.344.101.443.002.098-.022.188-.077.269-.056.081-.13.138-.229.17-.122.04-.235.028-.342-.033-.066-.04-.129-.105-.187-.193l-.423.568c-.054.072-.087.122-.097.15ZM5.727,23.412l.023.052-.043.021-.369-.812.044-.02.024.052c.018.043.046.077.073.097.021.016.044.024.077.023.021,0,.07-.018.15-.051l1.207-.537-.05-.113c-.046-.104-.104-.17-.17-.198-.092-.04-.2-.04-.323-.007l-.02-.044.422-.189.631,1.395-.423.189-.018-.042c.087-.069.145-.125.173-.175.029-.049.047-.103.047-.17,0-.034-.015-.087-.051-.16l-.049-.115-1.209.536c-.08.035-.125.061-.143.081-.018.016-.026.041-.029.073-.002.033.005.072.026.115ZM6.946,25.57l.027.049-.041.023-.458-.761.042-.025.026.048c.025.043.055.074.086.089.021.012.047.017.078.012.022,0,.07-.025.142-.069l.457-.268-.31-.517-.458.271c-.074.044-.119.077-.134.095-.012.019-.02.046-.02.078.003.032.013.069.038.108l.03.049-.041.024-.458-.764.04-.023.028.048c.026.042.055.072.086.09.02.01.047.016.077.01.022-.002.07-.025.144-.069l.966-.574c.077-.044.121-.076.135-.097.013-.019.02-.042.02-.076,0-.032-.011-.068-.036-.109l-.031-.048.041-.025.462.762-.043.023-.029-.048c-.026-.042-.055-.073-.084-.088-.022-.013-.049-.017-.079-.013-.021.004-.069.027-.143.069l-.419.249.311.514.42-.246c.074-.045.119-.077.132-.096.015-.018.022-.045.022-.077-.003-.031-.015-.069-.039-.11l-.03-.048.044-.023.459.761-.04.025-.03-.047c-.024-.044-.055-.073-.085-.087-.019-.014-.047-.021-.077-.016-.02.003-.07.027-.144.071l-.968.573c-.073.046-.12.077-.133.097-.014.017-.022.042-.02.075,0,.032.013.07.039.11ZM9.144,27.486c-.104.097-.232.142-.383.13-.152-.009-.288-.077-.404-.2-.039-.04-.071-.08-.094-.121-.023-.043-.053-.1-.078-.174-.018-.041-.032-.07-.051-.09-.016-.014-.037-.026-.065-.033-.03-.005-.062-.002-.098.012l-.032-.035.471-.44.03.034c-.105.151-.157.295-.157.436.005.143.047.259.131.346.065.069.135.106.21.112.078.005.141-.015.191-.062.027-.028.05-.061.063-.102.011-.044.018-.089.011-.145-.005-.054-.027-.141-.062-.26-.053-.163-.084-.289-.09-.375-.009-.087,0-.165.023-.236.024-.072.067-.136.125-.19.099-.092.218-.135.355-.127.138.006.261.065.365.175.039.039.07.084.097.132.02.034.039.081.059.14.02.061.036.098.052.115.014.014.03.024.05.024.018,0,.05-.014.094-.042l.027.027-.407.398-.034-.036c.086-.115.131-.238.127-.366-.001-.128-.041-.233-.118-.313-.057-.061-.122-.097-.189-.1-.07-.007-.125.012-.169.053-.027.025-.044.055-.054.087-.012.045-.013.099-.005.164.006.048.036.149.081.3.067.21.092.375.074.484-.015.109-.064.202-.147.277ZM10.493,28.847c-.269.068-.523.007-.763-.184-.241-.19-.364-.417-.368-.683,0-.21.07-.405.209-.581.157-.195.357-.31.599-.335.24-.026.457.042.647.207.221.159.346.357.374.596.03.237-.033.454-.192.651-.135.169-.304.279-.507.329ZM14.402,29.526c.005-.112-.002-.191-.022-.246-.017-.052-.05-.1-.096-.144-.028-.023-.081-.047-.156-.069l-.122-.036-.376,1.258c-.024.084-.036.138-.032.162.005.024.016.046.039.07.021.023.057.041.103.055l.054.016-.014.047-.859-.252.011-.046.054.018c.048.013.09.016.123.007.026-.003.047-.019.069-.042.014-.017.034-.067.056-.148l.374-1.258-.118-.035c-.111-.033-.199-.034-.263,0-.087.042-.16.122-.215.237l-.045-.013.127-.43-.019.039-.033-.016c-.041-.023-.081-.033-.119-.033-.036.004-.072.018-.102.045-.023.019-.051.06-.082.121l-.303.571c-.093.179-.172.3-.237.365-.064.065-.159.11-.287.129-.124.02-.266-.014-.425-.096-.13-.068-.221-.138-.277-.211-.071-.097-.108-.193-.111-.287-.002-.097.031-.207.098-.333l.39-.738c.044-.085.069-.14.071-.168,0-.025-.007-.052-.022-.078-.019-.025-.058-.052-.122-.085l.021-.041.784.406-.02.042-.041-.021c-.06-.029-.103-.045-.131-.043-.027,0-.054.01-.074.026-.019.018-.053.066-.101.154l-.388.737c-.072.136-.109.229-.112.285,0,.053.014.106.045.158.031.055.082.103.154.138.081.044.163.061.239.055.079-.007.149-.035.21-.083.062-.05.138-.154.222-.314l.326-.614c.035-.068.053-.119.054-.156,0-.037-.006-.066-.023-.088-.023-.034-.069-.068-.13-.1l.023-.042.525.274.003-.01,1.476.432-.129.441-.045-.012ZM16.475,29.293l-.055-.003c-.05-.004-.091.003-.122.018-.022.009-.042.028-.056.055-.012.02-.021.072-.024.159l-.076,1.112c-.007.089-.007.143.001.165.009.024.024.044.053.063.025.017.064.027.114.03l.053.005v.047s-.895-.061-.895-.061l.004-.046.054.003c.052.003.092-.001.123-.017.023-.012.041-.03.055-.058.01-.019.019-.07.025-.156l.037-.527-.604-.04-.035.526c-.009.087-.007.141.002.163.009.023.026.042.051.061.028.019.065.028.113.032l.057.005-.002.046-.894-.06.003-.046.055.005c.051.002.092-.003.123-.019.022-.012.04-.03.055-.058.011-.02.018-.071.022-.156l.079-1.116c.004-.088.004-.143-.004-.164-.008-.023-.025-.042-.052-.061-.027-.017-.065-.028-.112-.031l-.057-.005.003-.045.895.059-.005.046-.054-.004c-.049-.002-.091.003-.125.017-.021.01-.039.03-.053.058-.011.019-.019.071-.025.157l-.034.48.606.041.032-.481c.008-.087.005-.141,0-.164-.009-.021-.026-.042-.054-.061-.027-.017-.063-.028-.114-.032l-.054-.005.002-.045.892.061-.002.045ZM22.545,28.543l-1.779-.457.647.869c.057.08.116.12.171.121.059.002.11-.017.159-.05l.03-.023.029.038-.49.357-.028-.037c.074-.057.118-.11.122-.164.008-.052-.014-.114-.069-.186l-.716-.965-.059-.014c-.056-.017-.101-.02-.129-.017-.03.005-.068.023-.108.052-.038.02-.068.044-.086.071-.022.031-.029.067-.026.109.001.028.016.075.048.136l.285.581c.088.181.139.317.154.407.015.091-.009.193-.067.305-.06.11-.172.205-.332.283-.132.064-.243.095-.334.095-.124,0-.224-.026-.303-.084-.074-.055-.146-.147-.208-.273l-.366-.75c-.044-.088-.074-.142-.096-.156-.019-.017-.045-.027-.075-.027-.032-.002-.078.014-.144.045l-.019-.042.795-.381.021.042-.04.017c-.06.03-.098.056-.116.079-.012.022-.022.047-.021.074.003.026.023.083.066.169l.367.749c.066.137.121.224.165.258.041.034.091.054.156.062.064.005.13-.008.204-.044.082-.041.142-.092.185-.158.04-.066.06-.139.058-.22-.005-.078-.044-.198-.125-.362l-.305-.623c-.033-.07-.065-.116-.093-.139-.029-.02-.057-.033-.085-.033-.043,0-.094.014-.159.044l-.019-.042.484-.231.489-.357,1.312.352-.44-.588c-.061-.083-.113-.13-.16-.141-.059-.017-.129.007-.204.062l-.027-.036.455-.332.028.036c-.053.05-.086.088-.093.114-.013.027-.015.058-.006.091.008.035.037.086.084.15l.847,1.139-.036.026ZM22.893,28.187l-.03-.034.041-.039c.037-.034.058-.068.07-.102.005-.022.004-.05-.007-.077-.008-.021-.039-.064-.1-.124l-.777-.809c-.059-.063-.104-.1-.122-.109-.024-.01-.053-.011-.081-.003-.033.007-.066.027-.102.06l-.039.04-.033-.035.647-.612.033.034-.041.04c-.036.033-.058.066-.069.1-.007.023-.007.048.005.078.009.023.039.064.101.127l.776.808c.062.062.102.099.125.108.022.009.049.009.082.003.03-.008.064-.029.097-.06l.042-.04.031.034-.649.614ZM24.98,25.89l-.039-.025.03-.044c.027-.044.043-.081.043-.117.003-.024-.006-.048-.025-.075-.013-.017-.054-.049-.125-.095l-.951-.601c-.066-.042-.108-.066-.125-.072-.03-.007-.057-.007-.083.003-.036.016-.07.046-.1.092l-.025.04.006.005c-.033.055-.045.118-.033.191.011.053.052.158.129.31l.627,1.282-.026.031-1.425-.418c-.171-.05-.275-.077-.314-.077-.036.002-.079.023-.129.068l-.036-.027.527-.627.036.029-.018.024c-.05.054-.075.1-.078.132,0,.021.008.041.026.056.011.012.028.019.048.027.019.008.076.026.17.053l.891.265-.365-.74c-.045-.089-.077-.148-.095-.175-.018-.028-.037-.049-.053-.061-.019-.016-.039-.025-.064-.028-.023-.002-.049.005-.07.018-.036.018-.073.051-.112.097l-.035-.03.353-.42-.007-.004.773-1.202.427.269-.025.04c-.117-.044-.209-.062-.281-.055-.068.008-.137.039-.201.094-.039.033-.093.101-.162.21l-.096.149.588.371.019-.028c.059-.093.074-.176.043-.252-.035-.079-.101-.159-.205-.241l.024-.04.758.478-.027.042c-.086-.045-.165-.068-.235-.075-.069-.006-.127.004-.166.026-.041.026-.084.072-.128.14l.407.257c.082.049.13.079.152.082.023.005.045.002.067-.008.024-.012.048-.037.075-.079l.054-.086c.085-.135.124-.261.114-.379-.012-.123-.069-.24-.174-.357l.027-.039.416.354-.797,1.239ZM26.527,23.192l-.944.153-.049.1.432.209c.083.04.138.06.165.06.026,0,.053-.009.077-.028.025-.02.053-.063.089-.135l.041.021-.382.782-.044-.02c.037-.07.053-.123.053-.153-.002-.032-.012-.059-.028-.077-.019-.023-.065-.053-.149-.093l-1-.483c-.084-.037-.14-.06-.164-.06-.027,0-.052.009-.08.029-.026.018-.055.064-.088.134l-.042-.021.347-.711c.091-.184.17-.315.238-.389.07-.07.15-.119.246-.14.095-.021.19-.009.284.037.113.056.189.14.222.257.021.076.021.165,0,.269l.699-.115c.094-.017.151-.031.178-.042.038-.018.068-.049.092-.09l.041.022-.236.481ZM27.08,21.953c-.019.05-.041.095-.069.138-.027.039-.068.09-.121.148-.029.03-.047.059-.057.082-.009.02-.009.046,0,.075.007.029.025.055.052.081l-.016.043-.609-.222.017-.044c.183.029.34.01.465-.057.126-.064.209-.154.251-.269.033-.086.036-.166.008-.236-.029-.068-.077-.115-.14-.14-.04-.014-.079-.016-.12-.009-.046.006-.09.025-.137.053-.046.03-.116.085-.206.172-.124.119-.224.199-.3.245-.074.046-.15.073-.224.085-.075.011-.15.004-.225-.024-.129-.048-.22-.135-.277-.261-.052-.125-.056-.261-.002-.403.019-.051.045-.098.077-.143.021-.033.056-.073.102-.115.044-.044.07-.078.079-.097.007-.023.007-.04-.002-.057-.006-.016-.034-.037-.077-.065l.012-.036.541.183-.018.049c-.143-.028-.273-.011-.388.049-.114.06-.191.141-.229.243-.03.081-.034.151-.007.214.025.062.068.104.122.124.037.014.074.016.106.01.045-.009.095-.031.151-.07.039-.026.117-.094.234-.205.162-.151.298-.246.403-.282.106-.033.211-.031.318.008.135.048.231.142.287.282.06.14.06.291,0,.449ZM27.31,21.179l-.047-.011.02-.057c.011-.047.015-.086.005-.119-.005-.026-.02-.049-.043-.067-.018-.014-.066-.033-.149-.058l-1.083-.312c-.084-.026-.14-.038-.164-.033-.02,0-.044.015-.069.036-.023.022-.043.056-.053.103l-.019.054-.044-.014.25-.852.046.012-.015.056c-.015.046-.016.088-.008.121.005.023.018.046.043.065.016.016.067.034.149.058l1.083.313c.084.027.137.037.16.033.024-.002.051-.016.072-.038.024-.022.042-.056.056-.101l.017-.056.044.016-.251.851ZM27.694,19.807l-.046-.01.012-.056c.01-.046.01-.087,0-.121-.007-.025-.023-.046-.051-.063-.018-.013-.067-.029-.152-.047l-1.293-.273-.024.118c-.027.114-.019.198.016.261.053.084.138.149.258.194l-.011.047-.452-.096.321-1.493.455.097-.011.042c-.109.005-.191.016-.244.042-.052.021-.097.057-.136.108-.021.026-.043.079-.058.158l-.026.123,1.293.275c.086.018.141.024.164.019.025-.004.047-.018.068-.043.023-.022.039-.06.047-.106l.013-.057.046.011-.186.871ZM27.992,17.995l.011-.09c.005-.049,0-.089-.012-.121-.01-.024-.029-.043-.055-.057-.019-.013-.072-.022-.158-.033l-.341-.038-.776.311c-.152.062-.247.108-.274.137-.029.031-.047.072-.054.125l-.049-.005.096-.809.046.006-.004.035c-.008.049-.002.086.009.105.013.023.027.033.043.035.027.003.109-.021.238-.072l.599-.24-.476-.365c-.118-.09-.197-.137-.238-.141-.021-.004-.042.005-.06.024-.026.027-.042.077-.056.154l-.047-.007.06-.517.046.007c0,.057.013.101.033.134.031.045.118.122.266.229l.571.439.413.048c.087.009.142.012.165.005s.045-.023.062-.049c.023-.023.033-.058.039-.104l.009-.096.047.005-.111.949-.047-.006Z" fill="#fff"/>
    <path d="M16.552,2.84c.077.007.146-.008.201-.042.07-.045.129-.119.176-.224.043-.106.072-.243.084-.415.011-.207.002-.36-.029-.465-.029-.104-.074-.178-.133-.224-.055-.046-.124-.071-.201-.077-.144-.009-.257.055-.341.197-.069.113-.112.283-.126.505-.018.265.018.463.101.594.06.094.147.144.267.151Z" fill="#fff"/>
    <path d="M10.351,27.309c-.133.063-.276.19-.43.381-.182.228-.276.425-.282.598-.005.121.044.221.147.299.067.053.136.081.208.086.091.001.191-.029.296-.095.106-.068.218-.174.336-.323.141-.177.23-.321.265-.436.039-.112.044-.209.024-.284-.026-.076-.068-.139-.135-.194-.122-.095-.267-.107-.43-.033Z" fill="#fff"/>
    <path d="M22.971,6.309c-.008.015-.009.029-.005.046.002.024.015.05.042.081.078.098.174.149.284.149.149,0,.326-.075.52-.229.158-.122.266-.245.323-.369.044-.095.052-.185.031-.267-.015-.058-.06-.136-.141-.237l-.963.747c-.052.038-.082.065-.091.079Z" fill="#fff"/>
    <path d="M15.621,12.901c-.008-.104-.029-.206-.07-.292-.021-.052-.053-.087-.092-.107-.02-.009-.046-.017-.077-.014-.038.006-.064.023-.085.049-.023.042-.03.111-.017.206.025.164.064.271.117.329.036.034.077.05.126.047.027-.005.091-.022.103-.039.018-.027,0-.126-.004-.179Z" fill="#fff"/>
    <path d="M16.715,12.928c.016-.105.012-.208-.006-.306-.011-.051-.036-.092-.069-.12-.02-.014-.042-.024-.073-.026-.036-.005-.067.007-.094.03-.032.031-.051.098-.057.198-.012.164.004.278.043.343.026.044.065.068.114.074.029,0,.096,0,.11-.019.024-.021.026-.121.032-.173Z" fill="#fff"/>
    <path d="M16.017,28.029c5.103,0,9.237-5.358,9.237-11.961s-4.133-11.957-9.237-11.957-9.238,5.354-9.238,11.957,4.14,11.961,9.238,11.961ZM11.865,6.036s1.601-.979,4.152.562c.433-.272,2.01-1.337,4.428-.605v4.377s-3.954-.937-4.059.98h-.526s.232-1.375-3.995-1.146v-4.168ZM17.614,13.654c.067.021.11.033.131.039.021.002.042,0,.06-.01.018-.006.043-.022.081-.054.011.007.018.009.032.015-.081.117-.122.177-.203.295-.276-.11-.418-.151-.709-.213.005-.009.005-.014.005-.02.279-.205.479-.323.56-.391.081-.071.132-.146.16-.229.022-.059.016-.114-.023-.168-.029-.054-.081-.091-.152-.111-.109-.03-.212-.009-.293.066-.018-.006-.025-.011-.036-.017.062-.103.144-.173.239-.203.098-.033.198-.033.309.004.079.021.145.061.2.108.05.049.086.106.103.163.016.061.016.111,0,.151-.029.067-.088.135-.166.194-.108.077-.308.165-.572.295.109.027.163.046.273.087ZM16.545,13.2c-.029.005-.058.005-.09.005-.101-.01-.187-.047-.254-.114-.071-.068-.107-.16-.104-.271,0-.079.021-.155.063-.217.044-.065.108-.116.187-.148.083-.033.169-.045.255-.036.091.009.177.04.255.089.074.054.129.12.163.204.033.086.039.174.019.27-.026.123-.084.236-.171.34-.085.105-.198.182-.332.238-.132.056-.282.085-.452.087v-.021c.105-.023.192-.054.266-.093.077-.037.139-.086.192-.147.049-.061.117-.209.117-.209-.005-.005-.081.023-.113.024ZM15.514,13.205c-.026.009-.058.017-.091.021-.104.01-.192-.005-.274-.058-.081-.054-.135-.134-.158-.246-.014-.079-.009-.153.019-.227.025-.072.078-.131.152-.182.076-.049.155-.078.242-.085.09-.01.181,0,.267.036.084.035.149.088.201.164.048.078.071.163.074.261.002.125-.033.248-.094.369-.065.119-.157.215-.276.299-.122.081-.26.14-.428.178,0-.009,0-.014,0-.025.097-.04.177-.088.24-.141.067-.055.118-.115.155-.184.039-.069.071-.233.071-.233-.004-.002-.074.042-.101.053ZM14.426,13.654c-.082-.236-.125-.353-.208-.588-.021-.054-.035-.084-.045-.096-.015-.01-.027-.017-.048-.019-.023-.005-.045,0-.068.009-.036.012-.073.038-.122.08-.01-.012-.018-.015-.03-.025.18-.159.278-.237.482-.382.012-.004.019-.008.036-.012.11.378.168.569.276.949.023.069.039.113.052.134.014.017.033.029.056.032.025.01.06.007.105-.005.011-.003.017-.003.029-.006.003.011.008.019.008.03-.255.065-.38.106-.631.205-.006-.011-.011-.018-.011-.03.011-.007.018-.008.031-.014.049-.02.083-.037.102-.059.016-.02.025-.038.025-.063,0-.02-.009-.067-.039-.14ZM12.115,16.712h0l.071-.154h.014c.332-.694.843-1.288,1.484-1.709l-.007-.004.11-.068c.178-.109.364-.202.556-.283.026-.011.054-.018.081-.029.203-.081.412-.144.625-.193.065-.015.13-.029.196-.041.248-.045.499-.076.753-.076.257,0,.509.031.758.076.063.011.125.025.187.039.218.05.431.114.638.197.023.009.048.016.071.025.192.081.378.174.556.284l.112.068-.007.004c.643.421,1.154,1.014,1.487,1.709h.015l.07.154h-.001c.214.499.332,1.048.332,1.623,0,1.284-.6,2.42-1.522,3.187-.005.008-.008.019-.012.027l-.039.014c-.121.098-.239.197-.371.281l.013.007-.112.066c-.172.103-.352.192-.536.269-.001,0-.002,0-.003.001-.225.094-.459.161-.697.215-.061.014-.122.026-.183.037-.249.045-.501.076-.756.076s-.505-.031-.754-.076c-.063-.011-.125-.024-.188-.038-.231-.052-.458-.119-.677-.209-.008-.003-.016-.005-.024-.008-.182-.076-.36-.164-.532-.267l-.109-.066.011-.007c-.124-.079-.235-.172-.349-.263l-.056-.033c-.003-.006-.006-.014-.009-.02-.926-.768-1.528-1.907-1.528-3.195,0-.575.118-1.123.331-1.623ZM9.916,13.473h1.489v7.113s1.357,3.018,4.667,3.018c.53,0,3.058.132,4.662-3.19v-6.779h1.454v1.393h-.24v5.557s-1.401,4.103-5.931,4.184c-.666,0-4.059.07-5.818-4.184,0-2.763-.025-5.712-.025-5.712h-.259v-1.402ZM8.468,20.587v-7.114h1.132v7.114c1.388,4.67,5.588,4.769,6.586,4.769,4.888,0,6.23-4.769,6.23-4.769v-6.922h1.262v6.922c-1.95,6.086-7.681,5.925-7.681,5.925-6.747-.667-7.53-5.665-7.53-5.925Z" fill="#fff"/>
    <path d="M13.503,7.171c.008.052.011.081.011.089.012.039.019.068.033.08.022.032.041.049.052.058.021.017.05.022.082.02.049-.002.078-.03.089-.073.005-.014.005-.029.003-.044-.003-.014-.008-.03-.02-.034l-.005-.002s-.007.011-.016.017c-.022.024-.042.035-.066.035-.021,0-.038-.005-.053-.018-.015-.012-.022-.03-.022-.047,0-.03.012-.055.036-.072.018-.018.043-.026.075-.026.056,0,.101.029.128.078.014.03.017.058.017.084,0,.021,0,.035-.003.052l.02.055.059-.271h-.463l.042.019Z" fill="#fff"/>
    <path d="M13.561,8.711c.053.03.091.07.116.118l.046-.197c-.046.017-.082.033-.11.048-.007.005-.025.018-.053.031Z" fill="#fff"/>
    <path d="M14.966,7.664c.012.031.019.056.019.084,0,.016,0,.032-.007.049l.022.057.06-.269h-.224c.06,0,.1.028.129.079Z" fill="#fff"/>
    <path d="M15.92,7.288c-.964-1.136-3.299-.94-3.299-.94v3.19c2.528,0,3.299.558,3.299.558v-2.808ZM13.924,8.584c.028.037.042.074.042.112,0,.053-.014.096-.048.122-.021.023-.044.034-.074.034-.017,0-.031-.005-.046-.018-.01-.009-.018-.022-.018-.04,0-.029.016-.053.052-.078.012-.003.022-.005.034-.005.015,0,.028.002.037.008,0-.018-.009-.037-.022-.054-.021-.027-.049-.04-.083-.04l-.087.419-.036-.044c-.004-.033-.004-.053-.008-.056-.006-.013-.014-.033-.026-.053-.033-.057-.088-.09-.161-.096l-.061-.1c.108-.073.219-.126.325-.157l.005-.021h-.302l-.06-.072h.622l.06.072h-.246l-.005.014c.039,0,.074.017.105.054ZM14.001,7.152l-.116.541-.031-.06c-.005-.03-.015-.072-.03-.128,0-.005-.009-.021-.026-.044-.044.044-.091.068-.142.068-.047,0-.091-.02-.126-.063-.011-.011-.025-.036-.041-.077-.012-.025-.019-.06-.029-.118-.007-.046-.009-.083-.01-.119h0l-.057-.074h.651l.06.074h-.101ZM15.149,8.779l-.114.526-.028-.041s-.006-.016-.011-.028c-.007-.06-.029-.102-.067-.129-.043-.029-.091-.049-.139-.052l-.083-.14c.035.011.06.013.072.013.032,0,.067-.006.108-.021.047-.017.073-.041.08-.062,0-.01,0-.02-.007-.031l-.028.025c-.053.032-.1.048-.148.048-.019,0-.037-.004-.05-.018-.015-.012-.024-.024-.024-.044,0-.025.009-.042.026-.06.016-.017.036-.024.058-.024.033,0,.047.016.05.042l.016-.008c.01-.002.041-.026.095-.07.035.036.058.057.061.066.016.023.026.046.026.071,0,.061-.043.115-.126.149.039.027.068.056.09.096l.104-.482.047.032c0,.006-.002.015-.005.03-.004.014-.004.026,0,.03.005.002.013.004.03.008l.062.074h-.096ZM15.321,7.585l-.116.544-.056-.078.082-.382c0-.014.002-.024.002-.024,0-.019-.008-.035-.019-.046-.013-.008-.031-.013-.047-.013h-.033l-.115.539-.029-.058c-.008-.03-.015-.075-.03-.128-.004-.006-.011-.024-.028-.048-.044.046-.093.07-.142.07s-.091-.02-.124-.06c-.011-.015-.026-.041-.041-.077-.012-.025-.021-.064-.03-.119-.006-.047-.009-.089-.009-.121l-.058-.073h.63s.004,0,.005,0c0,0,0,0,0,0h.011l.008.009c.035.005.065.013.078.038l.002-.018c.004-.046.012-.09.022-.131l.037.033c-.002.011-.002.017-.002.027,0,.01.002.018.006.029,0,.002,0,.007.007.013h.035l.056.077h-.102Z" fill="#fff"/>
    <path d="M14.636,7.601c.01.052.014.082.014.092.012.037.019.065.03.081.025.028.042.047.054.053.024.015.05.025.082.02.049-.003.081-.026.09-.073,0-.012.004-.028,0-.041,0-.019-.005-.031-.015-.038h-.01s-.006.009-.016.019c-.019.019-.042.032-.065.032-.021,0-.035-.007-.049-.018-.018-.014-.026-.027-.026-.047,0-.03.013-.051.034-.071.019-.015.047-.025.077-.025h-.235l.034.017Z" fill="#fff"/>
    <path d="M16.88,7.899c.002-.018.003-.036.008-.055-.013-.005-.022-.008-.03-.012-.01-.002-.016-.006-.016-.006-.053,0-.096.021-.132.063-.036.038-.056.083-.056.135,0,.05.012.088.03.119.018.023.048.039.082.039.032,0,.058-.008.079-.017.013-.008.029-.018.048-.038-.01-.084-.014-.146-.014-.189,0-.013,0-.026.002-.04Z" fill="#fff"/>
    <path d="M17.932,7.63c.026-.034.045-.074.045-.122,0-.047-.013-.085-.036-.119-.027-.03-.062-.049-.106-.049-.024,0-.049.007-.078.021-.014.008-.039.024-.067.048l-.003.083v.075l.003.077c.014.007.035.014.062.025.021.005.041.007.066.007.045,0,.084-.018.114-.045Z" fill="#fff"/>
    <path d="M19.649,6.348s-2.335-.196-3.294.94v2.808s.766-.558,3.294-.558v-3.19ZM16.771,8.264c-.074,0-.128-.023-.162-.062-.032-.04-.05-.1-.05-.178,0-.079.027-.144.084-.2.049-.05.113-.078.187-.078.029,0,.058.004.095.02.042.018.064.04.064.065,0,.005-.002.013-.009.022-.005.009-.005.031-.006.059-.006.027-.006.061-.006.105,0,.037.006.068.008.092.006.014.015.042.034.084,0,.007.005.014.011.026v.006c.001.013-.006.025-.011.032-.009.01-.02.012-.034.012-.008,0-.016-.004-.033-.019-.011-.015-.024-.027-.032-.038-.03.02-.056.03-.081.039-.02.007-.042.014-.058.014ZM17.047,9.28c-.005.008-.014.01-.022.01h-.139c-.016,0-.028-.002-.035-.004-.013-.006-.019-.014-.019-.026,0-.023.019-.035.056-.035l.016.002h.018c0-.014-.004-.031-.004-.05-.005-.021-.005-.039-.005-.05,0-.03.005-.072.01-.131.001-.06.008-.104.008-.138-.032.026-.053.038-.06.038-.011,0-.019-.002-.028-.012-.005-.005-.008-.013-.008-.023,0-.011.008-.022.03-.037.012-.011.031-.026.053-.045.02-.021.04-.031.057-.031.02,0,.028.011.028.026,0,.005,0,.013-.003.023-.002.014-.002.021-.002.026v.033c.002.018.002.026.002.036,0,.026-.002.065-.01.117-.006.054-.008.093-.008.116,0,.013,0,.032.002.05.003.019.003.033.003.048h.039c.009,0,.018.002.022.008.006.007.011.016.011.024,0,.008-.005.019-.011.024ZM17.648,7.762c-.009,0-.02-.005-.03-.015-.009-.004-.014-.017-.014-.029,0-.01,0-.023.002-.037v-.036c0-.035,0-.084-.002-.151v-.413c0-.018.002-.035.013-.049.008-.021.024-.03.043-.03.022,0,.035.014.035.04,0,.004,0,.01,0,.021-.005.007-.005.014-.005.018v.106l-.003.119c.028-.018.054-.031.081-.041.024-.009.048-.013.067-.013.069,0,.124.023.172.076.035.051.056.111.056.18,0,.073-.023.135-.073.185-.041.05-.103.074-.172.074-.045,0-.094-.01-.132-.03-.009.015-.023.026-.039.026ZM18.101,8.999c-.009.005-.016.007-.026.007,0,0-.013,0-.022-.002-.011-.005-.019-.005-.019-.005h-.113c-.009,0-.021.005-.043.007-.014,0-.028.004-.038.004,0,0-.009,0-.012-.004h-.008c-.02,0-.028-.007-.032-.023-.002-.01-.005-.023-.005-.04,0-.053.012-.099.044-.131.012-.014.048-.04.105-.084.034-.024.058-.039.069-.052.022-.021.029-.047.029-.077,0-.018-.006-.031-.029-.04-.017-.012-.035-.015-.049-.015-.022,0-.041.003-.06.018l-.052.039c-.009.009-.018.011-.024.011-.024,0-.035-.006-.035-.03,0-.008.005-.017.012-.025.029-.026.053-.045.07-.053.028-.019.057-.028.088-.028.037,0,.072.01.101.03.032.024.049.054.049.089,0,.025,0,.046-.009.065-.008.021-.019.038-.031.054-.017.021-.047.046-.089.07-.043.03-.07.049-.085.062-.028.03-.038.058-.038.099l.07-.009c.053-.002.087-.003.108-.003.017,0,.034.003.05.009.023.009.032.017.032.033,0,.01-.004.017-.008.026ZM18.638,7.36c-.052-.033-.081-.085-.086-.154-.007-.063.008-.129.043-.201.04-.081.087-.126.152-.131.029-.004.063,0,.101.01.053.016.081.036.082.061.003.012-.002.023-.009.034-.008.009-.014.014-.026.014-.013.002-.021,0-.027-.005-.005-.003-.015-.009-.02-.014-.021-.01-.052-.017-.094-.01-.032.004-.06.032-.091.092-.022.056-.029.103-.025.139.002.043.018.075.05.095.03.021.065.025.104.025.023-.002.038-.009.06-.021l.053-.035c.006-.003.014-.011.014-.011.019,0,.027.005.039.011.009.011.016.021.016.031,0,.023-.022.049-.069.073-.039.025-.075.037-.101.042-.067.006-.123-.011-.167-.045ZM19.164,8.625c-.031.034-.07.053-.115.054-.035.002-.065-.002-.095-.017-.034-.015-.054-.04-.066-.068-.003-.005-.005-.011-.005-.014-.003-.006.005-.015.01-.021.006-.006.012-.013.025-.013.009,0,.014.007.025.013l.016.022c.008.013.02.018.035.024.014.006.032.008.053.008.025-.002.046-.014.064-.03.019-.016.028-.037.028-.058-.003-.037-.016-.064-.042-.083-.026-.015-.056-.028-.092-.03-.029-.002-.039-.011-.04-.029,0-.016.01-.021.029-.032l.081-.026c.015-.009.026-.014.037-.024.005-.009.012-.022.012-.037-.004-.02-.012-.034-.029-.046-.016-.014-.041-.018-.073-.018-.014,0-.031.006-.046.013l-.036.027c-.007.004-.018.009-.018.009-.009,0-.016-.005-.026-.009-.006-.007-.01-.013-.01-.023-.002-.019.018-.036.051-.056.031-.015.054-.027.077-.027.044-.002.087.01.117.027.033.022.049.058.054.1.002.054-.019.091-.061.109-.007.003-.009.007-.014.007.03.011.055.027.071.049.019.02.027.049.028.081.002.046-.013.087-.044.117Z" fill="#fff"/>
    <polygon points="15.43 16.712 15.43 16.558 15.43 16.308 15.586 16.558 15.682 16.712 15.92 17.094 16.077 17.346 16.304 17.71 16.745 17.71 16.745 16.712 16.745 16.558 16.745 15.557 16.337 15.557 16.337 16.558 16.337 16.712 16.337 16.998 16.161 16.712 16.077 16.577 16.066 16.558 15.92 16.322 15.449 15.557 15.024 15.557 15.024 16.558 15.024 16.712 15.024 17.71 15.43 17.71 15.43 16.712" fill="#fff"/>
  </g>
</svg>