<?xml version="1.0" encoding="UTF-8"?>
<svg id="Layer_1" xmlns="http://www.w3.org/2000/svg" version="1.1" viewBox="0 0 20 20">
  <!-- Generator: Adobe Illustrator 29.3.0, SVG Export Plug-In . SVG Version: 2.1.0 Build 146)  -->
  <path d="M2.36,13.48c.08-1.86-.15-3.74.16-5.59.54-3.21,3.2-5.73,6.41-6.19,3.7-.53,7.06,1.64,8.29,4.99.27.75.43,1.54.43,2.35,0,2.99,0,5.98,0,8.98,0,.28-.08.37-.36.37-.92-.02-1.83-.01-2.75,0-.23,0-.33-.04-.35-.31-.17-1.94-1.5-3.44-3.45-3.79-1.78-.32-3.45.47-4.4,2.14-.23.4-.37.84-.44,1.29-.03.21-.1.28-.31.28-.95,0-1.91-.01-2.86,0-.29,0-.31-.13-.29-.35.14-1.48.67-2.81,1.61-3.96,1.51-1.86,3.45-2.86,5.88-2.89,1.42-.02,2.74.31,3.96,1.03.1.06.32.29.31-.08-.02-1.08.08-2.16-.07-3.24-.25-1.8-2.08-3.37-3.9-3.44-2.14-.08-3.98,1.44-4.32,3.47-.09.53-.03,1.07-.04,1.6,0,.18-.04.31-.22.4-1.27.7-2.3,1.67-3.11,2.86-.03.04-.04.09-.07.14-.04-.02-.08-.04-.12-.06Z" style="fill: #e59e40;"/>
</svg>