<?xml version="1.0" encoding="UTF-8"?>
<svg id="Layer_1" xmlns="http://www.w3.org/2000/svg" version="1.1" viewBox="0 0 20 20">
  <!-- Generator: Adobe Illustrator 29.3.0, SVG Export Plug-In . SVG Version: 2.1.0 Build 146)  -->
  <g>
    <path d="M3.2,6.07v7.85l6.8,3.93,6.8-3.93v-7.85l-6.8-3.93-6.8,3.93ZM16.41,13.7l-6.41,3.7-6.41-3.7v-7.4l6.41-3.7,6.41,3.7v7.4Z" style="fill: none;"/>
    <polygon points="10 2.6 3.59 6.3 3.59 13.7 10 17.4 16.41 13.7 16.41 6.3 10 2.6" style="fill: #003955;"/>
  </g>
  <g>
    <path d="M10,1.79L2.89,5.89v8.21l7.11,4.11,7.11-4.11V5.89L10,1.79ZM16.8,13.93l-6.8,3.93-6.8-3.93v-7.85l6.8-3.93,6.8,3.93v7.85Z" style="fill: #1ebcc5;"/>
    <path d="M11.76,7.86c-.27-.27-.65-.44-1.07-.44-.83,0-1.5.67-1.5,1.5,0,.42.17.79.44,1.07.22.22.5.35.82.4.01.03.01.07.03.1l.03.04h0s.07.07.11.09h.02s.03.02.04.03c.02,0,.04.01.06.02,0,0,.01,0,.03,0,.02,0,.05,0,.08,0h0s.05,0,.07,0c.01,0,.02,0,.03,0,.01,0,.03,0,.05-.01h.02c.11-.06.2-.15.24-.27.02-.05.03-.1.03-.15,0-.25-.2-.45-.46-.45h0s-.04,0-.07,0c-.02,0-.03,0-.05.01h-.02s-.04.02-.06.04c-.08.04-.14.11-.18.2h-.01l-.02.08c-.23-.05-.43-.15-.59-.31l1.75-1.75.19-.19ZM10.63,10.21v-.04c.02-.06.06-.11.12-.14,0,0,.02,0,.04-.02,0,0,.01,0,.02,0,.01,0,.02,0,.04,0,.12,0,.22.1.22.23,0,.02,0,.05-.01.07-.02.06-.07.11-.14.14,0,0-.01,0-.03,0-.01,0-.03,0-.04,0v.11s0-.11,0-.11c-.01,0-.02,0-.05,0,0,0-.02,0-.03,0,0,0-.01,0-.02-.01-.03-.02-.06-.04-.08-.07v-.02s-.04-.07-.04-.11c0,0,0-.01,0-.02Z" style="fill: #1ebcc5;"/>
    <path d="M8.24,7.13c-.09-.03-.19-.05-.3-.01-.02,0-.03.02-.04.03l-.48-.48-.09.09c-.57.57-.88,1.33-.88,2.13s.31,1.56.88,2.13l.09.09.49-.49s.03.02.05.03c.05.01.09.02.13.02.05,0,.1-.01.15-.03.09.13.19.26.31.38.57.57,1.32.88,2.13.88s1.56-.31,2.13-.88l.09-.09-.27-.27s.02-.03.03-.04c.02-.05.03-.1.03-.15,0-.25-.2-.45-.45-.45s-.45.2-.45.45.2.45.45.45c.06,0,.12-.01.18-.04.01,0,.02-.02.03-.02l.07.07c-.51.46-1.15.71-1.84.71-.73,0-1.42-.28-1.94-.8-.11-.11-.2-.23-.29-.35.05-.07.09-.16.09-.25,0-.25-.2-.45-.45-.45-.1-.28-.16-.58-.16-.89s.06-.61.16-.9c.25,0,.44-.2.44-.45,0-.09-.04-.17-.08-.25.09-.12.18-.24.28-.35.52-.52,1.21-.8,1.94-.8.69,0,1.34.25,1.84.71l-.09.09s-.03-.02-.04-.03c-.31-.11-.6.12-.6.42,0,.25.2.45.45.45s.45-.2.45-.45c0-.06-.01-.12-.04-.17,0-.01-.02-.02-.02-.04l.28-.28-.09-.09c-.57-.57-1.33-.88-2.13-.88s-1.56.31-2.13.88c-.11.11-.21.24-.3.37ZM7.84,9.87c-.11.08-.19.21-.19.36,0,.07.02.13.04.19,0,.01.02.02.02.03l-.28.28c-.46-.51-.71-1.16-.71-1.85s.25-1.34.71-1.84l.28.28s-.02.02-.02.03c-.03.06-.04.12-.04.18,0,.15.08.28.2.36-.11.31-.17.65-.17.99s.06.67.17.98ZM12.45,10.54c-.02.06-.07.11-.12.13-.15.06-.32-.05-.32-.21,0-.12.1-.23.23-.23s.23.1.23.23c0,.02,0,.05-.01.07ZM12.24,7.57c-.12,0-.23-.1-.23-.23s.1-.23.23-.23c.02,0,.05,0,.08.01.06.02.11.07.13.12.01.03.02.06.02.09,0,.12-.1.23-.23.23Z" style="fill: #1ebcc5;"/>
  </g>
  <g>
    <polygon points="7.33 13.75 6.79 13.06 6.62 13.06 6.62 14.18 6.83 14.18 6.83 13.42 7.41 14.18 7.41 14.18 7.54 14.18 7.54 13.06 7.33 13.06 7.33 13.75" style="fill: #fff;"/>
    <path d="M8.26,13.49c-.13-.02-.25-.04-.25-.14,0-.08.07-.15.23-.15.12,0,.23.06.26.12l.17-.09c-.08-.17-.26-.22-.44-.22-.21,0-.43.1-.43.32,0,.25.21.31.44.34.15.02.26.06.26.16,0,.12-.12.17-.26.17s-.26-.05-.31-.18l-.18.09c.08.2.26.27.49.27.25,0,.47-.11.47-.36,0-.27-.22-.33-.45-.36Z" style="fill: #fff;"/>
    <path d="M9.72,13.7c0,.19-.1.31-.27.31s-.29-.11-.29-.31v-.64h-.21v.64c0,.34.23.5.5.5s.48-.17.48-.5v-.64h-.21v.64Z" style="fill: #fff;"/>
    <path d="M10.76,14c-.28,0-.38-.19-.38-.38,0-.19.11-.39.38-.39.1,0,.2.03.27.11l.14-.14c-.11-.11-.26-.17-.41-.17-.4,0-.59.3-.59.59,0,.29.18.58.59.58.16,0,.31-.05.42-.17l-.14-.14c-.07.07-.18.11-.28.11Z" style="fill: #fff;"/>
    <path d="M11.37,14.18h.83v-.21h-.63v-.25h.6v-.2h-.6v-.26h.63v-.2h-.83v1.12Z" style="fill: #fff;"/>
    <path d="M13.27,13.89c-.07.07-.18.11-.28.11-.28,0-.38-.19-.38-.38,0-.19.11-.39.38-.39.1,0,.2.03.27.11l.14-.14c-.11-.11-.26-.17-.41-.17-.4,0-.59.3-.59.59,0,.29.18.58.59.58.16,0,.31-.05.42-.17l-.14-.14Z" style="fill: #fff;"/>
  </g>
</svg>