<?xml version="1.0" encoding="UTF-8"?>
<svg id="Layer_1" xmlns="http://www.w3.org/2000/svg" version="1.1" xmlns:xlink="http://www.w3.org/1999/xlink" viewBox="0 0 32 32">
  <!-- Generator: Adobe Illustrator 29.3.0, SVG Export Plug-In . SVG Version: 2.1.0 Build 146)  -->
  <defs>
    <linearGradient id="linear-gradient" x1="4.502" y1="26.952" x2="29.975" y2="5.666" gradientUnits="userSpaceOnUse">
      <stop offset="0" stop-color="#2d368e"/>
      <stop offset=".091" stop-color="#324e95"/>
      <stop offset=".262" stop-color="#3a76a0"/>
      <stop offset=".43" stop-color="#4096a9"/>
      <stop offset=".592" stop-color="#45acaf"/>
      <stop offset=".746" stop-color="#48bab3"/>
      <stop offset=".883" stop-color="#49bfb5"/>
    </linearGradient>
  </defs>
  <path d="M1.464,10.529s7.085-2.657,10.369-3.089c0,0-.925-.872-3.505-.591,0,0,.48-6.253,2.212-6.259,1.2-.004,3.824,1.405,8.232,5.909,0,0,10.32-.482,12.413.81,2.651,1.639-1.848,4.116-3.824,6.32-1.132,1.259-1.737,3.387-1.33,6.513.746,5.737.929,9.674-.713,10.956-1.33,1.038-2.592-.864-2.592-.864-.469-.877-1.041-3.911-5.446-4.386-1.2-.13,1.849-1.427,4.96-2.172,0,0-3.5-1.978-12.564,5.261-2.135,1.705-3.414.929-3.974-1.296-.496-1.958,3.889-7.434,8.379-10.027l.174,4.408,2.429-.779s.855-4.464.941-5.214c.085-.748,6.852-3.201,3.633-3.861-1.904-.389-5.366.693-5.366.693-.425-.174-3.624-2.335-3.624-2.335-.69,0-2.96.834-2.96.834,0,0,2.087,2.155,2.821,2.787,0,0-3.435,1.006-7.64,3.641-.23.144-3.89-3.285-3.89-3.285,0,0-1.813-2.42.865-3.976Z" fill="url(#linear-gradient)"/>
  <polygon points="12.542 11.384 12.542 11.384 12.542 11.384 12.542 11.384" fill="none"/>
  <path d="M2.694,16.406c.876.772,1.719,1.473,1.825,1.406,4.208-2.635,7.64-3.641,7.64-3.641-.734-.631-2.819-2.785-2.822-2.787-3.485,2.065-5.567,3.919-6.643,5.022Z" fill="#ea2127"/>
  <path d="M14.319,21.998l-.064.021-.174-4.407c-4.491,2.593-8.875,8.069-8.379,10.025.038.155.082.302.126.441,1.235-1.277,3.852-3.593,8.492-6.081Z" fill="#ea2127"/>
</svg>