<?xml version="1.0" encoding="UTF-8"?>
<svg id="Layer_1" xmlns="http://www.w3.org/2000/svg" version="1.1" xmlns:xlink="http://www.w3.org/1999/xlink" viewBox="0 0 100 100">
  <!-- Generator: Adobe Illustrator 29.3.0, SVG Export Plug-In . SVG Version: 2.1.0 Build 146)  -->
  <defs>
    <linearGradient id="linear-gradient" x1="14.07" y1="15.78" x2="93.67" y2="82.29" gradientTransform="translate(0 100) scale(1 -1)" gradientUnits="userSpaceOnUse">
      <stop offset="0" stop-color="#2d368e"/>
      <stop offset=".09" stop-color="#324e95"/>
      <stop offset=".26" stop-color="#3a76a0"/>
      <stop offset=".43" stop-color="#4096a9"/>
      <stop offset=".59" stop-color="#45acaf"/>
      <stop offset=".75" stop-color="#48bab3"/>
      <stop offset=".88" stop-color="#49bfb5"/>
    </linearGradient>
  </defs>
  <path d="M4.58,32.91s22.14-8.3,32.4-9.65c0,0-2.89-2.72-10.95-1.85,0,0,1.5-19.54,6.91-19.56,3.75-.01,11.95,4.39,25.72,18.47,0,0,32.25-1.51,38.79,2.53,8.28,5.12-5.77,12.86-11.95,19.75-3.54,3.93-5.43,10.58-4.16,20.35,2.33,17.93,2.9,30.23-2.23,34.24-4.16,3.24-8.1-2.7-8.1-2.7-1.47-2.74-3.25-12.22-17.02-13.71-3.75-.41,5.78-4.46,15.5-6.79,0,0-10.94-6.18-39.26,16.44-6.67,5.33-10.67,2.9-12.42-4.05-1.55-6.12,12.15-23.23,26.18-31.33l.54,13.77,7.59-2.43s2.67-13.95,2.94-16.29c.27-2.34,21.41-10,11.35-12.07-5.95-1.22-16.77,2.17-16.77,2.17-1.33-.54-11.32-7.3-11.32-7.3-2.16,0-9.25,2.61-9.25,2.61,0,0,6.52,6.73,8.82,8.71,0,0-10.73,3.14-23.87,11.38-.72.45-12.16-10.27-12.16-10.27,0,0-5.67-7.56,2.7-12.42h0Z" style="fill: url(#linear-gradient);"/>
  <polygon points="39.2 35.58 39.2 35.58 39.2 35.58 39.2 35.58" style="fill: none;"/>
  <path d="M8.42,51.27c2.74,2.41,5.37,4.6,5.7,4.39,13.15-8.23,23.87-11.38,23.87-11.38-2.29-1.97-8.81-8.7-8.82-8.71-10.89,6.45-17.4,12.25-20.76,15.69Z" style="fill: #ea2127;"/>
  <path d="M44.75,68.75l-.2.07-.54-13.77c-14.03,8.1-27.73,25.22-26.18,31.33.12.48.26.94.39,1.38,3.86-3.99,12.04-11.23,26.54-19h0Z" style="fill: #ea2127;"/>
</svg>