<?xml version="1.0" encoding="UTF-8"?>
<svg id="Layer_1" xmlns="http://www.w3.org/2000/svg" version="1.1" xmlns:xlink="http://www.w3.org/1999/xlink" viewBox="0 0 20 20">
  <!-- Generator: Adobe Illustrator 29.3.0, SVG Export Plug-In . SVG Version: 2.1.0 Build 146)  -->
  <defs>
    <linearGradient id="linear-gradient" x1="4.07" y1="74.34" x2="17.22" y2="85.34" gradientTransform="translate(0 90) scale(1 -1)" gradientUnits="userSpaceOnUse">
      <stop offset="0" stop-color="#2d368e"/>
      <stop offset=".09" stop-color="#324e95"/>
      <stop offset=".26" stop-color="#3a76a0"/>
      <stop offset=".43" stop-color="#4096a9"/>
      <stop offset=".59" stop-color="#45acaf"/>
      <stop offset=".75" stop-color="#48bab3"/>
      <stop offset=".88" stop-color="#49bfb5"/>
    </linearGradient>
  </defs>
  <path d="M2.5,7.18s3.66-1.37,5.35-1.59c0,0-.48-.45-1.81-.31,0,0,.25-3.23,1.14-3.23.62,0,1.97.73,4.25,3.05,0,0,5.33-.25,6.41.42,1.37.84-.95,2.12-1.97,3.26-.59.65-.9,1.75-.69,3.36.39,2.97.48,5-.37,5.66-.69.54-1.34-.45-1.34-.45-.24-.45-.54-2.02-2.81-2.26-.62-.07.96-.74,2.56-1.12,0,0-1.81-1.02-6.48,2.72-1.1.88-1.76.48-2.05-.67-.26-1.01,2.01-3.84,4.33-5.18l.09,2.27,1.26-.4s.44-2.3.49-2.69c.04-.39,3.54-1.65,1.88-1.99-.98-.2-2.77.36-2.77.36-.22-.09-1.87-1.21-1.87-1.21-.36,0-1.53.43-1.53.43,0,0,1.07,1.12,1.45,1.44,0,0-1.78.52-3.94,1.88-.12.07-2.01-1.69-2.01-1.69,0,0-.93-1.25.45-2.05h-.02Z" style="fill: url(#linear-gradient);"/>
  <polygon points="8.22 7.62 8.22 7.62 8.22 7.62 8.22 7.62" style="fill: none;"/>
  <path d="M3.14,10.21c.45.4.88.76.94.73,2.17-1.36,3.94-1.88,3.94-1.88-.38-.32-1.45-1.44-1.45-1.44-1.8,1.07-2.87,2.02-3.43,2.59h0Z" style="fill: #ea2127;"/>
  <path d="M9.14,13.1h-.03l-.09-2.26c-2.32,1.34-4.58,4.16-4.33,5.18.02.08.04.16.07.23.64-.66,1.99-1.86,4.39-3.14h0Z" style="fill: #ea2127;"/>
</svg>