<?xml version="1.0" encoding="UTF-8"?>
<svg id="Layer_1" xmlns="http://www.w3.org/2000/svg" version="1.1" xmlns:xlink="http://www.w3.org/1999/xlink" viewBox="0 0 20 20">
  <!-- Generator: Adobe Illustrator 29.3.0, SVG Export Plug-In . SVG Version: 2.1.0 Build 146)  -->
  <defs>
    <linearGradient id="linear-gradient" x1="2.82" y1="-51.16" x2="18.73" y2="-64.46" gradientTransform="translate(0 68)" gradientUnits="userSpaceOnUse">
      <stop offset="0" stop-color="#2d368e"/>
      <stop offset=".09" stop-color="#324e95"/>
      <stop offset=".26" stop-color="#3a76a0"/>
      <stop offset=".43" stop-color="#4096a9"/>
      <stop offset=".59" stop-color="#45acaf"/>
      <stop offset=".75" stop-color="#48bab3"/>
      <stop offset=".88" stop-color="#49bfb5"/>
    </linearGradient>
  </defs>
  <path d="M.92,6.58s4.43-1.66,6.48-1.93c0,0-.58-.54-2.19-.37,0,0,.3-3.91,1.38-3.91.75,0,2.39.88,5.14,3.69,0,0,6.45-.3,7.76.51,1.66,1.02-1.15,2.57-2.39,3.95-.71.79-1.09,2.12-.83,4.07.47,3.59.58,6.05-.45,6.85-.83.65-1.62-.54-1.62-.54-.29-.55-.65-2.44-3.4-2.74-.75-.08,1.16-.89,3.1-1.36,0,0-2.19-1.24-7.85,3.29-1.33,1.07-2.13.58-2.48-.81-.31-1.22,2.43-4.65,5.24-6.27l.11,2.75,1.52-.49s.53-2.79.59-3.26c.05-.47,4.28-2,2.27-2.41-1.19-.24-3.35.43-3.35.43-.27-.11-2.26-1.46-2.26-1.46-.43,0-1.85.52-1.85.52,0,0,1.3,1.35,1.76,1.74,0,0-2.15.63-4.77,2.28-.14.09-2.43-2.05-2.43-2.05,0,0-1.13-1.51.54-2.48h0Z" style="fill: url(#linear-gradient);"/>
  <polygon points="7.84 7.12 7.84 7.12 7.84 7.12 7.84 7.12" style="fill: none;"/>
  <path d="M1.69,10.25c.55.48,1.07.92,1.14.88,2.63-1.65,4.77-2.28,4.77-2.28-.46-.39-1.76-1.74-1.76-1.74-2.18,1.29-3.48,2.45-4.15,3.14h0Z" style="fill: #ea2127;"/>
  <path d="M8.95,13.75h-.04s-.11-2.74-.11-2.74c-2.81,1.62-5.55,5.04-5.24,6.27.02.1.05.19.08.28.77-.8,2.41-2.25,5.31-3.8h0Z" style="fill: #ea2127;"/>
</svg>