<?xml version="1.0" encoding="UTF-8"?>
<svg id="Layer_1" xmlns="http://www.w3.org/2000/svg" version="1.1" xmlns:xlink="http://www.w3.org/1999/xlink" viewBox="0 0 20 20">
  <!-- Generator: Adobe Illustrator 29.3.0, SVG Export Plug-In . SVG Version: 2.1.0 Build 146)  -->
  <defs>
    <linearGradient id="linear-gradient" x1="2.06" y1="19.79" x2="16.69" y2="6.34" gradientTransform="translate(0 22) scale(1 -1)" gradientUnits="userSpaceOnUse">
      <stop offset="0" stop-color="#f0efef"/>
      <stop offset=".24" stop-color="#edecec"/>
      <stop offset=".42" stop-color="#e3e3e3"/>
      <stop offset=".51" stop-color="#dbdbdb"/>
      <stop offset=".6" stop-color="#e3e2e2"/>
      <stop offset=".78" stop-color="#edecec"/>
      <stop offset="1" stop-color="#f0efef"/>
    </linearGradient>
    <linearGradient id="linear-gradient1" x1="7.09" y1="14.29" x2="13.49" y2="18.8" gradientTransform="translate(0 22) scale(1 -1)" gradientUnits="userSpaceOnUse">
      <stop offset=".6" stop-color="#008fe9"/>
      <stop offset=".96" stop-color="#33baf2"/>
      <stop offset="1" stop-color="#07c1e2"/>
    </linearGradient>
    <linearGradient id="linear-gradient2" x1="9.91" y1="10.29" x2="16.31" y2="14.8" gradientTransform="translate(0 22) scale(1 -1)" gradientUnits="userSpaceOnUse">
      <stop offset=".6" stop-color="#008fe9"/>
      <stop offset=".96" stop-color="#33baf2"/>
      <stop offset="1" stop-color="#07c1e2"/>
    </linearGradient>
    <linearGradient id="linear-gradient3" x1="11.36" y1="8.24" x2="17.76" y2="12.75" gradientTransform="translate(0 22) scale(1 -1)" gradientUnits="userSpaceOnUse">
      <stop offset=".6" stop-color="#008fe9"/>
      <stop offset=".96" stop-color="#33baf2"/>
      <stop offset="1" stop-color="#07c1e2"/>
    </linearGradient>
  </defs>
  <path d="M7.25.25c-1.14.22-2.54.53-4.02.98-1.18.36-2,1.54-2,2.9v10.76c0,.88.35,1.72.95,2.28.2.19.48.4.8.63,4.23,2.93,9.82,2.93,14.05,0,.32-.22.6-.44.8-.63.6-.57.95-1.41.95-2.28V4.13c0-1.36-.82-2.54-2-2.9-1.48-.45-2.88-.76-4.02-.98-1.82-.34-3.68-.34-5.5,0h0Z" style="fill: url(#linear-gradient);"/>
  <g>
    <path d="M16.09,4.95c-.1-.23-.33-.42-.58-.45-.04,0-.08,0-.13,0-.04,0-.08.01-.13.03-.35.13-.7.27-1.04.43-.23.1-.45.21-.68.32-1.23.62-2.4,1.36-3.53,2.13h0c-.09-.06-.18-.12-.28-.18,0,0-.01,0-.02,0-.09-.06-.19-.12-.28-.18,0,0,0,0,0,0-.97-.61-1.97-1.17-3.02-1.63-.01,0-.03-.01-.04-.02-.08-.04-.17-.07-.26-.11-.03-.01-.07-.03-.1-.04-.06-.02-.12-.05-.18-.07-.24-.1-.49-.18-.74-.26.06.51.16,1,.29,1.5.23.09.45.19.68.3.06.03.12.05.17.08h0c1.12.52,2.18,1.17,3.21,1.84,0,0,.02.01.02.02.08.05.16.11.24.16.05.03.1.06.15.07s.1.02.16.02c.07,0,.14-.01.2-.04.04-.02.08-.04.11-.06,1.73-1.18,3.52-2.32,5.5-3.06.04-.02.08-.03.11-.06.03-.02.06-.05.09-.08.15-.18.18-.44.08-.66h0Z" style="fill: url(#linear-gradient1);"/>
    <path d="M5.08,4.91c-.11-.04-.22-.07-.32-.1-.34-.09-.7.16-.84.46-.13.28-.04.64.28.73.63.19,1.25.43,1.85.71-.22-.1-.45-.2-.68-.3-.13-.49-.24-.99-.29-1.5Z" style="fill: #44c7f4;"/>
    <path d="M8.45,11.78c-1.14.78-2.3,1.53-3.57,2.08-.3.13-.24.52-.12.74.1.18.27.36.48.42.09.03.18.03.27,0,1.72-.72,3.26-1.86,4.78-2.93,1.17-.83,2.33-1.66,3.54-2.42-1.52.95-2.97,2.02-4.44,3.05-.33-.3-.65-.62-.95-.94h0Z" style="fill: #44c7f4;"/>
    <path d="M10.52,13.62c.11-.08.22-.16.34-.25-.38.28-.76.55-1.14.82-.29.21-.33.64-.19.94.08.18.26.35.48.35.1,0,.19-.03.28-.09,1.42-1.05,2.8-2.16,4.23-3.2-.96.69-1.89,1.42-2.83,2.14-.4-.21-.8-.44-1.17-.71h0Z" style="fill: #44c7f4;"/>
    <path d="M5.4,12.04c.1.07.2.1.3.11.2.02.38-.09.47-.26.15-.3.03-.69-.25-.87-.24-.16-.49-.31-.73-.46-.26-.16-.62-.09-.77.19-.14.29.01.64.27.8.24.16.48.33.72.5h0Z" style="fill: #00adee;"/>
    <path d="M15.89,8.04s-.02-.08-.03-.12c0-.02-.02-.04-.02-.06-.14-.3-.5-.46-.8-.31-.11.06-.22.11-.33.17-.01,0-.03.01-.04.02-1.74.91-3.36,2.04-4.97,3.17-.42.29-.83.58-1.25.87.3.33.62.64.95.94,1.47-1.03,2.92-2.1,4.44-3.05,0,0,.02-.01.03-.02.09-.05.17-.11.26-.16.04-.02.08-.04.11-.07.08-.04.15-.09.22-.14.05-.03.1-.06.16-.09.07-.04.13-.08.2-.12.07-.04.13-.08.2-.11.06-.03.11-.06.17-.09.12-.07.25-.14.37-.2.02,0,.04-.02.05-.03.21-.13.31-.37.28-.6h0Z" style="fill: url(#linear-gradient2);"/>
    <path d="M15.61,10.83s-.02-.04-.02-.06c0-.02-.02-.04-.03-.05-.1-.16-.29-.25-.47-.24-.04,0-.07,0-.11.02-.02,0-.04.01-.06.02-.04.01-.07.03-.1.05-.1.07-.21.14-.31.2-.02.02-.04.03-.06.04-.08.06-.17.11-.26.17-.02.01-.03.02-.05.03-.1.07-.2.13-.29.2h0c-1.01.69-2,1.43-2.99,2.15-.11.08-.22.16-.34.25.38.26.77.5,1.17.71.94-.72,1.87-1.44,2.83-2.14.09-.06.17-.12.26-.19.05-.03.09-.06.14-.1.14-.1.27-.19.41-.28.03-.02.06-.05.09-.08.05-.05.1-.11.13-.17.09-.16.13-.36.06-.54h0Z" style="fill: url(#linear-gradient3);"/>
    <path d="M7.48,10.54s-.07-.05-.12-.08c-.51-.71-.97-1.46-1.34-2.26-.35-.18-.7-.35-1.06-.52-.3-.13-.66.03-.8.32s-.01.63.28.77c1.06.51,2.07,1.12,3.05,1.76h0Z" style="fill: #ffc10e;"/>
    <path d="M7.48,10.54c.1.06.2.1.3.1.14,0,.28-.07.38-.17.05-.04.08-.1.11-.16.04-.1.07-.2.07-.31,0-.06,0-.13-.02-.19,0-.02-.01-.04-.02-.06-.01-.04-.03-.08-.05-.12-.05-.1-.12-.18-.22-.24-.07-.05-.15-.09-.22-.14-.02-.02-.05-.03-.08-.05-.05-.03-.1-.06-.14-.09-.03-.02-.06-.04-.1-.06-.04-.02-.08-.04-.11-.07-.45-.28-.92-.54-1.38-.78.37.8.83,1.54,1.34,2.26.05.04.08.05.12.08h0Z" style="fill: #ff950e;"/>
  </g>
</svg>