<?xml version="1.0" encoding="UTF-8"?>
<svg id="Layer_1" xmlns="http://www.w3.org/2000/svg" version="1.1" xmlns:xlink="http://www.w3.org/1999/xlink" viewBox="0 0 20 20">
  <!-- Generator: Adobe Illustrator 29.3.0, SVG Export Plug-In . SVG Version: 2.1.0 Build 146)  -->
  <defs>
    <linearGradient id="linear-gradient" x1="3.84" y1="13.94" x2="15.2" y2="24.39" gradientTransform="translate(0 -10)" gradientUnits="userSpaceOnUse">
      <stop offset="0" stop-color="#f0efef"/>
      <stop offset=".24" stop-color="#edecec"/>
      <stop offset=".42" stop-color="#e3e3e3"/>
      <stop offset=".51" stop-color="#dbdbdb"/>
      <stop offset=".6" stop-color="#e3e2e2"/>
      <stop offset=".78" stop-color="#edecec"/>
      <stop offset="1" stop-color="#f0efef"/>
    </linearGradient>
    <linearGradient id="linear-gradient1" x1="7.74" y1="18.22" x2="12.71" y2="14.72" gradientTransform="translate(0 -10)" gradientUnits="userSpaceOnUse">
      <stop offset=".6" stop-color="#008fe9"/>
      <stop offset=".96" stop-color="#33baf2"/>
      <stop offset="1" stop-color="#07c1e2"/>
    </linearGradient>
    <linearGradient id="linear-gradient2" x1="9.93" y1="21.33" x2="14.9" y2="17.82" gradientTransform="translate(0 -10)" gradientUnits="userSpaceOnUse">
      <stop offset=".6" stop-color="#008fe9"/>
      <stop offset=".96" stop-color="#33baf2"/>
      <stop offset="1" stop-color="#07c1e2"/>
    </linearGradient>
    <linearGradient id="linear-gradient3" x1="11.06" y1="22.92" x2="16.03" y2="19.41" gradientTransform="translate(0 -10)" gradientUnits="userSpaceOnUse">
      <stop offset=".6" stop-color="#008fe9"/>
      <stop offset=".96" stop-color="#33baf2"/>
      <stop offset="1" stop-color="#07c1e2"/>
    </linearGradient>
  </defs>
  <path d="M7.86,2.42c-.89.17-1.97.41-3.12.76-.92.28-1.55,1.2-1.55,2.25v8.36c0,.68.27,1.34.74,1.77.16.15.37.31.62.49,3.29,2.28,7.63,2.28,10.91,0,.25-.17.47-.34.62-.49.47-.44.74-1.1.74-1.77V5.44c0-1.06-.64-1.97-1.55-2.25-1.15-.35-2.24-.59-3.12-.76-1.41-.26-2.86-.26-4.27,0h0Z" style="fill: url(#linear-gradient);"/>
  <g>
    <path d="M14.73,6.08c-.08-.18-.26-.33-.45-.35h-.1s-.06,0-.1.02c-.27.1-.54.21-.81.33-.18.08-.35.16-.53.25-.96.48-1.86,1.06-2.74,1.65h0c-.07-.05-.14-.09-.22-.14h-.02c-.07-.05-.15-.09-.22-.14h0c-.75-.47-1.53-.91-2.35-1.27,0,0-.02,0-.03-.02-.06-.03-.13-.05-.2-.09-.02,0-.05-.02-.08-.03-.05-.02-.09-.04-.14-.05-.19-.08-.38-.14-.57-.2.05.4.12.78.23,1.17.18.07.35.15.53.23.05.02.09.04.13.06h0c.87.4,1.69.91,2.49,1.43,0,0,.02,0,.02.02.06.04.12.09.19.12.04.02.08.05.12.05s.08.02.12.02c.05,0,.11,0,.16-.03.03-.02.06-.03.09-.05,1.34-.92,2.73-1.8,4.27-2.38.03-.02.06-.02.09-.05.02-.02.05-.04.07-.06.12-.14.14-.34.06-.51h0Z" style="fill: url(#linear-gradient1);"/>
    <path d="M6.18,6.04c-.09-.03-.17-.05-.25-.08-.26-.07-.54.12-.65.36-.1.22-.03.5.22.57.49.15.97.33,1.44.55-.17-.08-.35-.16-.53-.23-.1-.38-.19-.77-.23-1.17Z" style="fill: #44c7f4;"/>
    <path d="M8.8,11.38c-.89.61-1.79,1.19-2.77,1.62-.23.1-.19.4-.09.57.08.14.21.28.37.33.07.02.14.02.21,0,1.34-.56,2.53-1.44,3.71-2.28.91-.64,1.81-1.29,2.75-1.88-1.18.74-2.31,1.57-3.45,2.37-.26-.23-.5-.48-.74-.73h0Z" style="fill: #44c7f4;"/>
    <path d="M10.41,12.81c.09-.06.17-.12.26-.19-.3.22-.59.43-.89.64-.23.16-.26.5-.15.73.06.14.2.27.37.27.08,0,.15-.02.22-.07,1.1-.82,2.18-1.68,3.29-2.49-.75.54-1.47,1.1-2.2,1.66-.31-.16-.62-.34-.91-.55h0Z" style="fill: #44c7f4;"/>
    <path d="M6.43,11.58c.08.05.16.08.23.09.16.02.3-.07.37-.2.12-.23.02-.54-.19-.68-.19-.12-.38-.24-.57-.36-.2-.12-.48-.07-.6.15-.11.23,0,.5.21.62.19.12.37.26.56.39h0Z" style="fill: #00adee;"/>
    <path d="M14.58,8.48s-.02-.06-.02-.09c0-.02-.02-.03-.02-.05-.11-.23-.39-.36-.62-.24-.09.05-.17.09-.26.13,0,0-.02,0-.03.02-1.35.71-2.61,1.58-3.86,2.46-.33.23-.64.45-.97.68.23.26.48.5.74.73,1.14-.8,2.27-1.63,3.45-2.37,0,0,.02,0,.02-.02.07-.04.13-.09.2-.12.03-.02.06-.03.09-.05.06-.03.12-.07.17-.11.04-.02.08-.05.12-.07.05-.03.1-.06.16-.09s.1-.06.16-.09c.05-.02.09-.05.13-.07.09-.05.19-.11.29-.16.02,0,.03-.02.04-.02.16-.1.24-.29.22-.47h0Z" style="fill: url(#linear-gradient2);"/>
    <path d="M14.36,10.64s-.02-.03-.02-.05-.02-.03-.02-.04c-.08-.12-.23-.19-.37-.19-.03,0-.05,0-.09.02-.02,0-.03,0-.05.02-.03,0-.05.02-.08.04-.08.05-.16.11-.24.16-.02.02-.03.02-.05.03-.06.05-.13.09-.2.13-.02,0-.02.02-.04.02-.08.05-.16.1-.23.16h0c-.78.54-1.55,1.11-2.32,1.67-.09.06-.17.12-.26.19.3.2.6.39.91.55.73-.56,1.45-1.12,2.2-1.66.07-.05.13-.09.2-.15.04-.02.07-.05.11-.08.11-.08.21-.15.32-.22.02-.02.05-.04.07-.06.04-.04.08-.09.1-.13.07-.12.1-.28.05-.42h0Z" style="fill: url(#linear-gradient3);"/>
    <path d="M8.04,10.42s-.05-.04-.09-.06c-.4-.55-.75-1.13-1.04-1.76-.27-.14-.54-.27-.82-.4-.23-.1-.51.02-.62.25s0,.49.22.6c.82.4,1.61.87,2.37,1.37h0Z" style="fill: #ffc10e;"/>
    <path d="M8.04,10.42c.08.05.16.08.23.08.11,0,.22-.05.3-.13.04-.03.06-.08.09-.12.03-.08.05-.16.05-.24,0-.05,0-.1-.02-.15,0-.02,0-.03-.02-.05,0-.03-.02-.06-.04-.09-.04-.08-.09-.14-.17-.19-.05-.04-.12-.07-.17-.11-.02-.02-.04-.02-.06-.04-.04-.02-.08-.05-.11-.07-.02-.02-.05-.03-.08-.05s-.06-.03-.09-.05c-.35-.22-.71-.42-1.07-.61.29.62.64,1.2,1.04,1.76.04.03.06.04.09.06h.02Z" style="fill: #ff950e;"/>
  </g>
</svg>