<?xml version="1.0" encoding="UTF-8"?>
<svg id="Layer_1" xmlns="http://www.w3.org/2000/svg" version="1.1" xmlns:xlink="http://www.w3.org/1999/xlink" viewBox="0 0 100 100">
  <!-- Generator: Adobe Illustrator 29.3.0, SVG Export Plug-In . SVG Version: 2.1.0 Build 146)  -->
  <defs>
    <linearGradient id="linear-gradient" x1="10.28" y1="9.04" x2="83.42" y2="76.28" gradientTransform="translate(0 2)" gradientUnits="userSpaceOnUse">
      <stop offset="0" stop-color="#f0efef"/>
      <stop offset=".24" stop-color="#edecec"/>
      <stop offset=".42" stop-color="#e3e3e3"/>
      <stop offset=".51" stop-color="#dbdbdb"/>
      <stop offset=".6" stop-color="#e3e2e2"/>
      <stop offset=".78" stop-color="#edecec"/>
      <stop offset="1" stop-color="#f0efef"/>
    </linearGradient>
    <linearGradient id="linear-gradient1" x1="35.47" y1="36.53" x2="67.43" y2="14" gradientTransform="translate(0 2)" gradientUnits="userSpaceOnUse">
      <stop offset=".6" stop-color="#008fe9"/>
      <stop offset=".96" stop-color="#33baf2"/>
      <stop offset="1" stop-color="#07c1e2"/>
    </linearGradient>
    <linearGradient id="linear-gradient2" x1="49.57" y1="56.53" x2="81.53" y2="33.99" gradientTransform="translate(0 2)" gradientUnits="userSpaceOnUse">
      <stop offset=".6" stop-color="#008fe9"/>
      <stop offset=".96" stop-color="#33baf2"/>
      <stop offset="1" stop-color="#07c1e2"/>
    </linearGradient>
    <linearGradient id="linear-gradient3" x1="56.82" y1="66.81" x2="88.78" y2="44.27" gradientTransform="translate(0 2)" gradientUnits="userSpaceOnUse">
      <stop offset=".6" stop-color="#008fe9"/>
      <stop offset=".96" stop-color="#33baf2"/>
      <stop offset="1" stop-color="#07c1e2"/>
    </linearGradient>
  </defs>
  <path d="M36.24,1.27c-5.7,1.08-12.7,2.64-20.12,4.88-5.9,1.78-9.98,7.72-9.98,14.5v53.8c0,4.4,1.74,8.58,4.74,11.42,1.02.96,2.38,2.02,4,3.14,21.16,14.64,49.08,14.64,70.24,0,1.62-1.12,3-2.18,4-3.14,3.02-2.86,4.74-7.04,4.74-11.42V20.66c0-6.78-4.08-12.72-9.98-14.5-7.4-2.24-14.42-3.8-20.12-4.88-9.08-1.7-18.42-1.7-27.52,0h0Z" style="fill: url(#linear-gradient);"/>
  <g>
    <path d="M80.46,24.77c-.52-1.14-1.66-2.1-2.92-2.26-.2-.02-.42-.04-.64,0-.22.02-.42.06-.64.14-1.76.64-3.5,1.36-5.22,2.14-1.14.52-2.26,1.04-3.38,1.6-6.14,3.08-11.98,6.78-17.66,10.66h0c-.46-.3-.92-.6-1.4-.9-.02-.02-.06-.04-.08-.04-.46-.3-.94-.6-1.42-.9-.02,0-.04-.02-.04-.02-4.86-3.06-9.86-5.86-15.1-8.14-.06-.02-.14-.06-.2-.08-.42-.18-.84-.36-1.28-.54-.16-.06-.34-.14-.5-.2-.3-.12-.6-.24-.88-.34-1.22-.48-2.46-.92-3.72-1.32.3,2.54.8,5.02,1.44,7.5,1.14.46,2.26.96,3.38,1.48.28.14.58.26.86.4h.02c5.58,2.62,10.88,5.84,16.04,9.22.04.02.08.06.12.08.4.26.8.54,1.22.8.24.16.5.28.76.36.26.08.52.12.8.12.34,0,.68-.06,1-.2.2-.08.38-.18.56-.3,8.66-5.92,17.6-11.6,27.48-15.28.2-.08.38-.16.56-.28.16-.12.32-.24.44-.38.76-.88.9-2.2.4-3.32h0Z" style="fill: url(#linear-gradient1);"/>
    <path d="M25.38,24.54c-.54-.18-1.08-.34-1.62-.5-1.7-.46-3.48.78-4.2,2.28-.66,1.42-.2,3.2,1.42,3.66,3.16.96,6.24,2.16,9.24,3.54-1.12-.52-2.24-1.02-3.38-1.48-.66-2.46-1.18-4.96-1.46-7.5Z" style="fill: #44c7f4;"/>
    <path d="M42.24,58.92c-5.68,3.92-11.52,7.64-17.84,10.42-1.48.64-1.22,2.58-.58,3.72.52.9,1.36,1.82,2.42,2.12.46.14.92.14,1.34-.02,8.62-3.62,16.32-9.28,23.9-14.66,5.84-4.14,11.66-8.3,17.72-12.1-7.62,4.74-14.84,10.12-22.2,15.24-1.66-1.52-3.24-3.08-4.76-4.72h0Z" style="fill: #44c7f4;"/>
    <path d="M52.58,68.08c.56-.4,1.12-.82,1.68-1.24-1.9,1.38-3.78,2.76-5.7,4.1-1.44,1.04-1.66,3.18-.94,4.68.42.88,1.32,1.76,2.38,1.76.48.02.96-.14,1.42-.46,7.12-5.26,14-10.8,21.16-15.98-4.78,3.46-9.46,7.08-14.14,10.68-2.02-1.04-3.98-2.22-5.86-3.54h0Z" style="fill: #44c7f4;"/>
    <path d="M27,60.22c.48.34.98.52,1.48.56.98.1,1.9-.44,2.34-1.32.74-1.5.14-3.44-1.24-4.36-1.22-.8-2.44-1.56-3.66-2.32-1.3-.8-3.12-.46-3.84.94-.72,1.44.06,3.18,1.34,4.02,1.2.82,2.4,1.64,3.58,2.48h0Z" style="fill: #00adee;"/>
    <path d="M79.46,40.21c-.02-.2-.08-.42-.14-.62-.04-.1-.08-.2-.12-.28-.68-1.48-2.5-2.32-4.02-1.56-.56.28-1.1.56-1.64.84-.06.04-.14.06-.2.1-8.72,4.56-16.78,10.22-24.84,15.84-2.08,1.46-4.16,2.92-6.26,4.36,1.52,1.64,3.1,3.22,4.76,4.72,7.36-5.14,14.58-10.5,22.2-15.24.04-.04.1-.06.14-.1.44-.26.86-.54,1.3-.8.18-.12.38-.22.56-.34.38-.22.76-.46,1.12-.68.26-.16.52-.3.78-.46.34-.2.66-.38,1-.58.34-.18.66-.38,1-.56.28-.16.56-.32.84-.46.62-.34,1.24-.68,1.86-1,.1-.04.18-.1.26-.16,1.04-.64,1.56-1.84,1.4-3.02Z" style="fill: url(#linear-gradient2);"/>
    <path d="M78.06,54.15c-.04-.1-.08-.2-.12-.28-.04-.1-.1-.18-.14-.26-.52-.82-1.44-1.24-2.36-1.18-.18.02-.36.04-.56.08-.1.02-.18.06-.28.08-.18.06-.36.16-.52.26-.52.34-1.04.68-1.56,1.02-.1.08-.22.14-.32.22-.42.28-.86.56-1.28.86-.08.06-.16.12-.26.16-.5.34-.98.66-1.46,1h0c-5.06,3.46-9.98,7.14-14.94,10.74-.56.42-1.12.82-1.68,1.24,1.88,1.3,3.84,2.48,5.86,3.56,4.68-3.6,9.36-7.22,14.14-10.68.44-.32.86-.62,1.3-.94.24-.16.46-.32.7-.5.68-.48,1.36-.96,2.04-1.42.16-.12.32-.24.46-.38.26-.26.48-.54.66-.86.46-.82.64-1.82.32-2.72h0Z" style="fill: url(#linear-gradient3);"/>
    <path d="M37.42,52.68c-.24-.16-.36-.24-.62-.4-2.56-3.56-4.84-7.3-6.68-11.28-1.74-.9-3.5-1.76-5.3-2.58-1.52-.66-3.32.16-4.02,1.6s-.06,3.16,1.38,3.84c5.32,2.56,10.34,5.58,15.24,8.82h0Z" style="fill: #ffc10e;"/>
    <path d="M37.42,52.68c.48.32,1,.48,1.52.48.72-.02,1.42-.34,1.92-.84.24-.22.42-.5.56-.78.22-.48.34-1.02.36-1.56,0-.32-.02-.64-.1-.96-.02-.1-.06-.2-.08-.32-.06-.2-.14-.4-.24-.6-.24-.48-.6-.88-1.08-1.18-.36-.24-.74-.46-1.1-.7-.12-.08-.26-.16-.38-.24-.24-.16-.48-.3-.72-.44-.16-.1-.32-.2-.48-.3-.18-.12-.38-.22-.56-.34-2.26-1.38-4.58-2.68-6.92-3.92,1.86,3.98,4.14,7.72,6.68,11.28.26.18.38.26.62.42h0Z" style="fill: #ff950e;"/>
  </g>
</svg>