<?xml version="1.0" encoding="UTF-8"?>
<svg id="Layer_1" xmlns="http://www.w3.org/2000/svg" version="1.1" xmlns:xlink="http://www.w3.org/1999/xlink" viewBox="0 0 32 32">
  <!-- Generator: Adobe Illustrator 29.3.0, SVG Export Plug-In . SVG Version: 2.1.0 Build 146)  -->
  <defs>
    <linearGradient id="linear-gradient" x1="3.29" y1="30.468" x2="26.696" y2="8.949" gradientTransform="translate(0 34) scale(1 -1)" gradientUnits="userSpaceOnUse">
      <stop offset="0" stop-color="#f0efef"/>
      <stop offset=".24" stop-color="#edecec"/>
      <stop offset=".42" stop-color="#e3e3e3"/>
      <stop offset=".513" stop-color="#dbdbdb"/>
      <stop offset=".597" stop-color="#e3e2e2"/>
      <stop offset=".779" stop-color="#edecec"/>
      <stop offset="1" stop-color="#f0efef"/>
    </linearGradient>
    <linearGradient id="linear-gradient1" x1="11.351" y1="21.669" x2="21.577" y2="28.88" gradientTransform="translate(0 34) scale(1 -1)" gradientUnits="userSpaceOnUse">
      <stop offset=".601" stop-color="#008fe9"/>
      <stop offset=".964" stop-color="#33baf2"/>
      <stop offset="1" stop-color="#07c1e2"/>
    </linearGradient>
    <linearGradient id="linear-gradient2" x1="15.864" y1="15.27" x2="26.089" y2="22.482" xlink:href="#linear-gradient1"/>
    <linearGradient id="linear-gradient3" x1="18.183" y1="11.981" x2="28.409" y2="19.193" xlink:href="#linear-gradient1"/>
  </defs>
  <path d="M11.597.408c-1.824.346-4.064.845-6.439,1.562-1.888.57-3.194,2.471-3.194,4.64v17.217c0,1.408.557,2.746,1.517,3.655.326.307.762.646,1.28,1.005,6.772,4.685,15.706,4.685,22.478,0,.518-.358.96-.698,1.28-1.005.966-.915,1.517-2.253,1.517-3.655V6.61c0-2.17-1.306-4.071-3.194-4.64-2.368-.717-4.615-1.216-6.439-1.562-2.906-.544-5.895-.544-8.807,0Z" fill="url(#linear-gradient)"/>
  <g>
    <path d="M25.748,7.928c-.166-.365-.531-.672-.934-.723-.064-.006-.134-.013-.205,0-.07.006-.134.019-.205.045-.563.205-1.12.435-1.67.685-.365.166-.723.333-1.082.512-1.965.986-3.834,2.17-5.651,3.411h0c-.147-.096-.294-.192-.448-.288-.006-.006-.019-.013-.026-.013-.147-.096-.301-.192-.454-.288-.006,0-.013-.006-.013-.006-1.555-.979-3.155-1.875-4.832-2.605-.019-.006-.045-.019-.064-.026-.134-.058-.269-.115-.41-.173-.051-.019-.109-.045-.16-.064-.096-.038-.192-.077-.282-.109-.39-.154-.787-.294-1.19-.422.096.813.256,1.606.461,2.4.365.147.723.307,1.082.474.09.045.186.083.275.128h.006c1.786.838,3.482,1.869,5.133,2.951.013.006.026.019.038.026.128.083.256.173.39.256.077.051.16.09.243.115.083.026.166.038.256.038.109,0,.218-.019.32-.064.064-.026.122-.058.179-.096,2.771-1.894,5.632-3.712,8.794-4.89.064-.026.122-.051.179-.09.051-.038.102-.077.141-.122.243-.282.288-.704.128-1.062Z" fill="url(#linear-gradient1)"/>
    <path d="M8.121,7.852c-.173-.058-.346-.109-.518-.16-.544-.147-1.114.25-1.344.73-.211.454-.064,1.024.454,1.171,1.011.307,1.997.691,2.957,1.133-.358-.166-.717-.326-1.082-.474-.211-.787-.378-1.587-.467-2.4Z" fill="#44c7f4"/>
    <path d="M13.517,18.854c-1.818,1.254-3.687,2.445-5.709,3.335-.474.205-.39.826-.186,1.19.166.288.435.582.774.678.147.045.294.045.429-.006,2.759-1.158,5.223-2.97,7.648-4.691,1.869-1.325,3.731-2.656,5.671-3.872-2.439,1.517-4.749,3.239-7.104,4.877-.531-.486-1.037-.986-1.523-1.51Z" fill="#44c7f4"/>
    <path d="M16.826,21.785c.179-.128.358-.262.538-.397-.608.442-1.21.883-1.824,1.312-.461.333-.531,1.018-.301,1.498.134.282.422.563.762.563.154.006.307-.045.454-.147,2.279-1.683,4.48-3.456,6.772-5.114-1.53,1.107-3.027,2.266-4.525,3.418-.646-.333-1.274-.71-1.875-1.133Z" fill="#44c7f4"/>
    <path d="M8.64,19.27c.154.109.314.166.474.179.314.032.608-.141.749-.422.237-.48.045-1.101-.397-1.395-.39-.256-.781-.499-1.171-.742-.416-.256-.998-.147-1.229.301-.23.461.019,1.018.429,1.286.384.262.768.525,1.146.794Z" fill="#00adee"/>
    <path d="M25.428,12.869c-.006-.064-.026-.134-.045-.198-.013-.032-.026-.064-.038-.09-.218-.474-.8-.742-1.286-.499-.179.09-.352.179-.525.269-.019.013-.045.019-.064.032-2.791,1.459-5.37,3.271-7.949,5.069-.666.467-1.331.934-2.003,1.395.486.525.992,1.03,1.523,1.51,2.355-1.645,4.666-3.36,7.104-4.877.013-.013.032-.019.045-.032.141-.083.275-.173.416-.256.058-.038.122-.07.179-.109.122-.07.243-.147.358-.218.083-.051.166-.096.25-.147.109-.064.211-.122.32-.186.109-.058.211-.122.32-.179.09-.051.179-.102.269-.147.198-.109.397-.218.595-.32.032-.013.058-.032.083-.051.333-.205.499-.589.448-.966Z" fill="url(#linear-gradient2)"/>
    <path d="M24.98,17.33c-.013-.032-.026-.064-.038-.09-.013-.032-.032-.058-.045-.083-.166-.262-.461-.397-.755-.378-.058.006-.115.013-.179.026-.032.006-.058.019-.09.026-.058.019-.115.051-.166.083-.166.109-.333.218-.499.326-.032.026-.07.045-.102.07-.134.09-.275.179-.41.275-.026.019-.051.038-.083.051-.16.109-.314.211-.467.32h0c-1.619,1.107-3.194,2.285-4.781,3.437-.179.134-.358.262-.538.397.602.416,1.229.794,1.875,1.139,1.498-1.152,2.995-2.311,4.525-3.418.141-.102.275-.198.416-.301.077-.051.147-.102.224-.16.218-.154.435-.307.653-.454.051-.038.102-.077.147-.122.083-.083.154-.173.211-.275.147-.262.205-.582.102-.87Z" fill="url(#linear-gradient3)"/>
    <path d="M11.974,16.857c-.077-.051-.115-.077-.198-.128-.819-1.139-1.549-2.336-2.138-3.61-.557-.288-1.12-.563-1.696-.826-.486-.211-1.062.051-1.286.512s-.019,1.011.442,1.229c1.702.819,3.309,1.786,4.877,2.823Z" fill="#ffc10e"/>
    <path d="M11.974,16.857c.154.102.32.154.486.154.23-.006.454-.109.614-.269.077-.07.134-.16.179-.25.07-.154.109-.326.115-.499,0-.102-.006-.205-.032-.307-.006-.032-.019-.064-.026-.102-.019-.064-.045-.128-.077-.192-.077-.154-.192-.282-.346-.378-.115-.077-.237-.147-.352-.224-.038-.026-.083-.051-.122-.077-.077-.051-.154-.096-.23-.141-.051-.032-.102-.064-.154-.096-.058-.038-.122-.07-.179-.109-.723-.442-1.466-.858-2.215-1.254.595,1.274,1.325,2.471,2.138,3.61.083.058.122.083.198.134Z" fill="#ff950e"/>
  </g>
</svg>